<?xml version="1.0" encoding="UTF-8"?>
<svg width="151px" height="133px" viewBox="0 0 151 133" version="1.1" xmlns="http://www.w3.org/2000/svg" xmlns:xlink="http://www.w3.org/1999/xlink">
    <!-- Generator: Sketch 57.1 (83088) - https://sketch.com -->
    <title>Group 29</title>
    <desc>Created with Sketch.</desc>
    <defs>
        <polygon id="path-1" points="0 0.301917076 6.3278356 0.301917076 6.3278356 6.76577227 0 6.76577227"></polygon>
    </defs>
    <g id="Page-1" stroke="none" stroke-width="1" fill="none" fill-rule="evenodd" opacity="0.049999997">
        <g id="Fizmatik-Home-screen" transform="translate(-1159.000000, -927.000000)">
            <g id="Group-29" transform="translate(1159.000000, 927.000000)">
                <path d="M59.4213762,45.9976536 C57.2150984,45.3121 56.5128286,43.7734929 56.740527,41.8328857 C56.9622333,39.9532964 57.7304159,38.1060107 60.1595984,38.3106 C62.6487016,38.5223679 62.9447095,40.4665643 62.6271302,42.3461536 C62.3347175,44.080975 62.1429714,46.0167964 59.4213762,45.9976536" id="Fill-1" fill="#332C2B"></path>
                <path d="M115.153439,47.5207071 C117.545471,47.7946893 118.534161,49.0521357 118.095542,51.1973321 C117.730026,52.9680464 117.277026,55.0139393 114.910161,55.1036714 C111.957272,55.2149393 111.380836,53.159475 111.534233,50.9054036 C111.678042,48.84635 112.791367,47.6032607 115.153439,47.5207071" id="Fill-3" fill="#332C2B"></path>
                <path d="M110.043767,81.1806696 C109.729783,83.2768125 108.76506,85.1252946 106.118965,85.1336696 C104.050505,85.1456339 102.330783,83.9121161 102.158211,81.9380089 C101.942497,79.5104554 103.897108,78.1776339 106.188473,77.9275804 C108.351608,77.6918839 109.650687,79.0869196 110.043767,81.1806696" id="Fill-9" fill="#332C2B"></path>
                <path d="M45.0649913,6.2485875 C44.7749754,8.0743375 44.0906817,9.81394464 41.7813405,9.75412321 C39.2466976,9.68951607 38.1717214,7.88889107 37.7762452,5.79274821 C37.3639913,3.61285536 38.5995548,2.47864107 40.8345944,2.43437321 C43.5346183,2.37814107 44.2992056,4.35703393 45.0649913,6.2485875" id="Fill-11" fill="#332C2B"></path>
                <path d="M137.696181,67.6391321 C136.699102,69.84415 135.92253,72.4296321 132.72876,72.8998286 C131.200784,73.1283464 129.848975,71.8577393 130.050308,70.6170429 C130.467356,68.0459179 131.899459,65.7439893 134.914665,65.1266321 C136.516943,64.7976143 137.099371,66.3134893 137.696181,67.6391321" id="Fill-13" fill="#332C2B"></path>
                <path d="M84.7039294,76.1006339 C84.31085,78.4276875 82.6043103,79.7186339 80.3153421,79.9387768 C78.2528738,80.1385804 76.5091833,79.0893125 76.4157071,76.9465089 C76.3102468,74.4052946 78.4398262,73.3644018 80.6508976,73.1334911 C82.6798103,72.9169375 84.2988659,73.9985089 84.7039294,76.1006339" id="Fill-15" fill="#332C2B"></path>
                <path d="M89.0938349,42.4363643 C86.2763667,41.8596857 86.2847556,39.8293464 86.3255016,37.8169536 C86.367446,35.8105429 87.2279063,34.3245786 89.6990333,34.8318643 C91.6296762,35.2290786 93.3673746,36.4338821 92.9275571,38.4379 C92.5332794,40.2349357 92.0862714,42.516525 89.0938349,42.4363643" id="Fill-17" fill="#332C2B"></path>
                <path d="M134.349134,103.452546 C131.80011,103.410671 131.131396,102.026404 131.109825,100.011618 C131.078666,98.0674214 131.633531,96.3266179 133.867372,96.04785 C135.980174,95.7822429 137.66634,96.9547429 137.759817,99.0161893 C137.85569,101.149421 136.76034,102.829207 134.349134,103.452546" id="Fill-19" fill="#332C2B"></path>
                <path d="M132.787842,124.994123 C135.263763,125.81607 136.03554,127.443213 135.74912,129.282123 C135.413564,131.402195 134.273874,133.21598 131.42285,132.804409 C129.271699,132.492141 129.121898,130.95832 129.396334,129.334766 C129.746271,127.279302 130.376636,125.417659 132.787842,124.994123" id="Fill-23" fill="#332C2B"></path>
                <path d="M103.255957,48.5482 C100.468449,48.3519857 98.2226238,47.96195 97.8607032,45.5140571 C97.5491159,43.3892 99.0519254,42.2322536 101.279775,42.4308607 C103.375798,42.6187 105.795394,42.8878964 106.224425,45.3932179 C106.627092,47.7633429 104.573013,48.1127 103.255957,48.5482" id="Fill-27" fill="#332C2B"></path>
                <path d="M28.32005,67.3061661 C27.8167167,68.9213446 27.8334944,71.2352375 25.3168278,71.0521839 C22.7498278,70.8679339 22.224923,68.4930232 21.716796,66.5930946 C21.2590024,64.8666482 22.3627405,63.4093982 24.1351929,63.3256482 C26.8124468,63.2036125 27.5027325,65.4193982 28.32005,67.3061661" id="Fill-29" fill="#332C2B"></path>
                <path d="M80.9928048,11.5056946 C78.7985111,11.3142661 78.1501698,10.0711768 78.2017016,8.37703393 C78.2628206,6.50940893 78.7709476,4.68844464 81.0455349,4.32951607 C82.9318365,4.03519464 84.2932333,5.26990893 84.3687333,6.93055179 C84.4634079,9.09010536 83.2530111,10.7423732 80.9928048,11.5056946" id="Fill-31" fill="#332C2B"></path>
                <path d="M65.0003468,25.1659179 C64.8433548,27.1041321 64.414323,29.07465 62.2224262,29.3617929 C59.7824579,29.6812393 58.862077,27.8112214 58.9711325,25.9160786 C59.0694024,24.1357929 59.7848548,22.2131321 62.1936643,22.1832214 C64.1231087,22.1580964 64.8301722,23.6404714 65.0003468,25.1659179" id="Fill-33" fill="#332C2B"></path>
                <path d="M74.3184849,16.9947893 C73.9577627,18.6566286 74.0272706,20.7635393 71.5213897,20.9310393 C68.3851437,21.1416107 68.3384056,18.8181464 68.2341437,16.8213071 C68.139469,14.9201821 68.7686357,13.1698071 71.208604,13.2176643 C73.6353897,13.264325 73.9230087,15.2563786 74.3184849,16.9947893" id="Fill-37" fill="#332C2B"></path>
                <path d="M110.754186,60.3448661 C113.65794,61.1165625 114.547162,62.8765089 114.441702,65.0288839 C114.372194,66.6069732 113.442225,68.1611339 111.507987,68.0187589 C108.655765,67.8057946 108.447241,65.5242054 108.299837,63.5082232 C108.174003,61.7662232 109.374813,60.8629196 110.754186,60.3448661" id="Fill-41" fill="#332C2B"></path>
                <path d="M53.6716317,65.99165 C53.5194333,67.5613643 53.2102429,69.3033643 51.1933143,69.4218107 C48.547219,69.5833286 47.1318937,67.9107214 47.1546635,65.6303286 C47.1606556,64.1108643 48.0271079,62.5315786 50.0488302,62.5339687 C52.3605683,62.54115 53.3312825,64.0665964 53.6716317,65.99165" id="Fill-43" fill="#332C2B"></path>
                <path d="M42.5301087,19.8853607 C41.758331,21.6764143 41.9165214,24.2511286 38.6304738,23.7199143 C36.7861167,23.4232 35.7542833,22.3320571 36.0251246,20.5697179 C36.3355135,18.6063786 37.7088944,17.4302893 39.8432675,17.2603964 C41.8625929,17.0988786 42.9183944,17.9603071 42.5301087,19.8853607" id="Fill-45" fill="#332C2B"></path>
                <path d="M131.368322,50.9335196 C131.266457,53.8886982 129.309449,55.1413589 127.18706,55.3806446 C125.46614,55.5804482 124.443894,53.9497161 124.618862,52.2412161 C124.802219,50.4705018 125.085044,48.4987875 127.457902,48.1805375 C129.895473,47.8586982 130.47191,49.8698946 131.368322,50.9335196" id="Fill-47" fill="#332C2B"></path>
                <path d="M54.0062286,33.4292911 C54.1512365,35.6761839 52.3416333,36.7960411 50.197673,37.4839875 C48.5438635,38.0211839 47.1860619,36.7924518 47.369419,35.6259339 C47.6953873,33.5106482 47.9302762,30.7815946 50.8651889,30.2539696 C52.7395063,29.9165768 53.6323238,31.5508982 54.0062286,33.4292911" id="Fill-49" fill="#332C2B"></path>
                <path d="M143.037626,118.031627 C142.335356,119.481698 142.050134,121.559895 139.69765,121.532377 C137.019198,121.492895 137.366737,119.155073 137.074325,117.626038 C136.699221,115.654323 137.781388,114.01402 140.073952,114.192288 C142.155594,114.353805 143.022047,116.025216 143.037626,118.031627" id="Fill-65" fill="#332C2B"></path>
                <path d="M13.0870262,38.0672464 C13.0750421,39.8032643 12.0923437,41.1193357 10.3690262,41.4280143 C7.91947063,41.8718893 7.02905,40.0868179 6.71266905,38.3029429 C6.37471667,36.4054071 7.84397063,35.5703 9.63679603,35.4662107 C11.5230976,35.3573357 12.6867563,36.35755 13.0870262,38.0672464" id="Fill-73" fill="#332C2B"></path>
                <path d="M71.1831976,40.1458018 C69.6708008,39.8251589 68.5442929,38.9517661 68.7060786,37.6344982 C68.974523,35.3804268 70.7122214,34.2055339 73.1198325,34.0727304 C74.7796341,33.9877839 75.6892294,35.0705518 75.5154595,36.4237125 C75.2278405,38.6825696 73.5201024,39.8215696 71.1831976,40.1458018" id="Fill-75" fill="#332C2B"></path>
                <path d="M117.270555,39.0504714 C114.950428,38.42115 114.62446,36.7413643 114.801825,34.9658643 C114.987579,33.2154893 116.208761,32.2762929 118.119031,32.7895607 C119.685356,33.2047214 121.136634,34.1929714 121.04196,35.8440429 C120.923317,37.8552393 119.124499,38.5910429 117.270555,39.0504714" id="Fill-77" fill="#332C2B"></path>
                <path d="M107.487792,19.8245821 C109.922967,20.6967786 112.220324,21.7939036 112.195157,24.4260464 C112.181975,25.69785 110.520975,26.7327607 109.175157,26.1776179 C107.237324,25.3772071 105.355816,24.0407964 104.962737,21.9637964 C104.683506,20.5292786 106.053292,19.9238857 107.487792,19.8245821" id="Fill-83" fill="#332C2B"></path>
                <path d="M69.7542103,71.9989179 C69.7889643,71.6842571 68.8014722,73.0541679 66.6994563,73.3903643 C65.2218135,73.62965 63.7693373,72.7718107 63.7621468,71.5562393 C63.7501627,69.4971857 64.8838611,67.6271679 67.4316865,67.4704357 C68.7331627,67.3866857 69.9627341,68.2086321 69.7542103,71.9989179" id="Fill-85" fill="#332C2B"></path>
                <path d="M50.8347492,15.4163411 C52.7917571,15.3960018 53.8739238,16.4632161 54.2813841,18.0472875 C54.8470349,20.2116268 53.377781,21.4200196 51.3944079,21.8363768 C49.492527,22.2335911 48.3204794,21.0503232 48.0700111,19.3765196 C47.7871857,17.4227518 48.6069,15.9655018 50.8347492,15.4163411" id="Fill-87" fill="#332C2B"></path>
                <path d="M123.576243,77.229225 C122.95187,79.4019393 121.681552,80.6330643 119.529203,80.4248857 C117.833449,80.2573857 116.473251,79.13035 116.629044,77.4780821 C116.801616,75.6738679 117.922132,74.1209036 120.155973,74.0754393 C122.5516,74.0192071 123.074108,75.7779571 123.576243,77.229225" id="Fill-89" fill="#332C2B"></path>
                <path d="M33.2213183,79.9294446 C32.7958817,81.9717482 31.7844214,83.2686768 29.95085,83.2770518 C27.4305881,83.2914089 26.7139373,81.6726411 27.2927706,79.6566589 C27.6810563,78.2963196 27.7110167,76.3078554 29.9604373,76.4466411 C32.3716437,76.5949982 32.634096,78.6121768 33.2213183,79.9294446" id="Fill-91" fill="#332C2B"></path>
                <path d="M58.6689428,77.9139411 C58.6784802,79.7432804 57.3062976,80.9301375 55.7783214,81.2579589 C53.4749722,81.7437089 52.147131,80.1464768 51.8834802,78.2393696 C51.6306151,76.3681554 53.1609881,75.5809054 54.9921627,75.5115125 C56.8125516,75.4469054 58.1679563,76.1779232 58.6689428,77.9139411" id="Fill-93" fill="#332C2B"></path>
                <path d="M68.4949183,89.3945107 C66.1280532,88.7951 65.5624024,87.0351536 65.5827754,85.3350286 C65.6043468,83.4530464 66.7512278,81.7481357 69.1144976,82.2063679 C70.7179738,82.5162429 71.888823,84.0093857 71.5592595,85.6580643 C71.2332913,87.2744393 70.8653786,89.1576179 68.4949183,89.3945107" id="Fill-97" fill="#332C2B"></path>
                <path d="M113.213089,4.249475 C112.873938,6.14581429 112.005089,7.331475 109.910263,6.75718929 C108.004787,6.23195714 106.250311,5.18149286 106.446851,3.12842143 C106.601446,1.53956429 107.876557,0.410135714 109.863525,0.685314286 C112.136914,0.999975 112.836787,2.61036786 113.213089,4.249475" id="Fill-99" fill="#332C2B"></path>
                <path d="M19.8808278,93.8460625 C19.8304944,96.0630446 18.8513913,97.3599732 17.0873278,97.4939732 C14.1476214,97.7165089 13.7102008,95.1812768 13.2380262,93.4452589 C12.7826294,91.7846161 14.2998198,90.7796161 16.2232722,90.8585804 C18.5997246,90.9471161 19.1581849,92.7166339 19.8808278,93.8460625" id="Fill-101" fill="#332C2B"></path>
                <path d="M108.873517,91.8498214 C111.484858,92.2984821 112.883406,93.4853393 112.914564,95.4175714 C112.939731,97.2457143 111.924675,99.1001786 109.67166,98.8812321 C107.33835,98.6551071 106.052453,96.9848929 106.22862,94.6650179 C106.370033,92.8883214 107.699072,92.2386607 108.873517,91.8498214" id="Fill-103" fill="#332C2B"></path>
                <path d="M97.1983405,100.661279 C94.5234833,100.862279 94.1783405,98.8056179 93.4976421,97.2646179 C92.6695389,95.4053679 94.0009754,94.0689571 95.7254913,94.1431357 C97.6201817,94.2209036 99.366269,95.4053679 99.8396421,97.3663143 C100.307023,99.2937607 98.7239198,100.002046 97.1983405,100.661279" id="Fill-105" fill="#332C2B"></path>
                <path d="M89.2401611,113.465577 C87.346669,113.19638 86.1566452,112.244023 86.5437325,110.429041 C86.9176373,108.691827 87.567177,106.750023 90.0047484,106.811041 C91.8143516,106.855309 93.1517802,108.093613 92.9408595,109.814077 C92.7047722,111.678113 91.3697405,112.997773 89.2401611,113.465577" id="Fill-107" fill="#332C2B"></path>
                <path d="M72.7033841,111.20648 C73.1060508,109.45132 73.6237651,107.547802 76.0781143,107.757177 C77.962019,107.911516 78.6954476,109.378337 78.4377889,111.084445 C78.1729397,112.875498 77.619273,115.043427 75.5004794,115.098462 C73.2894079,115.15948 72.6398683,113.145891 72.7033841,111.20648" id="Fill-109" fill="#332C2B"></path>
                <path d="M79.8528746,61.4022696 C79.5796365,63.1490554 79.4202476,65.0441982 76.799319,65.0824839 C74.6493667,65.1100018 74.1688032,63.5211446 74.0046206,62.0423589 C73.7877079,60.1280732 74.4012952,58.4614482 76.9551127,58.4805911 C78.9181127,58.4889661 79.8301048,59.6279661 79.8528746,61.4022696" id="Fill-123" fill="#332C2B"></path>
                <path d="M32.9848714,55.4282625 C32.228673,57.5734589 31.3490381,59.5379946 28.6933556,59.6229411 C27.190546,59.6719946 25.9945302,58.6669946 26.229419,57.1965839 C26.5565857,55.1662446 27.4434111,53.1299232 29.984046,52.8356018 C31.8008397,52.6226375 33.0459905,53.6611375 32.9848714,55.4282625" id="Fill-125" fill="#332C2B"></path>
                <path d="M80.4942651,53.6506089 C78.2879873,52.9124125 77.9344556,51.3522696 78.1393841,49.4320018 C78.3443127,47.4483232 79.0657571,45.8486982 81.5237016,46.1442161 C83.9325111,46.4325554 84.3974952,48.1015732 83.9361063,50.0864482 C83.5154635,51.8870732 82.9090667,53.5118232 80.4942651,53.6506089" id="Fill-127" fill="#332C2B"></path>
                <path d="M41.3995262,43.4791714 C41.3803516,45.5154929 39.9218833,46.5181 37.9301214,47.0134214 C35.87005,47.5219036 34.833423,46.7059393 34.833423,44.7485821 C34.8322246,42.9443679 34.7615183,40.9523143 37.2398357,40.5574929 C39.432931,40.2057429 40.8566452,41.3626893 41.3995262,43.4791714" id="Fill-131" fill="#332C2B"></path>
                <path d="M124.972513,24.1733607 C124.641752,25.7466643 123.946672,27.3486821 122.057974,27.3773964 C119.467006,27.4168786 119.139839,25.3530393 119.073926,23.5595929 C119.005617,21.7505929 120.220807,20.6462893 122.18141,20.9118964 C124.007791,21.16195 124.942553,22.4313607 124.972513,24.1733607" id="Fill-133" fill="#332C2B"></path>
                <path d="M10.1191571,28.3736625 C8.24723651,28.4478411 7.36520476,27.3399482 7.31726825,26.0777161 C7.25495079,24.3165732 7.71993492,22.3640018 9.93939524,21.8591089 C11.9071889,21.4152339 13.2302365,22.6798589 13.0900222,24.3859661 C12.9546016,26.0920732 12.3601889,27.9297875 10.1191571,28.3736625" id="Fill-137" fill="#332C2B"></path>
                <path d="M53.9899302,84.5111679 C55.6820889,84.4513464 56.9871603,84.9598286 56.8313667,86.5175786 C56.6623905,88.3086321 55.6137794,90.0566143 53.6951206,90.488525 C51.8831206,90.9000964 50.4725889,89.5469357 50.4174619,87.9114179 C50.3455571,85.8224536 52.2510333,85.0543464 53.9899302,84.5111679" id="Fill-147" fill="#332C2B"></path>
                <path d="M132.521075,86.9134768 C130.492163,86.5138696 129.279369,85.3952089 129.545417,83.3014589 C129.740758,81.7532804 130.290829,80.2314232 132.425202,80.4754946 C134.60871,80.7255482 135.723234,82.2521911 135.718456,84.1269946 C135.714845,85.7469589 134.60871,86.8572446 132.521075,86.9134768" id="Fill-151" fill="#332C2B"></path>
                <path d="M87.5056984,118.718137 C89.9468651,119.002887 90.4430079,120.523548 90.4274286,122.461762 C90.408254,124.288709 90.3507302,126.347762 87.7405873,126.137191 C85.6805159,125.97328 84.6810397,123.976441 84.3107302,122.324173 C83.860127,120.289048 85.4156667,119.160816 87.5056984,118.718137" id="Fill-155" fill="#332C2B"></path>
                <path d="M129.257079,43.9752107 C127.464253,43.5325321 126.361713,42.5406929 126.709253,40.7974964 C127.062785,39.0411393 127.865721,37.2644429 130.273333,37.6042286 C131.952309,37.8411214 133.07642,39.1320679 132.993729,40.7927107 C132.897856,42.8804786 131.210491,43.6210679 129.257079,43.9752107" id="Fill-157" fill="#332C2B"></path>
                <path d="M6.57772778,16.1599214 C6.29610079,18.3254571 5.1360373,19.324475 3.2952754,19.3615643 C1.35145,19.4034393 0.248910317,18.1914571 0.192584921,16.5236357 C0.141053175,14.9395643 0.958370635,13.2502071 2.74400556,13.1209929 C5.00061667,12.9570821 5.77479127,14.8988857 6.57772778,16.1599214" id="Fill-165" fill="#332C2B"></path>
                <path d="M131.444421,113.34055 C131.346152,115.203389 130.663056,116.860443 128.340533,117.0088 C126.415882,117.129639 125.248628,115.932014 125.545834,114.168479 C125.827461,112.476729 126.196572,110.428443 128.618564,110.262139 C130.681033,110.122157 131.184366,111.713407 131.444421,113.34055" id="Fill-169" fill="#332C2B"></path>
                <path d="M101.596395,14.7251643 C101.626356,16.2829143 101.658713,17.9387714 99.4033,18.138575 C97.4978238,18.31445 96.2826333,17.5080571 96.3880937,15.5471107 C96.4827683,13.7273429 96.6433556,11.6838429 99.1108873,11.5271107 C101.193729,11.3919143 101.658713,13.0561464 101.596395,14.7251643" id="Fill-171" fill="#332C2B"></path>
                <g id="Group-175" transform="translate(0.000000, 0.503696)">
                    <mask id="mask-2" fill="white">
                        <use xlink:href="#path-1"></use>
                    </mask>
                    <g id="Clip-174"></g>
                    <path d="M0.283664286,1.75013571 C0.725878571,1.29070714 1.17408492,0.831278571 1.62109286,0.373046429 C4.63030714,-0.00861428571 6.52379921,1.13876071 6.31168016,3.981475 C6.20502143,5.44231429 4.8436246,6.88161786 3.02323571,6.75838571 C-0.616343651,6.50354643 -0.133383333,4.04368929 0.283664286,1.75013571" id="Fill-173" fill="#332C2B" mask="url(#mask-2)"></path>
                </g>
                <path d="M67.00625,110.74442 C67.1884087,112.929098 66.593996,114.400705 64.5087579,114.092027 C61.8818373,113.70558 61.5450833,111.487402 61.3569325,109.513295 C61.19275,107.811973 62.2377659,106.33558 64.0713373,106.615545 C66.6359405,106.999598 67.1117103,109.101723 67.00625,110.74442" id="Fill-180" fill="#332C2B"></path>
                <path d="M119.742281,108.633202 C119.6524,110.41588 118.866241,111.576416 116.71509,111.174416 C114.879122,110.829845 113.952749,109.540095 113.969527,107.921327 C113.985106,106.319309 114.773662,104.836934 116.796583,104.89197 C119.298868,104.95897 119.699138,106.750023 119.742281,108.633202" id="Fill-182" fill="#332C2B"></path>
                <path d="M53.4035468,49.9496964 C53.4490865,51.5995714 52.6173881,52.6751607 51.13615,52.7900179 C48.9574357,52.9539286 47.4582214,51.6510179 46.9381103,49.8503929 C46.4227929,48.0713036 47.8524992,46.8006964 49.5614357,46.8114643 C51.5903484,46.8306071 52.9864992,48.1706071 53.4035468,49.9496964" id="Fill-184" fill="#332C2B"></path>
                <path d="M21.8189008,46.2436393 C21.590004,48.8793714 20.5953214,49.9047107 18.6886468,49.7898536 C16.7975516,49.6726036 15.8532024,48.4893357 16.04375,46.8047643 C16.209131,45.3307643 16.7076706,43.5373179 18.7977024,44.0434071 C20.1303373,44.3592643 21.1549802,45.729175 21.8189008,46.2436393" id="Fill-186" fill="#332C2B"></path>
                <path d="M10.4234341,50.8470179 C10.391077,53.31525 9.57016429,54.65525 7.70183889,54.8490714 C5.89942619,55.0416964 4.39421984,54.2018036 4.33549762,52.3509286 C4.27917222,50.425875 5.23191032,48.7975357 7.52567222,48.6683214 C9.50185476,48.5546607 10.1382119,50.0585714 10.4234341,50.8470179" id="Fill-188" fill="#332C2B"></path>
                <path d="M60.6490302,55.7350268 C62.8325381,56.3440089 63.3622365,57.9867054 63.1441254,59.7777589 C62.9763476,61.1297232 61.9025698,61.9983304 60.279919,61.5987232 C58.5422206,61.1727946 57.4348873,60.0062768 57.4540619,58.3899018 C57.4792286,56.6981518 58.6644587,55.7422054 60.6490302,55.7350268" id="Fill-190" fill="#332C2B"></path>
                <path d="M93.9096563,73.4413321 C91.9814103,73.1613679 91.0118944,72.1384214 91.4660929,70.3581357 C91.8855373,68.7226179 92.1443944,66.63485 94.3806325,66.3764214 C97.099831,66.0593679 97.1321881,68.1184214 97.1321881,69.8747786 C97.1321881,71.8536714 96.0440294,73.06685 93.9096563,73.4413321" id="Fill-194" fill="#332C2B"></path>
                <path d="M45.1983746,82.9444446 C44.8400492,84.7331054 44.0407079,86.6426054 41.3275016,86.6582008 C39.3165651,86.6677304 39.7467952,85.0346054 39.7491921,83.8609089 C39.7563825,81.8568911 39.6029857,79.4592482 42.6002159,79.3719089 C44.3846524,79.3204625 45.275073,80.8925696 45.1983746,82.9444446" id="Fill-196" fill="#332C2B"></path>
                <path d="M124.76411,91.872075 C124.555586,93.8509679 122.792721,94.6130929 120.81534,94.6083295 C119.420387,94.6035214 118.241149,93.5530571 118.362189,92.1041821 C118.547943,89.9661643 120.424657,89.1370393 122.344514,89.0927714 C123.683141,89.0628607 124.756919,90.130075 124.76411,91.872075" id="Fill-198" fill="#332C2B"></path>
                <path d="M62.1845563,93.3623464 C63.9594056,93.7727214 65.0966992,94.843525 64.9672706,96.4981857 C64.8246595,98.3933286 63.5231833,99.7417036 61.393604,99.8230607 C59.6918579,99.8912571 59.279604,98.5416857 59.4066357,97.2531321 C59.5696198,95.5446321 59.683469,93.7009357 62.1845563,93.3623464" id="Fill-200" fill="#332C2B"></path>
                <path d="M20.1055302,12.1138393 C20.1438794,13.9838571 19.085681,15.0115893 17.1310698,14.9517679 C14.8049508,14.8799821 13.6041413,13.5818571 14.1062762,11.4641786 C14.4286492,10.1158036 14.526919,8.17758929 16.8182841,8.32475 C19.2199032,8.48507143 19.6297603,10.3873929 20.1055302,12.1138393" id="Fill-202" fill="#332C2B"></path>
                <path d="M73.8409175,101.686498 C71.6969571,101.028463 71.0030762,99.3929446 71.1049413,97.5994982 C71.1960206,95.9460339 72.3476952,94.8273732 74.3442508,95.3418375 C76.1610444,95.8084446 76.7314889,97.2908196 76.7506635,98.8366054 C76.7698381,100.524766 75.8278857,101.607534 73.8409175,101.686498" id="Fill-208" fill="#332C2B"></path>
                <path d="M87.2154429,99.9350464 C86.8643079,101.929493 85.8504508,103.3006 83.6202048,103.320939 C81.9208556,103.340082 81.4786413,102.177154 81.6428238,100.808439 C81.846554,99.0819929 82.0383,97.2155643 84.5393873,97.111475 C86.6222286,97.027725 87.111181,98.4383143 87.2154429,99.9350464" id="Fill-210" fill="#332C2B"></path>
                <path d="M39.3912262,101.971607 C38.8986786,103.351089 38.3450119,104.576232 36.716369,104.500857 C34.8336627,104.411125 33.7982341,103.093857 33.7526944,101.570804 C33.7059563,100.028607 34.651504,98.6084464 36.6672341,98.8537143 C38.5619246,99.0858214 39.0125278,100.641179 39.3912262,101.971607" id="Fill-212" fill="#332C2B"></path>
                <path d="M102.833397,105.067845 C104.641802,105.343023 106.08469,106.066863 105.791079,107.933291 C105.515444,109.668113 103.810103,110.289059 102.186254,110.383577 C100.292762,110.493648 99.0595952,109.487452 99.3544048,107.642559 C99.6204524,105.918505 101.122063,105.292773 102.833397,105.067845" id="Fill-214" fill="#332C2B"></path>
                <path d="M122.753533,124.554795 C122.480294,126.088616 122.026096,127.62483 119.95404,127.701402 C117.93831,127.773188 117.059874,126.314741 116.737501,124.790491 C116.343223,122.93842 117.672263,121.934616 119.483064,121.725241 C121.609048,121.473991 122.193874,123.030545 122.753533,124.554795" id="Fill-216" fill="#332C2B"></path>
                <path d="M30.939181,12.4526679 C30.2980302,14.5571857 30.0919032,16.3207214 27.8041333,16.0694714 C25.8938635,15.8612929 25.0022444,14.4578821 24.9878635,12.8642393 C24.9710857,11.0863464 26.3348794,10.1423643 28.1636571,10.0622036 C30.4382444,9.96170357 30.4598159,11.6725964 30.939181,12.4526679" id="Fill-224" fill="#332C2B"></path>
                <path d="M147.894433,109.976193 C146.322116,109.785961 145.313052,109.087246 145.529965,107.515139 C145.743283,105.983711 146.063259,104.284782 148.062211,104.006014 C150.23733,103.704514 150.96956,105.306532 150.901251,106.854711 C150.838933,108.420836 149.910163,109.754854 147.894433,109.976193" id="Fill-228" fill="#332C2B"></path>
                <path d="M108.875794,33.1530357 C108.77273,34.82325 108.117198,36.0938571 106.08469,36.2685357 C104.234341,36.4288571 102.736325,35.8593571 102.512222,34.0084821 C102.296508,32.2258036 103.539262,31.2686607 105.330889,30.9025536 C107.356206,30.493375 108.420397,31.4265893 108.875794,33.1530357" id="Fill-232" fill="#332C2B"></path>
                <path d="M92.5908032,86.8894286 C90.4636206,86.6298036 89.6331206,85.5530179 89.9411127,83.7595714 C90.162819,82.4195714 91.0029063,81.3499643 92.5021206,81.28775 C94.4902873,81.195625 95.3938905,82.451875 95.4753825,84.1472143 C95.5640651,86.0064643 94.4243746,86.8631071 92.5908032,86.8894286" id="Fill-234" fill="#332C2B"></path>
                <path d="M14.8389857,66.9772679 C16.7828111,67.3015 17.6600492,68.4632321 17.2837476,70.13225 C16.9302159,71.6840179 15.6682873,72.6818393 13.8550889,72.6591071 C12.3151286,72.64475 11.3671841,71.8120357 11.4139222,70.3464107 C11.4642556,68.3364107 12.6878349,67.2333036 14.8389857,66.9772679" id="Fill-236" fill="#332C2B"></path>
                <path d="M17.1468889,55.2472429 C18.9205397,55.6839393 20.0674206,56.65185 19.7965794,58.4082071 C19.5976429,59.691975 18.7347857,60.7412429 17.1636667,60.763975 C15.1587222,60.7891 14.1376746,59.3521893 14.0190317,57.9033143 C13.8872063,56.2606179 15.1719048,55.2149393 17.1468889,55.2472429" id="Fill-238" fill="#332C2B"></path>
                <path d="M150.999281,127.479823 C150.759598,128.998091 150.510329,130.758038 148.498194,130.863323 C145.796971,130.999716 145.743043,128.842555 145.606424,127.118502 C145.474598,125.447091 146.140916,124.029323 148.31244,124.219555 C150.322178,124.391841 150.791956,125.899341 150.999281,127.479823" id="Fill-246" fill="#332C2B"></path>
                <path d="M57.5804944,11.6838429 C53.7911135,11.4852357 52.494431,10.8283964 52.9306532,8.89616429 C53.3213357,7.16253929 54.1230738,5.47916429 56.3581135,5.35234286 C58.5176532,5.23150357 58.8148595,6.81796786 58.8580024,8.34221786 C58.9215183,10.3426464 58.177304,11.7340929 57.5804944,11.6838429" id="Fill-248" fill="#332C2B"></path>
                <path d="M89.0037143,18.2192143 C88.4692222,19.5544286 87.922746,20.8609286 86.2018254,20.5953214 C84.4161905,20.3189464 83.221373,19.2026786 83.4310952,17.4666607 C83.5916825,16.1673393 84.5827698,15.1025179 86.1550873,15.1551607 C88.2606984,15.2293393 88.6202222,16.8301607 89.0037143,18.2192143" id="Fill-250" fill="#332C2B"></path>
                <path d="M41.7670794,56.8133679 C41.737119,58.4177786 41.2481667,60.0509036 39.3163254,60.0784214 C37.7392143,60.0999571 36.3059127,59.0076179 36.2232222,57.28835 C36.1453254,55.6265107 37.1124444,54.3056536 38.8896905,54.0843143 C40.8610794,53.83785 41.7395159,55.0641893 41.7670794,56.8133679" id="Fill-256" fill="#332C2B"></path>
                <path d="M84.3527944,90.0113893 C83.9800881,91.7222821 82.8523817,92.7093357 81.0319929,92.7906929 C79.0558103,92.8864071 78.0167865,91.8132107 77.9964135,90.0472821 C77.9748421,88.4321036 78.6231833,86.77505 80.5046913,86.7212107 C82.594723,86.6589964 83.8758262,88.1126571 84.3527944,90.0113893" id="Fill-258" fill="#332C2B"></path>
                <path d="M80.3994706,24.6933286 C82.2210579,25.1084893 83.0383754,26.26065 83.0994944,27.910525 C83.1570183,29.5807393 82.3720579,31.0834536 80.5408833,31.0344 C78.7816135,30.9853464 78.0122325,29.4957929 77.9451214,27.8255786 C77.8768119,26.1469893 78.3393992,24.9110786 80.3994706,24.6933286" id="Fill-260" fill="#332C2B"></path>
                <path d="M33.4179778,91.9257946 C33.139946,93.5218304 32.4580492,94.9575446 30.4135571,94.8761875 C28.3822476,94.7948304 27.6368349,93.3698839 27.7015492,91.6865089 C27.7566762,90.3309554 28.4373746,89.1716161 30.1271365,89.1488839 C32.0529857,89.1285446 33.1495333,90.1299554 33.4179778,91.9257946" id="Fill-262" fill="#332C2B"></path>
                <path d="M24.7411103,33.9463875 C26.6417929,34.4046196 28.3818881,35.1822982 28.1050548,37.3932982 C27.9264913,38.8170482 26.708904,39.5361018 25.1413802,39.2058875 C23.4180627,38.8421732 22.1896897,37.7570125 22.0111262,36.1334589 C21.8349595,34.5338339 23.2287135,34.1330304 24.7411103,33.9463875" id="Fill-266" fill="#332C2B"></path>
                <path d="M71.397354,50.9807786 C71.5112032,53.3987607 70.6064016,54.4599929 69.1994651,54.4707607 C67.3275444,54.4875107 66.4610921,53.1905821 66.6168857,51.4940464 C66.7499095,49.9638143 67.3850683,48.3115464 69.2533937,48.4802429 C71.1001476,48.6477429 71.3194571,50.445975 71.397354,50.9807786" id="Fill-270" fill="#332C2B"></path>
                <path d="M90.1026587,53.0763232 C92.0045397,53.1887875 93.3875079,53.8922875 93.6643413,55.5983946 C93.9699365,57.4157696 92.7271825,58.5679304 90.9235714,58.4937518 C89.3153016,58.4303411 87.7873254,57.5820732 87.8244762,55.6833411 C87.8568333,54.2631804 88.7580397,53.4472161 90.1026587,53.0763232" id="Fill-272" fill="#332C2B"></path>
                <path d="M109.150829,113.917229 C111.094655,114.298889 111.808909,115.592229 111.828083,117.212193 C111.844861,118.619193 110.953242,119.685211 109.413282,119.707943 C107.588099,119.733068 106.356131,118.6838 106.219512,116.978889 C106.067313,115.148354 107.571321,114.453229 109.150829,113.917229" id="Fill-274" fill="#332C2B"></path>
                <path d="M17.65945,80.1613125 C19.2617278,80.7954196 20.1629341,82.0444911 19.9076722,83.5890804 C19.6380294,85.2425446 18.1232357,86.0178304 16.3951246,85.7677768 C14.770077,85.5308839 14.5855214,84.2124196 14.8024341,82.9525804 C15.0552992,81.4917411 15.353704,79.9770625 17.65945,80.1613125" id="Fill-282" fill="#332C2B"></path>
                <path d="M37.6486143,66.3702 C39.6415746,66.5030036 40.4445111,67.5953429 40.3546302,69.3217893 C40.2755349,70.834075 39.1478286,71.57945 37.7133286,71.4825393 C35.9193048,71.3617 34.7712254,70.3507179 34.9354079,68.539325 C35.0756222,67.0689143 36.1565905,66.4754857 37.6486143,66.3702" id="Fill-292" fill="#332C2B"></path>
                <path d="M123.754207,66.4216464 C123.609199,67.8992357 123.743421,69.728575 121.42689,69.6735393 C119.327271,69.6197 119.099572,67.8059143 118.835921,66.3761821 C118.514747,64.6329857 119.540588,63.2905929 121.360977,63.2032536 C123.599612,63.0919857 123.645152,64.8973964 123.754207,66.4216464" id="Fill-294" fill="#332C2B"></path>
                <path d="M27.0922762,26.5538946 C26.8765619,28.1463411 25.6517841,28.9766625 23.8122206,28.8103589 C21.7173952,28.6189304 21.4453556,27.1485196 21.5556095,25.5381268 C21.6562762,24.0461804 22.5155381,23.1596268 24.0974429,23.3725911 C25.8183635,23.6058946 27.0359508,24.5582518 27.0922762,26.5538946" id="Fill-298" fill="#332C2B"></path>
                <path d="M95.0800262,24.3352375 C96.6032087,24.4046304 97.7297167,25.1966661 97.835177,26.4888089 C97.9801849,28.3205411 97.2898992,29.9979339 94.8595183,30.0398089 C93.2919944,30.0649339 92.5262087,29.0742911 92.5190183,27.6385768 C92.5082325,25.9743446 93.3063754,24.8281661 95.0800262,24.3352375" id="Fill-300" fill="#332C2B"></path>
                <path d="M98.6085127,4.70040893 C98.4359413,6.65298036 97.4280762,7.77881964 96.0355206,7.73455179 C94.0761159,7.67712321 93.222846,6.1145875 93.5631952,4.48026607 C93.820854,3.27665893 94.7664016,2.11492679 96.4741397,2.4044625 C98.0860048,2.67485536 98.5881397,3.80906964 98.6085127,4.70040893" id="Fill-304" fill="#332C2B"></path>
                <path d="M101.589325,120.835816 C101.813428,122.517995 101.216618,123.585209 99.5580151,123.424887 C97.7088643,123.254995 97.0928802,121.791762 96.854396,120.293834 C96.6195071,118.780352 97.7040706,117.83637 99.099023,117.922512 C100.955364,118.03737 101.610896,119.458727 101.589325,120.835816" id="Fill-308" fill="#332C2B"></path>
                <path d="M35.5842286,33.4783446 C34.1065857,33.2976839 32.8985857,32.7090411 32.9525143,31.2063268 C33.0160302,29.5516661 34.0262921,28.2786661 35.922181,28.2930232 C37.3734587,28.3061839 38.434054,29.2932375 38.5574905,30.6918625 C38.7240698,32.5714518 37.4345778,33.3263982 35.5842286,33.4783446" id="Fill-310" fill="#332C2B"></path>
                <path d="M101.234714,56.4086161 C103.210897,56.9290625 103.620754,58.2977768 103.284,59.8985982 C103.099444,60.7564375 103.243254,62.0880625 101.66854,62.0390089 C99.4922222,61.9648304 99.3100635,60.2276161 99.021246,58.8565089 C98.7240397,57.4411339 99.6540079,56.5785089 101.234714,56.4086161" id="Fill-316" fill="#332C2B"></path>
                <path d="M53.945469,101.607654 C55.655604,101.639957 56.1673262,102.838779 56.3446913,104.019654 C56.4801119,104.949279 56.2464214,106.088279 54.8155167,106.187582 C53.0322786,106.3156 52.6092389,104.902618 52.3551754,103.809082 C52.1370643,102.897404 52.6320087,101.866082 53.945469,101.607654" id="Fill-318" fill="#332C2B"></path>
                <path d="M115.451844,15.7819696 C112.986709,16.0894518 112.285637,14.8475589 112.116661,13.6463446 C111.986034,12.7550054 112.531312,11.6195946 113.949034,11.5334518 C115.623217,11.4317554 116.621494,12.4176125 116.694598,13.7229161 C116.740137,14.4934161 115.762233,15.3105768 115.451844,15.7819696" id="Fill-322" fill="#332C2B"></path>
                <path d="M28.4475611,103.937937 C28.5026881,105.356902 28.1467595,106.273366 26.8824341,106.391812 C24.5575135,106.610759 23.5939897,105.118812 23.1014421,103.39117 C22.8174183,102.38617 23.3207516,101.436205 24.6042516,101.304598 C26.9651246,101.064116 27.6386325,102.783384 28.4475611,103.937937" id="Fill-324" fill="#332C2B"></path>
                <path d="M48.1499452,96.3826107 C48.2781754,98.5038786 47.1804294,99.3018964 45.8789532,99.5208429 C44.412096,99.7708964 43.4006357,98.8891286 43.1921119,97.5216107 C42.9787944,96.1050393 43.5300643,95.2077179 45.3228897,95.3429143 C46.6255643,95.4386286 48.0241119,95.3070214 48.1499452,96.3826107" id="Fill-326" fill="#332C2B"></path>
            </g>
        </g>
    </g>
</svg>