<?xml version="1.0" encoding="UTF-8"?>
<svg width="88px" height="95px" viewBox="0 0 88 95" version="1.1" xmlns="http://www.w3.org/2000/svg" xmlns:xlink="http://www.w3.org/1999/xlink">
    <!-- Generator: Sketch 57.1 (83088) - https://sketch.com -->
    <title>Group 32</title>
    <desc>Created with Sketch.</desc>
    <g id="Page-1" stroke="none" stroke-width="1" fill="none" fill-rule="evenodd">
        <g id="Fizmatik-Home-screen" transform="translate(-1199.000000, -905.000000)" fill-rule="nonzero" stroke="#000000" stroke-width="0.9">
            <g id="Group-32" transform="translate(1200.000000, 906.000000)">
                <path d="M44.3578947,0 C54.3571555,0 62.4631579,20.8187591 62.4631579,46.5 C62.4631579,72.1812409 54.3571555,93 44.3578947,93 C34.358634,93 26.2526316,72.1812409 26.2526316,46.5 C26.2526316,35.0756106 27.8567658,24.6134802 30.518101,16.5183055 C28.0032575,15.3868444 26.2526316,12.8633511 26.2526316,9.93203883 C26.2526316,5.94271987 29.4950325,2.70873786 33.4947368,2.70873786 C34.8615662,2.70873786 36.1399569,3.08640609 37.2307336,3.74282494 C39.4175304,1.33365261 41.8270714,0 44.3578947,0 Z" id="Combined-Shape"></path>
                <path d="M35.3052243,30.8610274 C57.6037687,18.0204742 79.7332803,14.6128711 84.7329146,23.2499977 C89.732541,31.8871289 75.7090319,49.2982849 53.4105652,62.1389726 C31.1120207,74.9795258 8.98250917,78.3871289 3.98287487,69.7500023 C2.82506665,67.7498245 2.68744652,65.2791063 3.43652962,62.5035768 C1.39564449,61.4548833 1.13686838e-13,59.3317512 1.13686838e-13,56.8834951 C1.13686838e-13,53.392841 2.83710085,50.5631068 6.33684211,50.5631068 C7.5715256,50.5631068 8.72373504,50.9153033 9.69799082,51.5244647 C15.3826336,44.5893407 24.3441837,37.1729995 35.3052243,30.8610274 Z" id="Combined-Shape"></path>
                <path d="M53.4105652,30.8610274 C75.7090319,43.7017151 89.732541,61.1128711 84.7329146,69.7500023 C84.1604374,70.7389862 83.3633682,71.5700503 82.36717,72.2471153 C82.1243013,76.767714 78.3721372,80.3592233 73.7789474,80.3592233 C69.7338298,80.3592233 66.3410053,77.5736761 65.4234711,73.8208457 C56.6736986,72.2928576 46.0089355,68.3026742 35.3052243,62.1389726 C13.0067576,49.2982849 -1.01675156,31.8871289 3.98287487,23.2499977 C8.98250917,14.6128711 31.1120207,18.0204742 53.4105652,30.8610274 Z" id="Combined-Shape"></path>
                <ellipse id="Oval" cx="33.4947368" cy="9.93203883" rx="7.24210526" ry="7.22330097"></ellipse>
                <ellipse id="Oval-Copy" cx="6.33684211" cy="56.8834951" rx="6.33684211" ry="6.32038835"></ellipse>
                <ellipse id="Oval-Copy-5" cx="73.7789474" cy="71.7815534" rx="8.6" ry="8.5776699"></ellipse>
                <ellipse id="Oval-Copy-10" cx="44.3578947" cy="46.9514563" rx="10.8631579" ry="10.8349515"></ellipse>
            </g>
        </g>
    </g>
</svg>