<svg xmlns="http://www.w3.org/2000/svg" width="128" height="21" viewBox="0 0 128 21">
    <g fill="none" fill-rule="evenodd">
        <path fill="#2D303C" fill-rule="nonzero" d="M6.848 4.177v-1.11l4.52-.357v1.467c4.785.143 7.118 2.225 6.999 6.245-.12 4.02-2.452 6.15-7 6.392v1.32h-4.52v-1.32C2.59 16.676.316 14.64.026 10.706c-.29-3.934 1.984-6.11 6.823-6.53zm-.043 3.065c-1.652-.002-2.41 1.13-2.275 3.396.136 2.266.894 3.4 2.275 3.402V7.242zm4.585-.005v6.798c1.412.086 2.186-1.005 2.322-3.27.136-2.267-.638-3.442-2.322-3.528zM18.764 3.04l4.362-.33v9.376l5.25-9.046 4.07-.33v15.424h-4.07V11.4l-5.25 6.734h-3.63zM50.37 18.134h-4.13l.46-15.059 4.454-.365 4.101 10.216 4.868-9.85L63.7 2.71v15.424h-4.71l.362-6.637-2.84 6.461-2.817.176-3.023-6.968zM87.12 3.09l11.562-.38v3.784l-3.391.117v11.523h-4.6V6.611h-3.57zM99.853 2.996l4.381-.286v9.458l5.233-9.172 4.003-.286v15.424h-4.003v-6.968l-5.233 6.968h-3.618zM114.597 3.11l5.286-.4-.31 8.002 3.152-7.601c2.81-.268 4.523-.333 5.139-.196-.481 1.947-1.998 5.034-4.551 9.26l3.83 5.96h-5.1l-2.47-4.693-.248 4.692h-4.592l-.136-15.023zM35.635 8.296L33.508 5.06c1.902-1.495 3.755-2.274 5.558-2.337 2.706-.095 4.8.274 5.441 2.584.428 1.54.076 3.037-1.058 4.49 1.268 1.292 1.737 2.835 1.406 4.63-.496 2.692-3.97 4.16-6.582 3.72-1.74-.293-3.33-.81-4.765-1.548.451-1.66.758-2.823.919-3.49 3.062 1.722 5.718 1.573 5.863 0 .096-1.05-1.15-1.337-3.738-.861-.144-1.634-.216-2.809-.216-3.526 2.583.245 4.9-.038 3.954-1.624-.631-1.058-2.183-.659-4.655 1.198z"/>
        <path fill="#FFDD57" d="M72.436 14.224l-1.74 3.079 16.19-.12L79.116.45 74.986 0l8.766 15.486-11.316-1.262"/>
        <path fill="#9C5FDC" d="M70.163 17.427l5.68-10.759-.748-1.51-8.044 14.085 17.315 1.473 2.131-3.29H70.163"/>
        <path fill="#FF7947" d="M83.2 15.179L74.435 0l-7.748 17.221.309 1.816 8.167-14.299 4.87 10.072 3.169.369"/>
    </g>
</svg>
