<?xml version="1.0" encoding="UTF-8"?>
<svg width="526px" height="184px" viewBox="0 0 526 184" version="1.1" xmlns="http://www.w3.org/2000/svg" xmlns:xlink="http://www.w3.org/1999/xlink">
    <!-- Generator: Sketch 57.1 (83088) - https://sketch.com -->
    <title>Group 8</title>
    <desc>Created with Sketch.</desc>
    <g id="Page-1" stroke="none" stroke-width="1" fill="none" fill-rule="evenodd">
        <g id="Fizmatik-Home-screen" transform="translate(-457.000000, -183.000000)">
            <g id="Group-8" transform="translate(457.000000, 183.000000)">
                <g id="Group-6" transform="translate(0.000000, 99.402985)">
                    <path d="M46.7143258,11.0447761 L46.7143258,17.0244427 C66.3786138,17.6091629 75.9658676,26.0945408 75.4760872,42.4805766 C74.9863068,58.8666123 65.3990531,67.551876 46.7143258,68.5363678 L46.7143258,73.916377 L28.1390216,73.916377 L28.1390216,68.5363678 C10.6399601,67.9724043 1.29403653,59.6731982 0.101250848,43.6387495 C-1.09153483,27.6043008 8.25438877,18.7328652 28.1390216,17.0244427 L28.1390216,12.4988326 L46.7143258,11.0447761 Z M27.9656704,29.5181097 C21.1742723,29.5106254 18.0577429,34.1250174 18.6160823,43.3612858 C19.1744217,52.5975541 22.290951,57.2194671 27.9656704,57.2270249 L27.9656704,57.2270249 Z M46.8044581,57.2080937 L46.8044581,57.2080937 L47.0705002,57.220743 C52.7063304,57.418005 55.7991203,52.9695501 56.3488698,43.8753782 C56.9072092,34.6391099 53.7257386,29.8470399 46.8044581,29.4991681 L46.8044581,29.4991681 Z" id="Combined-Shape-Copy" fill="#2D303C" fill-rule="nonzero"></path>
                    <polygon id="Path-3-Copy" fill="#2D303C" fill-rule="nonzero" points="77.1099476 12.3906238 95.0320865 11.0447761 95.0320865 49.2633558 116.605094 12.3906238 133.333323 11.0447761 133.333323 73.916377 116.605094 73.916377 116.605094 46.4662695 95.0320865 73.916377 80.1127097 73.916377"></polygon>
                    <polygon id="Path-4-Copy" fill="#2D303C" fill-rule="nonzero" points="206.985358 73.916377 190.020942 73.916377 191.904799 12.5348326 210.209324 11.0447761 227.065021 52.6883932 247.06887 12.5348326 261.761861 11.0447761 261.761861 73.916377 242.404939 73.916377 243.896423 46.8613605 232.22278 73.1986019 220.647085 73.916377 208.227947 45.5134633"></polygon>
                    <polygon id="Path-76-Copy" fill="#2D303C" fill-rule="nonzero" points="358.010471 12.5974635 405.52015 11.0447761 405.52015 26.4683074 391.585157 26.947357 391.585157 73.916377 372.686806 73.916377 372.686806 26.947357 358.010471 26.947357"></polygon>
                    <polygon id="Path-77-Copy" fill="#2D303C" fill-rule="nonzero" points="410.335079 12.2121536 428.338456 11.0447761 428.338456 49.5953517 449.84161 12.2121536 466.29251 11.0447761 466.29251 73.916377 449.84161 73.916377 449.84161 45.5134633 428.338456 73.916377 413.46928 73.916377"></polygon>
                    <path d="M470.921466,12.679629 L492.643833,11.0447761 L491.373456,43.6644783 L504.321736,12.679629 C515.86893,11.5897271 522.908445,11.3242101 525.44028,11.8830781 C523.463969,19.8191776 517.230337,32.3990457 506.739382,49.6226822 L522.475814,73.916377 L501.518721,73.916377 L491.373456,54.7888601 L490.350815,73.916377 L471.482703,73.916377 L470.921466,12.679629 Z" id="Path-78-Copy" fill="#2D303C" fill-rule="nonzero"></path>
                    <path d="M146.436299,33.8158219 L137.696335,20.6234233 C145.513222,14.5304836 153.127299,11.3555324 160.538567,11.0985696 C171.655468,10.7131255 180.258877,12.2160681 182.897602,21.6319514 C184.656751,27.9092069 183.206965,34.0107922 178.548244,39.9367074 C183.760481,45.1997235 185.686981,51.4889924 184.327746,58.8045139 C182.288892,69.7777962 168.011024,75.7645657 157.278758,73.9701705 C150.123914,72.773907 143.59644,70.6694532 137.696335,67.656809 C139.551986,60.8926511 140.810457,56.1507196 141.47175,53.4310146 C154.054757,60.4538672 164.970926,59.8457792 165.566213,53.4310146 C165.963071,49.1545049 160.842638,47.9848801 150.204914,49.9221402 C149.61453,43.265185 149.319337,38.4752689 149.319337,35.5523921 C159.930715,36.548302 169.455308,35.3975874 165.566213,28.930193 C162.973484,24.6185968 156.596846,26.2471397 146.436299,33.8158219 Z" id="Path-79-Copy" fill="#2D303C" fill-rule="nonzero"></path>
                    <g id="Group-5" transform="translate(272.638743, 0.000000)">
                        <polyline id="Fill-1" fill="#FFDD57" points="25.027396 57.9762097 17.8756416 70.5274352 84.4056793 70.039382 52.4841418 1.83357816 35.5056522 7.10542736e-14 71.5280281 63.1210408 25.027396 57.9762097"></polyline>
                        <polyline id="Fill-2" fill="#9C5FDC" points="15.6874294 71.0320071 39.0283593 27.1808065 35.9564749 21.0238282 2.89814549 78.4338963 74.0517362 84.4407044 82.8105759 71.0320071 15.6874294 71.0320071"></polyline>
                        <polyline id="Fill-3" fill="#FF7947" points="69.2634307 61.8686214 33.2365616 -5.68434189e-13 1.40039589 70.195559 2.6689898 77.5974483 36.2320608 19.3133896 56.2404978 60.3669194 69.2634307 61.8686214"></polyline>
                    </g>
                </g>
                <g id="Group-7" transform="translate(291.916230, 0.000000)">
                    <g id="Group-25-Copy" transform="translate(15.743244, 0.000000)">
                        <path d="M76.3106227,113.621368 L76.3091483,113.618479 C74.8510415,111.971394 72.6498752,110.944134 70.1951251,110.390771 L70.1951251,79.7737851 C70.1951251,78.9748048 69.5331534,78.3289743 68.7208007,78.3289743 C67.9054993,78.3289743 67.2464763,78.9748048 67.2464763,79.7737851 L67.2464763,109.954439 C66.6744384,109.909649 66.1009262,109.880753 65.527414,109.874974 C61.8651922,109.905315 58.1955988,110.723078 56.0416109,113.173477 C55.5211744,113.787522 55.6066852,114.699197 56.2317987,115.209216 C56.8583866,115.719234 57.7901596,115.63688 58.3105961,115.022835 C58.8015461,114.400121 59.7126786,113.871321 60.8538057,113.476887 C58.9165434,114.691973 57.0220366,116.194577 55.8396284,117.941353 C55.4032284,118.61319 55.6037365,119.507528 56.2937203,119.936637 C56.5384582,120.089787 56.8112082,120.162027 57.0824839,120.162027 C57.5690109,120.162027 58.0466921,119.925078 58.3297623,119.491635 C59.2954448,117.939908 61.7428233,116.230697 64.0398207,114.991049 C62.4962031,117.172713 60.9378422,119.964088 60.6827841,122.654326 C60.6282341,123.450417 61.241553,124.142481 62.0539058,124.195939 L62.1541598,124.200273 C62.9222828,124.200273 63.5724599,123.615125 63.6255356,122.852265 C63.7169437,121.089596 65.1352437,118.470154 66.6066195,116.450308 C67.735952,114.872575 68.8328493,113.640151 69.2736723,113.157584 C71.4379805,113.630037 73.2705658,114.482476 74.0416374,115.466392 C74.3335537,115.810257 74.7537361,115.987969 75.1753929,115.987969 C75.5085902,115.987969 75.8403132,115.878163 76.1174862,115.655662 C76.7411254,115.145644 76.8310592,114.235413 76.3106227,113.621368" id="Fill-22" fill="#F1D479"></path>
                        <path d="M47.7411645,77.4563086 L47.7278956,77.4953185 L47.7278956,77.651358 L47.7411645,77.4563086 M42.88474,55.4547293 C43.2297319,55.3897128 43.5481859,55.311693 43.8268333,55.2076666 C43.3491521,55.311693 43.0572359,55.3897128 42.88474,55.4547293 M47.9401983,75.8959129 L47.9534672,76.1689821 C48.0861564,75.8829096 48.0198118,76.3640316 48.0728875,76.4940646 C48.2719213,75.9349228 47.9667362,76.2209953 47.9401983,75.8959129 M47.4757861,73.3472666 C47.4227105,73.5683226 47.1838699,73.9454183 47.4492483,74.0624479 C47.5155929,73.9194117 47.3829037,73.6073325 47.4757861,73.3472666 M48.5638375,74.4395436 L48.5372997,74.5565732 L48.4311483,74.2444941 C48.3648037,74.6736029 47.9269294,74.9596755 48.3117281,75.0897084 L48.3780727,74.6085864 C48.5505686,74.634593 48.6301821,74.634593 48.5771065,74.9336689 C48.65672,74.8686524 48.5771065,74.5955831 48.5638375,74.4395436 M48.2188456,75.2587513 L48.4046105,75.7788832 C48.4178794,75.596837 48.4444173,75.1417216 48.2188456,75.2587513 M87.3754273,39.2916305 C87.7336881,38.9275382 88.0654111,38.5894524 88.3440584,38.2513667 C87.8265705,38.7584953 87.5346543,39.0835778 87.3754273,39.2916305 M127.898708,24.975 L127.845632,25.0010066 C127.606791,24.975 127.367951,24.9489934 127.195455,24.9489934 L121.423475,23.8437131 L121.516357,23.5966505 C122.498257,24.363845 126.425858,24.2078054 128.004859,24.9229868 L127.898708,24.975 M121.105021,23.1155285 L121.144828,23.0765186 L121.72866,22.4523603 L121.702122,22.4783669 C121.423475,22.7514361 121.330592,22.9724922 121.317323,23.1545384 L121.105021,23.1155285 M120.574264,23.6876736 L120.879449,23.3625911 C120.959063,23.5446373 121.025407,23.6876736 121.078483,23.7786966 L120.574264,23.6876736 M111.869853,36.3788919 C111.04718,36.7949974 109.388565,37.6272084 109.494716,37.3151293 C109.282413,37.3931491 109.096649,37.5101788 108.897615,37.6012018 L110.874684,36.4179018 L112.095424,35.6897171 C112.1485,35.85876 112.228114,36.0147995 111.869853,36.3788919 M97.6721088,44.3499132 L97.6986467,44.2588901 L99.3439927,43.2836428 C98.8795805,43.6607385 98.3753616,44.0508374 97.6721088,44.3499132 M95.7481155,46.2483947 C95.336779,46.5214639 95.2306276,46.5084606 95.1377452,46.4954573 C95.1112074,46.482454 95.0714006,46.482454 95.0448628,46.4954573 L94.7529465,46.6905068 C94.7131398,46.4954573 94.6600641,46.3004078 94.6202573,46.0923551 L96.3452169,45.0650946 L94.6998709,46.2483947 C94.7131398,46.3654243 95.0846695,46.2353914 95.4296614,46.0923551 C95.9073425,45.9103089 96.3584858,45.7282628 95.7481155,46.2483947 M93.9700803,57.0931447 L93.9435424,57.0021217 L93.9435424,54.349449 C94.0364249,55.051627 94.0629627,55.8448282 93.9700803,57.0931447 M35.3612626,82.8136671 L35.3214558,82.7096407 C35.0560774,82.9046902 34.5651274,83.1647562 34.0211017,83.0607298 L34.2201355,82.8786836 C33.3709246,82.9437001 32.4553692,82.9437001 31.6990408,83.0737331 C31.9246124,83.1777595 31.6990408,83.3207957 31.3540489,83.3728089 C30.8232921,83.3468023 31.5132759,83.2427759 31.2877043,83.1387496 C31.0886705,82.98271 30.7038718,83.0737331 30.345611,83.1907628 C30.4517623,82.98271 30.5579137,82.8136671 30.6906029,82.6706309 C30.9692502,82.6446243 31.2611664,82.6186177 31.5398137,82.6186177 L30.9692502,82.5666045 L30.9029056,82.4235682 L30.9161745,82.4105649 L31.2611664,82.3845583 L31.8051921,82.3585517 C32.0307638,82.4755814 32.2032597,82.6056144 32.4951759,82.4755814 C32.1899908,82.3975616 32.150184,82.3585517 32.1899908,82.3325451 L32.5349827,82.3065385 L32.7472854,82.2935352 C32.7605543,82.3845583 32.7738233,82.4625781 32.9197814,82.4885847 C33.1984287,82.371555 32.6809408,82.371555 32.7870922,82.2935352 L32.8401679,82.2805319 L32.986126,82.2805319 C33.2647733,82.3975616 33.3576557,82.3325451 33.4638071,82.241522 L33.968026,82.2155154 L34.0211017,82.2285187 L33.6761098,82.4495748 C34.4324382,82.241522 35.5072207,82.1114891 36.449314,82.0594759 L36.3829694,82.3325451 C36.7279613,82.2025121 37.2189113,82.1895089 37.2985248,82.4235682 C36.1972045,82.4235682 36.0512464,83.0477265 35.3612626,82.8136671 M29.9740812,83.7629078 C29.9210056,83.6978914 29.9210056,83.6328749 30.1598461,83.5418518 L30.1598461,83.5288485 L30.2129218,83.5158452 L29.9740812,83.7629078 M29.7485096,83.8279243 L29.682165,83.6718848 L29.8811988,83.6198716 L29.7485096,83.8279243 M29.9210056,82.6966375 C30.1067704,82.6966375 30.3058042,82.6966375 30.5313759,82.6706309 L30.1333083,83.2557792 C29.9608123,83.3077924 29.8148542,83.3468023 29.7087028,83.3728089 C29.7485096,83.1777595 29.8148542,82.9567034 29.9210056,82.6966375 M53.4069932,54.830571 L53.5131445,54.7395479 L53.7254472,54.9215941 L54.2960108,55.1036402 L54.3756243,55.2206699 L53.4069932,54.830571 M52.7037404,55.5717589 C52.7302783,55.4807359 52.8895053,55.2986897 53.1946905,55.0256204 L53.1946905,55.0386237 C53.0089256,55.2336732 52.8364296,55.4287227 52.7037404,55.5717589 M56.8436433,46.9895826 L57.2417109,47.4967112 L57.7990056,49.5122223 C57.387669,48.4459519 57.0294082,47.574731 56.8436433,46.9895826 M59.2585867,39.8897822 L59.3249313,39.9417954 L59.6831921,41.2941383 C59.4974273,40.8650295 59.3382002,40.3969108 59.2585867,39.8897822 M123.639384,4.27375043 C123.997645,4.02668778 124.143603,4.00068119 124.209948,4.06569767 L123.400544,4.91091201 L122.843249,5.4830571 C123.214779,4.98893179 123.519964,4.54681968 123.639384,4.27375043 M129.650205,24.2468153 L129.636936,24.2468153 L129.58386,24.233812 L129.384827,24.2208087 L128.960221,24.1948022 L128.137548,24.1167824 L124.860125,23.7656933 L121.980769,23.2845713 L122.949401,22.4133504 C125.098966,20.1507766 127.275068,17.8231864 129.451171,15.4305797 C129.2256,15.1965203 128.986759,15.0274774 128.761187,14.8584346 L129.145986,14.4423291 L128.456002,14.5983686 L128.509078,14.4163225 L128.296775,14.5593587 L128.270237,14.5463554 L128.376389,14.1562565 L128.124279,14.4813389 C125.404151,13.2330224 122.604409,15.9507116 119.791398,16.0027247 C120.972332,16.0417346 118.371623,16.5098533 120.49465,16.2627907 C119.804667,16.7049028 119.579095,16.6528896 119.618902,16.3148039 L120.096583,15.3525599 L120.534457,14.4683356 C120.308886,15.8596885 120.852911,14.8584346 121.436744,13.8571807 C121.901156,13.0899861 122.378837,12.3097883 122.551333,12.6738806 C123.878225,9.80015186 124.700898,10.2552673 126.253362,7.19949236 C126.784118,5.18398126 124.687629,8.72087817 123.997645,9.70912877 C124.117066,9.41005293 124.342637,9.00695071 124.581478,8.61685179 C123.864956,9.54008591 123.029014,10.3202838 122.564602,10.4503167 L125.430689,4.71586255 L125.443957,4.72886585 L125.457226,4.87190212 L125.576647,4.75487244 C125.855294,4.81988893 126.120672,4.75487244 126.439126,4.10470757 C126.810656,3.88365151 127.275068,2.84338771 127.752749,1.80312392 L128.097741,1.03592936 C126.439126,0.112695245 126.492202,0.346754599 126.545278,0.580813953 C126.585085,0.710846928 126.611622,0.840879903 126.372782,0.775863415 C126.02779,1.11394915 125.735874,1.3610118 125.523571,1.41302499 C123.148434,4.29975703 120.481382,5.80813953 119.857742,7.74563086 L117.42953,9.25401336 C115.757646,10.7103827 114.921704,11.9717025 113.953073,13.2200191 C113.833653,13.5190949 114.072493,13.4020653 114.324603,13.2850356 C114.669595,13.1159927 115.014587,12.9599531 114.417485,13.8961906 C113.979611,14.4293258 113.223283,15.3395566 112.652719,15.7166522 C112.40061,15.7296555 112.944635,15.0014708 113.037518,14.832428 C110.649112,17.5371138 108.327051,18.811437 106.124411,20.5408756 C103.656392,23.2845713 99.8349427,26.7434485 98.7336224,28.6679365 L100.286086,27.1725573 C98.136521,29.4611376 100.883187,27.8097188 98.309017,30.2283322 C96.3054101,31.9577707 96.9953939,30.8264839 96.6371331,30.7354608 C95.8808047,31.4766487 94.8989046,32.6859554 94.0496938,33.5571763 C93.3464411,33.2711038 92.7626086,33.0370444 92.9483735,33.1150642 L92.9483735,33.1280675 C93.0147181,33.1540741 93.4923992,33.3491236 94.0496938,33.5701796 C93.7179708,33.9082654 93.4127857,34.2073412 93.1474073,34.4023907 C93.7577776,33.6872093 93.3199032,33.9992884 92.9218356,34.2983643 C92.5901126,34.5454269 92.2981964,34.7794863 92.537037,34.5324236 C90.5997747,36.2748655 90.6926571,36.8730172 89.4719165,38.4854261 L86.9906286,40.9040394 C87.8531084,39.9027855 88.5165543,39.0835778 88.9809665,38.615459 L88.0388732,39.4736767 C88.4767476,38.8885283 88.07868,39.1095843 87.7071502,39.3176371 C87.3488894,39.5256899 87.0038975,39.7337426 87.3754273,39.2916305 C84.9339461,41.6972405 81.0063459,44.3629165 81.0594215,45.8582957 L81.7228675,45.1041045 C82.5057338,44.6229825 83.6733987,43.5046989 83.7795501,43.7777681 L82.79765,45.0260847 L74.876105,52.77605 C74.9822564,52.5940038 75.0087942,52.4769741 74.8628361,52.5419906 C75.0884077,52.2819247 75.3670551,52.1778983 75.4997442,52.1128818 L77.9544944,49.3561827 L77.5298889,49.5382289 C76.693947,49.8763146 76.5612578,50.7345323 75.9243497,51.1506378 C75.7518537,50.7475356 73.9738185,52.7500434 73.1113387,53.4262149 L73.0449941,53.4912313 C71.8507914,48.8360509 72.7265401,48.7190212 71.2802278,44.1288572 C71.2006143,43.2836428 71.5456062,43.7257549 71.4659927,42.8805406 C71.1608076,40.4879339 70.1258318,38.9275382 69.3960413,37.5101788 C69.104125,36.0408061 68.4804858,34.1423247 68.8254777,33.9212687 C69.0775872,34.1813346 69.2500831,35.1825885 69.435848,35.5336775 C71.3996481,36.6259545 68.0558804,31.9577707 68.1487628,29.8902464 C68.1089561,29.8122267 68.0824182,29.82523 68.0558804,29.8512365 C68.0160736,29.8772431 67.9762669,29.8902464 67.9099223,29.6301805 L68.5468304,32.4648993 C68.3212588,32.6469455 67.5383925,30.7484641 67.0872492,29.3831178 C67.127056,29.2400816 67.1535938,29.084042 67.1934006,28.9410057 C66.5962992,28.6549332 68.6264439,28.1998178 66.6891817,28.0177716 L66.6228371,27.6926892 L66.5432235,28.0047683 C66.3309208,27.9787617 66.0655424,27.9657584 65.7470884,27.9527551 L65.800164,28.251831 C65.6807438,28.4858903 65.5480546,28.9019958 65.3490208,29.5911706 C65.5745924,30.657441 64.4600032,32.933018 64.3803897,34.3763841 L64.5794234,34.2593544 C63.9027086,37.6662183 62.9473463,35.6116973 62.4962031,38.1733469 C62.9208085,37.04206 62.8677328,37.4581656 62.8279261,37.8742711 C62.7748504,38.2773733 62.7350436,38.6934788 63.172918,37.5751952 C63.5179099,36.9380337 63.9159775,37.0550633 64.2875072,37.0940732 L64.1680869,37.5751952 L63.0534977,42.0483296 L62.8810017,42.0743362 L63.0136909,42.152356 L63.0402288,42.0873395 L63.0269599,42.152356 L63.0269599,42.1653593 L63.0136909,42.152356 L63.0269599,42.1783625 L62.9606153,42.4384285 L62.5890855,42.1133461 L62.8810017,42.0743362 L62.8013882,41.9833131 L62.5758166,42.1003428 L62.4829342,42.022323 L62.4298585,41.9833131 L62.5492788,41.7102438 L62.8013882,41.9833131 C63.332145,41.5802109 61.8062193,40.930046 61.6204544,40.448924 L61.8858328,40.318891 C61.2621936,39.837769 60.7447057,39.4216635 60.3068314,39.0185613 L59.70973,38.4594195 C56.7772987,40.1108383 58.9799394,39.3436437 58.3430313,39.8767789 C58.4889894,40.800013 58.5155272,41.5802109 58.6084096,42.503445 C59.0860908,44.0638407 60.0547219,46.0533452 60.20068,47.4707046 C60.5058651,47.9518266 60.8906638,48.536975 61.2223868,49.2911663 L61.0100841,49.1351267 C61.1295044,49.278163 61.2356557,49.4081959 61.3418071,49.5512322 C61.514303,49.9543344 61.6735301,50.4094498 61.8062193,50.9295817 C61.8725639,51.5017268 61.6469922,51.0466114 61.514303,50.8905719 L62.0981355,52.4379642 C61.2223868,51.423707 60.3333692,50.3834432 59.4310827,49.3171729 L59.0728218,48.8490541 L58.0643839,47.5097145 C57.9847704,47.2756552 57.891888,47.0415958 57.8122745,46.8075364 C57.5999718,46.8075364 57.6265096,46.5474705 57.6397785,46.2744012 C57.6530474,45.8843023 57.6663164,45.4812001 56.9497947,46.0143353 L56.7772987,45.7932792 L56.8569123,46.0793518 C56.7242231,46.1703749 56.5915339,46.2874045 56.4323068,46.4304408 L56.8303744,46.963576 L57.069215,48.0038398 C56.7905677,47.3666782 56.7640298,47.7697805 56.7640298,48.1728827 C56.7640298,48.5629816 56.7640298,48.9400772 56.564996,48.4459519 C57.4142069,51.5147301 57.732661,55.922848 59.0728218,56.5600095 L58.7543678,55.6757853 C58.7278299,54.830571 58.3563002,53.3742017 58.6482164,53.4002083 L59.2320489,54.7785578 L59.9751084,57.496247 L54.8533054,55.4157194 L54.7338851,55.2466765 L57.0559461,56.0008678 L56.7507609,55.6887886 C56.1536595,55.0906369 55.3442554,55.311693 54.7338851,54.9085908 C54.8400365,54.8045644 54.6277338,54.6485248 54.2960108,54.479482 L54.2296662,54.3234424 L54.096977,54.0503731 L54.096977,54.0373698 C54.7338851,53.3351918 54.4154311,53.6992841 53.8846743,54.2714292 L53.6856405,54.1804061 C53.4600689,54.2974358 53.274304,54.4144655 53.1150769,54.5184918 L53.1283459,54.5184918 C53.274304,54.570505 53.3937243,54.6355215 53.4866067,54.7135413 L53.3937243,54.8175677 L53.0885391,54.700538 L53.0221945,54.5965116 C52.2658661,55.1296468 52.3454796,55.441726 52.5975891,55.6887886 L52.4914377,55.8188216 L52.6241269,55.8838381 L52.770085,55.9618579 L53.1283459,56.1569073 L53.1283459,56.4819898 C55.0125324,59.550768 55.423869,59.5637713 55.7555919,59.4857515 L57.5468961,62.5935396 C57.9316947,63.4647605 58.4359137,64.2969715 58.9401326,65.0251562 L60.1476043,67.1056838 C60.028184,67.2487201 59.9220327,67.4047596 59.8026124,67.5477959 L58.382838,68.9391487 C58.4624515,68.7831092 58.6747542,68.47103 58.4093759,68.7050894 L57.228442,70.0704356 L48.1923078,78.9256812 C48.2321145,78.6656152 48.2453835,78.4185526 48.2188456,78.2365064 C47.8871226,78.873668 48.0728875,77.7683877 48.0065429,77.5733383 C47.8738537,78.1194767 47.9667362,78.9126779 47.9534672,79.1727438 L47.4625172,79.6538658 C47.5155929,78.9776944 47.5421307,78.3535361 47.7146267,77.911424 C47.6217442,78.0804669 47.5952064,78.2755163 47.4890551,78.0284537 L47.7278956,77.4953185 C47.7146267,77.0402031 47.4359794,76.7801371 47.6217442,76.468058 C47.4890551,76.3250217 47.3961726,77.2612591 47.2634834,77.5473317 C46.7459956,77.0662096 47.6350132,76.6110942 47.2502145,76.1039656 C47.0909875,75.9999393 47.0777185,76.2600052 47.0777185,76.5200712 C47.0644496,76.8061437 47.0511807,77.1052195 46.8521469,76.8841635 L46.9848361,76.2600052 C46.5469618,76.6371008 46.998105,77.2742624 46.6265753,77.430302 L46.6398442,77.1962426 L46.7061888,76.5330745 L46.7194577,76.4940646 L46.7061888,76.468058 L46.8654158,74.6736029 L46.8654158,74.6475963 C47.1042564,74.7386194 47.1971388,75.4017876 47.1573321,75.6878601 C47.329828,75.4407975 47.3165591,74.9466722 47.3165591,74.6866062 L47.170601,75.1547249 C47.1971388,74.6215897 46.9582983,74.5565732 46.8919537,74.2184875 L46.9582983,73.5293127 L46.9582983,73.4382897 C46.998105,73.3732732 47.0644496,73.3992798 47.1307942,73.4252864 C47.1971388,73.451293 47.2634834,73.4772995 47.3165591,73.3992798 C47.2236767,72.6320852 47.329828,73.1392138 47.0379118,73.1392138 C47.0511807,72.5410621 47.1971388,72.4110292 47.2236767,71.617828 C47.2767523,72.0729434 47.4227105,72.2159797 47.3165591,72.6450885 L47.5421307,72.5280588 C47.4757861,71.9949236 47.3032902,71.5658148 47.170601,70.9806664 L47.1971388,70.6685873 L47.3032902,70.6425807 C47.2634834,70.6035708 47.2634834,70.2004686 47.2900213,69.6283235 L48.2188456,58.7055536 C48.6169132,57.9253558 49.3334349,56.9371052 49.3732416,56.2609337 C49.0149808,56.8590854 48.6301821,57.3922206 48.2851902,57.9253558 L48.4974929,55.4027161 L47.5952064,56.5860161 C47.661551,56.4429799 47.7278956,56.2869403 47.7809713,56.143904 L48.3515348,55.311693 L47.1971388,55.532749 C47.3165591,55.3767095 47.4227105,55.2206699 47.4890551,55.0386237 C47.3696348,55.2076666 47.2369456,55.3767095 47.1175253,55.5457523 L42.0753359,56.5079964 C42.9510846,56.2219238 43.6410684,55.9748612 44.0922116,55.8838381 L43.216463,56.0008678 C44.1320184,55.6107688 42.1151426,55.7408018 42.88474,55.4547293 C40.6024858,55.8968414 37.3250627,55.6757853 36.8473816,56.885092 L37.5108275,56.6770392 C37.7363992,56.7030458 38.0415843,56.7030458 38.3202316,56.6900425 C38.7846438,56.6770392 39.2092492,56.6770392 39.1959803,56.8590854 L38.1742735,57.2491843 L34.9233882,57.8733426 L30.7702164,58.6665437 L30.8498299,58.458491 C31.0621326,58.3934745 31.2744353,58.4714943 31.3805867,58.5105042 L33.7822611,57.7953228 L33.477076,57.6782931 C33.1188152,57.5482602 32.8534368,57.6782931 32.5880584,57.8083261 C32.3757557,57.9123525 32.1767219,58.0163789 31.9511502,58.0033756 C31.990957,57.58727 30.2394596,58.1074019 29.4831312,58.1204052 C26.9354987,58.7055536 26.8426162,59.069646 26.8426162,59.4077317 L25.1309256,59.7328141 L24.2817147,59.901857 C23.578462,59.9278636 22.9017471,60.0839032 22.2781079,60.2789526 L19.292601,60.8510977 L18.3372388,61.0331439 C17.6870617,60.8771043 17.2093806,61.124167 16.6653549,61.345223 L16.0151779,61.475256 L15.3517319,61.605289 C15.4446143,61.5142659 15.6701859,61.4102395 15.4446143,61.4232428 L14.2636805,61.8003384 L0.0526676186,64.5180276 L7.49653149,69.433274 C7.64248961,69.5893136 7.74864096,69.7193466 7.80171664,69.8103697 C8.17324639,70.1094455 9.65936538,71.3187522 9.56648294,70.8376302 C11.2383668,72.5150555 13.8258061,73.8153853 15.5109589,75.505814 C18.7485753,77.4172987 18.0983982,78.0934701 21.3094768,79.7188823 C21.76062,80.1349879 21.3227457,80.1219846 21.7738889,80.5510934 C23.1007809,81.6953835 24.5470931,81.8514231 25.7014891,82.1374957 C26.5772378,82.7616539 27.8908609,83.3988155 27.7714406,83.7759111 C27.4795244,83.814921 26.8956919,83.3598056 26.6037757,83.2817858 C25.6882202,83.6718848 26.3383973,83.9319507 27.3335662,84.2570331 L28.1297014,84.5170991 C29.854661,84.20502 30.173115,84.0489804 30.1465772,83.9319507 C30.3588799,83.9969672 30.6375272,84.1009936 30.9825191,84.0489804 L30.4517623,83.944954 C30.8630988,83.5418518 31.9378813,83.8409276 32.6145962,83.5678584 C32.4288314,83.5808617 32.2430665,83.593865 32.2032597,83.4768353 C32.3492178,83.3468023 32.81363,83.3858122 33.0790084,83.4378254 C32.9993949,83.8799375 31.4336624,83.7629078 31.6326962,84.0879903 C32.4288314,84.074987 33.0790084,83.5288485 33.5699584,83.593865 L33.1984287,83.8669342 L33.5699584,83.7629078 L33.4638071,83.7499045 C33.5434206,83.6198716 33.7026476,83.6458782 33.8751436,83.6588815 C33.9945639,83.6718848 34.1272531,83.6848881 34.2599422,83.6588815 L34.0741774,83.9189474 L34.6447409,83.8929408 L34.5651274,83.8279243 C35.4806828,83.6588815 36.276818,83.6458782 37.1260289,83.7499045 L36.6218099,83.6848881 C36.6616167,83.6328749 36.9269951,83.593865 37.1525667,83.6198716 C37.0729532,83.4768353 36.4758518,83.5548551 36.5023897,83.4248221 C37.3117937,83.4118188 37.4179451,83.5808617 38.2273492,83.6588815 C38.2936938,83.5548551 37.6833235,83.3077924 38.3335006,83.1777595 C38.2936938,83.3858122 38.8775263,83.4378254 38.4529208,83.6848881 C38.6917614,83.593865 38.8111817,83.6198716 38.9040641,83.6328749 C39.0102155,83.6588815 39.0765601,83.6848881 39.3154006,83.5418518 L39.1030979,83.5418518 C38.9438709,83.4248221 39.3286695,83.3988155 39.4746276,83.3598056 C39.7532749,83.4898386 39.8992331,83.6198716 40.3238385,83.6328749 L41.1995872,83.4248221 L41.1995872,83.5158452 C42.0355291,83.3728089 42.9510846,83.4508287 43.5614549,83.2817858 C43.6277995,83.1777595 43.86664,83.0347232 43.4022278,83.0737331 C43.5879927,82.9567034 43.8268333,82.9567034 44.0524049,82.98271 L43.707413,83.333799 L54.6808095,83.333799 C54.9859946,83.3728089 55.2381041,83.4248221 55.3707933,83.463832 C56.0873149,83.5158452 58.9268637,83.6978914 58.3961069,83.3598056 C61.8991017,83.8279243 66.1716938,83.5028419 69.6746886,83.9709606 C72.1957833,83.8799375 73.5359442,84.0229738 74.7434158,84.1660101 C76.1897281,84.3350529 77.4502754,84.5040958 80.3694377,84.2830397 C81.2717243,84.3870661 80.7409675,84.6211255 81.643254,84.7251519 C84.2572312,84.9462079 86.1546867,84.2830397 87.8265705,83.8799375 C88.2777138,83.8799375 88.7952017,83.8799375 89.2728828,83.8669342 C90.5068923,83.8539309 91.6347504,83.8279243 91.7541707,84.1139969 C91.4224477,84.296043 90.3211274,84.2440299 89.896522,84.3480562 C89.1003868,85.167264 90.1353625,85.0242277 91.6347504,84.7511585 C92.032818,84.5170991 92.2451207,84.556109 92.4574234,84.5951189 C92.855491,84.6601354 93.2800965,84.7251519 94.9785182,83.2167694 C94.9387114,82.9697067 94.9254425,82.7486506 94.9121736,82.5145913 C94.9121736,82.8786836 94.7131398,83.2687825 94.009887,83.7499045 C94.7264087,82.9437001 94.2885343,81.279278 93.9435424,79.9009285 L93.9435424,77.5473317 C94.2885343,77.5473317 94.6467952,79.3287834 94.7264087,76.2339986 C94.2487276,75.1937348 94.7927533,72.5540654 94.514106,71.0456829 L94.3548789,71.2277291 C94.1956519,67.5217893 95.6154263,69.4072674 95.4296614,66.6505684 C95.2837033,67.9118882 95.2306276,67.4697761 95.177552,67.027664 C95.1244763,66.5985552 95.0714006,66.1564431 94.9254425,67.4307662 C94.7396776,68.1849575 94.3150722,68.1589509 93.9435424,68.2109641 L93.9435424,61.6312956 L94.2221898,61.5272692 C94.1956519,61.9953879 94.1293073,62.1384242 94.2221898,62.3334736 C94.2752654,62.1904373 94.3814168,61.9173681 94.4344925,62.5805363 L94.5804506,59.901857 L94.845829,60.0188867 C94.6202573,56.7160491 94.9917871,55.4157194 95.3102412,53.4652247 C95.2571655,51.7357862 94.8590979,49.4211992 95.0846695,47.92582 L95.0183249,47.6917607 C99.1714967,45.5852265 101.188373,42.9715637 105.805957,40.3579009 C104.014652,41.2031152 102.064121,42.0873395 99.6093711,43.4786923 L101.46702,42.022323 L101.440482,42.0353263 L105.726343,39.48668 L106.37652,39.096581 C105.686536,39.5907064 105.076166,40.0718284 104.625023,40.3839075 C106.469403,39.8117624 110.171431,37.7962513 108.804732,39.4736767 C111.126793,38.2513667 111.352365,37.7702447 112.811946,36.6779677 C113.634619,36.2618622 114.97478,35.3256248 115.293234,35.4296512 C116.606857,34.3503775 116.460899,34.3763841 118.822767,33.2971104 C120.308886,32.3348664 121.622509,31.268596 120.507919,31.7237114 L116.288403,34.2593544 C114.510368,34.8705094 116.474168,33.3621269 117.018194,32.7639752 L126.293168,27.2375738 L124.740705,28.4598837 L127.726212,26.6914353 C127.38122,27.3285968 126.120672,28.6939431 128.60196,27.4456265 L129.928852,26.4313693 L130.008466,26.3663528 L130.035004,26.3533495 L130.048273,26.3403462 C129.544054,23.6356604 129.597129,23.9347362 129.650205,24.2468153 C129.676743,24.4028549 129.703281,24.5718978 129.650205,24.2468153 M95.1112074,47.7567772 L95.0846695,47.92582 C95.177552,48.2509025 95.2704344,48.536975 95.3235101,48.797041 L95.1112074,47.7567772 M101.599709,43.7647648 L103.974846,42.8285274 L103.616585,42.4384285 C102.966408,42.9715637 102.263155,43.2316296 101.599709,43.7647648 M121.967501,30.6314344 L125.616453,28.3298507 L125.324537,28.3688606 L121.967501,30.6314344 M60.2139489,47.6397475 L60.20068,47.4707046 C60.028184,47.1976354 59.868957,46.963576 59.7628056,46.74252 L60.2139489,47.6397475 M56.564996,48.4459519 C56.4455758,47.9908365 56.2996176,47.5617277 56.1536595,47.1846321 C56.3394244,47.8347969 56.4721136,48.2248959 56.564996,48.4459519 M94.7794844,80.8111593 C94.4610303,81.3833044 94.8192911,81.8254165 94.8989046,82.3325451 C94.8723668,81.8774297 94.8856357,81.4613242 94.9652492,81.1362418 C94.9387114,81.0452187 94.9121736,81.058222 94.8723668,81.0712253 C94.8325601,81.0972319 94.7794844,81.1102352 94.7794844,80.8111593 M94.8192911,74.8556491 C95.0846695,75.0767051 95.1112074,77.3652855 95.4163925,77.300269 L95.3898547,75.0116886 C95.2704344,75.2327447 95.1908209,74.8426458 95.1244763,74.4655502 C95.0315938,73.8804018 94.9519803,73.3082567 94.8192911,74.8556491 M64.9509532,30.8394872 C64.7386505,30.5664179 65.2296005,28.4598837 64.9244154,28.4598837 L64.4201964,30.5534146 C64.5794234,30.3713684 64.5661545,30.7354608 64.5396167,31.0995531 C64.5130789,31.6586949 64.4600032,32.2048334 64.9509532,30.8394872" id="Fill-24" fill="#2C4067"></path>
                    </g>
                    <path d="M43.6798089,81.2186791 C43.2419345,80.5555109 42.5652196,80.3214515 42.6581021,79.9443559 C42.8969426,80.256435 43.162321,80.5555109 43.4276994,80.8415834 L43.5471197,80.9716164 C43.8124981,81.2446857 44.0911454,81.5047516 44.3963305,81.738811 L44.3963305,81.7518143 C44.1442211,81.6217813 43.9053805,81.4527384 43.6798089,81.2186791 M58.4879231,75.4842249 C58.2623515,76.0433667 58.2225447,75.7442908 58.1562001,75.4582183 C58.1163934,75.2631688 58.0500488,75.0811227 57.9173596,75.1201325 C58.1031244,74.9120798 58.2358136,74.0408589 58.3552339,74.3399347 C58.3950407,73.0786148 57.5989055,72.0903642 57.9571663,71.3101664 L57.6387123,70.9330708 C57.2141068,70.2699026 57.2937203,69.6197377 57.0416109,68.9435663 L56.7762325,68.9565695 C56.4975852,68.5794739 56.0862487,67.8642926 55.9933662,67.4351837 C55.528954,66.5639628 54.4939783,65.9007946 53.4988094,65.4846891 C52.7424809,64.912544 51.9330768,64.4704319 51.0705971,64.1713561 C51.4288579,64.1843594 52.5567161,64.5484517 51.9728836,64.0673297 C50.1948484,63.6642275 47.8329807,63.1961088 46.2539793,64.0543264 C46.0549455,64.1193429 45.8559117,64.1973627 45.6701468,64.2883858 C45.2853481,63.8722802 43.4542372,65.17261 43.0827075,65.8357782 L42.9102115,65.7577584 C42.2998412,66.1478573 42.007925,66.6289793 41.5435128,67.6302332 C40.9331425,68.8265366 40.6412263,70.0358432 40.0839317,71.076107 C39.4337546,72.4674599 40.0175871,74.1188786 40.5350749,74.9250831 L40.6014195,75.3021787 C40.7208398,75.9133337 40.8933358,76.4984821 41.0923696,77.0576239 L41.1056385,77.0706272 L41.0923696,77.0706272 L41.1189074,77.1226404 C41.2117898,77.3827063 41.3179412,77.6167657 41.4240925,77.8638283 L41.4771682,77.9678547 C41.6629331,78.3709569 41.8752358,78.7610558 42.1008074,79.1381515 L41.848698,78.9040921 C42.007925,79.4112207 41.6363953,79.1251482 41.516975,79.0211218 C41.2117898,77.9678547 40.9862182,78.4099668 40.5350749,77.6817821 C40.4819993,77.499736 40.4554614,77.1356437 40.6014195,77.2266667 C40.3891168,76.7845546 40.3227722,75.4972282 39.9114357,75.5362381 L39.9512425,75.4322117 C39.2877965,75.7182842 38.7437708,76.4204623 38.3324343,77.4217162 C38.5580059,77.980858 38.8897289,78.4489767 39.2877965,78.7870624 C39.9114357,81.4007252 41.9017737,81.6998011 43.66654,83.4812528 C45.5905333,84.8856089 47.3951064,85.0936617 49.6906294,85.457754 C50.3142687,84.4825067 54.2816756,84.8205925 55.1574243,82.8831011 C55.860677,82.0248835 55.873946,81.348712 55.1839621,81.7258077 C56.1393243,80.7895702 56.2056689,81.257689 56.7496946,80.2174252 L56.8691149,80.7765669 C57.1743001,80.5034977 57.6652501,80.256435 57.7846704,79.7363031 L57.6387123,79.0211218 C58.7002258,77.9028382 58.0235109,76.8625744 58.4879231,75.4842249" id="Fill-26-Copy" fill="#2D303C"></path>
                    <path d="M0,53.8489545 C0,53.8489545 33.7694003,51.118262 51.8416687,60.0905373 C51.4037944,63.8744968 30.0939096,73.1978611 30.0939096,73.1978611 L0,53.8489545" id="Fill-27-Copy" fill="#2D303C"></path>
                    <path d="M0,53.8489545 C0,53.8489545 33.7694003,51.118262 51.8416687,60.0905373 C51.4037944,63.8744968 35.4943598,66.5791827 30.2664055,65.6039354 C25.0384512,64.6286881 0,53.8489545 0,53.8489545" id="Fill-28-Copy" fill="#2C3B5F"></path>
                    <path d="M27.9183037,65.2583229 C24.3740278,63.6646966 21.7910115,61.7589911 22.147798,60.9946862 C22.5045845,60.2347157 25.6640617,60.9079975 29.2083375,62.4972894 C32.7496647,64.089471 35.332681,65.9980661 34.9788432,66.7594814 C34.6220567,67.5208967 31.4596309,66.8476148 27.9183037,65.2583229" id="Fill-29-Copy" fill="#2D303C"></path>
                    <path d="M44.8990751,63.0053107 C40.3389898,63.0053107 33.8357449,61.7107602 30.8384434,60.9435656 C25.4247242,59.5652161 18.7902644,57.3676588 1.4743244,55.1961081 C1.4743244,55.1961081 5.49480702,54.9028115 11.4201168,54.9028115 C21.6180186,54.9028115 37.4611086,55.7711428 48.2059848,60.4942294 L48.7131524,62.4620618 C47.8256091,62.8492711 46.4795509,63.0053107 44.8990751,63.0053107" id="Fill-30-Copy" fill="#95A9CC"></path>
                    <path d="M33.4774841,78.346312 L33.5570976,78.5023516 L33.5570976,78.4893483 L33.4774841,78.346312 M30.9696583,78.1772692 C31.1023475,78.5413615 31.0360029,78.3593153 30.9696583,78.1772692 M32.9334584,77.8391834 L32.8936516,77.7221538 L32.8140381,77.6311307 L32.9334584,77.8391834 M36.8477896,80.1017572 L36.8079829,80.1017572 L36.7947139,80.179777 L36.9274031,80.2968067 L36.8477896,80.1017572 M37.1397059,80.3878297 C36.9937477,80.2708001 36.7947139,80.4398429 36.6752937,80.4398429 C36.8079829,80.5438693 36.9406721,80.660899 36.9008653,80.8559485 L36.7947139,80.8689518 L36.6752937,80.6739023 L36.7549072,80.8689518 L36.7018315,80.9209649 L36.8345207,81.0640012 L36.9406721,81.3240672 C36.9937477,81.1550243 37.0335545,80.9859814 37.0733613,80.8169386 L36.953941,80.9989847 C37.0600923,80.8299419 37.1264369,80.4658495 37.1397059,80.3878297 M46.4810252,54.3162183 C46.5075631,54.3942381 46.5871766,54.5242711 46.6667901,54.6673074 L46.7198658,54.9273733 C46.5606387,54.9793865 46.4014117,55.0313997 46.2554536,54.9923898 C46.2687225,54.784337 46.2819914,54.4202447 46.4810252,54.3162183 M47.4098496,56.0846668 L47.4098496,56.2407064 L47.3965807,56.2407064 L47.343505,56.0846668 L47.4098496,56.0846668 M48.0600267,57.3719932 L48.0600267,57.5150295 L47.9273375,57.580046 L48.1396402,58.0221581 L48.006951,58.061168 C47.9406064,57.8401119 47.8742618,57.6320592 47.7946483,57.4110031 L48.0600267,57.3719932 M49.5328767,57.8531152 L49.7053727,58.061168 L49.49307,58.0741713 C49.4399943,57.9571416 49.3471119,57.8531152 49.2011537,57.801102 C49.2807673,57.7880988 49.3869186,57.7880988 49.5328767,57.8531152 M50.1697849,55.9936437 C50.315743,55.9676371 50.3820876,56.0716635 50.4484322,56.1626866 L50.3688187,56.2016965 C50.2759362,56.2407064 50.1565159,56.2927195 50.0238267,56.3447327 C50.0105578,56.2146998 50.0238267,56.0976701 50.1697849,55.9936437 M44.7560657,54.8233469 L44.7560657,54.8363502 L44.7693346,54.8493535 L44.7826035,54.8883634 L44.8091414,54.9533799 L44.9816373,55.1484294 L45.4725873,55.4475052 C45.4725873,55.655558 45.7246968,55.9416305 45.4593184,56.0846668 C45.8706549,56.3187261 45.9237306,56.2797162 45.7910414,56.9038745 C45.9900752,57.2419603 46.4014117,57.4890229 46.520832,57.1769438 L46.1360333,56.1756899 C46.3350671,55.8115975 46.6402523,55.876614 46.9188996,55.9806404 C46.6933279,56.2146998 46.9056307,56.3317294 47.0781266,56.4747657 C47.1046644,56.617802 47.1179334,56.7608383 47.1444712,56.9038745 L46.9454374,56.8908712 L47.2108158,57.2939734 C47.2638915,57.5410361 47.2904293,57.801102 47.3169672,58.0481647 L46.8790928,57.4760196 L47.3302361,58.3082306 C47.343505,58.4512669 47.3567739,58.5943032 47.3567739,58.7373395 C46.9985131,58.7373395 46.680059,58.7893527 46.6535212,59.1924549 C46.8790928,59.4005076 47.0913955,59.6085604 47.2771604,59.8296165 C47.2638915,59.985656 47.2373536,60.1416956 47.2108158,60.2977352 L47.9140685,63.0284276 C47.8742618,63.2234771 47.7946483,63.4055233 47.6354212,63.4575364 C47.6619591,63.2754903 47.502732,63.3145002 47.3700428,63.3535101 C47.2638915,63.39252 47.171009,63.4185266 47.2108158,63.3665134 C46.7862104,63.7045991 47.343505,64.0426848 47.3567739,64.6018266 C47.6354212,64.7448629 48.0865645,64.9139058 48.3121361,64.5888233 L48.497901,65.317008 C48.6438591,65.0829486 48.7898172,64.8228827 48.9357753,64.5498134 C49.5063389,64.4327838 49.9442132,64.0426848 50.2228605,63.5095496 C50.0105578,63.5095496 49.98402,63.4445331 49.98402,63.3795167 C49.9972889,63.2754903 50.0769024,63.1844672 49.7053727,63.3275035 L49.7186416,63.2364804 C49.8645997,63.0544342 49.98402,62.8593848 50.0769024,62.6383287 C50.4086254,63.002421 50.5545835,62.5473056 50.7934241,62.2742364 C50.8730376,62.4042694 50.9526511,62.521299 51.0986092,62.6253254 L51.2047606,62.2482298 L51.2843741,62.2612331 L51.1516849,62.1312001 L51.2711052,62.1442034 C51.2047606,61.3119924 52.3989634,61.2729825 52.3193498,60.3497484 C51.7753241,59.855623 51.5497525,60.9218934 51.297643,61.2339726 L51.3507187,60.9088901 C51.2047606,61.077933 50.9924579,61.2209693 50.7536173,61.3249957 L50.8730376,61.1949627 C50.6740038,59.9076362 51.7885931,59.9336428 51.2843741,58.6463164 C51.4037944,58.412257 51.6824417,58.5032801 51.7487863,58.2432142 C51.7885931,57.6840724 51.2578363,57.3719932 50.7536173,57.1769438 C50.7270795,56.9168778 50.6076592,56.7218284 50.1299781,56.6568119 L50.4617011,56.2537096 L50.4882389,56.2146998 L50.5811214,56.2927195 C51.5630214,56.0716635 51.297643,55.8506074 50.8597687,55.6295514 L50.7668862,55.5905415 L50.7536173,55.5775382 L50.7403484,55.5775382 C50.4351633,55.7075712 49.8513308,55.9416305 48.7898172,56.3707393 C48.5509767,56.1106734 48.2723294,55.8506074 48.0334888,55.5645349 L48.0202199,55.4214986 C47.9273375,55.2524557 47.834455,55.1354261 47.7415726,55.044403 L47.675228,54.7453271 L47.6221523,54.9273733 L47.2240847,54.8103436 C47.502732,54.303215 47.6221523,53.69206 48.4315564,53.9001128 L48.4315564,53.69206 C47.9273375,53.8480996 47.2506226,54.0561524 46.6004455,54.2512018 L46.5341009,54.082159 L46.5739077,54.2642051 L46.5341009,54.2772084 L46.4677563,54.2902117 C45.3797049,54.6282975 44.4508805,54.91437 44.7560657,54.8233469 M50.7403484,55.5775382 C50.979189,55.4865151 51.2047606,55.395492 50.7403484,55.5775382 M48.4315564,53.69206 C48.829624,53.5750304 49.1348091,53.471004 49.2144227,53.4580007 C49.1480781,53.471004 48.9092375,53.5490238 48.4315564,53.69206 M49.2144227,55.0574063 L48.6040524,55.2134459 C48.7898172,55.3564821 48.657128,55.5775382 48.8428929,55.746581 L49.2144227,55.0574063 M51.2843741,62.2612331 L51.4568701,62.3782628 C51.4436011,62.2352265 51.3639876,62.2612331 51.2843741,62.2612331 M64.7788653,65.5250607 L64.7788653,65.5120574 C65.1769329,65.8631465 65.3361599,66.019186 64.7788653,65.5250607 M63.0937125,64.1597145 L63.0937125,64.1467112 L63.1202504,64.094698 L63.1335193,64.0816947 L63.2264017,64.1597145 L63.2529396,64.3027508 L63.0937125,64.1597145 M62.7354517,82.2082914 C60.5858867,82.5203705 58.3301704,82.7414266 56.0611851,82.8064431 C56.7379,82.7284233 57.3350014,82.6113936 57.8524893,82.4943639 L62.7354517,82.1952881 L62.7354517,82.2082914 M58.6088177,64.8878992 C58.8609272,64.9399124 58.9405407,65.0179321 58.9670785,65.1089552 L57.8392204,65.3040047 C58.1709434,65.1609684 58.4628596,65.0179321 58.6088177,64.8878992 M44.9949062,83.7556838 C44.6233765,83.8467069 43.1637953,83.4826145 43.548594,83.2355519 L43.2832156,82.9494793 L43.8007035,83.3395783 L45.2735535,83.2485552 C45.2602846,83.4306014 45.2602846,83.6126475 44.9949062,83.7556838 M38.2410262,79.6466418 L38.108337,79.5426154 L38.4002532,79.6596451 L38.2410262,79.6466418 M37.3122018,78.6323846 L37.3785464,78.606378 L37.6837316,78.8274341 L38.2410262,79.2435396 C37.9225721,79.1265099 37.5775802,78.9834736 37.3122018,78.6323846 M35.5739733,79.6466418 C35.2555193,79.568622 35.2422504,79.3865758 35.308595,79.1915264 C35.467822,79.3085561 35.6403179,79.438589 35.799545,79.5296121 L35.5739733,79.6466418 M34.3399638,78.5673681 L34.1940057,78.6974011 L34.0878544,78.7754209 C33.6367111,78.9704703 33.8888206,78.6974011 34.2868881,78.3203054 L34.4063084,78.4373351 L34.3399638,78.5673681 M65.3759667,66.6563476 L65.4688491,65.9671729 C65.1902018,66.6043344 64.7390585,67.1634762 64.3542599,67.3195158 L64.3807977,66.9034103 L64.4471423,65.5770739 L64.4604112,65.5900772 L64.7655964,65.6420904 L64.7921342,65.6420904 C65.5617316,66.3182619 65.1105883,65.9151597 64.4604112,65.3560179 L64.4736802,65.2519915 L64.7390585,65.4860509 L64.7523275,65.4600443 L64.7655964,65.447041 L64.4736802,65.1999783 L64.5400248,64.1597145 L64.1021504,64.2377343 C64.0225369,63.8866453 63.9031166,63.6005727 63.4387044,63.6915958 C63.186595,63.4965463 62.5496868,63.6525859 61.9127787,63.8086255 C61.2758705,63.964665 60.6389624,64.1207046 60.3868529,63.9256552 C58.3434393,64.57582 56.5521352,63.9776683 55.6763865,65.056942 L54.0045026,64.6148299 C52.7174174,64.6278332 51.9212822,65.0439387 51.0720714,65.3690212 C50.7270795,65.7331135 52.1070471,65.6420904 51.1118782,66.2012322 C50.7403484,66.3312652 50.0901713,66.5263146 49.6921038,66.4352916 C49.5594146,66.279252 50.0370957,66.0711992 50.143247,66.0061827 C48.1396402,66.5133114 46.5871766,65.9411663 44.9550995,65.8241366 C42.8984169,66.3052586 39.9527168,66.4352916 38.8381276,67.1894828 L40.0721371,67.0724531 C38.3073708,67.4105389 40.1915574,67.9566774 38.1746816,68.1127169 C36.6487558,68.1127169 37.3254707,67.7096147 37.1795126,67.3975356 C36.3435707,67.4885587 35.0166787,67.9956873 34.3266949,67.9046642 C35.2555193,67.6706048 33.5438287,67.6836081 33.981703,67.6055883 C32.4027016,67.6706048 32.3761637,68.2427499 31.1023475,68.684862 C31.2483056,68.9969412 31.6596421,69.4910665 33.318257,69.0359511 C33.0263408,69.1789873 33.3315259,69.2830137 32.8803827,69.3740368 C33.4244084,69.2049939 34.14093,69.2049939 34.6053422,69.2570071 L26.5378391,70.6353566 L32.5619286,75.0694811 C32.3894327,75.0954877 32.2036678,75.1344976 32.0311718,75.2125174 C31.3809948,74.9654547 30.6910109,74.6663789 29.9744893,74.0552239 C29.0191271,74.0682272 30.0010271,75.1475009 30.1602542,75.6936394 L30.0806406,75.4205701 C30.346019,75.4985899 30.5848596,75.45958 30.9165826,75.7586558 C30.7440866,75.8366756 30.5848596,75.9016921 30.4123636,75.940702 L30.359288,76.070735 L30.1071785,75.8236723 L30.0806406,75.7846624 L30.0673717,75.7716591 C30.1337163,75.9537053 30.186792,76.0967416 30.2398677,76.2657844 C30.1204474,76.3698108 29.9744893,76.3568075 29.8285312,76.3438042 C29.4968082,76.3047943 29.2181609,76.2657844 29.6427663,78.0992494 C29.9479515,78.2292824 30.3327501,78.3333087 30.9696583,78.1772692 L31.009465,78.1772692 L31.1554231,78.1642659 L31.1952299,78.125256 C31.4606083,78.2162791 31.341188,78.4503384 31.6463732,78.5283582 C32.2832813,78.5803714 32.5884664,78.0732428 32.8007692,77.6181274 L32.827307,77.5661142 L32.8936516,77.7221538 L32.8538448,77.6181274 L32.8671138,77.5791175 L32.827307,77.5661142 L32.8405759,77.5401076 L33.0396097,77.6181274 C33.1988367,77.8781933 33.3447949,78.1382593 33.4774841,78.346312 L33.5040219,78.3593153 L33.5438287,78.3723186 L33.5172908,78.3983252 L33.5570976,78.4893483 L33.5570976,78.5023516 L33.5703665,78.5023516 C33.64998,78.7104044 33.7295935,78.8664439 33.809207,79.0094802 L33.7030557,79.0744967 L33.809207,79.0094802 C34.2470814,79.8676978 34.3665017,79.6206352 34.4991909,79.3865758 C34.5788044,79.2305363 34.6849557,79.0744967 34.8839895,79.2435396 L34.9503341,79.1525165 C35.1095612,79.698655 35.2422504,80.1537704 35.2687882,80.2708001 L35.2820571,80.2708001 L35.2820571,80.2838034 L35.295326,80.2968067 C35.4943598,80.1017572 35.5872423,79.9977308 35.6933936,79.919711 L35.6005112,80.0757506 L35.5739733,80.1537704 L35.5607044,80.179777 L35.5607044,80.2057836 C35.8658896,80.179777 36.131268,80.1537704 36.3701085,80.1407671 L36.4762599,80.2838034 C36.5160666,80.4268396 36.5956802,80.5438693 36.6752937,80.6739023 L36.5293356,80.3228133 L36.6089491,80.3878297 L36.5691423,80.2968067 C36.6089491,80.1407671 36.7151004,80.2187869 36.781445,80.2187869 L36.7947139,80.179777 L36.7018315,80.1017572 L36.8079829,80.1017572 L36.8079829,80.049744 L36.8345207,80.0627473 L36.8477896,80.1017572 L36.9008653,80.0887539 L37.2591261,80.2577968 C37.1795126,80.4398429 37.113168,80.6348924 37.0733613,80.8169386 C37.1927815,80.6348924 37.2989329,80.4788528 37.3918153,80.30981 L37.6571937,80.4268396 C37.6571937,80.790932 37.6306559,81.2330441 37.617387,81.5321199 C37.8827653,81.8051892 38.1481437,81.7401727 38.3869843,81.6101397 L38.8912032,82.2863112 L39.1698505,81.8181925 C38.9575478,81.7401727 38.7850519,81.6101397 38.6258248,81.4801067 L38.8646654,81.3760804 L38.6789005,81.4280935 C38.6125559,81.272054 38.4135221,81.1550243 38.599287,80.9339682 L38.7054384,80.9079616 L38.7319762,80.9079616 L38.9575478,81.011988 C39.594456,81.3370705 40.257902,81.7141661 40.9346168,82.2603046 C40.2048263,81.4801067 39.42196,80.6218891 38.2941019,79.6856517 L38.4135221,79.6726484 L39.3556154,80.0757506 L39.3556154,80.0627473 L40.1252128,80.6218891 L41.9563237,81.974232 C41.5317182,81.7661793 41.1203817,81.5841331 40.8417344,81.4280935 C41.399029,82.4293474 43.2036021,83.9637365 41.8103655,83.8987201 C42.0890129,84.1457827 42.3278534,84.3278289 42.5268872,84.4578619 C42.7391899,84.5228783 42.6861142,84.5228783 42.6330386,84.5228783 C42.5401561,84.5228783 42.4472737,84.509875 43.9201238,84.9519872 L44.21204,84.8739674 C44.5835697,84.769941 44.9020238,84.6269047 45.4062427,84.4968717 C45.5787387,84.509875 45.8043103,84.4968717 46.029882,84.4838684 C46.4677563,84.4578619 46.8923617,84.4318553 46.9852442,84.6008981 C47.9273375,84.288819 47.8477239,84.2368058 49.320574,84.4318553 C50.315743,84.3148256 51.2578363,83.9897431 50.5678525,83.8467069 L47.7813793,84.0417563 C46.7198658,83.7036706 48.0998334,83.326575 48.5244388,83.0535057 L54.6414108,82.6894134 L53.5400904,83.0144958 L55.5171594,82.9104695 C55.1854365,83.3135717 54.1902675,83.9117234 55.7692689,84.0157497 C58.2770947,83.3395783 60.5991556,82.6894134 63.2927463,83.066509 C65.7607653,78.346312 64.3940666,75.6286229 64.7257896,71.5715941 C64.5532937,71.83166 64.5134869,71.701627 64.4869491,71.5715941 C64.4471423,71.4025512 64.4338734,71.2335083 64.2613774,71.8836732 C64.2083018,71.6756204 64.1552261,71.480571 64.1154193,71.2725182 L64.2083018,69.8551588 C64.5931004,70.6483599 64.6727139,69.9981951 64.7921342,69.3480302 C64.8850167,68.8539049 65.0044369,68.3467763 65.322891,68.5158192 C65.322891,66.7343674 66.2915221,66.8253905 66.4109424,64.9009025 C66.0526816,63.7176024 65.6015383,66.0061827 65.3759667,66.6563476 M51.5895593,83.5866409 L54.0177715,83.326575 L53.8585445,83.2225486 L51.5895593,83.5866409" id="Fill-31-Copy" fill="#2D303C"></path>
                    <path d="M46.5175754,82.9905505 C42.4970928,82.7174813 39.5115859,78.7904854 39.83004,74.2393313 C40.1617629,69.6751739 43.6780266,66.2032935 47.6985093,66.4763627 C51.705723,66.749432 54.7044988,70.6634245 54.3727758,75.2275819 C54.0543217,79.7917393 50.5247891,83.2636198 46.5175754,82.9905505" id="Fill-32-Copy" fill="#FFDD57"></path>
                    <path d="M46.4849029,82.874482 C44.2424554,82.7184424 42.5838405,80.5468918 42.7696054,78.0112488 C42.9421013,75.4756058 44.9059014,73.5381144 47.1350799,73.694154 C49.3642584,73.8501936 51.0361423,76.0217442 50.8503774,78.5573873 C50.6646125,81.0930303 48.7140813,83.0305216 46.4849029,82.874482" id="Fill-33-Copy" fill="#1A1919"></path>
                    <path d="M48.5008496,74.6779373 C48.0954104,74.4857775 47.6545874,74.3644134 47.1901753,74.3311827 C47.1061388,74.3254035 47.0221023,74.3225139 46.9380658,74.3225139 C46.5105117,74.3225139 46.0962266,74.4005337 45.7040563,74.5421251 C45.7099536,74.1664743 45.7276455,73.779265 45.7571319,73.381942 C45.966486,70.3319464 46.7744158,67.906109 47.5499104,67.906109 C47.5587564,67.906109 47.566128,67.9075538 47.5749739,67.9075538 C48.3711091,67.959567 48.8222524,70.49521 48.6099497,73.5639882 C48.5819375,73.9468631 48.5450794,74.3181795 48.5008496,74.6779373" id="Fill-34-Copy" fill="#FEEECC"></path>
                    <path d="M46.8132489,78.4026597 C46.8029286,78.4026597 46.7926083,78.4026597 46.782288,78.4012149 C46.1011502,78.3564257 45.6603272,76.4276033 45.7075056,73.9049636 C46.0996759,73.7633721 46.513961,73.6853523 46.9415151,73.6853523 C47.0255516,73.6853523 47.1095881,73.6882419 47.1936246,73.6940212 C47.6580367,73.7272518 48.0988597,73.8486159 48.5042989,74.0407758 C48.1917422,76.5417433 47.500284,78.4026597 46.8132489,78.4026597" id="Fill-35-Copy" fill="#CECFCD"></path>
                    <path d="M105.273599,109.516836 L110.330532,78.2467951 C110.458798,77.4593732 109.908875,76.7181852 109.106843,76.5924867 C108.301862,76.4696778 107.547007,77.0057026 107.420216,77.7945693 L102.756927,106.627214 L102.569688,106.73413 L102.56674,106.731241 C102.513664,106.868498 95.6079285,112.529266 94.3842392,118.122129 C94.2279608,118.905217 94.7542946,119.662298 95.5563271,119.815447 L95.8320258,119.840009 C96.5249582,119.841454 97.1441745,119.357442 97.2798123,118.668268 C97.4228218,117.866398 97.8503759,116.924381 98.4224137,115.954913 C97.9078745,117.440178 97.5392934,118.99335 97.5157042,120.472836 C97.5201272,120.688113 97.5230759,120.920728 97.5496137,121.17068 C97.6248042,121.913313 98.2661354,122.472455 99.0150922,122.472455 L99.1610503,122.465231 C99.9719287,122.384321 100.564607,121.676364 100.483519,120.883163 C100.47025,120.763243 100.462879,120.630321 100.462879,120.472836 C100.454033,119.529375 100.710565,118.377861 101.10421,117.191671 C101.141068,118.937002 101.359268,120.698227 102.089059,122.24273 C102.339694,122.767196 102.873399,123.074941 103.427745,123.074941 C103.637099,123.074941 103.850876,123.030152 104.051384,122.937684 C104.785598,122.598153 105.104052,121.737046 104.75906,121.01753 C104.260738,120.000383 104.030744,118.408202 104.038115,116.749559 C104.035167,114.242812 104.514322,111.65949 104.787072,110.372164 C105.037707,110.156887 105.217575,109.862146 105.273599,109.516836" id="Fill-36-Copy" fill="#F1D479"></path>
                    <path d="M84.4271865,88.5712383 L84.2856514,88.8818726 C84.5303892,88.6940472 84.4404554,88.6564821 84.4271865,88.5712383 Z M84.1278987,88.6810439 L84.1308473,88.6795991 L84.1396933,88.6752647 L84.1573852,88.665151 L84.1957176,88.6478133 L84.2723825,88.6102482 L84.4227636,88.5365628 L84.4271865,88.5712383 C84.7530122,88.077113 85.5226096,87.5555363 85.5506217,87.0093978 L84.6188487,87.8661706 L84.1912946,88.3039483 L84.0939892,88.4238676 L84.0453365,88.4859944 L84.0350162,88.5004426 C84.4728906,89.3572154 84.7043595,89.8065515 84.1278987,88.6810439 Z M79.7270404,84.663025 L79.6887079,84.6283495 L79.6842849,84.6269047 C79.8081282,84.4737548 79.8921647,84.3668388 79.9614579,84.2830397 C79.843512,84.4289656 79.6724903,84.6413528 79.4690336,84.8956395 C79.6695417,84.7843891 79.734412,84.7020349 79.7270404,84.663025 Z M103.941344,85.5371355 L103.848462,86.5629512 L104.330566,86.3520089 C104.110892,86.099167 104.162493,85.7914222 103.941344,85.5371355 Z M109.509867,88.7056057 L109.509867,88.7056057 L109.506919,88.7041609 L109.495124,88.7012713 L109.471535,88.6940472 L109.092634,88.5784623 L109.427305,88.8688693 C109.534931,88.6579269 109.788515,88.160912 109.509867,88.7056057 Z M109.546726,88.6940472 L109.473009,88.8356387 L109.458266,88.8674245 L109.546726,88.6940472 Z M118.175946,36.5696069 C117.702688,36.3687782 117.487437,36.2763103 118.143511,36.5566036 L118.143511,36.5594932 L118.022617,37.1041869 L118.060949,37.0391704 L118.175946,36.5696069 Z M119.890586,37.5535231 L119.924495,37.4957306 L119.970199,37.4206005 L119.992314,37.3830354 L120.002634,37.3656977 L120.008531,37.3570288 L120.01148,37.3512496 L119.889111,37.2992364 L119.846356,37.5188476 L119.890586,37.5535231 Z M122.296683,47.9113719 C122.593022,47.9865021 122.905579,48.07897 123.256468,48.2061133 C122.197903,49.1596885 122.967501,48.857723 122.296683,47.9113719 Z M121.665672,47.9041479 L121.535932,47.7596668 L121.795413,47.7943422 L121.665672,47.9041479 Z M120.198719,53.1921555 C119.63995,54.1399514 118.519464,56.0398776 118.43985,55.6757853 C118.33075,55.8246008 118.233445,55.9820852 118.128768,56.1381248 L120.032121,52.3686133 C120.178079,52.50876 120.33878,52.6084519 120.198719,53.1921555 Z M114.221808,44.5175113 C114.479815,44.0103827 114.739296,43.5653809 114.995829,43.3009806 L117.401926,39.2670687 L117.208789,39.8392138 L117.028922,40.1209519 L114.221808,44.5175113 Z M111.933657,68.5100399 L111.896799,68.4811437 L112.053077,68.1690646 L111.933657,68.5100399 Z M111.927759,48.025512 L111.971989,48.0442945 L111.887953,48.1743275 L111.927759,48.025512 Z M111.096241,70.2293648 L111.060857,70.1368969 L111.800968,68.6675243 L111.815711,68.677638 L111.817185,68.6790828 L111.817185,68.6935309 L111.821608,68.7455441 L111.826031,68.7961125 C111.647638,69.2584519 111.425015,69.7352395 111.096241,70.2293648 Z M110.637726,16.2367841 L110.621508,16.1240889 L110.612662,16.0605172 L110.637726,16.2367841 Z M110.308951,80.0887539 L110.27799,80.0396303 L110.282413,78.5167997 C110.369399,78.9213468 110.400359,79.3764622 110.308951,80.0887539 Z M109.800309,17.2120314 L109.784092,16.9057315 L109.736913,16.8349358 C109.753131,16.5690906 109.757554,16.3437001 109.744285,16.1746572 C109.763451,15.985387 109.806207,15.8654677 109.862231,15.7874479 C109.916781,15.9536012 109.962485,16.1414266 110.00524,16.3408105 L109.800309,17.2120314 Z M109.356538,85.6989544 C109.268078,85.5631421 109.178144,85.4085474 109.089685,85.2568422 C109.282822,85.3550894 109.477432,85.4490021 109.64698,85.5458044 L109.856334,85.9171208 C109.638134,85.9402378 109.347692,86.0688259 109.356538,85.6989544 Z M108.371689,83.9203922 L108.280281,83.7267876 L108.426239,83.8495965 L108.371689,83.9203922 Z M106.020142,87.0195115 L106.074692,86.984836 C106.11155,87.1885543 106.127767,87.2030024 106.020142,87.0195115 Z M105.213686,85.8376562 C105.179777,85.5602525 105.119329,85.2698455 105.038242,84.9736593 L105.069202,84.7656066 L105.496756,85.2525078 C105.455475,85.4201059 105.367016,85.6122657 105.213686,85.8376562 Z M88.6702921,85.3261932 L88.6584975,85.251063 L88.7248421,85.0401206 L88.6702921,85.3261932 Z M87.3507718,86.1049462 C87.4377569,85.8304321 87.533588,85.5588077 87.6249961,85.2857385 L87.7724286,85.1571503 L87.7842232,85.174488 L87.860888,85.3377516 C87.7399934,85.6108209 87.5291651,86.0587123 87.3507718,86.1049462 Z M78.1288727,86.5716201 C77.9681713,86.6149644 77.9313132,86.5297206 78.2866254,86.07605 L78.4679673,86.1468457 C78.3455984,86.2999957 78.2306011,86.4444767 78.1288727,86.5716201 Z M118.459017,39.2974098 L118.87625,37.7745791 L119.010414,37.7153419 C119.163744,38.5359944 118.357288,40.4749306 117.914991,41.9587513 C118.13614,40.9849488 118.31011,40.1079486 118.459017,39.2974098 Z M119.056118,36.9452577 L119.051695,36.951037 L119.031054,36.9857124 L118.873302,36.9293648 L118.719972,36.8470106 L118.715549,36.7993318 L119.056118,36.9452577 Z M119.757896,37.7745791 L119.611938,38.0144177 C119.35688,37.806365 119.566234,37.7948065 119.757896,37.7745791 Z M121.699582,46.6298247 L121.696633,46.6312695 L121.695159,46.6341591 L121.673044,46.6471624 L121.62734,46.6775035 L121.438626,46.7916435 C120.91819,47.093609 120.245898,47.3984641 118.815803,48.0226224 C117.783776,48.6381118 116.832837,49.285387 116.424449,49.6465897 C116.548292,48.797041 116.58515,47.8131248 116.936039,47.3088858 L116.732583,47.5848447 C116.420026,48.0356257 116.408231,48.9429669 116.321246,49.7376128 L116.297657,49.9225486 C116.250479,50.2851961 116.179711,50.614613 116.047022,50.8472275 C116.215095,50.6160578 116.315349,50.2880857 116.383168,49.9081005 C116.462781,49.8893179 116.555664,49.8618665 116.700148,49.8055189 C118.662473,49.4818813 118.79074,47.444698 121.41946,47.7452187 C121.317732,47.9633851 121.229272,48.1541001 121.137864,48.3505944 L120.885755,48.5846538 L115.029738,51.8398126 L115.214029,51.1636411 C115.626839,51.263333 115.887795,51.1318553 116.047022,50.8472275 C115.870103,51.0971798 115.609147,51.2185439 115.219926,51.1477482 L116.266696,47.3161099 L116.675084,45.8250651 L116.325669,48.1454313 L117.431412,44.1649774 C117.630446,44.9885196 117.6216,47.1961906 118.697857,44.0782888 L119.348034,40.1715203 L119.700398,38.2513667 L119.794754,37.7702447 C119.951033,37.7514622 120.070453,37.7167867 119.890586,37.5535231 L119.830138,37.6575495 L119.812446,37.6850009 L119.846356,37.5188476 C119.734307,37.4278245 119.545594,37.3035708 119.234511,37.1273039 L119.160795,37.2891227 L119.075284,37.0478393 L119.078233,37.0406152 L119.234511,37.1273039 L119.088553,37.0016053 L119.091502,36.988602 L119.098873,36.9625955 C119.420276,37.0998525 119.719564,37.2269958 119.889111,37.2992364 L119.890586,37.2949019 L119.939238,37.0565082 C116.91245,35.728727 119.032529,36.8108903 118.324853,36.5696069 L118.296841,36.6216201 L118.631513,36.7632116 L118.6035,36.7863285 L118.293892,36.6259545 L118.084538,36.9972709 L118.060949,37.0391704 L117.978387,37.3700321 L117.965118,37.4104868 L118.021142,37.1070765 L118.022617,37.1041869 C116.953731,38.9795514 115.775746,40.8216852 114.410522,42.6537053 L114.603658,41.9399688 C115.588507,38.1921295 116.533549,34.3604911 117.412246,30.4161576 C116.723737,31.6326883 117.698265,28.6520436 116.776812,31.0128645 C116.703096,30.8626041 116.714891,30.6285448 116.760595,30.367034 C117.009756,30.1243058 117.248596,29.8974705 117.481539,29.6894177 L117.804417,29.4062348 L117.962169,29.2704226 L118.041783,29.2039613 L118.08159,29.1707306 L118.090435,29.1620618 L118.096333,29.1591722 L118.099281,29.1562825 C118.254085,29.2386368 117.77493,28.9843501 117.216161,28.686719 L117.28398,28.4367667 L117.107061,28.6289266 C116.223941,28.1579183 115.230246,27.6291175 116.223941,28.1593631 L116.223941,28.1608079 L116.215095,28.1839249 L115.890743,28.9193336 L115.651903,29.4437999 C115.209606,29.855571 114.656734,30.4147128 114.192322,30.8221494 L114.220334,30.497067 C114.319114,29.5001475 114.431162,28.4627733 114.142195,26.418366 C113.341637,24.0517659 113.729384,28.9742364 113.741178,30.4060439 C113.658616,30.0246138 113.615861,29.4784754 113.573106,28.9308921 C113.54067,29.7804408 113.435993,30.603983 113.282664,31.2209172 L113.278241,31.2122484 L112.87575,31.6456916 L111.833403,24.4649818 C112.196087,24.3624002 112.4939,24.196247 112.343519,23.1949931 C112.715049,22.2616453 111.349824,17.7914006 111.722828,16.8580528 L111.423541,15.2586472 C111.096241,15.1502864 111.279057,15.0549288 111.417643,14.9581265 L111.705136,14.969685 L111.706611,14.9422336 L111.706611,14.9263407 L111.708085,14.9248959 C112.715049,14.9667954 112.26538,14.9480128 111.473668,14.916227 C111.63142,14.7760804 111.525269,14.6330441 109.508393,14.4481083 L109.409613,14.8295384 C109.120646,14.8179799 108.962893,14.8122006 109.082313,14.8165351 L109.082313,14.8179799 L109.083788,14.8208695 L109.086736,14.8280935 L109.095582,14.8555449 L109.097057,14.862769 L109.399293,14.8757723 L109.321154,15.1791826 L109.253335,15.4190212 L109.248912,15.4002386 L109.110326,14.9133374 L109.097057,14.862769 C109.06757,14.8613242 108.99238,14.8584346 108.831678,14.8526553 L108.831678,14.8598794 L108.83905,14.9017789 L108.852319,14.9841331 L108.877382,15.1488415 L109.039558,16.1876605 C108.875908,16.7641401 108.713732,17.3232818 108.5663,17.8448586 C108.103362,19.4904981 107.783434,20.8804061 108.006057,22.0593717 L106.509617,25.0920297 C105.698739,27.6262279 105.57637,29.4235725 105.341952,31.3003818 C105.451052,32.1976093 106.263405,29.4163485 106.138088,31.7049288 C106.020142,32.5226918 105.785724,33.9097102 105.440732,34.6436741 C105.210738,34.8127169 105.331632,33.7493362 105.331632,33.5066079 C104.513382,37.7543518 102.985982,40.479265 101.827163,43.6130597 C100.946991,47.9446026 99.1719048,53.8322067 99.1586359,56.4704313 L99.8368251,53.9853566 C99.0156264,57.656621 100.746483,54.2743188 99.5935616,58.3313476 C98.6160845,61.3394438 98.6662115,59.7559311 98.2740413,59.87874 C97.8302696,61.5807272 97.4572655,64.4732385 96.9206115,65.7807923 C97.3009871,63.8100703 96.2026155,67.211155 96.4090209,66.2937001 C95.4610303,69.433274 95.9799925,69.8392659 95.5745533,72.6017442 C95.9652492,72.4832697 96.6891425,71.9718067 97.331948,68.4276857 C97.2744493,69.0879642 97.5737372,68.5663875 97.3673317,69.486732 C97.5589939,68.333773 98.0234061,66.9120791 98.3757696,66.0249653 L96.8999709,72.3344542 L92.9753194,73.405059 L93.0151261,73.1984511 C93.1994167,73.1233209 93.3910789,73.191227 93.4839613,73.2259025 L95.5170546,72.3980259 L95.2295614,72.2954443 C94.6604722,72.0902812 94.4039397,72.7057706 93.9321559,72.679764 C93.9159383,72.2477655 92.4386653,72.8502516 91.7825909,72.8993752 C89.6064881,73.595774 89.574053,73.9772041 89.6138597,74.3225139 L87.4171164,74.9206656 C86.8052718,74.9770132 86.224388,75.1590594 85.7024771,75.3887843 L82.3321716,76.3091288 C81.7409675,76.1819854 81.3428999,76.4463858 80.9020769,76.6992277 L79.7697958,77.0084172 C79.8523579,76.9231734 80.0366485,76.7931404 79.8317174,76.8234814 L78.8468687,77.2598143 L56.024327,83.4883938 L74.9192685,83.4883938 C75.0976617,83.5375174 75.2450942,83.5866409 75.3232334,83.6314301 C75.7419415,83.6791088 77.4182483,83.8741583 77.1042173,83.5158452 C78.8394971,83.9348403 80.8917566,83.7759111 82.7287648,84.0070809 C82.3587094,84.3148256 82.0210891,84.426076 81.6643026,84.6442425 C80.8313093,84.876857 80.1103647,84.4882029 79.6503755,85.1947154 L79.4351241,84.937539 C79.3112809,85.0935786 79.180066,85.2582871 79.0444282,85.4273299 L78.9102646,85.3521998 L79.2139755,85.0213381 L79.4203809,84.9202013 L78.9456484,84.3552803 L78.8424457,84.3047119 L78.7923187,84.2844846 L78.7672552,84.2758157 L78.7539862,84.2714813 L78.7495633,84.2700364 L78.7466146,84.2685916 L78.743666,84.2685916 C80.1575431,82.5001432 76.8152497,86.6756465 77.1587673,86.2465377 L77.4049794,86.5629512 L77.8207389,86.9573846 L77.7396511,87.0570765 L77.7455484,87.0570765 L77.7514457,87.0585213 L77.7735605,87.0599662 L77.8236876,87.0628558 L77.9313132,87.0628558 L77.9357362,87.0671902 C78.3352781,87.3301458 78.8793038,87.4775165 79.3186525,87.5309745 C79.7108228,87.3575972 78.6611038,86.8706959 79.6061458,86.7811177 C79.8759471,86.7738936 80.2150417,86.7377733 80.4966377,86.7392182 L80.5143296,86.7421078 L80.5158039,86.7392182 L80.666185,86.7363285 C80.7929769,86.87792 80.4302931,87.0888624 80.3403593,87.1596581 C81.1482891,86.901037 81.8500675,86.7117667 82.4987702,86.5080484 C82.3483891,86.6380814 82.2319175,86.7608903 82.2687756,86.8562478 C82.4663351,86.8129035 82.6417797,86.7334389 82.8128013,86.6481951 C82.9646567,86.8735856 83.0988202,87.0484077 83.2226635,87.2015576 L83.1415757,87.2636845 L83.2344581,87.2145609 L83.4231716,87.4399514 L83.4275946,87.4529547 L83.4320176,87.4486203 L83.5086824,87.5251952 C83.8536743,88.2028115 84.1190527,88.7214986 84.0187987,88.5235595 L84.020273,88.5221147 L84.0232216,88.5177803 L84.0350162,88.5004426 C83.8949554,88.2244837 83.7342541,87.9124045 83.5691297,87.5887669 C84.5790419,88.4903289 84.5289149,86.5658409 85.2380649,86.7637799 C85.5196609,86.2869924 85.7319636,85.8073152 85.9147798,85.3305276 L86.0327258,85.3637582 C86.0120853,85.0271173 86.2376569,84.8205094 86.215542,84.4824236 L86.1875299,84.5113199 L86.2465028,84.2714813 L86.4057299,84.2989327 L86.3644488,84.3798421 L86.4322677,84.3032671 L86.7050177,84.3581699 C86.6342501,85.0964682 86.6829029,85.8073152 86.3231677,86.6279677 C86.665211,86.1381768 86.988088,85.6151553 87.3507718,84.9563216 L87.3964759,84.9736593 C87.2505177,85.5140186 87.1399434,86.0616019 87.0514839,86.6149644 L86.9939853,86.7464422 L87.0013569,86.4690385 L86.5118812,86.9646086 L86.3924609,87.1047553 L86.3644488,87.1408756 C86.597392,87.1943336 86.7816826,87.2362331 86.9409096,87.2737982 L86.9276407,87.3518179 L86.9541785,87.2766878 C88.36953,87.5988806 87.0809704,87.2795774 87.5542286,87.3778245 L87.6058299,87.3012496 L87.810761,87.0238459 C88.083511,86.6886498 88.3474151,86.5513927 88.6408056,86.9371572 C88.8752232,86.3563433 88.8191989,86.0847188 88.7440084,85.7567468 C89.1184868,85.9373481 89.5416179,86.0471538 89.9190449,85.8506595 L89.737703,85.8781109 C89.6595638,85.7870878 89.4192489,85.7509675 89.6492435,85.4359988 C89.8615462,85.1542607 89.8305854,85.6686133 90.0355165,85.495236 C90.2433963,85.1629295 90.3259584,84.907198 90.3613422,84.6659146 C90.4276868,84.7656066 90.4615963,84.8696329 90.7653071,84.930315 C92.3000788,85.1658192 93.4176167,84.4766444 94.3980424,84.0634285 C95.3475073,84.1038832 96.6154263,83.9030545 96.7083087,84.3018223 C96.5166466,84.4925373 95.8649952,84.4361897 95.6202573,84.5402161 C94.678164,86.2552065 98.0396237,83.9622917 99.3178629,84.5243232 C99.4402318,84.4737548 99.2087629,84.3509459 99.5095251,84.3336081 L97.6607223,84.342277 C97.7300155,83.9088337 99.2013913,83.7152291 100.246687,83.4883938 L101.463005,83.4883938 C101.465954,83.830814 100.395594,84.2021303 102.256191,84.2801501 C102.461123,84.1226657 102.769256,84.0793214 103.118671,84.0764318 L103.198285,84.2180233 L103.425331,84.4361897 C103.335397,84.4159623 103.239566,84.3942902 103.084762,84.3711732 C102.94765,84.6485769 101.573579,84.6760283 101.613386,84.9881074 L102.987456,84.9621008 C102.786948,84.7858339 103.38405,84.693366 103.596352,84.5994533 L103.936921,84.9245358 C104.309925,85.2322805 104.647546,85.6801718 104.923244,86.2118622 C104.808247,86.3447848 104.679981,86.4834866 104.526651,86.6366366 C104.442615,86.8157931 103.544751,86.8417997 104.87754,87.3966071 C105.197469,87.3445939 105.461373,87.2694637 105.68547,87.1798855 L105.669252,87.3113632 L105.660406,87.4991886 L105.658932,87.5468674 C108.009005,87.0527421 106.315007,87.3836038 106.84134,87.2622397 L106.856084,87.1726614 L106.925377,86.8389101 C107.030054,86.4300286 107.208447,86.1771867 107.665488,86.5297206 C107.653693,86.3780154 107.634527,86.2479825 107.613886,86.1309528 C107.733307,86.3086645 107.861573,86.4690385 107.972147,86.6655328 L109.422882,87.9441904 C109.542303,87.6913485 109.639608,87.4789613 109.72217,87.2853566 L109.863705,87.1827751 L110.017035,87.2636845 L109.887295,87.1654373 L110.11434,86.9140403 L109.921204,86.7970106 C110.024407,86.5181621 110.078957,86.3187782 110.090751,86.1873004 C110.220492,86.320223 110.37677,86.4560352 110.590547,86.5947371 C109.843065,88.0554408 109.527559,88.6738199 109.427305,88.8688693 L109.4391,88.878983 L109.444997,88.8833174 L109.447946,88.8847622 L109.447946,88.886207 L109.358012,89.0610292 L109.473009,88.8356387 C109.570315,88.6492581 109.599801,88.588576 109.583584,88.6218067 C109.778195,88.2389318 110.105495,87.5988806 110.612662,86.61063 C110.795478,86.7291045 111.015153,86.8490238 111.282005,86.9761671 C111.590139,87.2651293 111.259891,87.3518179 111.601934,87.6508938 C112.880173,88.4961081 114.335331,87.4558443 114.609556,86.7002083 L114.926535,86.8071243 L115.125569,86.794121 L115.222875,86.7840073 L115.268579,86.7767832 L115.292168,86.7738936 L115.303962,86.7724488 L115.312808,86.771004 L115.314283,86.771004 C114.734873,86.045709 116.172339,87.840164 114.942753,86.3057749 C115.188965,86.2349792 115.392422,86.1179495 114.650837,85.0170036 C114.460649,85.0502343 114.320588,85.0256725 114.227706,84.937539 C114.506353,85.0950234 113.670411,83.2369967 115.626839,86.1974141 C115.842091,86.5904026 115.986575,86.687205 116.141379,86.5557272 L116.251953,86.4213598 L116.25785,86.4112461 C115.116723,84.9866626 114.562377,84.2931534 114.313216,83.9810743 L114.311742,83.9825191 L114.310268,83.9825191 L114.308793,83.9839639 L114.298473,83.9897431 L114.276358,84.0013016 L114.233603,84.0330875 L114.028672,84.2411402 C113.752973,84.6427976 113.126385,85.0545687 112.809405,84.7526033 C112.741587,84.800282 112.852161,84.9216461 112.694408,84.9317598 L113.586374,84.9346494 L113.472851,85.1427022 L113.396187,85.3233035 C113.107219,85.4923464 112.638384,85.5905935 112.222624,85.6671685 C111.856992,85.3218587 111.668278,84.7800547 111.519372,84.2700364 L111.786224,84.1038832 L111.441232,84.0013016 L111.361619,83.723898 C111.159636,83.5461862 110.975346,83.3207957 110.796953,83.0795123 L110.928168,81.7473967 L111.211238,81.8153028 C110.972397,79.8691427 111.364568,79.1091722 111.706611,77.9619924 C111.649112,76.9506248 111.245147,75.6026163 111.483988,74.7241713 C111.370465,74.5088945 111.248096,74.2574974 111.131624,73.9815385 C113.307727,69.7829183 113.926943,66.1347709 116.617585,61.0620401 C115.368833,63.0775512 113.993288,65.2115368 112.415761,68.1864023 L113.378495,65.5554018 L113.3667,65.5698499 L116.425923,59.5132029 C116.052919,60.4306578 115.747734,61.2715377 115.491202,61.8740238 C116.947834,60.1026857 119.365726,55.7017919 118.992722,58.2302109 C120.545186,55.4980736 120.49211,54.891253 121.277925,52.8584042 C121.836694,51.9120531 122.598919,50.1219325 122.958655,50.0092372 C123.122305,49.5310049 123.238776,49.178471 123.346402,48.8793952 L123.50268,48.4618448 L123.543961,48.3621529 L123.548384,48.3505944 L123.551333,48.3448152 C119.852253,44.9177239 122.526678,47.3955745 121.699582,46.6298247 Z M116.250479,64.675512 L115.685812,64.5368101 C115.358512,65.4918301 114.820384,66.2012322 114.49161,67.1605866 L116.250479,64.675512 Z M111.690393,15.2557575 C111.687445,15.5057098 111.716931,15.6689734 111.800968,15.6675286 L111.9484,15.0130293 L111.952823,14.992802 L111.954297,14.9826883 L111.954297,14.9812435 L111.955772,14.9812435 L111.705136,14.969685 L111.699239,15.0520392 L111.690393,15.2557575 Z M111.500205,74.6056968 L111.483988,74.7241713 C111.578345,74.9062175 111.663855,75.0709259 111.715457,75.222631 L111.500205,74.6056968 L111.500205,74.6056968 Z" id="Fill-37-Copy" fill="#2D303C"></path>
                </g>
            </g>
        </g>
    </g>
</svg>