<?xml version="1.0" encoding="UTF-8"?>
<svg width="72px" height="55px" viewBox="0 0 72 55" version="1.1" xmlns="http://www.w3.org/2000/svg" xmlns:xlink="http://www.w3.org/1999/xlink">
    <!-- Generator: Sketch 57.1 (83088) - https://sketch.com -->
    <title>Group 31</title>
    <desc>Created with Sketch.</desc>
    <g id="Page-1" stroke="none" stroke-width="1" fill="none" fill-rule="evenodd">
        <g id="Fizmatik-Home-screen" transform="translate(-532.000000, -1134.000000)" fill-rule="nonzero">
            <g id="Group-31" transform="translate(530.000000, 1134.000000)">
                <path d="M18.9966915,21.3612037 C21.0614578,21.3661157 32.6371176,28.2147578 33.4963244,29.6866725 C34.3555313,31.1585872 34.8259307,44.0469759 33.536076,46.2687525 C32.2462213,48.4905291 20.8891572,54.5296769 19.0761946,54.5253689 C17.263232,54.5210562 5.15950049,47.1985383 4.57656167,46.1999008 C3.99362286,45.2012632 3.34339461,31.6734807 4.53681012,29.6178208 C5.73022563,27.5621609 16.9319252,21.3562976 18.9966915,21.3612037 Z" id="Polygon" stroke="#000000" stroke-width="0.64" fill="#9C5FDC" transform="translate(19.100065, 37.943286) rotate(-15.000000) translate(-19.100065, -37.943286) "></path>
                <path d="M46.607431,13.5400804 C48.6721972,13.5449922 60.6493354,20.7961024 61.5085423,22.2680171 C62.3677491,23.7399318 61.6764754,35.4147339 61.6574541,38.0991196 C58.3065952,40.2543963 46.2570031,44.5160607 44.0244212,45.5173804 C41.7632741,44.01126 33.1717183,39.7798829 32.5887795,38.7812453 C32.0058407,37.7826078 31.3556125,24.2548253 32.549028,22.1991654 C33.7424435,20.1435055 44.5426647,13.5351742 46.607431,13.5400804 Z" id="Polygon" fill="#9C5FDC" transform="translate(46.908753, 29.528730) rotate(-15.000000) translate(-46.908753, -29.528730) "></path>
                <path d="M73.6351471,36.8746774 L63.4725141,34.1126344 C60.8786405,24.2607507 59.346021,19.1107078 58.8746556,18.6625057 C58.1676074,17.9902024 44.2603599,13.8091198 42.5685499,14.2359078 C41.4800496,14.5105006 37.7719501,18.0973474 31.4442515,24.9964483 C31.0088298,25.4711911 30.8405,26.1326531 30.9960264,26.7577805 L34.5603779,41.0844471 C34.7296093,41.7646611 35.2560767,42.298595 35.9338402,42.4773883 L51.132557,46.486793 L51.132557,46.486793" id="Path-87" stroke="#000000" stroke-width="0.64" stroke-linecap="round" stroke-linejoin="round"></path>
                <path d="M40.6590853,-0.194464258 C40.7686043,-0.160980935 40.8875821,4.65996598 41.0160187,14.2683765 L40.0999378,14.2878935 C40.3631838,4.59950502 40.5495662,-0.227947582 40.6590853,-0.194464258 Z" id="Rectangle" fill="#000000" transform="translate(40.557978, 7.046628) rotate(-17.000000) translate(-40.557978, -7.046628) "></path>
                <path d="M11.8664981,23.0953379 C12.0541963,23.130268 12.1381091,27.6042439 12.1182363,36.5172655 C12.1176812,36.7716209 11.9150807,36.9794806 11.6608235,36.9865645 C11.4222986,36.9932102 11.2235487,36.8052349 11.216903,36.5667101 C11.216682,36.5587759 11.2166796,36.5508372 11.2168714,36.5429022 C11.4622261,27.5429234 11.6787683,23.060402 11.8664981,23.0953379 Z" id="Rectangle-Copy" fill="#000000" transform="translate(11.668913, 30.040935) rotate(-315.000000) translate(-11.668913, -30.040935) "></path>
                <path d="M39.5352889,15.8754542 C39.7230482,15.9103742 39.8070482,20.3827694 39.787289,29.29264 C39.7867086,29.5470611 39.5840527,29.7549742 39.3297294,29.7620527 C39.0911083,29.7686942 38.8922838,29.5806376 38.8856423,29.3420166 C38.8854215,29.3340826 38.8854192,29.326144 38.8856324,29.3182098 C39.1309462,20.321447 39.3474984,15.8405284 39.5352889,15.8754542 Z" id="Rectangle-Copy-2" fill="#000000" transform="translate(39.337793, 22.818737) rotate(-317.000000) translate(-39.337793, -22.818737) "></path>
                <path d="M15.9245235,41.3361272 C16.2021252,41.4171244 16.2953564,45.9092835 16.2042169,54.8126044 C16.2016266,55.0664414 15.9986267,55.2727095 15.7448637,55.2793614 C15.5040025,55.2856751 15.3036276,55.0955368 15.2973139,54.8546757 C15.2971551,54.8486164 15.2971225,54.8425545 15.297208,54.8364938 C15.4377257,45.7552257 15.6468308,41.2551035 15.9245235,41.3361272 Z" id="Rectangle-Copy" fill="#000000" transform="translate(15.767585, 48.307283) scale(1, -1) rotate(-289.000000) translate(-15.767585, -48.307283) "></path>
            </g>
        </g>
    </g>
</svg>