<?xml version="1.0" encoding="UTF-8"?>
<svg width="65px" height="82px" viewBox="0 0 65 82" version="1.1" xmlns="http://www.w3.org/2000/svg" xmlns:xlink="http://www.w3.org/1999/xlink">
    <!-- Generator: Sketch 57.1 (83088) - https://sketch.com -->
    <title>Group 38</title>
    <desc>Created with Sketch.</desc>
    <defs>
        <polygon id="path-1" points="0 0.26834375 64.8702353 0.26834375 64.8702353 75.515625 0 75.515625"></polygon>
        <polygon id="path-3" points="0 0.956834375 64.8702353 0.956834375 64.8702353 60.9528656 0 60.9528656"></polygon>
        <polygon id="path-5" points="0.914294118 0.7729375 27.731 0.7729375 27.731 7.66932969 0.914294118 7.66932969"></polygon>
    </defs>
    <g id="Page-1" stroke="none" stroke-width="1" fill="none" fill-rule="evenodd">
        <g id="Fizmatik-Home-screen" transform="translate(-634.000000, -1240.000000)">
            <g id="Group-38" transform="translate(634.000000, 1239.000000)">
                <g id="Group-3" transform="translate(0.000000, 6.712086)">
                    <mask id="mask-2" fill="white">
                        <use xlink:href="#path-1"></use>
                    </mask>
                    <g id="Clip-2"></g>
                    <path d="M24.0597176,1.48221875 L24.0597176,39.1058594 C24.0597176,39.2277656 24.0234824,39.3470781 23.9523059,39.4482344 L1.60936471,71.7858125 C1.31430588,72.1411562 1.19007059,72.5354062 1.23018824,72.9413281 C1.26901176,73.3433594 1.46054118,73.7025937 1.76854118,73.9541875 C2.07654118,74.1850312 2.39748235,74.30175 2.73265882,74.30175 L62.1507765,74.30175 C62.9906588,74.30175 63.6480706,73.6416406 63.6480706,72.7947812 C63.6480706,72.3240156 63.4410118,71.9699687 63.2663059,71.7572812 L40.9298353,39.4482344 C40.8586588,39.348375 40.8224235,39.2277656 40.8224235,39.1058594 L40.8224235,1.48221875 L24.0597176,1.48221875 Z M62.1507765,75.515625 L2.73265882,75.515625 C2.12830588,75.515625 1.54854118,75.3120156 1.01277647,74.9073906 C0.431717647,74.4379219 0.0836,73.7842969 0.0124235294,73.0541562 C-0.0574588235,72.3240156 0.165129412,71.6133281 0.637482353,71.054375 L22.8380706,38.9178125 L22.8380706,0.87528125 C22.8380706,0.5406875 23.1124235,0.26834375 23.4476,0.26834375 L41.4332471,0.26834375 C41.7710118,0.26834375 42.0440706,0.5406875 42.0440706,0.87528125 L42.0440706,38.9178125 L64.2459529,71.0310312 C64.6445412,71.5173594 64.8710118,72.1398594 64.8710118,72.7947812 C64.8710118,74.3212031 63.6752471,75.515625 62.1507765,75.515625 L62.1507765,75.515625 Z" id="Fill-1" fill="#141515" mask="url(#mask-2)"></path>
                </g>
                <g id="Group-6" transform="translate(0.000000, 21.274586)">
                    <mask id="mask-4" fill="white">
                        <use xlink:href="#path-3"></use>
                    </mask>
                    <g id="Clip-5"></g>
                    <path d="M24.0597176,2.1694125 L24.0597176,24.5431 C24.0597176,24.6663031 24.0234824,24.7843187 23.9523059,24.8867719 L1.60936471,57.2230531 C1.31430588,57.5796937 1.19007059,57.9726469 1.23018824,58.3785687 C1.26901176,58.7806 1.46054118,59.1411313 1.76854118,59.3914281 C2.07654118,59.6222719 2.39748235,59.7402875 2.73265882,59.7402875 L62.1507765,59.7402875 C62.9906588,59.7402875 63.6480706,59.0788813 63.6480706,58.2333188 C63.6480706,57.7612562 63.4410118,57.4072094 63.2663059,57.1945219 L40.9298353,24.8867719 C40.8586588,24.7856156 40.8224235,24.6663031 40.8224235,24.5431 L40.8224235,2.1694125 L24.0597176,2.1694125 Z M62.1507765,60.9528656 L2.73265882,60.9528656 C2.12830588,60.9528656 1.54854118,60.7492562 1.01277647,60.3446312 C0.431717647,59.8751625 0.0836,59.2215375 0.0124235294,58.4926937 C-0.0574588235,57.7612562 0.165129412,57.0505687 0.637482353,56.4916156 L22.8380706,24.3550531 L22.8380706,1.56377187 C22.8380706,1.22788125 23.1124235,0.956834375 23.4476,0.956834375 L41.4332471,0.956834375 C41.7710118,0.956834375 42.0440706,1.22788125 42.0440706,1.56377187 L42.0440706,24.3550531 L64.2459529,56.4682719 C64.6445412,56.9546 64.8710118,57.5783969 64.8710118,58.2333187 C64.8710118,59.7584437 63.6752471,60.9528656 62.1507765,60.9528656 L62.1507765,60.9528656 Z" id="Fill-4" fill="#141515" mask="url(#mask-4)"></path>
                </g>
                <path d="M37.0399765,47.7755781 C36.7022118,47.7755781 36.4278588,47.5045312 36.4278588,47.1699375 L36.3942118,25.2657188 C36.3929176,24.9298281 36.6672706,24.6587812 37.0050353,24.6574844 L37.0063294,24.6574844 C37.3428,24.6574844 37.6171529,24.9285312 37.6171529,25.263125 L37.6520941,47.1673438 C37.6520941,47.5032344 37.3790353,47.7755781 37.0412706,47.7755781 L37.0399765,47.7755781 Z" id="Fill-7" fill="#141515"></path>
                <path d="M37.2144235,48.4000234 C37.0073647,48.4000234 36.8054824,48.2949766 36.6903059,48.1043359 C36.5168941,47.8190234 36.4288941,47.5038828 36.4288941,47.1692891 C36.4288941,46.8346953 36.7019529,46.5623516 37.0397176,46.5623516 C37.3774824,46.5623516 37.6518353,46.8346953 37.6518353,47.1692891 C37.6518353,47.2821172 37.6803059,47.3858672 37.7385412,47.4818359 C37.9119529,47.7697422 37.8187765,48.1419453 37.5288941,48.3144297 C37.4292471,48.3727891 37.3218353,48.4000234 37.2144235,48.4000234" id="Fill-9" fill="#141515"></path>
                <path d="M37.2181765,48.4000234 C37.059,48.4000234 36.9011176,48.3390703 36.7794706,48.2171641 C36.6681765,48.1082266 36.6073529,47.9513047 36.6073529,47.7943828 C36.6073529,47.7100859 36.6202941,47.6361641 36.6448824,47.5635391 C36.6811176,47.4922109 36.7302941,47.4195859 36.7794706,47.3703047 C36.9981765,47.1407578 37.4122941,47.1407578 37.6452353,47.3703047 C37.7060588,47.4195859 37.7422941,47.4922109 37.7798235,47.5635391 C37.8031176,47.6361641 37.8277059,47.7100859 37.8277059,47.7943828 C37.8277059,47.8670078 37.8031176,47.9513047 37.7798235,48.0252266 C37.7422941,48.0978516 37.7060588,48.1691797 37.6452353,48.2171641 C37.5352353,48.3390703 37.3760588,48.4000234 37.2181765,48.4000234" id="Fill-11" fill="#141515"></path>
                <path d="M52.6390118,70.7559437 C52.4448941,70.7559437 52.2520706,70.6638656 52.1343059,70.4913812 L36.7097176,48.1371469 C36.5194824,47.8596156 36.5906588,47.482225 36.8676,47.2928812 C37.1471294,47.1048344 37.5288941,47.1735687 37.7191294,47.4498031 L53.1424235,69.8066312 C53.3326588,70.0815687 53.2627765,70.4602562 52.9845412,70.6496 C52.8784235,70.722225 52.7580706,70.7559437 52.6390118,70.7559437" id="Fill-13" fill="#141515"></path>
                <path d="M37.0059412,21.0180641 C36.6681765,21.0180641 36.3938235,20.7470172 36.3938235,20.4124234 L36.3938235,12.7867984 C36.3938235,12.4509078 36.6681765,12.1798609 37.0059412,12.1798609 C37.3437059,12.1798609 37.6180588,12.4509078 37.6180588,12.7867984 L37.6180588,20.4124234 C37.6180588,20.7470172 37.3437059,21.0180641 37.0059412,21.0180641" id="Fill-15" fill="#141515"></path>
                <g id="Group-19" transform="translate(18.117647, 0.524586)">
                    <mask id="mask-6" fill="white">
                        <use xlink:href="#path-5"></use>
                    </mask>
                    <g id="Clip-18"></g>
                    <path d="M4.32817647,1.98512656 C3.11947059,1.98512656 2.13852941,2.98761094 2.13852941,4.22093906 C2.13852941,5.45297031 3.11947059,6.45675156 4.32817647,6.45675156 L24.3184118,6.45675156 C25.5258235,6.45675156 26.5093529,5.45297031 26.5093529,4.22093906 C26.5093529,2.98761094 25.5258235,1.98512656 24.3184118,1.98512656 L4.32817647,1.98512656 Z M24.3184118,7.66932969 L4.32817647,7.66932969 C2.44652941,7.66932969 0.914294118,6.12215781 0.914294118,4.22093906 C0.914294118,2.31972031 2.44652941,0.772548437 4.32817647,0.772548437 L24.3184118,0.772548437 C26.2000588,0.772548437 27.731,2.31972031 27.731,4.22093906 C27.731,6.12215781 26.2000588,7.66932969 24.3184118,7.66932969 L24.3184118,7.66932969 Z" id="Fill-17" fill="#141515" mask="url(#mask-6)"></path>
                </g>
                <path d="M30.0891412,27.4650891 C29.6633765,27.4650891 29.3165529,27.8152453 29.3165529,28.2458078 C29.3165529,28.6893391 29.6491412,29.0252297 30.0891412,29.0252297 C30.5291412,29.0252297 30.8617294,28.6893391 30.8617294,28.2458078 C30.8617294,27.8152453 30.5136118,27.4650891 30.0891412,27.4650891 M30.0891412,30.2378078 C28.9697294,30.2378078 28.0949059,29.3624172 28.0949059,28.2458078 C28.0949059,27.1460578 28.9891412,26.2512141 30.0891412,26.2512141 C31.1891412,26.2512141 32.0833765,27.1460578 32.0833765,28.2458078 C32.0833765,29.3624172 31.2072588,30.2378078 30.0891412,30.2378078" id="Fill-20" fill="#141515"></path>
                <path d="M31.2304235,40.3242531 C30.6040706,40.3242531 30.1136,40.8040969 30.1136,41.4162219 C30.1136,42.0283469 30.6040706,42.5081906 31.2304235,42.5081906 C31.8270118,42.5081906 32.3136,42.0179719 32.3136,41.4162219 C32.3136,40.8144719 31.8270118,40.3242531 31.2304235,40.3242531 M31.2304235,43.7207687 C29.9401882,43.7207687 28.8893647,42.6871594 28.8893647,41.4162219 C28.8893647,40.1452844 29.9401882,39.1103781 31.2304235,39.1103781 C32.5012471,39.1103781 33.5352471,40.1452844 33.5352471,41.4162219 C33.5352471,42.6871594 32.5012471,43.7207687 31.2304235,43.7207687" id="Fill-22" fill="#141515"></path>
                <path d="M28.5676471,49.9589969 C28.2234118,49.9589969 27.9335294,50.26895 27.9335294,50.6346688 C27.9335294,51.0016844 28.2234118,51.3116375 28.5676471,51.3116375 C28.9235294,51.3116375 29.2367059,50.9952 29.2367059,50.6346688 C29.2367059,50.2754344 28.9235294,49.9589969 28.5676471,49.9589969 M28.5676471,52.5242156 C27.544,52.5242156 26.7105882,51.6773563 26.7105882,50.6346688 C26.7105882,49.594575 27.544,48.7451219 28.5676471,48.7451219 C29.5925882,48.7451219 30.4583529,49.6114344 30.4583529,50.6346688 C30.4583529,51.6604969 29.5925882,52.5242156 28.5676471,52.5242156" id="Fill-24" fill="#141515"></path>
                <path d="M39.5308941,66.7348531 C38.6133647,66.7348531 37.8938353,67.472775 37.8938353,68.4169 C37.8938353,69.3247125 38.6288941,70.0626344 39.5308941,70.0626344 C40.4691294,70.0626344 41.2028941,69.340275 41.2028941,68.4169 C41.2028941,67.472775 40.4691294,66.7348531 39.5308941,66.7348531 M39.5308941,71.2752125 C37.9533647,71.2752125 36.6721882,69.9926031 36.6721882,68.4169 C36.6721882,66.7932125 37.9287765,65.5209781 39.5308941,65.5209781 C41.1537176,65.5209781 42.4245412,66.7932125 42.4245412,68.4169 C42.4245412,70.0185406 41.1537176,71.2752125 39.5308941,71.2752125" id="Fill-26" fill="#141515"></path>
                <path d="M46.794,74.4640984 C46.1598824,74.4640984 45.6409412,74.9854422 45.6409412,75.6260984 C45.6409412,76.2667547 46.1598824,76.7868016 46.794,76.7868016 C47.4294118,76.7868016 47.9470588,76.2667547 47.9470588,75.6260984 C47.9470588,74.9854422 47.4294118,74.4640984 46.794,74.4640984 M46.794,77.9993797 C45.4843529,77.9993797 44.4192941,76.9333484 44.4192941,75.6260984 C44.4192941,74.3162547 45.4843529,73.2502234 46.794,73.2502234 C48.1036471,73.2502234 49.1687059,74.3162547 49.1687059,75.6260984 C49.1687059,76.9333484 48.1036471,77.9993797 46.794,77.9993797" id="Fill-28" fill="#141515"></path>
                <path d="M32.1302235,61.6739281 C31.2502235,61.6739281 30.5617529,62.3677562 30.5617529,63.252225 C30.5617529,64.1353969 31.2502235,64.829225 32.1302235,64.829225 C33.0089294,64.829225 33.6974,64.1353969 33.6974,63.252225 C33.6974,62.3677562 33.0089294,61.6739281 32.1302235,61.6739281 M32.1302235,66.0418031 C30.5928118,66.0418031 29.3401059,64.7903187 29.3401059,63.252225 C29.3401059,61.7128344 30.5928118,60.46135 32.1302235,60.46135 C33.6676353,60.46135 34.9190471,61.7128344 34.9190471,63.252225 C34.9190471,64.7903187 33.6676353,66.0418031 32.1302235,66.0418031" id="Fill-30" fill="#141515"></path>
                <path d="M26.8728706,75.4000531 C26.3435765,75.4000531 25.9281647,75.8332094 25.9281647,76.3882719 C25.9281647,76.9225844 26.3435765,77.341475 26.8728706,77.341475 C27.4125176,77.341475 27.8525176,76.9135063 27.8525176,76.3882719 C27.8525176,75.8435844 27.4125176,75.4000531 26.8728706,75.4000531 M26.8728706,78.5540531 C25.6758118,78.5540531 24.7039294,77.5826938 24.7039294,76.3882719 C24.7039294,75.1549438 25.6576941,74.1861781 26.8728706,74.1861781 C28.0867529,74.1861781 29.0741647,75.1743969 29.0741647,76.3882719 C29.0741647,77.5826938 28.0867529,78.5540531 26.8728706,78.5540531" id="Fill-32" fill="#141515"></path>
                <path d="M23.3102941,62.2287312 C22.6748824,62.2287312 22.1559412,62.7656375 22.1559412,63.42445 C22.1559412,64.0651062 22.6748824,64.5851531 23.3102941,64.5851531 C23.9651176,64.5851531 24.497,64.0651062 24.497,63.42445 C24.497,62.7539656 23.9754706,62.2287312 23.3102941,62.2287312 M23.3102941,65.7990281 C21.9993529,65.7990281 20.9342941,64.7342937 20.9342941,63.42445 C20.9342941,62.09645 21.9993529,61.0161531 23.3102941,61.0161531 C24.6613529,61.0161531 25.7186471,62.0744031 25.7186471,63.42445 C25.7186471,64.7342937 24.6380588,65.7990281 23.3102941,65.7990281" id="Fill-34" fill="#141515"></path>
                <path d="M14.8012118,72.9392328 C14.2046235,72.9392328 13.7180353,73.4294516 13.7180353,74.0312016 C13.7180353,74.6329516 14.2046235,75.1231703 14.8012118,75.1231703 C15.4003882,75.1231703 15.8856824,74.6329516 15.8856824,74.0312016 C15.8856824,73.4294516 15.4003882,72.9392328 14.8012118,72.9392328 M14.8012118,76.3357484 C13.5303882,76.3357484 12.4963882,75.3021391 12.4963882,74.0312016 C12.4963882,72.7589672 13.5303882,71.7253578 14.8012118,71.7253578 C16.0733294,71.7253578 17.1086235,72.7589672 17.1086235,74.0312016 C17.1086235,75.3021391 16.0733294,76.3357484 14.8012118,76.3357484" id="Fill-36" fill="#141515"></path>
            </g>
        </g>
    </g>
</svg>