<svg xmlns="http://www.w3.org/2000/svg" viewBox="0 0 1095.642 547.223">
  <defs>
    <style>
      .cls-1, .cls-9 {
        fill: #f9dc74;
      }

      .cls-2 {
        fill: #fca09f;
      }

      .cls-3 {
        fill: #00bb86;
      }

      .cls-4 {
        fill: #e743af;
      }

      .cls-5 {
        fill: none;
        stroke: #000;
        stroke-linecap: round;
      }

      .cls-6 {
        fill: #fd9f9f;
      }

      .cls-7 {
        fill: #9e4fdf;
      }

      .cls-8 {
        fill: #07053c;
      }

      .cls-9 {
        opacity: 0.2;
        isolation: isolate;
      }

      .cls-10 {
        fill: #1359ff;
      }

      .cls-11 {
        fill: #21a8fa;
      }

      .cls-12 {
        fill: #ffc82f;
      }
    </style>
  </defs>
  <title>khimis-img-1</title>
  <g id="Шар_2" data-name="Шар 2">
    <g id="Шар_1-2" data-name="Шар 1">
      <g>
        <path class="cls-1" d="M950.121,251.779l8.527-23.675v-3.221h7.718v3.22l8.527,23.676s2.927,6.356-3.992,6.356H954.114c-6.92,0-3.992-6.356-3.992-6.356"/>
        <path d="M959.065,202.781a.448.448,0,0,1,.045.2v24.83a.471.471,0,0,1-.028.154l-8.526,23.676a.373.373,0,0,1-.016.035c-.012.027-1.193,2.654-.13,4.3.6.933,1.849,1.406,3.7,1.406H970.9c1.855,0,3.1-.474,3.7-1.408,1.065-1.653-.12-4.27-.132-4.3l-8.542-23.712a.456.456,0,0,1-.027-.155v-24.83a.451.451,0,0,1,.078-.254l.635-1.7H958.4l.665,1.756ZM970.9,258.3H954.114c-2.19,0-3.7-.615-4.48-1.83-1.295-2.007-.069-4.87.06-5.157l8.493-23.583V203.065l-.885-2.338a.462.462,0,0,1,.432-.62h9.548a.462.462,0,0,1,.46.464.456.456,0,0,1-.027.155l-.886,2.368v24.632l8.5,23.6c.043.09,1.388,3.07.052,5.14-.783,1.215-2.289,1.83-4.479,1.83Z"/>
        <path d="M983.485,241q-4.884,21.639-4.4,34.444c.85,22.384,21.35,64.981,21.836,71.324.388,5.064-5.086-36.764-5.086-55.18q0-18.417,5.086-47.036Z"/>
        <g>
          <path d="M998.382,296.7l55.412-.108L989.067,517.342l-16.677-2.5q7.017-83.4,12.654-125.037t13.338-93.1Z"/>
          <path class="cls-2" d="M1069.639,508.631q12.734,29.094,13.224,29.638c.49.545,3.656,2.118,5.178-1.726s1.058-12.618-.864-20.468q-2-8.127-4.662-16.072a29.219,29.219,0,0,0-6.529,2.914,39.8,39.8,0,0,0-6.347,5.714Z"/>
          <path class="cls-3" d="M1082.493,537.788q-.313,3.792.051,4.442c.365.65,2.223.432,4.1,0,1.12-.258,3.219-2.923,5.1-11.512a27.788,27.788,0,0,0,.083-4.993q2.764.972,3.735,0t-9.183-13.05q2.438,14.615,2.233,16.612c-.2,2,.344,5.7-2.281,7.7q-2.626,2-3.833.8Z"/>
          <g>
            <path d="M974.651,510.41q-8.947,30.469-8.922,31.2c.026.733,1.441,3.974,5.078,2.007s8.921-8.986,12.494-16.234q3.69-7.514,6.76-15.31a29.281,29.281,0,0,0-6.874-1.964A39.8,39.8,0,0,0,974.651,510.41Z"/>
            <path d="M965.757,541.008q-2.679,2.7-2.818,3.435c-.138.732,1.425,1.76,3.142,2.636,1.023.522,4.344-.171,11.3-5.544a27.86,27.86,0,0,0,3.273-3.771q1.492,2.52,2.86,2.4t1.355-15.9q-7.527,12.764-8.968,14.16c-1.44,1.4-3.4,4.591-6.7,4.437q-3.3-.154-3.448-1.853Z"/>
          </g>
          <path class="cls-4" d="M1019.648,296.8h44.338q13.2,16.416,14.858,33c1.662,16.583-5.86,64.75-10.85,77.481s.234,31.207,4.461,41.308q4.227,10.1,13.386,59.306l-15.724,7.61q-29.49-66.346-35.538-100.961T1019.648,296.8Z"/>
          <path class="cls-5" d="M1034.044,308c0,5.817,5.277,32.261,27.531,20.816"/>
          <path class="cls-6" d="M1013.059,161.2a29.188,29.188,0,0,1-2.97,7.876q-1.385,2.229-7.17,7.91l3.735,3.085q-1.8,6.458.256,9.557t7.25,3.25q4.824,3.915,4.575,8.133t-7.483,5.03q5.472,7.873,9.386,10.017t8.243-.363q12.478-3.66,14.215-8.116c-6.177-2.487-7.212-2.182-8.879-5.568s-3.556-12.7-3.187-16.772c2.219-.637,6.387-2.614,5.854-6.972q-.533-4.359-7.022-2.92,1.9-5.73.816-5.9a6.16,6.16,0,0,1-4.732-4.733c-.7-3.343-.418-7.087-2.993-7.31s-3.5,3.042-9.894,3.8Z"/>
          <path class="cls-7" d="M1011.961,205.958c3.066,4.43,5.15,9.27,13.329,9.27q8.181,0,13.58-9.27,9.956,3.051,15.6,9.27c5.643,6.218,8.185,10.132,9.068,22.8q.885,12.664.447,58.91H998.35v-50.77l-12.923-13.492q9.942-21.345,26.533-26.716Z"/>
          <path class="cls-8" d="M1042.544,161c7.191,1.133,11.926-5.992,11.926-12.9s-5.642-12.895-12.545-12.895-11.881,6.386-11.881,13.29,5.309,11.367,12.5,12.5Zm-26.624-5.118c2.659-2.409,8.073-2.409,12.244-.552s9.51,6.337,11.083,11.792,1.818,10.167-3.783,15.583-16.842-1.427-11.275-6.051,2.752-6.348-.958-6.348a10.173,10.173,0,0,1-9.079-5.2c-2.188-3.572-.892-6.819,1.768-9.228Z"/>
          <path class="cls-6" d="M998.622,246.454q-20.58-21.855-24.73-24.866c-4.15-3.012-6.746-5.35-10.074-3.856s-4.774,4.863-4.774,6.052,4.774-3.836,4.774-2.979c14.868,27.169,25.323,46.428,34.8,53.054s25.922-4.223,32.839-9.912q7.908-6.518,15.723-13.147-10.234-13.917-10.235-16.482-7.669,6.682-38.327,12.136Z"/>
        </g>
        <path class="cls-9" d="M961.6,191q26.271-37.065,31.56-53.552c5.289-16.488,8.276-41.948-18.768-41.948s-36.58,12.087-42.461-8.337,9.289-50.3-40.8-45.834S773.18-36.583,761.1,19.813s33.826,32.278,17.885,57.3c-30.86,48.445,53.04,72.272,78.066,50.435,15.83-13.813,27.92-30.763,50.267-25.744s31.5,7.806,22.347,25.744-16.968,29.345,3.6,38.516Q953.835,175.238,961.6,191Z"/>
        <g>
          <path class="cls-3" d="M249.392,222.32a14.819,14.819,0,0,0,14.782,14.77h2.16a14.818,14.818,0,0,0,14.78-14.77s0-71.785,0-94.18H249.394l0,94.18"/>
          <path d="M246.384,88.926c1.427,1.681,3.707,4.927,3.707,8.511l0,124.883A14.1,14.1,0,0,0,264.173,236.4h2.16a14.1,14.1,0,0,0,14.086-14.076l0-124.883c0-3.584,2.28-6.83,3.707-8.51H246.384Zm19.949,148.86h-2.16A15.489,15.489,0,0,1,248.7,222.32l0-124.883c0-4.5-4.344-8.659-4.388-8.7l-1.27-1.2h44.42l-1.27,1.2c-.043.041-4.388,4.2-4.388,8.7l0,124.883a15.488,15.488,0,0,1-15.476,15.465Z"/>
          <g>
            <path class="cls-6" d="M165.538,145.19a27.612,27.612,0,0,0,4.666,6.475q1.821,1.7,8.541,5.47l-2.682,3.746q3.24,5.465,2.108,8.809t-5.877,4.762q-3.482,4.774-2.218,8.572t8.123,2.759q-3.107,8.554-6.185,11.482a7.59,7.59,0,0,1-7.677,1.7q-12.384-.272-15.076-3.921c5.077-3.8,6.1-3.776,6.808-7.286s.16-12.5-1.179-16.136c-2.2-.035-6.522-.817-7.1-4.937q-.577-4.121,5.748-4.4-3.15-4.776-2.2-5.2a5.859,5.859,0,0,0,3.2-5.5c-.18-3.23-1.354-6.589.962-7.428s3.966,1.922,10.038,1.034Z"/>
            <path class="cls-10" d="M138.295,152.087c-6.342,2.811-12.448-2.541-14.141-8.86a12.239,12.239,0,0,1,8.387-14.9c6.355-1.7,12.5,2.914,14.2,9.232s-2.1,11.713-8.442,14.523ZM161.6,141.029c-3.039-1.55-8.023-.214-11.407,2.515s-7.2,8.145-7.31,13.525.819,9.753,7.3,13.329,15.154-5.461,8.895-8.32-4.09-5.13-.674-6.046a9.7,9.7,0,0,0,7.083-6.994c1.139-3.81-.85-6.46-3.89-8.01Z"/>
            <path d="M114.747,249.254,150.727,259q-17.478,62.269-30.054,84.624c-12.575,22.355-20.133,35.462-35.306,31.225s-41.816-35.621-62.732-79.09q4.238-5.67,5.713-7.725l61.913,56.94q1.452-16.6,5.27-45.511t19.216-50.211Z"/>
            <g>
              <path d="M33.27,292.484q-19.152-17.955-19.706-18.208c-.555-.252-3.513-.393-3.468,3.053s3.2,9.991,7.193,15.343a104.059,104.059,0,0,0,9.021,10.493,24.054,24.054,0,0,0,3.856-4.19,34.052,34.052,0,0,0,3.1-6.49Z"/>
              <path d="M14,274.52q-.966-3-1.455-3.376c-.49-.374-1.863.414-3.182,1.373-.787.572-1.566,3.31-.284,10.5a22.406,22.406,0,0,0,1.526,3.841q-2.454.183-2.9,1.25T19.1,294.918q-6.654-10.264-7.13-11.858c-.477-1.594-2.086-4.241-.686-6.65q1.4-2.406,2.72-1.89Z"/>
            </g>
            <path class="cls-2" d="M199.851,458.718q6.132,21.2,6.108,21.716c-.023.512-1.053,2.785-3.622,1.438s-6.272-6.206-8.757-11.24q-2.568-5.219-4.69-10.637a21.43,21.43,0,0,1,4.9-1.422A28.686,28.686,0,0,1,199.851,458.718Z"/>
            <path class="cls-3" d="M205.944,480.012a8.282,8.282,0,0,1,1.977,2.377c.093.51-1.026,1.239-2.252,1.863-.73.372-3.085-.087-7.989-3.786a18.936,18.936,0,0,1-2.3-2.609q-1.08,1.77-2.05,1.7t-.845-11.09q5.255,8.855,6.267,9.82c1.013.964,2.384,3.179,4.728,3.047q2.344-.134,2.463-1.32Z"/>
            <path class="cls-11" d="M132.3,254.3q1.825.8,36.466,10.436L200.58,461.3H189.388q-6.651-15.649-13.223-31.333C171.1,417.861,161.48,380,161.48,376.47s-3.181-16.589-9.962-36.34-22.274-26.475-24.574-50.151S130.474,253.507,132.3,254.3Z"/>
            <path class="cls-6" d="M206.1,175.584q-.2-1.318,22.681-17.873a322,322,0,0,1,14.057-30.72c6-11.015,8.194-17.839,9.926-18.875s12.113-1.88,14.056,0-9.71,2.074-9.71,4.3-4.994,29.474-8.835,37.387-2,18.015-14.978,33.612q-12.983,15.6-16.677,16.452Q206.3,176.9,206.1,175.584Zm-91.807,14.562,5.734,27.36q-16.88,7.914-37.46,6.12T7.511,191.314Q2.749,195.229.6,195.23c-2.153,0,1.968-8.268,5.543-9.608a25.446,25.446,0,0,1,8.5-1.422l66.187,18.648Z"/>
            <path class="cls-12" d="M113.174,190.586c1.472-1.094,10.52-5.373,18.738-5.373q8.218,0,59.967,1.047L206.666,174.7l10.844,24.838q-11.595,8.474-16.638,11.544a158.98,158.98,0,0,1-14.4,7.463q0,6.788-1.523,9.57t-8.116,3.972l-8.025,32.633-54.347-15.11q11.007-11.464,12.7-19.845a61.576,61.576,0,0,0,1.157-16.422l-8.841,4.44q-6.308-26.093-6.308-27.195Z"/>
          </g>
        </g>
      </g>
    </g>
  </g>
</svg>
