<svg xmlns="http://www.w3.org/2000/svg" xmlns:xlink="http://www.w3.org/1999/xlink" viewBox="0 0 726.993 150.956">
  <defs>
    <style>
      .cls-1 {
        fill: #fff;
      }

      .cls-2 {
        mask: url(#mask);
      }

      .cls-3 {
        mask: url(#mask-2);
      }

      .cls-4 {
        mask: url(#mask-3);
      }

      .cls-5 {
        mask: url(#mask-4);
      }

      .cls-6 {
        mask: url(#mask-5);
      }

      .cls-7 {
        fill: #00bb86;
      }
    </style>
    <mask id="mask" x="705.349" y="126.145" width="2.859" height="4.038" maskUnits="userSpaceOnUse">
      <g id="b">
        <path id="a" class="cls-1" d="M705.349,126.145h2.858v4.038H705.35Z"/>
      </g>
    </mask>
    <mask id="mask-2" x="650.513" y="92.631" width="4.046" height="4.91" maskUnits="userSpaceOnUse">
      <g id="d">
        <path id="c" class="cls-1" d="M650.513,92.631h4.045v4.91h-4.045Z"/>
      </g>
    </mask>
    <mask id="mask-3" x="568.21" y="111.15" width="4.554" height="5.966" maskUnits="userSpaceOnUse">
      <g id="f">
        <path id="e" class="cls-1" d="M568.21,111.15h4.553v5.965H568.21Z"/>
      </g>
    </mask>
    <mask id="mask-4" x="588.917" y="61.07" width="5.28" height="4.91" maskUnits="userSpaceOnUse">
      <g id="h">
        <path id="g" class="cls-1" d="M590.17,61.07l4.027,1.465-1.254,3.444-4.026-1.465Z"/>
      </g>
    </mask>
    <mask id="mask-5" x="567.263" y="67.141" width="10.386" height="11.37" maskUnits="userSpaceOnUse">
      <g id="j">
        <path id="i" class="cls-1" d="M570.448,67.141l7.2,2.621-3.184,8.748-7.2-2.621Z"/>
      </g>
    </mask>
  </defs>
  <title>khimia-img-2</title>
  <g id="Шар_2" data-name="Шар 2">
    <g id="Шар_1-2" data-name="Шар 1">
      <g>
        <g>
          <path d="M712.324,147.513a41.156,41.156,0,0,0-5.811-2.477c-.643-2.177-1.3-4.356-2.038-6.5l0-.009a.178.178,0,0,0,.038-.017,22.632,22.632,0,0,0,4.368-4.216.292.292,0,0,0,.024-.037,14.818,14.818,0,0,0,2.922.837,22.725,22.725,0,0,0,3.076.565.221.221,0,0,0,.176-.062.229.229,0,0,0,0,.064c.423,2.236,1.895,4.39,1.866,6.7-1.59,1.683-2.96,3.54-4.625,5.157m-6.37-2.125a25.116,25.116,0,0,1-2.123,2.884,26.991,26.991,0,0,1-2.346,2.179.287.287,0,0,0-.094-.055c-2.2-.79-4.376-1.674-6.579-2.467.174-.586-.432-1.64-.586-2.117-.408-1.264-.812-2.524-1.277-3.769a.23.23,0,0,0,.083-.051c.837-.788,1.652-1.6,2.507-2.365s1.83-1.428,2.591-2.263a.121.121,0,0,0,.018-.028c2,.4,3.981.742,5.943,1.3a14.551,14.551,0,0,0,.762,2.8c.4,1.268.789,2.539,1.2,3.8a.336.336,0,0,0,.03.06.207.207,0,0,0-.13.092m14.264-2.44a6.314,6.314,0,0,0-2.763-.663c-.009,0-.016,0-.024,0a.309.309,0,0,0-.033-.039,7.41,7.41,0,0,0-.647-3.086,29.629,29.629,0,0,0-1.3-3.661.179.179,0,0,0-.3-.037.271.271,0,0,0-.174-.315,29.041,29.041,0,0,0-3-.6c-1.023-.207-2.04-.478-3.07-.643a3.783,3.783,0,0,0-.48-2.1c-.168-.335-.666-.041-.5.293a13.186,13.186,0,0,1,.612,1.84.134.134,0,0,0-.022.054q-2.07,2.075-4.133,4.16a.293.293,0,0,0-.047-.023.147.147,0,0,0-.2-.066l-.006,0a22.762,22.762,0,0,0-6.015-1.074.182.182,0,0,0,0-.057,26.4,26.4,0,0,0-2.184-6.305c-.13-.277-.533-.035-.409.24.907,2,1.582,4.07,2.288,6.15a.164.164,0,0,0,.046.069,14.779,14.779,0,0,0-2.57,2.054,28.925,28.925,0,0,0-2.543,2.531c-.943-.249-1.914-.4-2.87-.587a26.688,26.688,0,0,0-2.676-.527c-.257-.023-.256.333-.056.415a14.845,14.845,0,0,0,2.938.7,16.969,16.969,0,0,0,2.58.32v.012c.249,1.039.538,2.059.852,3.08l.42,1.357a5.92,5.92,0,0,1,.426,1.3.205.205,0,0,0-.04.257l.043.06a.288.288,0,0,0,.157.107.144.144,0,0,0,.038.03,60.666,60.666,0,0,0,6.684,2.738.231.231,0,0,0,.291-.1.165.165,0,0,0,.069-.022,12.09,12.09,0,0,0,4.7-5.228.209.209,0,0,0,0-.184.278.278,0,0,0,.155-.053,40.962,40.962,0,0,0,5.7,2.617.225.225,0,0,0,.288-.154c2.015-1.3,3.4-3.4,4.963-5.18h0c.477.108.945.244,1.416.376a8.062,8.062,0,0,0,1.283.347c.234.024.279-.3.112-.412"/>
          <g class="cls-2">
            <path d="M706.833,129.535a2.2,2.2,0,0,1-.88-1.293c-.1-.339-.286-1.158.058-1.395a.231.231,0,0,0,.028-.01c.706-.4,1.118.307,1.344.865a3.342,3.342,0,0,1,.247.967c.03.363.045,1.249-.8.866m.7-2.726c-.4-.574-1.319-1.01-1.8-.283l0,.005a.207.207,0,0,0-.2.14,2.864,2.864,0,0,0,.429,2.727c.5.663,1.485,1.227,2.042.29a3.028,3.028,0,0,0-.466-2.878"/>
          </g>
          <path d="M723.013,143.217c-.167.249-.429.307-.643.485a4.506,4.506,0,0,0-1.034-1.632c.1-.179.842-.276.915-.27a.957.957,0,0,1,.825.553.88.88,0,0,1-.063.864m.226-1.527a1.524,1.524,0,0,0-1.624-.255c-.227.094-.513.331-.508.573a.069.069,0,0,0-.01.042,5.308,5.308,0,0,0,.745,1.752,17.187,17.187,0,0,0,1,2.193c.1.146.393.112.37-.1a5.689,5.689,0,0,0-.644-1.79,1.279,1.279,0,0,0,1.047-.884,1.46,1.46,0,0,0-.374-1.531m3.349,1.414a1.531,1.531,0,0,0-.972-.684,1.116,1.116,0,0,0-.972.354,6.537,6.537,0,0,0-.953-1.793.1.1,0,0,0-.165.068,6.62,6.62,0,0,0,.65,1.939,11.315,11.315,0,0,0,.86,1.914.227.227,0,0,0,.412-.174,7.9,7.9,0,0,0-.613-1.542c.048-.218.38-.34.58-.316a.973.973,0,0,1,.612.343c.315.367.278.918.594,1.253a.211.211,0,0,0,.35-.092,1.872,1.872,0,0,0-.383-1.27M625.3,74.14l-.914-.826a3.23,3.23,0,0,0,2.876-1.29,1.89,1.89,0,0,0,.338-1.5.675.675,0,0,0-.981-.437c-.2.1-.164.485.1.43.7-.15-.008,1.165-.123,1.3a2.325,2.325,0,0,1-1.195.7,4.767,4.767,0,0,1-2-.01.365.365,0,0,0-.279.637l1.744,1.556c.335.3.769-.247.436-.548m5.363-1.047c.12-.2-.186-.363-.326-.209-.665.73-1.374,1.526-2,2.36-.095-.08-.192-.155-.283-.232-.219-.186-.435-.374-.663-.546.676-.737,1.3-1.554,1.924-2.284.23-.269-.172-.59-.41-.348a24.734,24.734,0,0,0-3.069,3.339c-.166.25.11.629.375.417a9.861,9.861,0,0,0,.867-.792c.186.208.383.405.579.6.108.109.212.226.323.334-.228.33-.441.663-.63,1s.29.56.513.327a22.1,22.1,0,0,0,2.8-3.97m-1.551,5.825a3.847,3.847,0,0,0-.484-.585,1.561,1.561,0,0,0,1.3-1.012c.177-.616-.579-1.326-1.026-.708-.121.168.088.441.258.287.194-.082.287-.016.277.2a.564.564,0,0,1-.133.252,1.03,1.03,0,0,1-.3.241,1.43,1.43,0,0,1-.941.163.308.308,0,0,0-.289.477,2.515,2.515,0,0,0,1.014,1.092.271.271,0,0,0,.322-.4m5.084.046a2.4,2.4,0,0,0-.6-.532c.045-.063.092-.123.136-.187a.26.26,0,0,0-.4-.336c-.058.063-.113.13-.169.195l-.282-.217a.229.229,0,0,0-.285.357l.245.23-.033.039a1.291,1.291,0,0,0-.385.608.25.25,0,0,0,.327.278c.237-.091.355-.308.5-.507l.012-.016a2.291,2.291,0,0,0,.605.492.271.271,0,0,0,.323-.4M634.874,82c-.1-.869,2.46-3.291,2.916-2.526a.2.2,0,0,0,.074.07h0a6.577,6.577,0,0,1-.95,2.038c-.37.523-1.872,1.854-2.04.417m3.6-2.354a.269.269,0,0,0-.277-.348.136.136,0,0,0-.01-.037c-.826-1.728-4.265,1.48-3.96,2.995a1.4,1.4,0,0,0,2.122.8,5.317,5.317,0,0,0,2.125-3.409m-1.543,5.672a.946.946,0,0,1-.36-.307,1.341,1.341,0,0,0,1.3-.656.9.9,0,0,0-.527-1.3c-.26-.053-.4.38-.136.469.39.13.189.64-.08.778a1.682,1.682,0,0,1-.973.08.318.318,0,0,0-.361.35,1.652,1.652,0,0,0,.883,1.187c.364.189.626-.412.258-.6m6.82,1.786a4.115,4.115,0,0,0-.62-1.4.394.394,0,0,0-.29-.177.247.247,0,0,0-.4-.141c-.139.122-.27.25-.4.383a8.165,8.165,0,0,0-.761-.736q-.691-.638-1.4-1.256c-.194-.17-.517.118-.338.323q.564.646,1.142,1.28a8.772,8.772,0,0,0,.884.934c-.108.14-.213.284-.31.435a.419.419,0,0,0,.244.666c.592.1,1.191.18,1.787.264a.431.431,0,0,0,.456-.571m2.368,4.016a4.194,4.194,0,0,0-.845-1.008,2.787,2.787,0,0,0,2.213-1.575,1.535,1.535,0,0,0-1.067-2.12c-.28-.052-.43.407-.146.507.954.34.693,1.446.053,1.94a3.947,3.947,0,0,1-1.921.6.405.405,0,0,0-.207.7A7.4,7.4,0,0,0,645.73,91.6c.3.166.52-.232.384-.481m3.314.987c.442-.575.911-1.125,1.362-1.692.137-.171-.1-.455-.266-.3a21.212,21.212,0,0,0-1.71,1.728c-.071-.05-.145-.1-.213-.149-.178-.133-.358-.264-.538-.394.5-.714.947-1.5,1.4-2.178.173-.26-.174-.57-.373-.317a18.2,18.2,0,0,0-2.5,3.43c-.1.229.19.516.391.333a6.8,6.8,0,0,0,.83-.933c.155.154.31.307.467.458.06.058.12.124.181.186a5.809,5.809,0,0,0-.627,1.01c-.105.222.189.5.382.324a11.518,11.518,0,0,0,1.209-1.509m.422,3.06c-.185-.17-.377-.334-.57-.5.545-.074,1.05-.322,1.1-.969A.853.853,0,0,0,650,92.92a.6.6,0,0,0-.407-.094c-.2.05-.274.291-.346.466a.149.149,0,0,0,.217.184,2.525,2.525,0,0,0,.209-.173c.3.12.13.565-.1.707a1.63,1.63,0,0,1-1.044.079.3.3,0,0,0-.228.522c.389.348.77.71,1.172,1.043.306.254.68-.217.387-.485"/>
          <g class="cls-3">
            <path d="M652.888,95.841a3.273,3.273,0,0,1-.774.7c-.763.4-1.013-.05-.812-.777a5.319,5.319,0,0,1,2.288-2.6.267.267,0,0,0,.053.076c.827.8-.25,2.047-.754,2.6m1.118-.339c.542-.852.914-1.991-.016-2.653.04-.1-.023-.239-.144-.215a4.628,4.628,0,0,0-3,2.4c-.429.785-.6,2.043.426,2.437,1.072.41,2.24-1.2,2.729-1.973"/>
          </g>
          <path d="M547.452,51.665a1.266,1.266,0,0,1-1.982-.2,1.5,1.5,0,0,1,.216-1.754.331.331,0,0,0,.473-.092.989.989,0,0,1,1.753-.03,1.722,1.722,0,0,1-.46,2.07m-9.686-7.575a1.324,1.324,0,0,1-1.893.519,1.448,1.448,0,0,1-.388-1.95,2.107,2.107,0,0,1,1.467-.9.342.342,0,0,0,.391.227c1.144-.277.688,1.617.423,2.1m-9.618,7.832a1.545,1.545,0,0,1-2.084-.244c-1.268-1.51,1.448-3.6,2.57-1.864a.368.368,0,0,0,.033.035,2.212,2.212,0,0,1-.519,2.073m7.994-20.01a.351.351,0,0,0-.468.03,1.972,1.972,0,0,1-1.316-1.432,1.64,1.64,0,0,1,1.455-1.77,1.592,1.592,0,0,1,.377,3.156.338.338,0,0,0-.048.016m12.033,16.875a1.64,1.64,0,0,0-2.564.407.149.149,0,0,0-.018,0c-2.237-1.745-4.827-3.217-7.2-4.788a3.144,3.144,0,0,0,.318-.855,2.147,2.147,0,0,0-.21-1.777,1.135,1.135,0,0,0-1.062-.456,2.082,2.082,0,0,0-.585-.106,72.849,72.849,0,0,0-.537-8.561.446.446,0,0,0,.089-.014,2.343,2.343,0,0,0-.8-4.617,2.392,2.392,0,0,0-2.042,2.433,2.167,2.167,0,0,0,2.08,2.013,76.362,76.362,0,0,0,.76,8.774,2.272,2.272,0,0,0-1.773,1.468,2.2,2.2,0,0,0,.035,1.522,20.509,20.509,0,0,0-2.735,2.286c-.976.9-1.974,1.786-2.9,2.73a.33.33,0,0,0-.117.01,2.051,2.051,0,0,0-2.662-.531,2.234,2.234,0,0,0,1.927,4.032,2.6,2.6,0,0,0,1.218-2.873.408.408,0,0,0,.087-.057c1.031-.889,2-1.852,2.985-2.79a21.28,21.28,0,0,0,2.37-2.475,2.024,2.024,0,0,0,1.338.929,1.943,1.943,0,0,0,1.987-.73,32.341,32.341,0,0,0,6.885,4.784,1.883,1.883,0,0,0-.128,2.488,2.052,2.052,0,0,0,3.152.074,2.335,2.335,0,0,0,.114-3.324"/>
          <g>
            <path d="M563.229,119.7c-.835-1.583-1.847-3.122-2.726-4.692-.088-.156-.385-.046-.325.118a20.176,20.176,0,0,0,1.532,3.33,3.69,3.69,0,0,0-.712.274c-.248.1-.6.19-.752.4a12.071,12.071,0,0,0-1.884-3.078c-.094-.152-.421-.063-.353.128.56,1.566,1.568,3.071,2.273,4.6.15.326.768.19.622-.148-.182-.423-.369-.861-.567-1.3a1.991,1.991,0,0,0,.91-.225,3.211,3.211,0,0,0,.688-.271,11.946,11.946,0,0,0,.794,1.12c.214.268.654.04.5-.252m2.5-.342c-.24.022-.48.051-.719.083.2-.448.3-.944-.23-1.267-.491-.3-1.2.027-1.1.554.032.17.365.131.349-.04-.021-.223.27-.316.461-.192a.442.442,0,0,1,.171.332,1.168,1.168,0,0,1-.363.8c-.121.14.04.392.245.369.42-.048.844-.1,1.258-.171a.238.238,0,0,0-.074-.471m2.854-3.045a1.867,1.867,0,0,0-.987-1.135c-.67-.327-1.867-.323-2.406-.86a1.5,1.5,0,0,0-.032-.395,1.082,1.082,0,0,1,.123-.544,1.594,1.594,0,0,1,.876-.743c.234-.092.051-.355-.16-.328a1.693,1.693,0,0,0-1.287.89c-.18.353-.357,1.074.114,1.308a.262.262,0,0,0,.053.02,1.814,1.814,0,0,0,1.02.686c.823.273,1.75.259,2.092,1.124a1.261,1.261,0,0,1-.513,1.7c-.247.1-.08.365.122.388,1.163.134,1.18-1.487.985-2.111"/>
            <g class="cls-4">
              <path d="M569.128,114.5a5.011,5.011,0,0,1-.367-1.466c-.015-.237-.056-1.457.428-1.52a.137.137,0,0,0,.024-.007,3.722,3.722,0,0,1,2.207,1.926,3.3,3.3,0,0,1,.476,3.2h0a2.963,2.963,0,0,1-2.767-2.133m2.735-1.473a3.556,3.556,0,0,0-2.721-1.875.18.18,0,0,0-.168.091c-1.213,0-.661,2.752-.486,3.256.473,1.348,1.628,2.838,3.48,2.592a.206.206,0,0,0,.174-.114.335.335,0,0,0,.345-.18,3.759,3.759,0,0,0-.623-3.769"/>
            </g>
            <path d="M575.91,116.357a5.066,5.066,0,0,1-.783-1.36.7.7,0,0,0-.206-.59.284.284,0,0,0-.475.238c.028.12.062.24.1.359a.368.368,0,0,1-.354.2.413.413,0,0,1-.278-.6c.087-.18-.247-.289-.356-.13a.81.81,0,0,0,.8,1.215.9.9,0,0,0,.4-.125,3.949,3.949,0,0,0,.713,1.09c.2.215.617-.065.442-.3"/>
          </g>
          <g>
            <g class="cls-5">
              <path d="M591.3,61.485c-.683-.19-2.151.633-1.314,1.313.148-.553.8-1.186,1.365-.828.987.625-1.175,2.28-.833,3.125a3.88,3.88,0,0,0,1.762-.449c.522-.189,1.364-.277,1.483-.94-1.048-.373-1.805.559-2.491.573.659-1.079,1.317-2.439.027-2.795"/>
            </g>
            <path d="M587.5,68.985a2.277,2.277,0,0,0,2.845.334c.491-.278,1.409-.923.853-1.715-.742,1.017-1.763,2.05-3.212,1.09a1.885,1.885,0,0,1-.02-2.033c.373-.578,1.3-.418,1.575-.984a.332.332,0,0,1-.176-.143c-1.653-.214-2.881,2.16-1.865,3.45m-3.812-1.23c-.882-.58-1.654.029-2.2.6-.233-.189-.237-.732-.589-.682-.136.728.53,1.07.415,1.787.93.334.7,2.2,1.85,2.232-.009-1.169-1.087-1.823-1.306-2.891.35-.465.68-.852,1.182-.739,1.094.251,1.115,2.113,1.934,2.419.4-.933-.619-1.667-.844-2.488.289-.423.584-.755,1-.65,1.09.274.552,2.531,1.49,2.8.735-1.61-1.5-4.764-2.933-2.39m-7.017,2.976a6.324,6.324,0,0,0,2.724-1.423,3.166,3.166,0,0,0-2.724,1.424"/>
            <g class="cls-6">
              <path d="M575.418,68.95c-1.051-.315-2.024.414-2.859.75-.907.366-1.7.67-2.417.992-.267-.287-.28-.7-.648-.938.057,1.486,1.118,2.491.948,4.086.052.126.3.158.353.285.228,1.195.925,2.165,1.038,3.415.214.14.3-.008.5.1a10.614,10.614,0,0,1,1.818-1.444c.534-.312,1.42-.361,1.558-1.146-1.231-.2-2.288,1.059-3.344,1.665a17.423,17.423,0,0,1-1.055-2.954c1.2-.612,2.548-.9,3.538-1.985-.645-.305-1.361.182-1.921.469-.614.318-1.206.74-1.8.981a8.824,8.824,0,0,1-.7-2.048,15.228,15.228,0,0,0,2.549-.942c.8-.317,1.877-.442,2.447-1.289"/>
            </g>
            <path d="M579.575,70.7a3.283,3.283,0,0,0-2.925,1.351c1.175-.007,2-.785,2.925-1.35"/>
          </g>
        </g>
        <g>
          <circle class="cls-7" cx="3" cy="56" r="3"/>
          <circle class="cls-7" cx="107" cy="9" r="2"/>
          <circle class="cls-7" cx="128" cy="1" r="1"/>
          <circle class="cls-7" cx="10.5" cy="67.5" r="1.5"/>
          <circle class="cls-7" cx="75.5" cy="55.5" r="5.5"/>
          <circle class="cls-7" cx="29" cy="62" r="9"/>
          <circle class="cls-7" cx="106" cy="20" r="3"/>
          <circle class="cls-7" cx="63" cy="38" r="3"/>
        </g>
      </g>
    </g>
  </g>
</svg>
