<?xml version="1.0" encoding="UTF-8"?>
<svg width="415px" height="209px" viewBox="0 0 415 209" version="1.1" xmlns="http://www.w3.org/2000/svg" xmlns:xlink="http://www.w3.org/1999/xlink">
    <!-- Generator: Sketch 57.1 (83088) - https://sketch.com -->
    <title>Group 24</title>
    <desc>Created with Sketch.</desc>
    <defs>
        <polygon id="path-1" points="0.70362782 0.814239015 39.4936466 0.814239015 39.4936466 23.75924 0.70362782 23.75924"></polygon>
        <polygon id="path-3" points="0.0936090226 0.690770431 319.924131 0.690770431 319.924131 81.1201522 0.0936090226 81.1201522"></polygon>
        <polygon id="path-5" points="1.11394737 0.410300129 138.677086 0.410300129 138.677086 136.707868 1.11394737 136.707868"></polygon>
    </defs>
    <g id="Page-1" stroke="none" stroke-width="1" fill="none" fill-rule="evenodd">
        <g id="Fizmatik-Home-screen" transform="translate(-513.000000, -171.000000)">
            <g id="Group-21" transform="translate(57.000000, 88.000000)">
                <g id="Group-24" transform="translate(456.000000, 82.852941)">
                    <polyline id="Fill-1" fill="#F3B229" points="227.576015 180.791277 220.126297 194.083093 289.428177 193.566242 256.176692 121.335926 238.490827 119.394157 276.014004 186.239681 227.576015 180.791277"></polyline>
                    <polyline id="Fill-2" fill="#201F4B" points="219.029511 194.676279 243.342895 148.23762 240.143026 141.717346 205.707387 202.51492 279.825451 208.876162 288.949211 194.676279 219.029511 194.676279"></polyline>
                    <polyline id="Fill-3" fill="#D8232A" points="274.697237 185.264821 237.16938 119.745616 204.006823 194.083093 205.328271 201.921734 240.28968 140.1986 261.131729 183.67451 274.697237 185.264821"></polyline>
                    <g id="Group-11" transform="translate(135.733083, 194.017890)">
                        <mask id="mask-2" fill="white">
                            <use xlink:href="#path-1"></use>
                        </mask>
                        <g id="Clip-9"></g>
                    </g>
                    <g id="Group-16" transform="translate(0.000000, 112.912051)">
                        <mask id="mask-4" fill="white">
                            <use xlink:href="#path-3"></use>
                        </mask>
                        <g id="Clip-14"></g>
                        <path d="M316.802575,15.7806519 C316.799455,15.6184402 316.802575,15.5214312 316.802575,15.4928056 C316.815056,13.277503 315.924211,10.0491725 314.995921,7.48559188 C314.076992,4.90928875 313.164305,2.97547109 313.161184,2.96910985 L313.161184,2.97229047 C312.785188,2.1803158 313.111259,1.22931008 313.888214,0.847635537 C314.663609,0.46914162 315.595019,0.79833591 315.969455,1.59031058 C315.986617,1.70163232 319.866711,9.63569178 319.922876,15.4928056 L319.922876,15.653427 C319.957199,16.5312784 319.283214,17.2707729 318.426692,17.3057597 L318.367406,17.3089403 C317.528045,17.3089403 316.836898,16.6378293 316.802575,15.7806519" id="Fill-13" fill="#F1D479" mask="url(#mask-4)"></path>
                        <path d="M38.9819173,58.6522444 L40.9227444,28.6319516 C48.503515,30.4305929 54.1106955,35.4305293 54.6567481,41.7854104 C55.3073308,49.3648306 48.5518797,56.3367522 38.9819173,58.6522444 Z M12.2081767,45.5719399 C11.6059586,38.5682121 17.3301504,32.0861062 25.7549624,29.3141949 L27.8658459,59.1054829 C19.3224624,57.7505383 12.7979135,52.4579847 12.2081767,45.5719399 Z M64.2688346,25.530846 C60.0829511,18.1390824 51.5801316,14.4145751 41.8307519,14.6101833 L42.2098684,8.73080507 L24.5208835,11.9114262 L24.9967293,18.633669 C23.5005451,19.3159123 22.0106015,20.0585873 20.5425,20.9221259 C3.51033835,30.9458535 -4.52443609,49.2582798 2.59453008,61.8296849 C7.31398496,70.1597317 17.5158083,73.842891 28.8144173,72.4831755 L29.2013346,77.9395311 L37.5294173,81.1201522 L38.2346053,70.212212 C40.9539474,69.2309903 43.6701692,67.9984996 46.3224248,66.438405 C63.3530263,56.4146774 71.3878008,38.0990705 64.2688346,25.530846 L64.2688346,25.530846 Z" id="Fill-15" fill="#283278" mask="url(#mask-4)"></path>
                    </g>
                    <polyline id="Fill-17" fill="#283278" points="115.745996 190.967675 110.257387 123.839075 110.49141 123.347669 110.219944 123.392198 110.216823 123.347669 110.004643 123.428775 92.7509398 126.316779 80.7237406 161.664612 83.8565226 123.347669 67.2830451 126.316779 70.5983647 187.998565 78.3273496 190.967675 101.648477 141.9384 99.1725188 187.998565 115.745996 190.967675"></polyline>
                    <path d="M131.812425,161.201832 C130.809248,160.829699 129.79515,160.484602 128.774812,160.164949 C131.739098,157.838325 134.587932,155.247709 137.187143,152.415366 C149.718271,138.751417 151.836955,125.04135 141.920639,121.789165 C136.177726,119.906237 127.662425,121.959328 119.075357,126.658696 L119.140883,135.104835 C122.353233,132.371091 125.549981,131.097252 127.759154,132.00532 C131.66265,133.609943 131.007387,141.410416 126.294173,149.433533 C124.248816,152.914723 121.777538,155.859978 119.31406,157.952827 L119.395188,168.665159 C126.595282,168.133995 132.165019,170.25547 132.065169,173.63488 C131.96844,176.939545 126.482951,180.279197 119.493477,181.475111 L119.582406,192.896721 C131.478553,194.11967 142.65235,191.870971 147.989624,186.463915 C155.653083,178.701609 148.410865,167.392911 131.812425,161.201832" id="Fill-18" fill="#283278"></path>
                    <polyline id="Fill-19" fill="#283278" points="196.060977 124.136463 196.08906 124.367058 186.53782 165.764433 161.775113 124.136463 161.765752 124.139644 161.765752 124.136463 154.138177 127.108753 152.935301 188.787359 169.611748 191.759649 164.692594 149.358789 182.824662 193.337237 188.317951 190.662335 188.361635 190.547833 188.374117 190.554194 200.200056 159.797587 203.908534 191.759649 211.536109 174.474564 212.735865 127.108753 196.060977 124.136463"></polyline>
                    <polyline id="Fill-20" fill="#283278" points="360.691165 190.967675 355.200996 123.839075 355.435019 123.347669 355.163553 123.392198 355.161992 123.347669 354.948252 123.428775 337.694549 126.316779 325.66735 161.664612 328.800132 123.347669 315.180019 125.788796 315.91641 120.085942 266.189737 125.720412 268.375508 133.601992 283.03468 134.691354 285.612049 182.686928 288.038083 188.817575 293.629662 190.967675 298.140056 135.818884 312.796109 136.909838 315.541974 187.998565 323.272519 190.967675 346.592086 141.9384 344.117688 187.998565 360.691165 190.967675"></polyline>
                    <polyline id="Fill-21" fill="#283278" points="414.867387 190.967675 392.290451 154.104276 406.919981 123.347669 389.179511 126.316779 377.152312 161.664612 380.285094 123.347669 363.711617 126.316779 367.026936 187.998565 374.757481 190.967675 386.428966 166.432363 396.718158 187.998565 414.867387 190.967675"></polyline>
                    <g id="Group-25" transform="translate(219.981203, 0.000000)">
                        <mask id="mask-6" fill="white">
                            <use xlink:href="#path-5"></use>
                        </mask>
                        <g id="Clip-23"></g>
                        <path d="M81.8111654,125.063614 L81.8096053,125.060433 C80.2666165,123.247479 77.937312,122.116769 75.3396617,121.50768 L75.3396617,87.8074082 C75.3396617,86.9279664 74.6391541,86.2170976 73.7795113,86.2170976 C72.9167481,86.2170976 72.2193609,86.9279664 72.2193609,87.8074082 L72.2193609,121.027406 C71.6140226,120.978106 71.0071241,120.9463 70.4002256,120.939939 C66.524812,120.973335 62.6415977,121.873451 60.362218,124.570618 C59.811485,125.2465 59.9019737,126.249986 60.5634774,126.811365 C61.2265414,127.372745 62.2125564,127.282097 62.7632895,126.606215 C63.2828195,125.920791 64.2469925,125.338738 65.4545489,124.904583 C63.4045113,126.242034 61.399718,127.895957 60.1484774,129.818643 C59.6866729,130.558137 59.8988534,131.542539 60.6290038,132.014862 C60.8879887,132.183435 61.1766165,132.26295 61.4636842,132.26295 C61.9785338,132.26295 62.4840226,132.002139 62.7835714,131.525046 C63.8054699,129.817052 66.3953195,127.935715 68.8260338,126.571228 C67.1925564,128.972597 65.5434774,132.045078 65.2735714,135.006236 C65.2158459,135.882497 65.8648684,136.644256 66.7245113,136.703097 L66.8306015,136.707868 C67.6434398,136.707868 68.3314662,136.063792 68.3876316,135.224108 C68.4843609,133.283929 69.9852256,130.400696 71.5422556,128.177442 C72.7373308,126.440823 73.8980827,125.084288 74.3645677,124.553124 C76.6548684,125.073156 78.5941353,126.011439 79.410094,127.094441 C79.7190038,127.472935 80.1636466,127.668543 80.6098496,127.668543 C80.9624436,127.668543 81.3134774,127.547679 81.6067857,127.302771 C82.2667293,126.741392 82.3618985,125.739496 81.8111654,125.063614" id="Fill-22" fill="#F1D479" mask="url(#mask-6)"></path>
                        <path d="M51.5785714,85.25655 L51.5645301,85.2994884 L51.5645301,85.4712419 L51.5785714,85.25655 M46.4394361,61.0393006 C46.8045113,60.9677366 47.1415038,60.8818598 47.4363722,60.7673574 C46.9308835,60.8818598 46.6219737,60.9677366 46.4394361,61.0393006 M51.7891917,83.5390146 L51.8032331,83.8395833 C51.9436466,83.5247018 51.8734398,84.0542752 51.9296053,84.1974032 C52.1402256,83.581953 51.8172744,83.8968345 51.7891917,83.5390146 M51.2977444,80.7337067 C51.2415789,80.9770243 50.9888346,81.3920953 51.2696617,81.5209105 C51.3398684,81.3634697 51.1994549,81.0199626 51.2977444,80.7337067 M52.4491353,81.9359815 L52.4210526,82.0647967 L52.3087218,81.7212896 C52.238515,82.1936119 51.7751504,82.5084933 52.1823496,82.6516213 L52.2525564,82.1220479 C52.435094,82.1506735 52.5193421,82.1506735 52.4631767,82.4798678 C52.5474248,82.4083038 52.4631767,82.1077351 52.4491353,81.9359815 M52.0840602,82.8376876 L52.2806391,83.4101994 C52.2946805,83.2098203 52.3227632,82.7088725 52.0840602,82.8376876 M93.520094,43.2484961 C93.8992105,42.8477379 94.2502444,42.4756052 94.5451128,42.1034725 C93.9975,42.6616715 93.6885902,43.0194914 93.520094,43.2484961 M136.402387,27.4901086 L136.346222,27.5187342 C136.093477,27.4901086 135.840733,27.461483 135.658195,27.461483 L129.550207,26.2448954 L129.648496,25.9729523 C130.687556,26.8174073 134.843797,26.6456537 136.514718,27.4328574 L136.402387,27.4901086 M129.213214,25.4433789 L129.255338,25.4004405 L129.873158,24.7134264 L129.845075,24.742052 C129.550207,25.0426207 129.451917,25.2859382 129.437876,25.4863173 L129.213214,25.4433789 M128.65156,26.0731419 L128.974511,25.715322 C129.058759,25.9157012 129.128966,26.0731419 129.185132,26.1733315 L128.65156,26.0731419 M119.440432,40.04243 C118.569868,40.5004395 116.814699,41.4164584 116.92703,41.0729513 C116.702368,41.158828 116.505789,41.2876432 116.295169,41.3878328 L118.387331,40.0853684 L119.679135,39.2838519 C119.735301,39.4699182 119.819549,39.6416717 119.440432,40.04243 M104.416184,48.8161735 L104.444267,48.7159839 L106.185395,47.6425243 C105.693947,48.0575953 105.160376,48.4869792 104.416184,48.8161735 M102.380188,50.9058416 C101.944906,51.2064103 101.832575,51.1920975 101.734286,51.1777847 C101.706203,51.1634719 101.664079,51.1634719 101.635996,51.1777847 L101.327086,51.3924766 C101.284962,51.1777847 101.228797,50.9630927 101.186673,50.734088 L103.012049,49.6033772 L101.270921,50.9058416 C101.284962,51.0346567 101.67812,50.8915288 102.043195,50.734088 C102.548684,50.5337089 103.02609,50.3333298 102.380188,50.9058416 M100.498647,62.8427128 L100.470564,62.7425232 L100.470564,59.822713 C100.568853,60.5956039 100.596936,61.4686844 100.498647,62.8427128 M38.4779887,91.1534216 L38.4358647,91.0389193 C38.1550376,91.2536112 37.6355075,91.5398671 37.059812,91.4253647 L37.2704323,91.2249856 C36.3717857,91.2965496 35.4029323,91.2965496 34.6025752,91.4396775 C34.8412782,91.5541799 34.6025752,91.7116207 34.2375,91.7688718 C33.6758459,91.7402462 34.4059962,91.6257439 34.1672932,91.5112415 C33.9566729,91.339488 33.5494737,91.4396775 33.1703571,91.5684927 C33.282688,91.339488 33.3950188,91.1534216 33.5354323,90.9959809 C33.8303008,90.9673553 34.1392105,90.9387297 34.4340789,90.9387297 L33.8303008,90.8814785 L33.760094,90.7240378 L33.7741353,90.709725 L34.1392105,90.6810994 L34.714906,90.6524738 C34.953609,90.781289 35.1361466,90.9244169 35.4450564,90.781289 C35.1221053,90.6954122 35.0799812,90.6524738 35.1221053,90.6238482 L35.4871805,90.5952226 L35.7118421,90.5809098 C35.7258835,90.6810994 35.7399248,90.7669762 35.8943797,90.7956018 C36.1892481,90.6667866 35.6416353,90.6667866 35.7539662,90.5809098 L35.8101316,90.566597 L35.9645865,90.566597 C36.2594549,90.6954122 36.3577444,90.6238482 36.4700752,90.5236587 L37.0036466,90.4950331 L37.059812,90.5093459 L36.6947368,90.7526634 C37.495094,90.5236587 38.6324436,90.3805307 39.6293797,90.3232795 L39.5591729,90.6238482 C39.9242481,90.4807203 40.4437782,90.4664075 40.5280263,90.7240378 C39.362594,90.7240378 39.2081391,91.411052 38.4779887,91.1534216 M32.7771992,92.1982557 C32.7210338,92.1266917 32.7210338,92.0551277 32.9737782,91.9549382 L32.9737782,91.9406254 L33.0299436,91.9263126 L32.7771992,92.1982557 M32.5384962,92.2698197 L32.4682895,92.0980661 L32.6789098,92.0408149 L32.5384962,92.2698197 M32.7210338,91.0246065 C32.9176128,91.0246065 33.1282331,91.0246065 33.3669361,90.9959809 L32.9456955,91.6400567 C32.7631579,91.6973079 32.608703,91.7402462 32.4963722,91.7688718 C32.5384962,91.5541799 32.608703,91.3108624 32.7210338,91.0246065 M57.5742293,60.3522864 L57.6865602,60.2520968 L57.9112218,60.452476 L58.515,60.6528551 L58.5992481,60.7816702 L57.5742293,60.3522864 M56.8300376,61.1681157 C56.8581203,61.0679261 57.0266165,60.867547 57.3495677,60.5669783 L57.3495677,60.5812911 C57.1529887,60.795983 56.9704511,61.010675 56.8300376,61.1681157 M61.2109398,51.7216709 L61.6321805,52.2798699 L62.2219173,54.4983532 C61.7866353,53.324704 61.4075188,52.3657467 61.2109398,51.7216709 M63.7664662,43.9068847 L63.8366729,43.9641359 L64.2157895,45.4526666 C64.0192105,44.9803444 63.8507143,44.4650837 63.7664662,43.9068847 M131.895113,4.70413869 C132.274229,4.43219558 132.428684,4.40356999 132.498891,4.47513396 L131.642368,5.40546565 L131.052632,6.03522864 C131.445789,5.49134242 131.768741,5.00470739 131.895113,4.70413869 M138.255846,26.6885921 L138.241805,26.6885921 L138.185639,26.6742793 L137.975019,26.6599665 L137.525695,26.6313409 L136.655132,26.5454641 L133.186917,26.1590187 L130.139944,25.6294453 L131.164962,24.670488 C133.439662,22.1800616 135.742444,19.6180713 138.045226,16.984517 C137.806523,16.7268866 137.553778,16.5408203 137.315075,16.354754 L137.722274,15.8967445 L136.992124,16.0684981 L137.048289,15.8681189 L136.823628,16.0255597 L136.795545,16.0112469 L136.907876,15.581863 L136.64109,15.9396829 C133.762613,14.5656546 130.799887,17.5570288 127.82312,17.6142799 C129.072801,17.6572183 126.320695,18.172479 128.567312,17.9005359 C127.837162,18.3871709 127.598459,18.3299197 127.640583,17.957787 L128.146071,16.8986402 L128.609436,15.9253701 C128.370733,17.4568392 128.946429,16.354754 129.564248,15.2526687 C130.055695,14.4082138 130.561184,13.5494461 130.743722,13.9502044 C132.147857,10.7870766 133.018421,11.2880245 134.661259,7.9245176 C135.222914,5.70603435 133.00438,9.59911464 132.274229,10.6868871 C132.400602,10.3576928 132.639305,9.91399614 132.892049,9.48461228 C132.133816,10.5008207 131.249211,11.3595884 130.757763,11.5027164 L133.790695,5.19077372 L133.804737,5.20508652 L133.818778,5.36252726 L133.94515,5.23371211 C134.240019,5.30527608 134.520846,5.23371211 134.857838,4.51807235 C135.250996,4.27475483 135.742444,3.12973122 136.247932,1.9847076 L136.613008,1.14025268 C134.857838,0.124044225 134.914004,0.381674538 134.970169,0.639304852 C135.012293,0.782432804 135.040376,0.925560756 134.787632,0.85399678 C134.422556,1.22612945 134.113647,1.49807256 133.888985,1.55532374 C131.375583,4.73276428 128.553271,6.39304852 127.893327,8.525655 L125.323759,10.1859392 C123.554549,11.7889723 122.669944,13.1773134 121.644925,14.5513418 C121.518553,14.8805361 121.771297,14.7517209 122.038083,14.6229058 C122.403158,14.4368394 122.768233,14.2650859 122.136372,15.2956071 C121.673008,15.8824317 120.87265,16.8843274 120.268872,17.2993985 C120.002086,17.3137112 120.577782,16.5121947 120.676071,16.3261284 C118.148628,19.3031898 115.691391,20.7058437 113.360526,22.6094455 C110.748835,25.6294453 106.704925,29.4366488 105.539492,31.5549425 L107.182331,29.908971 C104.907632,32.428023 107.814192,30.610298 105.090169,33.2724779 C102.969925,35.1760796 103.700075,33.9308665 103.320959,33.8306769 C102.520602,34.6465062 101.481541,35.9775962 100.582895,36.9365535 C99.838703,36.621672 99.2208835,36.3640416 99.4174624,36.4499184 L99.4174624,36.4642312 C99.4876692,36.4928568 99.9931579,36.7075487 100.582895,36.9508663 C100.231861,37.3229989 99.9089098,37.6521932 99.6280827,37.8668851 C100.273985,37.0796814 99.8106203,37.4231885 99.3893797,37.7523828 C99.0383459,38.0243259 98.7294361,38.2819562 98.9821805,38.0100131 C96.9321429,39.9279277 97.0304323,40.5863162 95.7386278,42.3611028 L93.1128947,45.0232827 C94.0255827,43.9211975 94.7276504,43.0194914 95.2190977,42.5042308 L94.2221617,43.4488753 C94.6855263,42.8047995 94.2642857,43.048117 93.8711278,43.2771217 C93.4920113,43.5061264 93.1269361,43.7351312 93.520094,43.2484961 C90.936485,45.8963632 86.7802444,48.8304863 86.8364098,50.4764577 L87.5384774,49.6463156 C88.3669173,49.1167422 89.6025564,47.8858418 89.7148872,48.1864105 L88.6758271,49.5604388 L80.2931391,58.0908647 C80.4054699,57.8904856 80.4335526,57.7616705 80.2790977,57.8332344 C80.5178008,57.5469785 80.8126692,57.4324762 80.9530827,57.3609122 L83.5507331,54.3265996 L83.1014098,54.5269787 C82.2168045,54.8991114 82.076391,55.8437559 81.402406,56.3017653 C81.2198684,55.8580687 79.3383271,58.0622392 78.4256391,58.8065045 L78.3554323,58.8780685 C77.0917105,53.7540878 78.0184398,53.6252726 76.4879323,48.5728559 C76.4036842,47.6425243 76.7687594,48.1291593 76.6845113,47.1988276 C76.3615602,44.5652733 75.2663346,42.8477379 74.4940602,41.2876432 C74.1851504,39.6702973 73.5252068,37.5806292 73.890282,37.3373117 C74.1570677,37.6235676 74.3396053,38.7256529 74.5361842,39.1120983 C76.6143045,40.3143731 73.0758835,35.1760796 73.1741729,32.9003452 C73.1320489,32.8144684 73.1039662,32.8287812 73.0758835,32.8574068 C73.0337594,32.8860324 72.9916353,32.9003452 72.9214286,32.6140893 L73.5954135,35.7342787 C73.3567105,35.9346578 72.5282707,33.8449897 72.0508647,32.3421462 C72.0929887,32.1847055 72.1210714,32.0129519 72.1631955,31.8555112 C71.5313346,31.5406297 73.6796617,31.0396818 71.6296241,30.8393027 L71.5594173,30.4814828 L71.4751692,30.8249899 C71.2505075,30.7963643 70.9696805,30.7820515 70.632688,30.7677387 L70.6888534,31.096933 C70.5624812,31.3545633 70.4220677,31.8125728 70.2114474,32.5711509 C70.4501504,33.7448001 69.2706767,36.2495393 69.1864286,37.8382596 L69.3970489,37.7094444 C68.6809398,41.4593967 67.6699624,39.1979751 67.1925564,42.0175957 C67.6418797,40.7723826 67.5857143,41.230392 67.5435902,41.6884015 C67.4874248,42.1320981 67.4453008,42.5901076 67.9086654,41.3592072 C68.2737406,40.6578802 68.6949812,40.7866954 69.0881391,40.8296337 L68.9617669,41.3592072 L67.7822932,46.2828087 L67.5997556,46.3114343 L67.7401692,46.3973111 L67.7682519,46.3257471 L67.7542105,46.3973111 L67.7542105,46.4116239 L67.7401692,46.3973111 L67.7542105,46.4259367 L67.6840038,46.7121926 L67.2908459,46.3543727 L67.5997556,46.3114343 L67.5155075,46.2112447 L67.2768045,46.3400599 L67.178515,46.2541831 L67.1223496,46.2112447 L67.2487218,45.910676 L67.5155075,46.2112447 C68.0771617,45.7675481 66.462406,45.0519083 66.2658271,44.5223349 L66.5466541,44.379207 C65.8867105,43.8496335 65.3390977,43.3916241 64.8757331,42.9479274 L64.2438722,42.3324772 C61.1407331,44.1502022 63.4715977,43.3057473 62.7976128,43.8925719 C62.9520677,44.9087804 62.9801504,45.7675481 63.0784398,46.7837565 C63.5839286,48.501292 64.6089474,50.6911496 64.7634023,52.2512443 C65.0863534,52.7808177 65.4935526,53.4248935 65.8445865,54.2550356 L65.6199248,54.0832821 C65.746297,54.2407228 65.8586278,54.3838508 65.9709586,54.5412915 C66.1534962,54.9849882 66.3219925,55.485936 66.462406,56.0584478 C66.5326128,56.6882108 66.2939098,56.187263 66.1534962,56.0155094 L66.7713158,57.7187321 C65.8445865,56.602334 64.9038158,55.4573104 63.9490038,54.2836612 L63.5698872,53.7684006 L62.5027444,52.2941827 C62.4184962,52.0365524 62.3202068,51.7789221 62.2359586,51.5212918 C62.011297,51.5212918 62.0393797,51.2350359 62.0534211,50.9344672 C62.0674624,50.5050833 62.0815038,50.0613866 61.3232707,50.6482112 L61.1407331,50.4048937 L61.2249812,50.7197752 C61.0845677,50.8199648 60.9441541,50.9487799 60.7756579,51.1062207 L61.1968985,51.6930453 L61.4496429,52.8380689 C61.1547744,52.1367419 61.1266917,52.5804386 61.1266917,53.0241353 C61.1266917,53.4535191 61.1266917,53.8685902 60.9160714,53.324704 C61.814718,56.7025236 62.1517105,61.5545612 63.5698872,62.2558881 L63.2328947,61.2826181 C63.204812,60.3522864 62.8116541,58.7492533 63.1205639,58.7778789 L63.7383835,60.2950352 L64.5246992,63.2864094 L59.1047368,60.9963622 L58.9783647,60.8102958 L61.4356015,61.640438 L61.1126504,61.2969309 C60.4807895,60.6385423 59.6242669,60.8818598 58.9783647,60.4381632 C59.0906955,60.3236608 58.8660338,60.1519073 58.515,59.9658409 L58.4447932,59.7940874 L58.3043797,59.4935187 L58.3043797,59.4792059 C58.9783647,58.7063149 58.6413722,59.1070732 58.079718,59.7368362 L57.8690977,59.6366466 C57.6303947,59.7654618 57.4338158,59.8942769 57.2653195,60.0087793 L57.2793609,60.0087793 C57.4338158,60.0660305 57.560188,60.1375945 57.6584774,60.2234712 L57.560188,60.3379736 L57.2372368,60.2091584 L57.1670301,60.0946561 C56.3666729,60.6814807 56.4509211,61.0249878 56.7177068,61.2969309 L56.6053759,61.4400588 L56.7457895,61.5116228 L56.9002444,61.5974996 L57.2793609,61.8121915 L57.2793609,62.1700114 C59.2732331,65.547831 59.708515,65.5621438 60.0595489,65.4762671 L61.9551316,68.8970251 C62.3623308,69.8559824 62.8959023,70.7720013 63.4294737,71.5735178 L64.7072368,73.863565 C64.5808647,74.0210058 64.4685338,74.1927593 64.3421617,74.3502001 L62.8397368,75.8816692 C62.923985,75.7099156 63.1486466,75.3664085 62.8678195,75.6240389 L61.6181391,77.1268824 L52.0559774,86.8738959 C52.0981015,86.58764 52.1121429,86.3156969 52.0840602,86.1153177 C51.7330263,86.8166447 51.9296053,85.6000571 51.8593985,85.3853652 C51.718985,85.9865026 51.8172744,86.8595831 51.8032331,87.145839 L51.283703,87.6754124 C51.3398684,86.9311471 51.3679511,86.2441329 51.5504887,85.7574979 C51.4521992,85.9435642 51.4241165,86.1582561 51.3117857,85.886313 L51.5645301,85.2994884 C51.5504887,84.7985406 51.2556203,84.5122847 51.4521992,84.1687776 C51.3117857,84.0113368 51.2134962,85.0418581 51.0730827,85.3567396 C50.5254699,84.8271662 51.4662406,84.3262183 51.0590414,83.7680193 C50.8905451,83.653517 50.8765038,83.9397729 50.8765038,84.2260288 C50.8624624,84.5409103 50.8484211,84.8701046 50.6378008,84.626787 L50.7782143,83.9397729 C50.3148496,84.3548439 50.7922556,85.0561709 50.3990977,85.2279244 L50.4131391,84.9702941 L50.4833459,84.2403416 L50.4973872,84.1974032 L50.4833459,84.1687776 L50.6518421,82.1936119 L50.6518421,82.1649863 C50.9045865,82.2651758 51.0028759,82.9951284 50.9607519,83.3100099 C51.1432895,83.0380668 51.1292481,82.4941805 51.1292481,82.2079246 L50.9747932,82.7231853 C51.0028759,82.1363607 50.7501316,82.0647967 50.6799248,81.692664 L50.7501316,80.9340859 L50.7501316,80.8338963 C50.7922556,80.7623323 50.8624624,80.7909579 50.9326692,80.8195835 C51.0028759,80.8482091 51.0730827,80.8768347 51.1292481,80.7909579 C51.0309586,79.946503 51.1432895,80.504702 50.8343797,80.504702 C50.8484211,79.8463134 51.0028759,79.7031855 51.0309586,78.830105 C51.0871241,79.3310528 51.2415789,79.4884936 51.1292481,79.9608158 L51.3679511,79.8320006 C51.2977444,79.245176 51.1152068,78.7728538 50.9747932,78.128778 L51.0028759,77.7852709 L51.1152068,77.7566453 C51.0730827,77.713707 51.0730827,77.2700103 51.1011654,76.6402473 L52.0840602,64.6174994 C52.5053008,63.7587316 53.2635338,62.6709592 53.3056579,61.9266939 C52.9265414,62.5850824 52.5193421,63.171907 52.1542669,63.7587316 L52.3789286,60.9820494 L51.4241165,62.2845137 C51.4943233,62.127073 51.5645301,61.9553195 51.6206955,61.7978787 L52.2244737,60.8818598 L51.0028759,61.1251773 C51.1292481,60.9534238 51.2415789,60.7816702 51.3117857,60.5812911 C51.1854135,60.7673574 51.045,60.9534238 50.9186278,61.1394901 L45.5829135,62.198637 C46.5096429,61.8837555 47.2397932,61.6118124 47.7171992,61.5116228 L46.7904699,61.640438 C47.7593233,61.2110541 45.6250376,61.3541821 46.4394361,61.0393006 C44.0243233,61.5259356 40.556109,61.2826181 40.0506203,62.613708 L40.752688,62.3847033 C40.991391,62.4133289 41.3143421,62.4133289 41.6092105,62.3990161 C42.1006579,62.3847033 42.5499812,62.3847033 42.5359398,62.5850824 L41.4547556,63.0144663 L38.0146241,63.7014805 L33.6196805,64.574561 L33.7039286,64.3455562 C33.9285902,64.2739923 34.1532519,64.359869 34.2655827,64.4028074 L36.8070677,63.6156037 L36.4841165,63.4867885 C36.105,63.3436606 35.8241729,63.4867885 35.5433459,63.6299165 C35.3186842,63.7444188 35.1080639,63.8589212 34.8693609,63.8446084 C34.911485,63.386599 33.0580263,63.9591108 32.2576692,63.9734236 C29.5617293,64.6174994 29.4634398,65.0182576 29.4634398,65.3903903 L27.6521053,65.7482102 L26.7534586,65.9342765 C26.0092669,65.9629021 25.2931579,66.1346556 24.6332143,66.3493476 L21.4739098,66.9791106 L20.4629323,67.1794897 C19.774906,67.0077362 19.2694173,67.2796793 18.6937218,67.5229968 L18.0056955,67.6661247 L17.3036278,67.8092527 C17.4019173,67.7090631 17.6406203,67.5945608 17.4019173,67.6088736 L16.1522368,68.0239446 L1.11394737,71.0153188 L8.99114662,76.4255554 C9.1456015,76.5973089 9.25793233,76.7404369 9.31409774,76.8406264 C9.70725564,77.1698207 11.2798872,78.5009107 11.1815977,77.9713373 C12.9508083,79.8176878 15.6888722,81.2489674 17.4721241,83.1096307 C20.8982143,85.2136116 20.210188,85.957877 23.6081955,87.7469764 C24.0856015,88.2049858 23.6222368,88.190673 24.0996429,88.6629953 C25.5037782,89.9225213 27.0342857,90.0942748 28.2558835,90.4091563 C29.1826128,91.0961705 30.5727068,91.7974974 30.4463346,92.2125685 C30.1374248,92.2555069 29.5196053,91.754559 29.2106955,91.6686823 C28.2418421,92.0980661 28.9298684,92.384322 29.9829699,92.7421419 L30.8254511,93.0283978 C32.6508271,92.6848907 32.9878195,92.5131372 32.9597368,92.384322 C33.1843985,92.455886 33.4792669,92.5703884 33.8443421,92.5131372 L33.282688,92.3986348 C33.7179699,91.9549382 34.8553195,92.2841325 35.5714286,91.9835638 C35.3748496,91.9978766 35.1782707,92.0121894 35.1361466,91.8833742 C35.2906015,91.7402462 35.7820489,91.7831846 36.0628759,91.8404358 C35.9786278,92.3270708 34.3217481,92.1982557 34.5323684,92.5560756 C35.3748496,92.5417628 36.0628759,91.9406254 36.582406,92.0121894 L36.1892481,92.3127581 L36.582406,92.1982557 L36.4700752,92.1839429 C36.5543233,92.0408149 36.7228195,92.0694405 36.9053571,92.0837533 C37.0317293,92.0980661 37.1721429,92.1123789 37.3125564,92.0837533 L37.1159774,92.3700092 L37.7197556,92.3413836 L37.6355075,92.2698197 C38.6043609,92.0837533 39.4468421,92.0694405 40.3454887,92.1839429 L39.8119173,92.1123789 C39.8540414,92.0551277 40.1348684,92.0121894 40.3735714,92.0408149 C40.2893233,91.8833742 39.6574624,91.969251 39.6855451,91.826123 C40.5420677,91.8118102 40.6543985,91.9978766 41.5109211,92.0837533 C41.5811278,91.969251 40.9352256,91.6973079 41.6232519,91.5541799 C41.5811278,91.7831846 42.1989474,91.8404358 41.7496241,92.1123789 C42.0023684,92.0121894 42.1287406,92.0408149 42.2270301,92.0551277 C42.3393609,92.0837533 42.4095677,92.1123789 42.662312,91.9549382 L42.4376504,91.9549382 C42.2691541,91.826123 42.6763534,91.7974974 42.8308083,91.754559 C43.1256767,91.897687 43.2801316,92.0408149 43.7294549,92.0551277 L44.6561842,91.826123 L44.6561842,91.9263126 C45.5407895,91.7688718 46.5096429,91.8547486 47.1555451,91.6686823 C47.2257519,91.5541799 47.4784962,91.3967392 46.9870489,91.4396775 C47.1836278,91.3108624 47.4363722,91.3108624 47.6750752,91.339488 L47.31,91.7259334 L58.9221992,91.7259334 C59.2451504,91.7688718 59.5119361,91.826123 59.6523496,91.8690614 C60.4105827,91.9263126 63.4154323,92.1266917 62.8537782,91.754559 C66.5606955,92.2698197 71.0820113,91.9119998 74.7889286,92.4272604 C77.4567857,92.3270708 78.8749624,92.4845116 80.1527256,92.6419523 C81.6832331,92.8280187 83.0171617,93.014085 86.1062594,92.7707675 C87.0610714,92.8852699 86.4994173,93.1429002 87.4542293,93.2574025 C90.2203759,93.5007201 92.2282895,92.7707675 93.9975,92.3270708 C94.474906,92.3270708 95.0225188,92.3270708 95.5280075,92.3127581 C96.8338534,92.2984453 98.0273684,92.2698197 98.1537406,92.5847012 C97.8027068,92.7850803 96.6372744,92.7278291 96.1879511,92.8423315 C95.3454699,93.7440376 96.4406955,93.5865968 98.0273684,93.2860281 C98.448609,93.0283978 98.6732707,93.0713362 98.8979323,93.1142746 C99.3191729,93.1858386 99.7684962,93.2574025 101.565789,91.5971183 C101.523665,91.3251752 101.509624,91.0818577 101.495583,90.8242274 C101.495583,91.2249856 101.284962,91.6543695 100.540771,92.1839429 C101.299004,91.2965496 100.835639,89.4645118 100.470564,87.9473555 L100.470564,85.3567396 C100.835639,85.3567396 101.214756,87.3175925 101.299004,83.9111473 C100.793515,82.7661237 101.369211,79.8606262 101.074342,78.200342 L100.905846,78.4007211 C100.73735,74.3215745 102.239774,76.3969298 102.043195,73.3626172 C101.888741,74.7509584 101.832575,74.2643233 101.77641,73.7776883 C101.720244,73.305366 101.664079,72.818731 101.509624,74.2213849 C101.313045,75.0515271 100.863722,75.0229015 100.470564,75.0801526 L100.470564,67.8378783 L100.765432,67.7233759 C100.73735,68.2386365 100.667143,68.3960773 100.765432,68.6107692 C100.821598,68.4533285 100.933929,68.1527598 100.990094,68.8827123 L101.144549,65.9342765 L101.425376,66.0630917 C101.186673,62.4276417 101.579831,60.9963622 101.916823,58.8494429 C101.860658,56.9458411 101.439417,54.3981636 101.67812,52.7521921 L101.607914,52.4945618 C106.002857,50.175889 108.137143,47.2990172 113.023534,44.4221453 C111.127951,45.352477 109.063872,46.3257471 106.466222,47.8572162 L108.432011,46.2541831 L108.403929,46.2684959 L112.939286,43.4631881 L113.627312,43.0338042 C112.897162,43.5776904 112.251259,44.1072638 111.773853,44.4507709 C113.725602,43.8210079 117.643139,41.6025247 116.19688,43.4488753 C118.654117,42.1034725 118.89282,41.5738991 120.437368,40.3716243 C121.307932,39.9136149 122.726109,38.8830936 123.063102,38.997596 C124.453195,37.809634 124.298741,37.8382596 126.798102,36.6502976 C128.370733,35.5911507 129.760827,34.4175015 128.581353,34.9184493 L124.116203,37.7094444 C122.234662,38.3821458 124.312782,36.7218615 124.888477,36.0634729 L134.703383,29.980535 L133.060545,31.3259377 L136.21985,29.3793976 C135.854774,30.0807246 134.520846,31.5835681 137.146579,30.2095397 L138.550714,29.0931417 L138.634962,29.0215777 L138.663045,29.0072649 L138.677086,28.9929521 C138.143515,26.0158907 138.19968,26.345085 138.255846,26.6885921 C138.283929,26.8603456 138.312011,27.046412 138.255846,26.6885921 M101.706203,52.5661258 L101.67812,52.7521921 C101.77641,53.110012 101.874699,53.4248935 101.930865,53.7111494 L101.706203,52.5661258 M108.572425,48.1720977 L111.085827,47.1415764 L110.706711,46.7121926 C110.018684,47.2990172 109.274492,47.5852731 108.572425,48.1720977 M130.125902,33.7161745 L133.987274,31.1828098 L133.678365,31.2257482 L130.125902,33.7161745 M64.7774436,52.4373106 L64.7634023,52.2512443 C64.5808647,51.9506756 64.4123684,51.6930453 64.3000376,51.4497278 L64.7774436,52.4373106 M60.9160714,53.324704 C60.7896992,52.8237561 60.6352444,52.3514339 60.4807895,51.9363628 C60.6773684,52.6520026 60.817782,53.0813864 60.9160714,53.324704 M101.355169,88.9492512 C101.018177,89.5790142 101.397293,90.0656492 101.481541,90.6238482 C101.453459,90.1229004 101.4675,89.6648909 101.551748,89.3070711 C101.523665,89.2068815 101.495583,89.2211943 101.453459,89.2355071 C101.411335,89.2641327 101.355169,89.2784455 101.355169,88.9492512 M101.397293,82.393991 C101.67812,82.6373085 101.706203,85.1563605 102.029154,85.0847965 L102.001071,82.5657445 C101.874699,82.809062 101.790451,82.3796782 101.720244,81.9646071 C101.621955,81.3205313 101.537707,80.6907684 101.397293,82.393991 M69.7902068,33.9451793 C69.5655451,33.6446106 70.0850752,31.3259377 69.7621241,31.3259377 L69.2285526,33.6302978 C69.3970489,33.4299186 69.3830075,33.8306769 69.3549248,34.2314352 C69.3268421,34.8468854 69.2706767,35.4480228 69.7902068,33.9451793" id="Fill-24" fill="#283278" mask="url(#mask-6)"></path>
                    </g>
                    <path d="M250.602274,87.8074996 C250.13891,87.0775471 249.422801,86.8199168 249.52109,86.4048457 C249.773835,86.7483528 250.054662,87.0775471 250.335489,87.3924286 L250.461861,87.5355565 C250.742688,87.8361252 251.037556,88.1223811 251.360508,88.3800114 L251.360508,88.3943242 C251.093722,88.2511963 250.840977,88.06513 250.602274,87.8074996 M266.272425,81.495557 C266.033722,82.1110072 265.991598,81.7818129 265.921391,81.4669314 C265.879267,81.2522394 265.80906,81.0518603 265.668647,81.0947987 C265.865226,80.865794 266.005639,79.9068367 266.132011,80.236031 C266.174135,78.8476898 265.331654,77.7599174 265.710771,76.9011497 L265.373778,76.4860786 C264.924455,75.7561261 265.008703,75.0404863 264.741917,74.296221 L264.46109,74.3105338 C264.166222,73.8954627 263.73094,73.108259 263.63265,72.6359367 C263.141203,71.6769795 262.045977,70.9470269 260.992876,70.4890175 C260.192519,69.8592545 259.335996,69.3726194 258.423308,69.0434251 C258.802425,69.0577379 259.99594,69.4584962 259.37812,68.9289228 C257.496579,68.4852261 254.997218,67.9699655 253.326297,68.91461 C253.115677,68.986174 252.905056,69.0720507 252.708477,69.1722403 C252.301278,68.7142309 250.363571,70.1455104 249.970414,70.8754629 L249.787876,70.7895862 C249.141974,71.21897 248.833064,71.7485434 248.341617,72.8506287 C247.695714,74.1674058 247.386805,75.4984958 246.797068,76.6435194 C246.109041,78.1749885 246.726861,79.9927135 247.274474,80.8801068 L247.34468,81.2951778 C247.471053,81.9678792 247.65359,82.611955 247.864211,83.2274052 L247.878252,83.241718 L247.864211,83.241718 L247.892293,83.2989692 C247.990583,83.5852251 248.102914,83.8428554 248.215244,84.1147985 L248.27141,84.2293008 C248.467989,84.6729975 248.69265,85.1023813 248.931353,85.5174524 L248.664568,85.2598221 C248.833064,85.8180211 248.439906,85.5031396 248.313534,85.3886373 C247.990583,84.2293008 247.75188,84.7159359 247.274474,83.9144193 C247.218308,83.7140402 247.190226,83.3132819 247.34468,83.4134715 C247.120019,82.9268365 247.049812,81.5098698 246.61453,81.5528081 L246.656654,81.4383058 C245.954586,81.7531873 245.378891,82.5260782 244.943609,83.6281634 C245.182312,84.2436136 245.533346,84.7588743 245.954586,85.1310069 C246.61453,88.0078788 248.720733,88.3370731 250.588233,90.297926 C252.624229,91.8437079 254.533853,92.0727126 256.963008,92.4734709 C257.622951,91.4000112 261.821316,91.7721439 262.748045,89.6395374 C263.492237,88.6948929 263.506278,87.9506276 262.776128,88.3656987 C263.787105,87.3351774 263.857312,87.850438 264.433008,86.7054144 L264.55938,87.3208646 C264.882331,87.0202959 265.401861,86.7483528 265.528233,86.175841 L265.373778,85.3886373 C266.497086,84.1577369 265.780977,83.0127133 266.272425,81.495557" id="Fill-26" fill="#201F4B"></path>
                    <path d="M202.819549,59.2718161 C202.819549,59.2718161 238.554793,56.2661292 257.679117,66.1419578 C257.215752,70.3069812 234.665338,80.5692554 234.665338,80.5692554 L202.819549,59.2718161" id="Fill-27" fill="#201F4B"></path>
                    <path d="M202.819549,59.2718161 C202.819549,59.2718161 238.554793,56.2661292 257.679117,66.1419578 C257.215752,70.3069812 240.380169,73.2840426 234.847876,72.210583 C229.315583,71.1371234 202.819549,59.2718161 202.819549,59.2718161" id="Fill-28" fill="#005C9C"></path>
                    <path d="M233.923233,71.8301656 C230.172631,70.0760531 227.439248,67.9784334 227.816804,67.1371591 C228.19436,66.3006557 231.537763,67.0417405 235.288364,68.7910821 C239.035845,70.5436044 241.769229,72.6444046 241.394793,73.4824983 C241.017236,74.320592 237.670714,73.5795073 233.923233,71.8301656" id="Fill-29" fill="#201F4B"></path>
                    <path d="M250.332368,67.7599531 C245.506823,67.7599531 238.625,66.3350348 235.453214,65.4905799 C229.724342,63.9734236 222.703665,61.5545612 204.379699,59.1643244 C204.379699,59.1643244 208.634229,58.8414913 214.904474,58.8414913 C225.696034,58.8414913 242.46141,59.797268 253.831786,64.9959933 L254.368477,67.1619963 C253.429267,67.5881995 252.00485,67.7599531 250.332368,67.7599531" id="Fill-30" fill="#95A9CC"></path>
                    <path d="M239.806034,84.6458708 L239.890282,84.8176243 L239.890282,84.8033115 L239.806034,84.6458708 M237.152218,84.4598044 C237.292632,84.8605627 237.222425,84.6601836 237.152218,84.4598044 M239.230338,84.0876717 L239.188214,83.9588566 L239.103966,83.858667 L239.230338,84.0876717 M243.372538,86.5780981 L243.330414,86.5780981 L243.316372,86.6639749 L243.456786,86.79279 L243.372538,86.5780981 M243.681447,86.8929796 C243.526992,86.7641644 243.316372,86.9502308 243.19,86.9502308 C243.330414,87.0647331 243.470827,87.1935483 243.428703,87.4082402 L243.316372,87.422553 L243.19,87.2078611 L243.274248,87.422553 L243.218083,87.4798042 L243.358496,87.637245 L243.470827,87.9235009 C243.526992,87.7374345 243.569117,87.5513682 243.611241,87.3653018 L243.484868,87.565681 C243.597199,87.3796146 243.667406,86.9788564 243.681447,86.8929796 M253.56656,58.1958252 C253.594643,58.281702 253.678891,58.42483 253.763139,58.5822707 L253.819305,58.8685266 C253.650808,58.9257778 253.482312,58.983029 253.327857,58.9400906 C253.341898,58.7110859 253.35594,58.3103276 253.56656,58.1958252 M254.549455,60.1423654 L254.549455,60.3141189 L254.535414,60.3141189 L254.479248,60.1423654 L254.549455,60.1423654 M255.237481,61.5593321 L255.237481,61.7167729 L255.097068,61.7883368 L255.321729,62.2749719 L255.181316,62.3179103 C255.111109,62.0745927 255.040902,61.845588 254.956654,61.6022705 L255.237481,61.5593321 M256.796071,62.0889055 L256.978609,62.3179103 L256.753947,62.3322231 C256.697782,62.2034079 256.599492,62.0889055 256.445038,62.0316544 C256.529286,62.0173416 256.641617,62.0173416 256.796071,62.0889055 M257.470056,60.0421758 C257.624511,60.0135502 257.694718,60.1280526 257.764925,60.2282422 L257.680677,60.2711805 C257.582387,60.3141189 257.456015,60.3713701 257.315602,60.4286213 C257.30156,60.2854933 257.315602,60.1566782 257.470056,60.0421758 M251.741184,58.7540243 L251.741184,58.7683371 L251.755226,58.7826498 L251.769267,58.8255882 L251.79735,58.8971522 L251.979887,59.1118441 L252.499417,59.4410384 C252.499417,59.6700432 252.766203,59.9849246 252.485376,60.1423654 C252.920658,60.3999957 252.976823,60.3570573 252.83641,61.0440715 C253.04703,61.4162042 253.482312,61.6881473 253.608684,61.3446402 L253.201485,60.242555 C253.412105,59.8417967 253.735056,59.9133607 254.029925,60.027863 C253.791222,60.2854933 254.015883,60.4143085 254.198421,60.5717492 C254.226504,60.72919 254.240545,60.8866307 254.268628,61.0440715 L254.058008,61.0297587 L254.338835,61.4734553 C254.395,61.7453985 254.423083,62.0316544 254.451165,62.3035975 L253.987801,61.6738345 L254.465207,62.5898534 C254.479248,62.7472941 254.493289,62.9047349 254.493289,63.0621756 C254.114173,63.0621756 253.77718,63.1194268 253.749098,63.5631234 C253.987801,63.7921282 254.212462,64.0211329 254.409041,64.2644504 C254.395,64.436204 254.366917,64.6079575 254.338835,64.779711 L255.083026,67.785398 C255.040902,68.00009 254.956654,68.2004691 254.788158,68.2577203 C254.816241,68.0573411 254.647744,68.1002795 254.507331,68.1432179 C254.395,68.1861563 254.296711,68.2147819 254.338835,68.1575307 C253.889511,68.5296634 254.479248,68.901796 254.493289,69.5172462 C254.788158,69.674687 255.265564,69.8607533 255.504267,69.5029334 L255.700846,70.30445 C255.855301,70.0468197 256.009756,69.7605638 256.164211,69.4599951 C256.767989,69.3311799 257.231353,68.901796 257.526222,68.3149714 C257.30156,68.3149714 257.273477,68.2434075 257.273477,68.1718435 C257.287519,68.0573411 257.371767,67.9571516 256.978609,68.1145923 L256.99265,68.0144027 C257.147105,67.8140236 257.273477,67.5993317 257.371767,67.3560142 C257.722801,67.7567724 257.877256,67.2558246 258.13,66.9552559 C258.214248,67.0983839 258.298496,67.227199 258.452951,67.3417014 L258.565282,66.9266303 L258.64953,66.9409431 L258.509117,66.7978152 L258.635489,66.812128 C258.565282,65.8961091 259.829004,65.8531707 259.744756,64.8369622 C259.16906,64.293076 258.930357,65.4667252 258.663571,65.8102323 L258.719737,65.4524124 C258.565282,65.6384787 258.34062,65.7959195 258.087876,65.9104219 L258.214248,65.7672939 C258.003628,64.3503272 259.183102,64.3789528 258.64953,62.961986 C258.775902,62.7043557 259.070771,62.8045453 259.140977,62.5182894 C259.183102,61.9028392 258.621447,61.5593321 258.087876,61.3446402 C258.059793,61.0583843 257.933421,60.8436924 257.427932,60.7721284 L257.778966,60.3284317 L257.807049,60.2854933 L257.905338,60.3713701 C258.944398,60.1280526 258.663571,59.8847351 258.200207,59.6414176 L258.101917,59.5984792 L258.087876,59.5841664 L258.073835,59.5841664 C257.750883,59.7272943 257.133064,59.9849246 256.009756,60.4572469 C255.757011,60.170991 255.462143,59.8847351 255.209398,59.5698536 L255.195357,59.4124128 C255.097068,59.2263465 254.998778,59.0975313 254.900489,58.9973418 L254.830282,58.6681475 L254.774117,58.8685266 L254.352876,58.7397115 C254.647744,58.1815125 254.774117,57.5088111 255.630639,57.7378158 L255.630639,57.5088111 C255.097068,57.6805646 254.380959,57.9095693 253.692932,58.1242613 L253.622726,57.9381949 L253.66485,58.1385741 L253.622726,58.1528869 L253.552519,58.1671997 C252.401128,58.5393323 251.418233,58.8542138 251.741184,58.7540243 M258.073835,59.5841664 C258.326579,59.4839768 258.565282,59.3837872 258.073835,59.5841664 M255.630639,57.5088111 C256.05188,57.3799959 256.374831,57.2654936 256.459079,57.2511808 C256.388872,57.2654936 256.136128,57.3513703 255.630639,57.5088111 M256.459079,59.0116546 L255.813177,59.1834081 C256.009756,59.3408489 255.869342,59.5841664 256.065921,59.7702327 L256.459079,59.0116546 M258.64953,66.9409431 L258.832068,67.0697583 C258.818026,66.9123175 258.733778,66.9409431 258.64953,66.9409431 M272.929586,70.5334547 L272.929586,70.5191419 C273.350827,70.9055874 273.519323,71.0773409 272.929586,70.5334547 M271.146335,69.0306112 L271.146335,69.0162984 L271.174417,68.9590472 L271.188459,68.9447344 L271.286748,69.0306112 L271.314831,69.188052 L271.146335,69.0306112 M270.767218,88.8967709 C268.492519,89.240278 266.105489,89.4835955 263.704417,89.5551595 C264.420526,89.4692827 265.052387,89.3404676 265.6,89.2116524 L270.767218,88.8824581 L270.767218,88.8967709 M266.400357,69.8321277 C266.667143,69.8893789 266.751391,69.9752557 266.779474,70.0754453 L265.585959,70.2901372 C265.936992,70.1326964 266.245902,69.9752557 266.400357,69.8321277 M251.993929,90.5999936 C251.600771,90.7001831 250.056222,90.2994249 250.463421,90.0274818 L250.182594,89.7126003 L250.730207,90.1419841 L252.288797,90.0417945 C252.274756,90.2421737 252.274756,90.4425528 251.993929,90.5999936 M244.84688,86.0771503 L244.706466,85.9626479 L245.015376,86.0914631 L244.84688,86.0771503 M243.863985,84.9607523 L243.934192,84.9321267 L244.257143,85.1754442 L244.84688,85.6334536 C244.509887,85.5046385 244.144812,85.3471977 243.863985,84.9607523 M242.024568,86.0771503 C241.687575,85.9912735 241.673534,85.7908944 241.743741,85.5762024 C241.912237,85.7050176 242.094774,85.8481456 242.263271,85.9483351 L242.024568,86.0771503 M240.718722,84.8891883 L240.564267,85.0323162 L240.451936,85.118193 C239.97453,85.3328849 240.241316,85.0323162 240.662556,84.6172452 L240.788929,84.7460603 L240.718722,84.8891883 M273.561447,71.7786679 L273.659737,71.0200897 C273.364868,71.7214167 272.887462,72.3368669 272.480263,72.5086204 L272.508346,72.050611 L272.578553,70.5907059 L272.592594,70.6050187 L272.915545,70.6622699 L272.943628,70.6622699 C273.758026,71.4065352 273.28062,70.9628386 272.592594,70.3473884 L272.606635,70.232886 L272.887462,70.4905163 L272.901504,70.4618907 L272.915545,70.4475779 L272.606635,70.1756348 L272.676842,69.0306112 L272.213477,69.116488 C272.129229,68.7300425 272.002857,68.415161 271.51141,68.5153506 C271.244624,68.3006587 270.570639,68.4724122 269.896654,68.6441657 C269.222669,68.8159193 268.548684,68.9876728 268.281898,68.7729809 C266.11953,69.4886207 264.223947,68.8302321 263.297218,70.0181941 L261.528008,69.531559 C260.165996,69.5458718 259.323515,70.0038813 258.424868,70.3617012 C258.059793,70.7624594 259.520094,70.6622699 258.466992,71.2777201 C258.073835,71.420848 257.385808,71.6355399 256.964568,71.5353504 C256.824154,71.3635968 257.329643,71.1345921 257.441974,71.0630281 C255.321729,71.6212271 253.678891,70.9914641 251.951805,70.862649 C249.775395,71.3922224 246.658214,71.5353504 245.478741,72.3654925 L246.784586,72.2366773 C244.917086,72.60881 246.910959,73.2099474 244.776673,73.3817009 C243.161917,73.3817009 243.878026,72.9380043 243.723571,72.5944972 C242.838966,72.6946868 241.434831,73.2528858 240.70468,73.1526962 C241.687575,72.8950659 239.876241,72.9093787 240.339605,72.8235019 C238.668684,72.8950659 238.640602,73.5248289 237.292632,74.0114639 C237.447086,74.354971 237.882368,74.8988572 239.637538,74.3979094 C239.328628,74.5553502 239.651579,74.6698525 239.174173,74.7700421 C239.749868,74.5839757 240.508102,74.5839757 240.999549,74.6412269 L232.462406,76.1583832 L238.83718,81.0390464 C238.654643,81.067672 238.458064,81.1106103 238.275526,81.1964871 C237.5875,80.924544 236.85735,80.5953497 236.099117,79.9226483 C235.088139,79.9369611 236.127199,81.1249231 236.295695,81.7260605 L236.211447,81.4254918 C236.492274,81.5113686 236.745019,81.4684302 237.096053,81.7976245 C236.913515,81.8835013 236.745019,81.9550653 236.562481,81.9980036 L236.506316,82.1411316 L236.23953,81.8691885 L236.211447,81.8262501 L236.197406,81.8119373 C236.267613,82.0123164 236.323778,82.1697572 236.379944,82.3558235 C236.253571,82.4703259 236.099117,82.4560131 235.944662,82.4417003 C235.593628,82.3987619 235.298759,82.3558235 235.748083,84.3739277 C236.071034,84.5170556 236.478233,84.631558 237.152218,84.4598044 L237.194342,84.4598044 L237.348797,84.4454916 L237.390921,84.4025532 C237.671748,84.5027428 237.545376,84.7603731 237.868327,84.8462499 C238.542312,84.9035011 238.865263,84.3453021 239.089925,83.8443542 L239.118008,83.787103 L239.188214,83.9588566 L239.14609,83.8443542 L239.160132,83.8014158 L239.118008,83.787103 L239.132049,83.7584775 L239.342669,83.8443542 C239.511165,84.1306101 239.66562,84.416866 239.806034,84.6458708 L239.834117,84.6601836 L239.876241,84.6744964 L239.848158,84.7031219 L239.890282,84.8033115 L239.890282,84.8176243 L239.904323,84.8176243 C239.988571,85.046629 240.07282,85.2183826 240.157068,85.3758233 L240.044737,85.4473873 L240.157068,85.3758233 C240.620432,86.3204678 240.746805,86.0485247 240.887218,85.7908944 C240.971466,85.6191408 241.083797,85.4473873 241.294417,85.6334536 L241.364624,85.5332641 C241.53312,86.1344015 241.673534,86.6353493 241.701617,86.7641644 L241.715658,86.7641644 L241.715658,86.7784772 L241.729699,86.79279 C241.94032,86.5780981 242.038609,86.4635957 242.15094,86.377719 L242.05265,86.5494725 L242.024568,86.6353493 L242.010526,86.6639749 L242.010526,86.6926005 C242.333477,86.6639749 242.614305,86.6353493 242.867049,86.6210365 L242.97938,86.7784772 C243.021504,86.935918 243.105752,87.0647331 243.19,87.2078611 L243.035545,86.8214156 L243.119793,86.8929796 L243.077669,86.79279 C243.119793,86.6210365 243.232124,86.7069133 243.302331,86.7069133 L243.316372,86.6639749 L243.218083,86.5780981 L243.330414,86.5780981 L243.330414,86.5208469 L243.358496,86.5351597 L243.372538,86.5780981 L243.428703,86.5637853 L243.80782,86.7498517 C243.723571,86.9502308 243.653365,87.1649227 243.611241,87.3653018 C243.737613,87.1649227 243.849944,86.9931692 243.948233,86.8071028 L244.22906,86.935918 C244.22906,87.3366763 244.200977,87.8233113 244.186936,88.1525056 C244.467763,88.4530743 244.74859,88.3815103 245.001335,88.2383824 L245.534906,88.9826477 L245.829774,88.4673871 C245.605113,88.3815103 245.422575,88.2383824 245.254079,88.0952544 L245.506823,87.980752 L245.310244,88.0380032 C245.240038,87.8662497 245.029417,87.7374345 245.225996,87.494117 L245.338327,87.4654914 L245.36641,87.4654914 L245.605113,87.5799938 C246.279098,87.9378137 246.981165,88.3528847 247.697274,88.9540221 C246.925,88.0952544 246.09656,87.1506099 244.903045,86.1200887 L245.029417,86.1057759 L246.026353,86.5494725 L246.026353,86.5351597 L246.840752,87.1506099 L248.778459,88.6391406 C248.329135,88.4101359 247.893853,88.2097568 247.598985,88.0380032 C248.188722,89.1400884 250.098346,90.8289983 248.624004,90.7574343 C248.918872,91.0293774 249.171617,91.2297565 249.382237,91.3728845 C249.606898,91.4444485 249.550733,91.4444485 249.494568,91.4444485 C249.396278,91.4444485 249.297989,91.4301357 250.856579,91.9167707 L251.165489,91.8308939 C251.558647,91.7163916 251.895639,91.5589508 252.429211,91.4158229 C252.611748,91.4301357 252.850451,91.4158229 253.089154,91.4015101 C253.552519,91.3728845 254.001842,91.3442589 254.100132,91.5303252 C255.097068,91.1868182 255.01282,91.129567 256.57141,91.3442589 C257.624511,91.2154438 258.621447,90.8576239 257.891297,90.7001831 L254.942613,90.9148751 C253.819305,90.5427424 255.279605,90.1276713 255.728929,89.8271026 L262.201992,89.4263444 L261.03656,89.7841642 L263.128722,89.6696619 C262.777688,90.1133585 261.724586,90.7717471 263.395508,90.8862495 C266.049323,90.1419841 268.50656,89.4263444 271.356955,89.8414154 C273.968647,84.6458708 272.522387,81.6544966 272.873421,77.1889045 C272.690883,77.4751604 272.648759,77.3320324 272.620677,77.1889045 C272.578553,77.0028381 272.564511,76.8167718 272.381974,77.5324116 C272.325808,77.3034068 272.269643,77.0887149 272.227519,76.8597102 L272.325808,75.2996155 C272.733008,76.172696 272.817256,75.4570562 272.943628,74.7414165 C273.041917,74.1975303 273.168289,73.6393313 273.505282,73.8253976 C273.505282,71.8645447 274.530301,71.9647342 274.656673,69.8464405 C274.277556,68.5439762 273.80015,71.0630281 273.561447,71.7786679 M258.972481,90.4139272 L261.542049,90.1276713 L261.373553,90.013169 L258.972481,90.4139272" id="Fill-31" fill="#201F4B"></path>
                    <path d="M253.605238,91.3481181 C249.350708,91.0475494 246.191403,86.7250852 246.528396,81.7156069 C246.87943,76.6918158 250.600388,72.8702995 254.854919,73.1708682 C259.095407,73.4714369 262.268753,77.7795882 261.917719,82.8033794 C261.580727,87.8271705 257.845727,91.6486868 253.605238,91.3481181" id="Fill-32" fill="#F3B229"></path>
                    <path d="M253.570664,91.2203609 C251.197675,91.0486073 249.442506,88.6583706 249.639085,85.8673755 C249.821622,83.0763804 251.899742,80.9437739 254.25869,81.1155275 C256.617637,81.287281 258.386848,83.6775178 258.190269,86.4685129 C257.99369,89.2595079 255.929611,91.3921144 253.570664,91.2203609" id="Fill-33" fill="#1A1919"></path>
                    <path d="M255.703966,80.6080722 C255.274925,80.3965609 254.80844,80.2629748 254.316992,80.2263977 C254.228064,80.2200364 254.139135,80.2168558 254.050207,80.2168558 C253.597763,80.2168558 253.159361,80.3027326 252.744361,80.458583 C252.750602,80.0451023 252.769323,79.618899 252.800526,79.1815636 C253.022068,75.824418 253.87703,73.1542865 254.697669,73.1542865 C254.70703,73.1542865 254.714831,73.1558768 254.724192,73.1558768 C255.566673,73.213128 256.044079,76.0041231 255.819417,79.3819428 C255.789774,79.8033751 255.750771,80.2120849 255.703966,80.6080722" id="Fill-34" fill="#FEEECC"></path>
                    <path d="M253.918124,86.2982034 C253.907203,86.2982034 253.896282,86.2982034 253.885361,86.2966131 C253.164571,86.2473135 252.698086,84.1242489 252.748011,81.3475666 C253.163011,81.1917162 253.601413,81.1058394 254.053857,81.1058394 C254.142785,81.1058394 254.231714,81.10902 254.320643,81.1153813 C254.81209,81.1519584 255.278575,81.2855445 255.707616,81.4970558 C255.376864,84.2498834 254.645154,86.2982034 253.918124,86.2982034" id="Fill-35" fill="#CECFCD"></path>
                    <path d="M314.221521,120.545734 L319.572837,86.1266425 C319.70857,85.2599233 319.126634,84.4440939 318.277912,84.3057369 C317.42607,84.1705605 316.627273,84.7605657 316.4931,85.6288753 L311.558344,117.365113 L311.360205,117.482796 L311.357085,117.479616 C311.30092,117.630695 303.993175,123.861532 302.69825,130.017624 C302.532874,130.879572 303.089848,131.712895 303.93857,131.881468 L304.230318,131.908503 C304.963589,131.910094 305.618852,131.37734 305.762386,130.618762 C305.91372,129.736139 306.366164,128.699257 306.971502,127.632158 C306.42701,129.266998 306.036972,130.976581 306.01201,132.605059 C306.01669,132.842016 306.019811,133.098056 306.047893,133.373179 C306.127461,134.190599 306.806126,134.806049 307.598683,134.806049 L307.753138,134.798098 C308.61122,134.70904 309.238401,133.929788 309.152593,133.056708 C309.138551,132.924712 309.13075,132.778403 309.13075,132.605059 C309.12139,131.566587 309.392856,130.299109 309.809416,128.993464 C309.84842,130.914559 310.079322,132.853148 310.851596,134.55319 C311.116822,135.130473 311.681596,135.469209 312.268213,135.469209 C312.489754,135.469209 312.715976,135.419909 312.928156,135.318129 C313.705111,134.944406 314.042104,133.996581 313.677029,133.204607 C313.149698,132.085028 312.906314,130.332506 312.914115,128.506829 C312.910995,125.74764 313.418044,122.904165 313.706671,121.487198 C313.971897,121.250242 314.162235,120.925819 314.221521,120.545734" id="Fill-36" fill="#F1D479"></path>
                    <path d="M293.721711,97.4908093 L293.571936,97.8327261 C293.830921,97.6259857 293.735752,97.5846376 293.721711,97.4908093 Z M293.405,97.6116729 L293.40812,97.6100826 L293.417481,97.6053117 L293.436203,97.5941795 L293.476767,97.5750957 L293.557895,97.5337477 L293.71703,97.4526418 L293.721711,97.4908093 C294.066504,96.9469231 294.880902,96.372821 294.910545,95.7716836 L293.92453,96.7147377 L293.472086,97.1966018 L293.369117,97.3285976 L293.317632,97.396981 L293.306711,97.4128841 C293.770075,98.3559382 294.015019,98.8505248 293.405,97.6116729 Z M288.747951,93.1890192 L288.707387,93.1508517 L288.702707,93.1492614 C288.833759,92.9806885 288.922688,92.8630055 288.996015,92.7707675 C288.871203,92.9313889 288.690226,93.1651645 288.474925,93.4450592 C288.687105,93.3226053 288.755752,93.2319576 288.747951,93.1890192 Z M314.371861,94.1511571 L314.273571,95.2802776 L314.783741,95.0480922 C314.551278,94.7697879 314.605883,94.4310517 314.371861,94.1511571 Z M320.264549,97.6387082 L320.264549,97.6387082 L320.261429,97.6371179 L320.248947,97.6339372 L320.223985,97.6259857 L319.823026,97.4987608 L320.17718,97.8184133 C320.291071,97.5862279 320.559417,97.0391611 320.264549,97.6387082 Z M320.303553,97.6259857 L320.225545,97.7818361 L320.209944,97.816823 L320.303553,97.6259857 Z M329.435113,40.252351 C328.934305,40.0312978 328.706523,39.929518 329.400789,40.2380382 L329.400789,40.2412188 L329.272857,40.8407659 L329.313421,40.7692019 L329.435113,40.252351 Z M331.249568,41.3353525 L331.285451,41.2717401 L331.333816,41.1890439 L331.357218,41.1476959 L331.368139,41.1286121 L331.37438,41.1190703 L331.3775,41.112709 L331.248008,41.0554579 L331.202763,41.2971851 L331.249568,41.3353525 Z M333.795733,52.736289 C334.109323,52.8189852 334.440075,52.9207651 334.811391,53.0607124 C333.691203,54.1103174 334.505602,53.7779425 333.795733,52.736289 Z M333.127989,52.7283375 L332.990695,52.5693064 L333.265282,52.6074739 L333.127989,52.7283375 Z M331.575639,58.5488742 C330.984342,59.5921179 329.798628,61.6833763 329.71438,61.2826181 C329.598929,61.4464201 329.495959,61.6197639 329.385188,61.7915175 L331.399342,57.6423972 C331.553797,57.7966573 331.723853,57.9063887 331.575639,58.5488742 Z M325.250789,49.0006495 C325.523816,48.4424505 325.798402,47.9526348 326.069868,47.661608 L328.616034,43.2214609 L328.411654,43.8512238 L328.221316,44.1613344 L325.250789,49.0006495 Z M322.829436,75.4093469 L322.790432,75.3775407 L322.955808,75.0340336 L322.829436,75.4093469 Z M322.823195,52.8619236 L322.87,52.8825976 L322.781071,53.0257256 L322.823195,52.8619236 Z M321.943271,77.3018165 L321.905827,77.2000366 L322.689023,75.5826908 L322.704624,75.593823 L322.706184,75.5954133 L322.706184,75.6113164 L322.710865,75.6685676 L322.715545,75.7242284 C322.526767,76.2331278 322.291184,76.7579303 321.943271,77.3018165 Z M321.458064,17.8719103 L321.440902,17.747866 L321.431541,17.6778924 L321.458064,17.8719103 Z M321.11015,88.1540959 L321.077387,88.1000253 L321.082068,86.423838 C321.174117,86.8691249 321.20688,87.3700728 321.11015,88.1540959 Z M320.571898,18.9453699 L320.554737,18.6082241 L320.504812,18.5302988 C320.521974,18.2376817 320.526654,17.9895932 320.512613,17.8035269 C320.532895,17.5951962 320.578139,17.4632004 320.637425,17.3773237 C320.69515,17.5602094 320.743515,17.7669498 320.788759,17.9864126 L320.571898,18.9453699 Z M320.102293,94.3292719 C320.008684,94.1797827 319.913515,94.0096194 319.819906,93.8426368 C320.024286,93.9507779 320.230226,94.0541481 320.409643,94.1606989 L320.631184,94.5694088 C320.400282,94.5948537 320.092932,94.7363914 320.102293,94.3292719 Z M319.060113,92.3715995 L318.963383,92.1584979 L319.117838,92.2936743 L319.060113,92.3715995 Z M316.571673,95.7828157 L316.629398,95.7446483 C316.668402,95.9688821 316.685564,95.9847852 316.571673,95.7828157 Z M315.718271,94.4819417 C315.682387,94.176602 315.618421,93.8569496 315.532613,93.530936 L315.565376,93.3019312 L316.01782,93.8378659 C315.974135,94.0223419 315.880526,94.2338532 315.718271,94.4819417 Z M298.211823,93.9189717 L298.199342,93.8362756 L298.269549,93.6040902 L298.211823,93.9189717 Z M296.815489,94.7761491 C296.907538,94.4739901 297.008947,94.1750117 297.105677,93.874443 L297.261692,93.7329054 L297.274173,93.7519891 L297.355301,93.9316942 C297.227368,94.2322629 297.004267,94.7252592 296.815489,94.7761491 Z M287.056748,95.2898195 C286.886692,95.3375288 286.847688,95.2437004 287.223684,94.7443429 L287.415583,94.8222681 C287.28609,94.9908411 287.164398,95.1498721 287.056748,95.2898195 Z M329.734662,43.2548574 L330.176184,41.57867 L330.318158,41.5134673 C330.480414,42.4167637 329.627011,44.5509605 329.158966,46.1842095 C329.392989,45.1123401 329.577086,44.1470216 329.734662,43.2548574 Z M330.366523,40.6658318 L330.361842,40.672193 L330.34,40.7103605 L330.173064,40.6483383 L330.010808,40.5576906 L330.006128,40.5052104 L330.366523,40.6658318 Z M331.109154,41.57867 L330.954699,41.8426616 C330.684793,41.6136569 330.906335,41.6009344 331.109154,41.57867 Z M333.163872,51.3256836 L333.160752,51.3272739 L333.159192,51.3304545 L333.135789,51.3447673 L333.087425,51.3781638 L332.887726,51.5037983 C332.336992,51.8361733 331.625564,52.1717288 330.112218,52.858743 C329.020113,53.5362153 328.013816,54.2486744 327.581654,54.646252 C327.712707,53.7111494 327.751711,52.6281479 328.123026,52.0731295 L327.907726,52.3768788 C327.576974,52.8730557 327.564492,53.8717708 327.472444,54.7464416 L327.447481,54.9500014 C327.397556,55.3491693 327.322669,55.7117601 327.182256,55.9678001 C327.360113,55.7133504 327.466203,55.3523499 327.53797,54.9340983 C327.622218,54.9134242 327.720508,54.8832083 327.873402,54.8211862 C329.949962,54.4649566 330.085695,52.2226187 332.867444,52.5534033 C332.759793,52.7935402 332.666184,53.0034612 332.569455,53.2197435 L332.302669,53.4773738 L326.105752,57.0603435 L326.300771,56.3160781 C326.737613,56.4258096 327.013759,56.2810913 327.182256,55.9678001 C326.995038,56.2429239 326.718891,56.3765099 326.307011,56.2985847 L327.414718,52.0810811 L327.84688,50.4398806 L327.477124,52.9939194 L328.647237,48.6126137 C328.857857,49.5190907 328.848496,51.9490853 329.987406,48.5171951 L330.675432,44.2169953 L331.048308,42.1034725 L331.148158,41.5738991 C331.313534,41.5532251 331.439906,41.5150576 331.249568,41.3353525 L331.185602,41.4498549 L331.16688,41.4800708 L331.202763,41.2971851 C331.084192,41.1969955 330.884492,41.0602288 330.555301,40.8662109 L330.477293,41.0443257 L330.386805,40.7787438 L330.389925,40.7707923 L330.555301,40.8662109 L330.400846,40.7278539 L330.403966,40.7135411 L330.411767,40.6849155 C330.75188,40.835995 331.06859,40.9759423 331.248008,41.0554579 L331.249568,41.0506869 L331.301053,40.7882857 C328.098064,39.3267903 330.34156,40.5179329 329.592688,40.252351 L329.563045,40.3096022 L329.917199,40.4654526 L329.887556,40.4908976 L329.559925,40.3143731 L329.338383,40.7230829 L329.313421,40.7692019 L329.226053,41.1333831 L329.212011,41.1779118 L329.271297,40.8439465 L329.272857,40.8407659 C328.141748,42.9049891 326.895188,44.932635 325.450489,46.9491488 L325.654868,46.1635354 C326.697049,42.0382698 327.697105,37.8207661 328.626955,33.4792183 C327.898365,34.8182598 328.929624,31.537449 327.95453,34.1360165 C327.876523,33.9706242 327.889004,33.7129939 327.937368,33.4251477 C328.201034,33.1579755 328.453778,32.9082968 328.700282,32.679292 L329.041955,32.3675912 L329.208891,32.218102 L329.293139,32.1449477 L329.335263,32.1083705 L329.344624,32.0988287 L329.350865,32.0956481 L329.353985,32.0924674 C329.517801,32.1831151 329.010752,31.9032205 328.419455,31.5756165 L328.491222,31.3004928 L328.304004,31.5120041 C327.369474,30.9935628 326.317932,30.4115092 327.369474,30.9951531 L327.369474,30.9967435 L327.360113,31.0221884 L327.01688,31.8316565 L326.764135,32.4089392 C326.29609,32.8621778 325.711034,33.477628 325.219586,33.9260955 L325.249229,33.5682757 C325.353759,32.4709614 325.472331,31.3291184 325.166541,29.0788289 C324.31938,26.4739002 324.729699,31.8920883 324.74218,33.4680861 C324.654812,33.0482441 324.609568,32.4471067 324.564323,31.844379 C324.53,32.7794816 324.419229,33.6859586 324.256974,34.3650213 L324.252293,34.3554794 L323.826372,34.8325726 L322.723346,26.928729 C323.107143,26.8158169 323.422293,26.6329312 323.263158,25.530846 C323.656316,24.5035054 322.211617,19.5830844 322.606335,18.5557438 L322.289624,16.79527 C321.943271,16.6759967 322.136729,16.5710362 322.283383,16.4644854 L322.587613,16.4772079 L322.589173,16.446992 L322.589173,16.4294986 L322.590733,16.4279083 C323.656316,16.4740273 323.18047,16.4533532 322.342669,16.4183664 C322.509605,16.2641063 322.397274,16.1066655 320.262989,15.9031058 L320.158459,16.3229478 C319.852669,16.3102253 319.685733,16.303864 319.812105,16.308635 L319.812105,16.3102253 L319.813665,16.3134059 L319.816786,16.3213574 L319.826147,16.3515734 L319.827707,16.3595249 L320.147538,16.3738377 L320.06485,16.7078029 L319.993083,16.9717945 L319.988402,16.9511204 L319.841748,16.4151858 L319.827707,16.3595249 C319.796504,16.3579346 319.716936,16.354754 319.54688,16.3483927 L319.54688,16.3563443 L319.55468,16.4024633 L319.568722,16.493111 L319.595244,16.6744064 L319.766861,17.8178397 C319.593684,18.4523736 319.422068,19.0678238 319.266053,19.6419259 C318.776165,21.4532897 318.437613,22.9831685 318.673195,24.2808619 L317.089643,27.6189238 C316.23156,30.4083285 316.102068,32.3866749 315.854004,34.4524883 C315.969455,35.4400712 316.829098,32.3787233 316.696485,34.8977753 C316.571673,35.7978911 316.323609,37.3245892 315.958534,38.132467 C315.71515,38.3185333 315.843083,37.1480648 315.843083,36.8808926 C314.977199,41.5564057 313.360883,44.5557314 312.134605,48.0051151 C311.203195,52.7728662 309.324774,59.2533818 309.310733,62.1572889 L310.028402,59.4219547 C309.159398,63.4629339 310.991015,59.7400168 309.770977,64.2056089 C308.736598,67.5166355 308.789643,65.7736551 308.374643,65.9088315 C307.905038,67.7822174 307.51032,70.9660192 306.942425,72.4052503 C307.344944,70.2360666 306.182632,73.9796577 306.401053,72.9698105 C305.397876,76.4255554 305.947049,76.8724327 305.518008,79.9131065 C305.931447,79.782701 306.697481,79.2197311 307.377707,75.3186992 C307.316861,76.0454712 307.633571,75.471369 307.41515,76.4843969 C307.61797,75.215329 308.109417,73.6504634 308.482293,72.6740127 L306.920583,79.618899 L302.767462,80.7973192 L302.809586,80.5699048 C303.004605,80.4872086 303.207425,80.5619532 303.305714,80.6001207 L305.457162,79.6888727 L305.152932,79.5759606 C304.550714,79.3501365 304.279248,80.0276088 303.78,79.9989833 C303.762838,79.5234804 302.199568,80.1866399 301.505301,80.2407105 C299.202519,81.0072402 299.168195,81.4270822 299.21032,81.8071664 L296.885695,82.465555 C296.238233,82.5275771 295.623534,82.7279562 295.071241,82.9808156 L291.504737,83.9938434 C290.879117,83.8538961 290.457876,84.1449229 289.991391,84.4232273 L288.793195,84.7635537 C288.880564,84.6697254 289.075583,84.5265975 288.858722,84.559994 L287.816541,85.0402678 L263.665414,91.8960967 L283.660301,91.8960967 C283.849079,91.9501672 284.005094,92.0042378 284.087782,92.0535374 C284.530865,92.1060177 286.304756,92.3207096 285.972444,91.9263126 C287.808741,92.3875026 289.98047,92.2125685 291.924417,92.4670182 C291.53282,92.8057543 291.175545,92.9282082 290.797989,93.1683451 C289.916504,93.4243851 289.15359,92.9965916 288.666823,93.7742535 L288.439041,93.4911782 C288.307989,93.6629317 288.169135,93.8442271 288.025602,94.0302935 L287.883628,93.9475973 L288.205019,93.5834162 L288.42344,93.4720945 L287.921071,92.850283 L287.811861,92.7946222 L287.758816,92.7723578 L287.732293,92.7628159 L287.718252,92.758045 L287.713571,92.7564547 L287.710451,92.7548644 L287.707331,92.7548644 C289.203515,90.8083242 285.666654,95.4043218 286.030169,94.9319996 L286.290714,95.2802776 L286.730677,95.7144324 L286.644868,95.8241638 L286.651109,95.8241638 L286.65735,95.8257541 L286.680752,95.8273444 L286.733797,95.830525 L286.847688,95.830525 L286.852368,95.835296 C287.275169,96.1247325 287.850865,96.2869442 288.315789,96.3457857 C288.730789,96.1549484 287.619962,95.6190137 288.620019,95.5204145 C288.905526,95.5124629 289.264361,95.4727052 289.56235,95.4742955 L289.581071,95.4774761 L289.582632,95.4742955 L289.741767,95.4711149 C289.87594,95.6269653 289.492143,95.8591506 289.396974,95.9370759 C290.251936,95.6524103 290.994568,95.4440796 291.681034,95.2198458 C291.521898,95.3629737 291.398647,95.4981501 291.43765,95.6031106 C291.646711,95.5554013 291.832368,95.4679342 292.013346,95.3741059 C292.174041,95.6221944 292.316015,95.8146219 292.447068,95.9831949 L292.361259,96.0515782 L292.459549,95.9975077 L292.659248,96.2455961 L292.663929,96.2599089 L292.668609,96.255138 L292.749737,96.3394244 C293.114812,97.0852801 293.395639,97.6562016 293.289549,97.438329 L293.291109,97.4367387 L293.294229,97.4319678 L293.306711,97.4128841 C293.158496,97.1091348 292.98844,96.7656277 292.813703,96.4093981 C293.882406,97.4017519 293.829361,95.2834582 294.579793,95.5013308 C294.877782,94.9765283 295.102444,94.4485452 295.295902,93.9237427 L295.420714,93.9603198 C295.398872,93.5897774 295.637575,93.362363 295.614173,92.9902304 L295.58453,93.0220366 L295.646936,92.758045 L295.815432,92.7882609 L295.771748,92.8773183 L295.843515,92.7930318 L296.132143,92.8534636 C296.057256,93.6661124 296.108741,94.4485452 295.728064,95.3518416 C296.090019,94.8127263 296.431692,94.2370338 296.815489,93.5118522 L296.863853,93.530936 C296.709398,94.1257121 296.592387,94.7284398 296.498778,95.3375288 L296.437932,95.482247 L296.445733,95.1769074 L295.927763,95.7223839 L295.801391,95.8766441 L295.771748,95.9164018 C296.018252,95.9752433 296.213271,96.0213623 296.381767,96.0627104 L296.367726,96.1485872 L296.395808,96.065891 C297.893553,96.4205303 296.529981,96.0690716 297.030789,96.1772128 L297.085395,96.0929263 L297.302256,95.7875867 C297.590883,95.4186346 297.87015,95.2675551 298.18062,95.692168 C298.428684,95.0528632 298.369398,94.7538848 298.289831,94.3928843 C298.686109,94.5916731 299.133872,94.7125367 299.533271,94.4962545 L299.341372,94.5264704 C299.258684,94.4262808 299.00438,94.386523 299.247763,94.0398353 C299.472425,93.7297248 299.439662,94.2958753 299.656523,94.1050381 C299.876504,93.7392666 299.963872,93.4577817 300.001316,93.1921998 C300.071523,93.3019312 300.107406,93.4164336 300.428797,93.4832266 C302.052914,93.7424473 303.235508,92.9838691 304.273008,92.5290403 C305.277744,92.573569 306.619474,92.3525158 306.717763,92.7914415 C306.514944,93.0013625 305.825357,92.9393404 305.566372,93.0538428 C304.569436,94.9415414 308.126579,92.4177185 309.479229,93.0363494 C309.608722,92.9806885 309.363778,92.8455121 309.682049,92.8264284 L307.72562,92.8359702 C307.798947,92.3588771 309.355977,92.1457754 310.462124,91.8960967 L311.749248,91.8960967 C311.752368,92.2730003 310.619699,92.6817101 312.588609,92.7675869 C312.80547,92.594243 313.131541,92.5465337 313.501297,92.5433531 L313.585545,92.6992035 L313.825808,92.9393404 C313.730639,92.9170761 313.629229,92.8932214 313.465414,92.8677764 C313.32032,93.1731161 311.866259,93.203332 311.908383,93.5468391 L313.362444,93.5182135 C313.150263,93.3241956 313.782124,93.2224157 314.006786,93.1190455 L314.36718,93.4768654 C314.761898,93.8156015 315.119173,94.3085978 315.410921,94.8938321 C315.289229,95.0401407 315.153496,95.1928105 314.991241,95.3613834 C314.902312,95.5585819 313.95218,95.5872075 315.362556,96.1978868 C315.701109,96.1406356 315.980376,96.0579395 316.217519,95.9593402 L316.200357,96.1040585 L316.190996,96.3107988 L316.189436,96.3632791 C318.676316,95.8193929 316.883703,96.183574 317.440677,96.0499879 L317.456278,95.9513887 L317.529605,95.5840269 C317.640376,95.133969 317.829154,94.8556647 318.312801,95.2437004 C318.30032,95.0767178 318.280038,94.9335899 318.258195,94.8047747 C318.384568,95.0003829 318.520301,95.1769074 318.637312,95.3931896 L320.1725,96.8006145 C320.298872,96.5223101 320.401842,96.2885345 320.489211,96.0754329 L320.638985,95.9625208 L320.801241,96.0515782 L320.663947,95.9434371 L320.904211,95.6667231 L320.699831,95.5379079 C320.809041,95.230978 320.866767,95.0115151 320.879248,94.8667968 C321.016541,95.0131054 321.181917,95.1625946 321.408139,95.3152644 C320.617143,96.9230684 320.283271,97.6037213 320.17718,97.8184133 L320.189662,97.8295454 L320.195902,97.8343164 L320.199023,97.8359067 L320.199023,97.837497 L320.103853,98.0299246 L320.225545,97.7818361 C320.328515,97.5766861 320.359718,97.509893 320.342556,97.5464702 C320.548496,97.1250379 320.89485,96.4205303 321.431541,95.3327578 C321.625,95.4631633 321.857462,95.5951591 322.13985,95.7351064 C322.465921,96.0531685 322.116447,96.1485872 322.478402,96.4777815 C323.831053,97.4081131 325.370921,96.2630895 325.661109,95.4313571 L325.996541,95.5490401 L326.207162,95.5347273 L326.310132,95.5235951 L326.358496,95.5156436 L326.383459,95.5124629 L326.39594,95.5108726 L326.405301,95.5092823 L326.406861,95.5092823 C325.793722,94.7109464 327.314868,96.6861121 326.013703,94.9972023 C326.274248,94.9192771 326.489549,94.7904619 325.704793,93.5786453 C325.503534,93.6152224 325.35532,93.5881871 325.25703,93.4911782 C325.551898,93.664522 324.667293,91.6193826 326.737613,94.877929 C326.965395,95.3104935 327.118289,95.4170443 327.282105,95.272326 L327.399117,95.1244272 L327.405357,95.113295 C326.197801,93.5452487 325.611184,92.7818997 325.347519,92.4383926 L325.345959,92.4399829 L325.344398,92.4399829 L325.342838,92.4415732 L325.331917,92.4479344 L325.308515,92.4606569 L325.263271,92.4956438 L325.04641,92.7246485 C324.754662,93.1667548 324.091598,93.6199933 323.756165,93.2876184 C323.684398,93.3400987 323.80141,93.4736848 323.634474,93.4848169 L324.578365,93.4879976 L324.458233,93.7170023 L324.377105,93.9157911 C324.071316,94.1018574 323.575188,94.2099986 323.135226,94.294285 C322.748308,93.9142008 322.548609,93.3178343 322.391034,92.7564547 L322.673421,92.573569 L322.308346,92.4606569 L322.224098,92.1553173 C322.010357,91.9597091 321.815338,91.7116207 321.62656,91.4460388 L321.765414,89.9797724 L322.064962,90.054517 C321.812218,87.9123687 322.227218,87.0758653 322.589173,85.8131587 C322.528327,84.6999413 322.100846,83.2161816 322.35359,82.2492727 C322.233459,82.0123164 322.103966,81.7356024 321.980714,81.4318531 C324.283496,76.8104105 324.938759,72.7948763 327.786034,67.2112959 C326.464586,69.4297792 325.008966,71.7786679 323.339605,75.0531174 L324.358383,72.1571618 L324.345902,72.1730649 L327.583214,65.506483 C327.188496,66.5163302 326.865545,67.4418909 326.594079,68.1050505 C328.135508,66.1553297 330.694154,61.3112437 330.299436,64.0942872 C331.942274,61.0870099 331.886109,60.4190794 332.717669,58.1815125 C333.308966,57.139859 334.115564,55.1694642 334.496241,55.04542 C334.669417,54.5190272 334.792669,54.1309914 334.90656,53.8017971 L335.071936,53.3421974 L335.11562,53.2324659 L335.120301,53.2197435 L335.123421,53.2133822 C331.209004,49.4411655 334.039117,52.1685482 333.163872,51.3256836 Z M327.397556,71.1886627 L326.800019,71.0359928 C326.453665,72.0871881 325.884211,72.8680306 325.536297,73.9239969 L327.397556,71.1886627 Z M322.572011,16.7920894 C322.568891,17.0672131 322.600094,17.2469182 322.689023,17.2453279 L322.845038,16.5249172 L322.849718,16.5026529 L322.851278,16.4915207 L322.851278,16.4899304 L322.852838,16.4899304 L322.587613,16.4772079 L322.581372,16.5678556 L322.572011,16.7920894 Z M322.370752,82.1188673 L322.35359,82.2492727 C322.45344,82.4496519 322.543929,82.6309473 322.598534,82.7979299 L322.370752,82.1188673 L322.370752,82.1188673 Z" id="Fill-37" fill="#201F4B"></path>
                </g>
            </g>
        </g>
    </g>
</svg>