<svg xmlns="http://www.w3.org/2000/svg" xmlns:xlink="http://www.w3.org/1999/xlink" viewBox="0 0 1013.447 176.394">
  <defs>
    <style>
      .cls-1 {
        fill: #fff;
      }

      .cls-2 {
        fill: #000510;
      }

      .cls-3 {
        fill: none;
        stroke: #000510;
        stroke-width: 1.4px;
      }

      .cls-4 {
        fill: #23222d;
      }

      .cls-5 {
        mask: url(#mask);
      }

      .cls-6 {
        mask: url(#mask-2);
      }

      .cls-7 {
        mask: url(#mask-3);
      }

      .cls-8 {
        mask: url(#mask-4);
      }
    </style>
    <mask id="mask" x="923.022" y="41.118" width="9.202" height="11.595" maskUnits="userSpaceOnUse">
      <g id="f">
        <path id="e" class="cls-1" d="M923.022,41.118h9.2v11.6h-9.2Z"/>
      </g>
    </mask>
    <mask id="mask-2" x="188.723" y="69.011" width="32.815" height="32.055" maskUnits="userSpaceOnUse">
      <g id="h">
        <path id="g" class="cls-1" d="M188.723,69.012h32.815v32.054H188.723Z"/>
      </g>
    </mask>
    <mask id="mask-3" x="223.045" y="82.724" width="10.56" height="11.45" maskUnits="userSpaceOnUse">
      <g id="j">
        <path id="i" class="cls-1" d="M223.045,82.724h10.56v11.45h-10.56Z"/>
      </g>
    </mask>
    <mask id="mask-4" x="55.148" y="47.004" width="9.715" height="9.666" maskUnits="userSpaceOnUse">
      <g id="l">
        <path id="k" class="cls-1" d="M55.149,47h9.715V56.67H55.149Z"/>
      </g>
    </mask>
  </defs>
  <title>math-img-2</title>
  <g id="Шар_2" data-name="Шар 2">
    <g id="Шар_1-2" data-name="Шар 1">
      <g>
        <g>
          <path class="cls-2" d="M1013.191,32.122a.875.875,0,0,1,0,1.236h0l-11.14,11.128a.876.876,0,0,1-1.238-1.236l11.14-11.129A.875.875,0,0,1,1013.191,32.122Z"/>
          <path class="cls-2" d="M1000.813,32.122a.875.875,0,0,1,1.238,0l11.14,11.129a.875.875,0,0,1-1.238,1.236l-11.14-11.128a.874.874,0,0,1,0-1.236Z"/>
        </g>
        <g>
          <path class="cls-2" d="M528.191,123.122a.875.875,0,0,1,0,1.236h0l-11.14,11.128a.876.876,0,0,1-1.238-1.236l11.14-11.129a.875.875,0,0,1,1.238,0Z"/>
          <path class="cls-2" d="M515.813,123.122a.875.875,0,0,1,1.238,0l11.14,11.129a.875.875,0,0,1-1.238,1.236l-11.14-11.128a.874.874,0,0,1,0-1.236Z"/>
        </g>
        <ellipse class="cls-3" cx="342.203" cy="51.502" rx="11.203" ry="11.192"/>
        <ellipse class="cls-3" cx="76.203" cy="164.502" rx="11.203" ry="11.192"/>
        <ellipse class="cls-3" cx="666.302" cy="101.605" rx="6.302" ry="6.295"/>
        <path class="cls-3" d="M913.7,130.01h14.7V144.7H913.7Z"/>
        <path class="cls-4" d="M808.534,74.988c-.887-.047-1.757-.131-2.626-.129-1.083,0-1.948.571-1.687,1.073a2.639,2.639,0,0,0,1.258,1.254,8.829,8.829,0,0,0,2.626.366,2.77,2.77,0,0,0,2.479-1.546,6.609,6.609,0,0,0,.775-4.825,84.127,84.127,0,0,1-1.367-13.82,8.587,8.587,0,0,0-.346-2.251,1.043,1.043,0,0,0-.845-.55,1.233,1.233,0,0,0-.863.635,5.689,5.689,0,0,0-.271,1.5c-.23,1.656-.395,3.324-.7,4.966a7.286,7.286,0,0,1-.9,2.5,2.022,2.022,0,0,1-1.534.855,2.052,2.052,0,0,1-1.359-1.075,7.778,7.778,0,0,1-.562-4.905,14.343,14.343,0,0,0,.368-1.88c.01-.312-.3-.888-.5-.905a1.663,1.663,0,0,0-1.3.37c-1.84,2.564-1.435,7.457.731,9.706a3.356,3.356,0,0,0,4.488.6c.6-.324.957-1.318,2.04-.61.343,2.764,1.665,5.589.108,8.666M846.965,58.1c1.045,2.773.9,5.727,1.828,8.411,1.47-.022,1.542-1.048,1.784-1.868.36-1.224.6-2.486.992-3.7a1.025,1.025,0,0,1,1.787.076c.317,1.234.448,2.519.8,3.738a1.394,1.394,0,0,0,1.1.781,1.5,1.5,0,0,0,1.058-.9c.2-.719.038-1.532.178-2.277.288-1.525.77-2.959,2.662-3.593a14.989,14.989,0,0,1,.923,2.56c.273,1.641.32,3.32.59,4.963a1.42,1.42,0,0,0,.993.924c.326.027,1-.52,1.007-.83a18.4,18.4,0,0,0-1.826-9.36,2.279,2.279,0,0,0-3.57-.83,21.7,21.7,0,0,0-2.081,1.826c-1.51-.147-2.75-.367-3.99-.36-1.223.006-2.445.242-4.24.441m29.2,13.495a3.358,3.358,0,0,0-.252-.622,2.368,2.368,0,0,0-.542-.539c-2.252-1.328-2.956-3.442-2.96-5.908,0-1.807-.1-3.625.058-5.42.322-3.675,1.256-7.12,4.248-9.633.233-.2.225-.684.35-1.113-1.426-.956-2.533-.26-3.4.68a12.719,12.719,0,0,0-3.447,6.8,32.936,32.936,0,0,0-.1,11.552,9.284,9.284,0,0,0,4.687,6.39l1.362-2.183m31.5-8.493c.15,1.635.216,3.045.463,4.422.05.274.788.543,1.227.578.246.02.577-.412.78-.7a1.274,1.274,0,0,0,.142-.745c-.178-3.6-.344-7.2-.58-10.792a10.459,10.459,0,0,0-.546-2.057c-1.382.011-1.636.9-1.887,1.78-.458,1.605-.883,3.221-1.4,4.807-.1.29-.63.7-.83.636-.4-.13-.954-.5-1.025-.855a23.132,23.132,0,0,1-.34-3.434c-.036-.766.124-1.543.056-2.3a.869.869,0,0,0-1.626-.255,10.1,10.1,0,0,0,.105,7.858c.824,1.822,2.3,2.133,4.453,1.266a7.216,7.216,0,0,1,1.006-.2M830.4,60.082c1.017-2.672,1.644-3.488,2.89-4.355s2.405-.361,3.642-.023c.3.083.912-.375,1.138-.738.336-.537-.138-1.314-.8-1.469-2.364-.549-4.684-.472-6.412,1.446a23.874,23.874,0,0,0-3.011,4.443,1.823,1.823,0,0,0,1.132,2.782,14.827,14.827,0,0,0,2.228.479,24.9,24.9,0,0,1,2.988.609,2,2,0,0,1,1.263,3.06,7.9,7.9,0,0,1-1.732,1.953,17.514,17.514,0,0,1-1.686,1.258c.283,1.277.973,1.419,1.788,1.07a6.219,6.219,0,0,0,3.51-3.88c.913-2.64.02-4.593-2.618-5.489-1.32-.45-2.7-.724-4.316-1.146m89.215.126-.252-.053c-.036-.772-.017-1.551-.117-2.315a16.013,16.013,0,0,0-3.033-8.215,7.863,7.863,0,0,0-2.06-1.618.893.893,0,0,0-1.083,1.285,33.845,33.845,0,0,1,2.43,3.424A16.342,16.342,0,0,1,914.413,69.9c-.349.531-.753,1.03-1.061,1.582a1.046,1.046,0,0,0,.865,1.405,1.63,1.63,0,0,0,1.89-.954,61.626,61.626,0,0,0,2.372-6.1,57.012,57.012,0,0,0,1.132-5.628m-36.559-3.157c-.5-.438-.879-.759-1.242-1.1-.562-.53-1.11-1.132-1.966-.6-.6.372-.555,1.262.421,2.268,1.588,1.635,1.894,3.26.48,5.12-.077.1-.19.239-.17.336.093.473.088,1.1.385,1.36a1.637,1.637,0,0,0,1.352.1,9.667,9.667,0,0,0,1.73-1.023l2.68,4.566a1.4,1.4,0,0,0,1.208-1.854,15.781,15.781,0,0,0-1.256-3.192c-.508-1.014-1.167-1.951-1.494-2.488,0-2.917,2.9-4.263,2.453-6.993-2.293.241-2.74,2.452-4.581,3.5"/>
        <g class="cls-5">
          <path class="cls-4" d="M927.148,44.012a11.621,11.621,0,0,1-.74,2.63c-.8,1.3-1.761,2.514-2.682,3.742-.417.556-.7,1.182-.254,1.746a1.8,1.8,0,0,0,1.314.582c2.039-.1,4.07-.325,6.106-.493,1.37-.113,1.568-.507,1.112-2.6h-4.716c.428-1.12.765-1.922,1.04-2.744a22.773,22.773,0,0,0,1-3.32c.332-1.95-.979-2.977-2.82-2.148a15.323,15.323,0,0,0-3.157,2.134c-.347.279-.58.878.177,1.514.914-.264,1.972-.568,3.623-1.042"/>
        </g>
        <path class="cls-4" d="M843.78,63.91c0-.94.012-1.58,0-2.22-.023-1.023-.024-2.048-.108-3.066-.054-.66-.36-1.33-1.12-1.209a1.382,1.382,0,0,0-.842,1.035c.012,2.939.12,5.877.218,8.814a1.052,1.052,0,0,0,.254.7,2.807,2.807,0,0,0,1.156.646c.147.03.585-.51.586-.792,0-1.4-.093-2.808-.142-3.913m54.412-2.287c.348-1.19-.192-1.753-1.038-1.8q-2.868-.149-5.74-.026c-.39.015-.76.534-1.366.994.479.356.764.744,1.094.787a24.366,24.366,0,0,0,7.05.046M823.353,64.2a11.167,11.167,0,0,0-1.763-1.41,5.975,5.975,0,0,0-5.185.044,1.173,1.173,0,0,0-.53.91,1.228,1.228,0,0,0,.629.857,2.993,2.993,0,0,0,1.465.27c1.506-.137,3-.365,5.384-.67m-2.083-3.956c.02-.242.091-.425.034-.487a4.07,4.07,0,0,0-4.313-1.064,1.191,1.191,0,0,0-.565.883,1.067,1.067,0,0,0,.547.835,5.669,5.669,0,0,0,4.3-.167"/>
        <path class="cls-3" d="M415.4,105.31l8.4,13.29H407Zm-264-104,8.4,13.29H143Z"/>
        <g>
          <g class="cls-6">
            <path class="cls-4" d="M221.291,69.226a14.2,14.2,0,0,0-2.187-.21c-2.69.129-5.375.415-8.066.481-3.887.1-7.491,1.322-11.119,2.513a2.949,2.949,0,0,0-2.18,3c-.249,4.169.326,8.286.594,12.424.168,2.572.282,5.15.356,7.726.018.623.116,1.352-.522,1.828-.954.183-1.08-.657-1.348-1.182-.663-1.3-1.147-2.687-1.844-3.962-.945-1.728-2.171-2.092-3.95-1.333a4.111,4.111,0,0,0-2.115,2.076c-.363.749-.218,1.291.62,1.563,1.258-.452,1.779-2.093,3.315-2.07.2.145.442.236.538.41.373.685.712,1.389,1.038,2.1a17.933,17.933,0,0,0,3.316,5.43,9.164,9.164,0,0,0,1.647,1.05,4.356,4.356,0,0,0,1.191-3.567c-.3-5.377-.67-10.75-.954-16.127a41.642,41.642,0,0,1,.056-5.021,2.857,2.857,0,0,1,1.956-2.5,26.123,26.123,0,0,1,9.087-2.29c3.134-.146,6.267-.316,9.4-.48a2.211,2.211,0,0,0,.66-.11c.784-.3.97-.84.511-1.746"/>
          </g>
          <path class="cls-4" d="M207.64,85.6c-1.4-.177-2.19-2.12-3.715-.882.058.224.042.522.179.637,1.977,1.66,2.423,3.92,2.543,6.32a24.294,24.294,0,0,0,.184,2.677,2.175,2.175,0,0,0,1.76,2.018,5.321,5.321,0,0,0,.481-1.451c.033-.888-.116-1.783-.162-2.676a14.943,14.943,0,0,1,1.243-6.87,1.662,1.662,0,0,1,.922-.859c.641-.174,1.035.37,1.228.886a14,14,0,0,1,.719,2.556c.257,1.545.368,3.113.639,4.654a1.325,1.325,0,0,0,.821.905c.65.1.959-.478,1.011-1.052.08-.888.009-1.792.1-2.68a32.341,32.341,0,0,1,.536-3.632,1.924,1.924,0,0,1,1.79-1.7c.822-.056,1.43.44,1.884,1.614a6.912,6.912,0,0,1,.459,1.605c.257,2.1.456,4.217.691,6.325.07.627-.12,1.368.7,1.739,1.079-.14,1.066-1.1,1.012-1.763-.22-2.668-.57-5.326-.9-7.985a5.042,5.042,0,0,0-.383-1.282,3.738,3.738,0,0,0-5.753-1.877c-.539.33-1.031.736-1.519,1.088-.415-.338-.665-.56-.933-.759-2.07-1.533-3.342-1.3-4.571.826-.322.557-.66,1.1-.967,1.615M179.194,99.179a1.757,1.757,0,0,0,1.814,1.486A2.278,2.278,0,0,0,183,99.611a6.133,6.133,0,0,0,1.045-3.487c.145-2.753-.69-3.877-3.313-4.648-.9-.265-1.983-.025-2.818-.767a5.625,5.625,0,0,1,1.65-2.625c1.234-1.282,2.583-1.7,4.182-.645.116.077.376-.067.575-.11a1.28,1.28,0,0,0-.443-1.763,3.545,3.545,0,0,0-4.9.1,26.664,26.664,0,0,0-3.467,4.072c-.995,1.413-.52,2.556,1.183,3.039,1.066.3,2.208.318,3.306.52,2.05.375,2.8,1.621,2.23,3.664-.331,1.174-.913,2.054-2.367,1.808-.155-.026-.354.206-.673.408"/>
          <g class="cls-7">
            <path class="cls-4" d="M233.132,87.85c-.53.574-1.045,1.107-1.533,1.666a17.424,17.424,0,0,1-1.74,2.024,2.7,2.7,0,0,1-4.056-.715,3.825,3.825,0,0,1-.265-2.926c.3-1.058.533-2.15,1.742-2.553.832.785.077,2.777,2.063,2.513.435-2.26.436-2.566.027-3.621a2.056,2.056,0,0,0-2.96-1.275,3.53,3.53,0,0,0-1.524,1.212,15.439,15.439,0,0,0-1.577,3.3,5.051,5.051,0,0,0,2.644,6.18,4.468,4.468,0,0,0,5.017-.572,8.438,8.438,0,0,0,2.632-4.54c.03-.136-.215-.331-.47-.7"/>
          </g>
          <path class="cls-4" d="M187.043,85.835c2.8-.308,5.1-.556,7.4-.832.132-.015.236-.252.452-.5-1.313-1.261-3.246-.68-4.5-1.46-.155-.253-.266-.35-.262-.44.03-.555.123-1.108.127-1.663a10.294,10.294,0,0,0-.109-1.98,1.451,1.451,0,0,0-1.38-1.25A2.093,2.093,0,0,0,186.637,79a1.423,1.423,0,0,0,.46,1.788c.418.326.876.6,1.425.966l-1.48,4.077"/>
        </g>
        <g>
          <path class="cls-4" d="M35.364,56.3c-.7-.78-1.238-1.454-1.854-2.052a6.156,6.156,0,0,0-1.568-1.194,1.973,1.973,0,0,0-2.98,1.562q-.336,2.472-.454,4.966a8.726,8.726,0,0,0,1.083,4.474,2.481,2.481,0,0,0,.63.75.727.727,0,0,0,.595.083c.181-.064.444-.288.437-.43a13.625,13.625,0,0,0-.246-2.258,11.94,11.94,0,0,1-.28-5.592c.124-.491.13-1.133.861-1.213a7.208,7.208,0,0,1,2.518,3.39c.49,1.114.846,2.29,1.393,3.374.186.369.773.538,1.385.933.114-1.088.128-1.865.29-2.611.3-1.4.643-2.8,1.081-4.158.143-.446.64-.78,1.114-1.324,2.432,3.083,2.088,6.638,2.538,9.86.846.338,1.25.025,1.334-.617a15.451,15.451,0,0,0-1.6-9.356A7.2,7.2,0,0,0,40.21,53.07a1.866,1.866,0,0,0-2.915.264c-.659.878-1.206,1.84-1.931,2.964M2.506,63.99c-.309.68-.627,1.253-.836,1.864a2.782,2.782,0,0,0,.313,2.554c1.186,1.712,2.667,3.1,4.94,2.82a39.351,39.351,0,0,0,5.2-1.131c.237-.064.425-.7.433-1.081,0-.2-.436-.592-.662-.583a18.318,18.318,0,0,0-2.278.334,22.794,22.794,0,0,1-3.269.557,2.1,2.1,0,0,1-2.168-2.082,2.031,2.031,0,0,1,1.647-2.19c.85-.242,1.764-.27,2.6-.544a1.191,1.191,0,0,0,.618-.968,1.29,1.29,0,0,0-.76-.936c-.748-.16-1.55-.047-2.32-.133A9.93,9.93,0,0,1,3.7,62.029a1.423,1.423,0,0,1-.831-2.153A10.434,10.434,0,0,1,4.757,57.59a2.994,2.994,0,0,1,3.965-.461,4.2,4.2,0,0,0,1.193.335c-.051-1.454-.184-1.815-.793-2.09a5.484,5.484,0,0,0-5.429.251A8.942,8.942,0,0,0,.622,59.071c-.91,1.636-.855,2.234.39,3.537.454.475.964.9,1.494,1.382m51.677-3.707a17.768,17.768,0,0,1-2.5,1.737,2.769,2.769,0,0,1-3.956-2.239,6.062,6.062,0,0,1,.971-4.394c1.366.055.6,2.206,2.334,2.1a11.546,11.546,0,0,0,.017-4.48A1.74,1.74,0,0,0,48.4,51.963a4.282,4.282,0,0,0-1.294,1.467,14.094,14.094,0,0,0-1.533,5.394,4.639,4.639,0,0,0,2.957,5.044,4.219,4.219,0,0,0,5.909-2.539c.086-.238-.136-.587-.259-1.046"/>
          <g class="cls-8">
            <path class="cls-4" d="M58.648,54.073a25.782,25.782,0,0,0,.425-3.133,9.034,9.034,0,0,0-.36-2.927,1.712,1.712,0,0,0-2.989-.254c-.964,1.332-.73,2.219.8,3.164a6.417,6.417,0,0,1,.8.744c-.43,1.033-.893,2.031-1.253,3.065a7.15,7.15,0,0,0-.183,1.558c2.474,1.008,4.531-.26,6.651-.682.9-.179,2.045-.35,2.32-1.708-2-.612-3.9.936-6.217.173"/>
          </g>
          <path class="cls-4" d="M23.372,58.726a8.009,8.009,0,0,0-5.418-.254c-.807.222-1.719.4-2.06,1.288.3.986.849,1.328,1.774,1.055,1.374-.405,2.762-.762,4.128-1.187a10.781,10.781,0,0,0,1.576-.9"/>
        </g>
      </g>
    </g>
  </g>
</svg>
