<?xml version="1.0" encoding="UTF-8"?>
<svg width="110px" height="57px" viewBox="0 0 110 57" version="1.1" xmlns="http://www.w3.org/2000/svg" xmlns:xlink="http://www.w3.org/1999/xlink">
    <!-- Generator: Sketch 57.1 (83088) - https://sketch.com -->
    <title>Group 26</title>
    <desc>Created with Sketch.</desc>
    <defs>
        <polygon id="path-1" points="0 0 110 0 110 49 98.0864576 49 98.0864576 56.2073205 89.9485967 49 0 49"></polygon>
        <polygon id="path-3" points="0 4.91098132e-05 74.522 4.91098132e-05 74.522 107.500877 0 107.500877"></polygon>
    </defs>
    <g id="Page-1" stroke="none" stroke-width="1" fill="none" fill-rule="evenodd">
        <g id="Fizmatik-Home-screen" transform="translate(-523.000000, -918.000000)">
            <g id="Group-35" transform="translate(171.000000, 918.000000)">
                <g id="Group-26" transform="translate(407.000000, 28.500000) scale(-1, 1) translate(-407.000000, -28.500000) translate(352.000000, 0.000000)">
                    <g id="Group-3">
                        <mask id="mask-2" fill="white">
                            <use xlink:href="#path-1"></use>
                        </mask>
                        <use id="Mask" fill="#FEC92E" fill-rule="nonzero" xlink:href="#path-1"></use>
                        <g mask="url(#mask-2)">
                            <g transform="translate(106.427884, 26.500000) rotate(-90.000000) translate(-106.427884, -26.500000) translate(68.927884, -27.500000)">
                                <mask id="mask-4" fill="white">
                                    <use xlink:href="#path-3"></use>
                                </mask>
                                <g id="Clip-2" stroke="none" fill="none"></g>
                                <path d="M60.8717,25.6319 C60.8527,26.4889 63.1947,25.8369 63.7837,26.7499 C63.1047,26.7449 62.6147,26.6319 61.9347,26.6269 C62.9837,26.8989 61.5987,27.4509 62.1477,28.1199 C61.2707,28.1619 60.5417,28.4729 61.2727,28.4309 C61.2197,28.6559 60.8307,28.5989 60.8227,28.4929 L59.9227,28.6179 C60.6887,27.3629 61.0787,26.6369 60.3697,25.3229 C61.3347,25.5189 61.2317,25.0599 62.1947,25.2569 C62.6627,23.7839 60.5767,21.2689 61.6827,18.4729 C62.9597,20.7839 62.9187,24.3329 63.6767,26.0029 C62.3467,26.1129 62.0657,25.6039 60.8717,25.6319 Z M64.8157,27.5589 C64.4467,27.5739 64.3407,27.4349 63.8897,27.4969 C63.9777,28.0779 65.1277,28.5659 64.1317,29.1799 C62.9327,28.6169 63.1317,27.6349 64.2587,26.8739 C64.8777,26.8489 64.7017,27.2889 64.8157,27.5589 Z M61.3527,28.9909 C60.9637,29.0099 60.9407,29.1229 60.9307,29.2409 C59.4557,29.2299 61.2857,28.6489 62.2297,28.6789 C62.6787,29.1969 62.4147,29.6239 62.8347,29.7389 C62.7317,30.0109 61.7297,30.0489 61.0637,30.1739 C61.4467,29.6539 61.1557,29.7549 61.3527,28.9909 Z M60.7727,31.3569 C61.7957,31.2339 63.3307,31.2129 62.2547,32.1029 C61.6907,31.8959 60.8937,31.8249 60.7727,31.3569 Z M61.1537,17.9759 C61.9677,17.1369 60.6107,16.7909 60.8307,15.7369 C61.5047,15.7469 62.8857,17.4019 61.1537,17.9759 Z M61.2297,15.2989 C60.4597,15.2159 60.6277,14.5759 60.1727,14.3059 C61.0967,14.0939 61.3817,14.2639 61.9927,14.2369 C61.8547,14.6209 60.7607,14.7589 61.2297,15.2989 Z M68.9067,17.6469 C69.1027,18.1139 68.8547,18.4739 67.6587,18.5829 C67.7837,18.1059 66.7817,18.2929 67.0767,17.7119 C67.5027,17.8009 68.1237,17.7689 68.9067,17.6469 Z M70.0747,42.0829 C70.1357,42.5849 70.3837,43.1319 69.7897,43.4569 C68.4987,43.6049 68.8717,42.7849 68.7237,42.2669 L70.0747,42.0829 Z M56.9597,30.3599 C58.1257,30.1459 58.9067,30.1629 58.8387,30.6699 C57.4447,29.9899 56.4407,31.3859 57.6257,31.7899 C58.2077,31.5829 58.4067,31.2739 58.4207,30.9199 C59.5307,30.9299 60.4477,32.6799 58.2317,32.8459 C59.1257,31.6749 54.8677,32.0639 56.9597,30.3599 Z M51.0397,37.0659 C50.6967,35.3189 48.3407,34.4109 51.3567,32.8449 C49.9327,32.9599 51.0497,31.1289 50.5827,30.6739 C52.0717,30.2739 51.3697,31.1549 51.6157,31.4799 C53.3247,31.4449 53.0147,30.8889 53.7817,30.6109 C51.7567,30.4189 54.4427,28.8769 51.6947,28.8119 C52.4987,27.6289 54.5247,26.3529 52.5657,25.2719 C55.2277,24.7809 53.4067,26.9289 55.1067,27.0069 C56.3447,26.6429 54.8657,26.2319 54.9467,25.8879 C55.9267,25.6459 55.6357,26.1549 56.3467,26.0729 C57.1217,25.9769 55.7257,25.1839 57.5697,24.9529 C58.0927,25.7459 57.7407,26.0119 59.5247,25.8189 C58.8977,26.5039 58.6787,26.4529 59.2587,27.1889 C58.7447,27.2919 58.4597,27.2589 58.3327,27.1259 C57.5207,27.1859 58.4067,27.8549 59.3137,27.5629 C59.1007,28.4039 57.4147,28.8619 57.8057,29.8619 C56.4087,29.7439 56.0067,29.0349 54.8997,28.7469 C56.6437,29.1489 55.8407,27.7999 56.5337,27.3779 C56.4387,27.0279 54.8777,27.7609 54.3117,27.8769 C54.6027,28.5089 55.1587,28.8399 54.0787,29.4289 C54.5887,29.8919 55.2387,28.9929 55.9017,29.3659 C55.5497,29.6929 55.6497,30.1379 54.1847,30.1769 C54.3217,30.8639 54.9407,30.6829 53.8627,31.1709 C54.7687,31.8069 55.3467,32.2059 54.1557,33.2189 C53.4987,33.2029 53.0187,33.0789 52.7297,32.8459 C52.3677,32.9299 52.3077,33.0949 51.8547,33.1559 C52.1997,34.2479 55.8817,32.9689 56.4897,33.4679 C55.4577,34.1149 54.5537,34.4019 55.3527,35.1449 C53.2357,35.6069 53.2647,36.6289 51.0397,37.0659 Z M52.0207,37.4999 C53.4057,37.0999 53.1967,37.2509 54.2937,37.3789 C53.7297,37.5509 53.3937,37.7009 52.1027,38.0589 L52.0207,37.4999 Z M48.6007,32.8459 C48.4947,32.5209 49.0947,32.3799 48.9447,32.0389 C49.8247,32.0769 50.2787,32.6879 49.5537,33.0929 C49.0597,33.1159 49.1967,32.7669 48.6007,32.8459 Z M49.4517,52.6499 C48.9247,52.6899 48.6557,52.7979 48.5747,52.9569 C48.0557,52.3309 46.6437,52.3819 45.8077,52.7549 C45.1887,52.7779 45.3697,52.3399 45.2547,52.0699 C47.8387,52.1599 45.3587,50.8969 47.3897,50.8399 C46.7607,50.5369 46.9577,49.7549 45.4477,49.9599 C45.7197,49.4929 46.7317,49.2209 47.6007,48.9129 C47.3387,48.3019 46.1807,48.7929 47.5047,48.1679 C47.3957,47.8319 45.9677,48.2599 45.6567,48.0359 C47.2627,47.3579 48.1557,47.3549 48.7587,47.2409 C49.8957,48.2179 47.4017,50.4269 50.1867,51.2249 C49.8587,51.6779 49.1007,52.0169 49.4517,52.6499 Z M49.4537,56.2539 C48.2667,56.1279 49.3817,54.4019 47.8217,54.1919 C48.4497,53.6849 49.8637,54.6359 49.5457,53.3959 C50.5317,54.3229 49.2547,55.7309 49.4537,56.2539 Z M51.4737,61.2989 C51.8997,61.2129 52.2337,61.1799 52.4717,61.2019 C51.2537,60.0379 53.6707,58.2089 54.5317,56.5309 C55.2627,55.9289 54.9927,57.5839 55.1667,57.9689 C54.2157,58.0129 53.9927,58.2529 53.3917,58.3919 C53.5357,58.4899 54.6007,58.9629 53.4877,59.1399 C53.5967,59.3379 53.9497,59.1839 53.9347,59.0809 C55.3817,59.1969 53.0907,59.7899 53.1537,60.1299 C53.3977,60.5939 53.5147,61.1239 54.2217,61.3189 C52.1787,62.7919 54.9127,63.6539 56.0047,64.5059 C54.6067,66.1089 55.0087,68.1989 53.0007,69.6369 C53.9057,68.5699 52.8227,67.4819 52.5947,66.4649 C53.1257,66.4269 53.0167,66.7549 53.1157,66.9659 C55.4697,65.4659 50.9597,65.2119 51.3837,64.1569 C53.0027,63.8929 52.5167,64.8399 53.3227,65.0409 C54.9087,64.6279 54.2317,65.0179 54.5807,64.1199 C54.1927,64.2559 53.7957,64.3899 53.7277,64.6099 C53.7667,64.9329 53.5107,62.9729 51.7607,63.5389 C50.8837,63.5179 52.1967,62.5889 52.5187,62.3029 C52.4127,62.1599 52.0417,62.1739 52.0227,61.9859 C50.4757,62.4349 50.6157,63.9009 50.3837,63.5249 C49.9637,64.5319 48.6867,63.1879 49.2687,61.9649 C48.4387,62.1039 49.0717,62.6339 48.4637,62.8289 C47.7687,62.6939 46.4327,62.9309 46.5657,62.3189 C46.1357,62.5659 45.7097,62.8119 45.2897,63.0529 C43.0417,62.5359 46.1357,61.3569 43.6807,61.1819 C43.9287,60.7349 46.0377,60.8679 45.5477,61.5049 C46.4407,61.2039 46.4287,60.6639 46.2807,60.0819 C47.4537,60.0739 46.5357,61.2709 48.2277,60.9649 C48.6587,60.7599 47.9737,60.3349 49.0047,59.9139 C48.7977,59.3669 47.5317,59.4329 47.9167,58.5429 C49.3657,58.4629 49.2667,58.0089 50.1667,58.2459 C49.7897,58.5109 49.1587,58.3659 48.4127,58.8559 C50.0787,58.4089 51.3527,61.0729 49.2217,61.5929 C49.2707,62.0329 50.0717,62.0399 49.8157,62.6529 C51.4757,62.5039 51.0907,61.7969 51.4737,61.2989 Z M56.4967,61.2119 C57.3327,61.0769 57.9897,60.8939 58.2507,60.6039 C59.6007,60.4569 56.0417,61.8649 55.7397,62.4509 C53.7377,62.2939 56.5007,60.8859 56.3567,60.0909 C57.7527,60.1439 55.9477,60.7969 56.4967,61.2119 Z M57.9387,61.7829 C59.5497,61.3949 58.6647,62.4389 58.9877,62.7879 C58.0147,62.7619 57.1357,62.2469 57.9387,61.7829 Z M60.9307,63.6769 C60.8507,63.8929 60.0537,63.9179 60.0807,64.1659 C58.6027,64.5949 58.0967,63.4609 57.3287,64.1429 C55.6477,64.0639 58.3407,63.7289 57.6847,63.3389 C59.7057,62.9409 58.2217,64.3299 59.9837,63.4189 C60.4797,63.4009 60.3367,63.7519 60.9307,63.6769 Z M56.9757,64.9468956 C58.3387,64.9439 59.0537,66.4599 57.1927,66.6299 L56.9757,64.9468956 Z M56.4837,75.4529 C57.6827,74.9599 57.3527,73.8489 56.6767,73.3419 C57.3227,73.4539 58.9147,73.8269 58.4517,72.9259 C60.1517,73.3719 57.4637,74.0879 58.7607,75.3549 C57.7767,75.0639 57.3287,75.7019 56.4837,75.4529 Z M53.0457,73.6109 C54.6997,73.5589 53.4307,74.3779 53.6667,74.8599 C52.6457,74.9089 53.3697,73.9649 53.0457,73.6109 Z M57.7217,77.9539 C55.6277,78.1919 54.6567,77.4819 55.2767,76.7429 C54.1977,77.2899 53.0417,77.8119 53.2407,78.7059 C52.2427,77.9679 53.3637,77.2039 51.6257,76.8259 C53.1417,77.2399 52.9147,76.2639 54.2817,76.1099 C54.2257,76.8909 55.5887,76.5079 55.5847,75.5669 C56.8017,76.0449 54.9757,77.0769 57.5747,76.8329 L57.7217,77.9539 Z M59.3797,76.6059 C60.0027,76.7159 60.7767,76.7399 61.2567,76.9379 C60.6477,77.8799 60.0147,79.1859 59.4307,80.5849 C58.3777,80.6589 57.7037,80.8319 57.1997,81.0549 C58.2977,82.0279 57.6067,83.2349 57.1567,84.2839 C56.0967,84.3559 55.2647,84.2899 54.4057,84.2469 C54.9757,83.4049 54.3117,83.3449 54.6457,82.5109 C55.6007,82.7229 55.5067,82.2629 56.4677,82.4749 C56.1767,82.3409 55.8797,82.2089 56.4187,82.0999 C54.1967,82.4329 55.7277,80.6259 53.9497,80.7029 C53.8247,80.3089 55.5377,80.4189 56.1787,80.2339 C56.1237,79.7369 55.8737,79.1889 56.4657,78.8699 C57.2217,78.7059 57.3367,78.9059 57.4167,79.1299 C57.9967,78.9889 58.0727,78.7129 58.7177,78.5869 C58.6217,77.9739 57.8347,77.7539 58.0517,76.9629 C58.5477,77.4179 59.8287,77.6139 59.3797,76.6059 Z M63.1787,81.2569 C62.8367,82.1409 63.1707,81.7559 63.7727,82.3219 C61.9057,82.3469 63.9837,83.4609 61.6157,83.3519 C62.5497,82.4399 62.1277,82.1329 61.3757,81.4819 L63.1787,81.2569 Z M65.9147,88.3289 C66.7117,89.3219 65.9407,90.7419 67.6947,91.5309 C65.4147,91.4979 65.4857,90.4409 65.6027,89.5069 C64.8177,88.9569 63.9107,89.0659 62.8097,89.0899 C62.4737,88.5169 62.8217,88.1349 63.5637,87.8569 C64.1477,88.2609 65.2297,88.3849 65.1067,89.1879 C65.8957,89.0459 66.0927,88.7389 65.9147,88.3289 Z M63.6397,92.0279 C64.4757,91.8989 65.1297,91.7199 65.3917,91.4339 C67.0027,91.8929 63.4207,92.4409 64.7297,93.4129 C62.9697,93.7429 64.0717,92.4499 63.6397,92.0279 Z M64.0417,91.5969 C62.8757,91.3749 63.0947,90.0569 63.7547,89.3549 C64.3037,89.6009 64.6197,90.7889 64.0417,91.5969 Z M63.4447,86.9209 C61.7377,87.2239 62.4017,85.5669 62.7787,85.2939 C63.8637,85.5279 62.2177,86.5229 63.4447,86.9209 Z M61.6377,83.5389 C62.5187,83.7529 60.6237,85.1859 60.5987,86.1349 C59.0947,85.4719 61.1767,84.2579 61.6377,83.5389 Z M59.3607,83.6299 C59.7747,83.6629 60.1887,83.6949 60.3117,83.8939 C59.6967,84.5019 59.1107,85.1229 57.2997,85.4049 C57.3897,84.6489 59.1807,84.3629 59.3607,83.6299 Z M53.9347,91.3159 C54.5187,91.8419 54.0307,91.7339 54.0787,92.4359 C53.0717,92.3929 51.5767,91.5989 53.9347,91.3159 Z M50.2787,84.1909 C50.8857,83.3109 52.5067,82.6889 51.3467,81.7889 C53.0007,81.9369 52.2097,81.4449 52.6007,80.8729 C53.0377,80.9559 53.3307,81.1259 53.5767,81.3159 C52.5677,82.4819 51.0207,83.6299 52.1977,84.8999 C50.7567,85.1189 51.0147,84.3719 50.2787,84.1909 Z M47.9797,87.6939 C48.2607,87.7169 49.7707,87.9439 49.7787,87.4739 L49.7317,87.1009 C51.7377,87.2959 50.9477,89.0779 51.9167,89.8609 C50.6157,89.9969 51.0337,89.1609 49.5677,89.3919 C50.6297,87.7059 47.9927,88.8729 47.9797,87.6939 Z M45.8677,85.4979 C47.1457,85.7689 47.2647,86.1019 48.6667,85.9069 C48.2917,86.2819 48.8117,86.9039 47.4327,87.0069 C48.5307,85.7909 45.7297,86.6299 45.8677,85.4979 Z M46.6967,81.2329 C46.2957,80.7049 47.0717,80.4979 47.0027,80.0609 C47.6947,79.9769 48.1647,81.3169 46.6967,81.2329 Z M47.4537,76.4079 C47.1997,77.0179 48.3017,76.8569 48.0477,77.4679 C47.7387,77.8529 47.5457,77.4179 47.5457,77.1529 C47.3697,76.7849 46.2917,76.9339 45.6767,76.8219 C46.0287,76.4929 46.3567,76.7879 47.4537,76.4079 Z M44.4617,70.9219 C46.9057,71.6229 47.9407,70.1269 48.4187,69.6569 C49.6557,70.0039 48.7197,71.2849 47.7567,71.6359 C45.3407,70.7589 45.3897,73.3309 44.9367,74.6449 C43.5747,73.6759 45.5287,71.9199 44.4617,70.9219 Z M49.2057,75.8059 C48.7687,75.3249 49.7817,75.2409 49.5417,74.8159 C50.0677,74.8109 51.1927,75.4339 50.1087,75.6919 L49.2057,75.8059 Z M50.3217,77.3689 C49.5267,77.1999 48.6377,76.5559 49.2527,76.1779 C50.5477,76.0419 50.1767,76.8509 50.3217,77.3689 Z M48.5927,85.3489 C48.0677,85.3839 47.7977,85.4909 47.7157,85.6479 C46.2977,85.7899 46.9517,84.5269 48.4757,84.4179 L48.5927,85.3489 Z M49.6867,83.1299 C48.0087,83.3509 48.2787,82.4659 48.1417,81.8099 C48.6517,82.2509 49.5087,82.4989 49.6867,83.1299 Z M53.6397,78.2759 C54.6047,78.4859 54.5127,78.0259 55.4677,78.2379 C55.4757,78.7199 54.9057,79.0439 53.7627,79.2099 L53.6397,78.2759 Z M51.2507,81.0419 C52.5187,80.3909 50.3077,79.9049 51.4837,79.3069 C53.3017,79.2429 52.7837,79.7479 54.2627,79.5259 C53.6827,80.1459 52.6477,80.6459 51.2507,81.0419 Z M46.8997,64.9259 C47.2727,64.4129 47.5557,65.5959 48.7767,65.2519 C50.4207,64.9019 48.5107,64.7179 49.5537,64.2029 C50.8657,64.9069 48.2937,65.9449 50.3157,66.5689 C51.0907,66.5399 51.1417,66.3139 51.1667,66.0799 C52.5807,66.5149 50.6177,66.8569 49.9127,67.0009 C50.7817,67.5239 52.3137,68.5849 50.1967,69.2369 C50.1237,68.7459 50.4677,68.0149 48.7317,68.4809 C48.3587,67.6489 49.2037,67.2759 48.5187,66.8009 C47.1087,66.8409 47.7137,67.4259 46.3097,67.4659 C47.3797,66.6409 47.0657,66.4359 47.9207,65.7419 C47.8877,65.5649 47.3487,65.6709 46.9907,65.6729 C47.7037,65.2039 46.9287,65.4409 46.8997,64.9259 Z M41.8117,71.6399 C41.3057,72.2919 41.1667,71.1859 41.7397,71.0819 C40.6687,71.3799 39.9797,71.9509 39.4597,71.1849 C38.8837,71.4479 38.1417,71.6659 37.7357,71.9739 C36.8797,71.6749 38.8247,70.6029 40.2667,70.3259 C40.5087,70.7509 39.4947,70.8349 39.9347,71.3139 C41.0317,71.2499 40.8697,70.8489 42.1627,70.8379 C43.2017,70.3269 43.0827,69.3959 41.9497,69.1629 C43.1827,68.9199 42.6067,67.5869 42.0677,66.4999 C45.5827,66.1109 42.7647,68.3159 44.6317,68.6279 C46.0637,68.5379 44.6767,67.6829 46.3327,67.6499 C45.3427,68.2019 46.5747,68.3599 46.5007,68.9549 C45.5307,68.6759 44.3467,69.1359 44.2977,69.6169 C42.9307,69.6709 44.6747,69.1639 44.2017,68.8729 C42.6887,69.6039 43.7297,71.0229 41.8117,71.6399 Z M38.6317,75.4459 C38.7567,75.1369 39.4467,75.5089 39.5087,75.1479 C40.1437,75.2519 40.1707,75.6999 40.9537,75.7179 C41.5637,75.5829 41.2707,75.2069 41.3157,74.9179 C41.7297,74.9819 42.1477,75.0389 42.2177,74.8029 C44.4307,75.5249 38.3777,76.3159 40.6727,77.0789 C41.5927,76.9079 41.5087,76.4669 41.9267,76.1619 C42.1437,76.5689 43.9207,76.0899 43.8247,76.6799 C42.6127,76.4009 40.9797,77.0999 40.2687,77.5069 C37.1707,77.4359 40.7607,75.6619 38.6317,75.4459 Z M40.2917,74.1019 C41.7257,73.6879 40.7117,74.6609 42.1437,74.2449 C41.9947,74.9029 39.8347,74.9059 40.2917,74.1019 Z M38.3227,73.0319 C39.5207,72.7579 39.4967,72.1509 40.9347,71.9419 C39.7647,72.4989 39.6927,72.6629 40.1967,73.3589 C38.7687,73.7079 39.5027,72.8229 38.3227,73.0319 Z M38.5637,78.4779 C37.1357,78.7489 39.5317,80.0579 37.3977,80.1369 C37.8937,79.5359 37.3487,79.1839 35.9067,79.1909 C35.2487,79.3569 36.1147,79.4079 35.9797,79.7489 C34.9717,79.6399 32.0287,78.7869 34.3917,78.0639 C33.9187,78.6859 34.3467,78.7099 34.9817,79.1189 C35.4907,79.0199 35.2077,78.9009 34.9577,78.9329 C35.5497,78.5559 37.1557,78.4559 37.5907,78.0349 C37.1627,77.8759 36.3447,78.3109 36.5927,77.4059 C38.0697,78.1579 41.5537,77.9549 39.6067,79.4799 C39.8777,78.7909 39.0027,78.7589 38.5637,78.4779 Z M37.5167,81.0649 C36.2567,81.0519 35.8427,80.5559 35.5517,79.9909 C36.9757,79.9129 37.2627,80.4789 37.5167,81.0649 Z M34.4837,85.9699 C33.6517,86.1059 34.2877,86.6339 33.6767,86.8249 C32.5987,86.7499 32.4777,87.0159 31.3797,86.7359 C31.3367,86.4659 33.2037,85.9109 31.3097,86.1779 C31.0637,85.7549 32.0747,85.6729 31.6377,85.1959 C32.5357,85.4379 32.7747,85.0749 33.8917,84.9139 C33.3097,84.0669 34.7687,83.2529 33.2017,83.1159 C33.3587,82.7999 34.5987,82.7779 34.0087,82.2609 C35.2807,82.6189 34.9557,81.9169 36.2397,81.7909 C34.5167,83.0139 36.0537,83.9379 36.6667,85.1319 C35.3117,85.3709 35.6567,84.6449 35.1977,84.3739 C34.5557,84.6229 35.4817,85.6579 35.8587,85.9889 C36.4037,85.8369 36.7487,85.6349 36.6887,85.3209 C37.4617,85.4139 37.2817,86.0459 37.7317,86.3209 C36.7607,86.3539 36.9087,86.6929 36.9057,86.9919 C35.9247,86.2099 36.0577,86.5289 34.4837,85.9699 Z M36.0727,87.6609 C34.4467,87.5419 37.0557,86.9819 37.4017,87.3069 C36.5027,88.2589 38.1177,88.4379 37.6147,88.9779 C36.1127,89.2169 36.9897,87.0889 36.0727,87.6609 Z M31.5437,73.7099 C29.9387,73.6959 30.0147,72.7259 29.9327,71.8419 C31.5087,71.8729 30.7787,73.2189 31.5437,73.7099 Z M34.3677,77.8779 C32.4857,78.1509 32.3717,77.4159 31.5207,77.1069 C32.3567,77.3479 33.0827,76.9289 32.8017,76.3789 C34.0107,77.0159 34.0007,76.5199 34.3677,77.8779 Z M33.5337,74.9639 C34.3607,74.1449 34.9037,75.4399 34.0827,75.6489 C32.9107,75.8539 32.1377,75.8289 32.2077,75.3219 C32.7857,75.4609 33.1537,75.3659 33.0867,75.0219 C33.6257,75.1789 34.2357,74.9479 33.5337,74.9639 Z M34.6967,73.3069 C35.0867,73.2909 35.1147,73.1799 35.1237,73.0659 C36.1317,72.9639 34.5987,73.6069 35.2427,73.9919 C34.4367,74.0699 34.3227,74.3409 33.4637,74.4059 C33.6297,74.1559 33.9927,73.9539 34.7667,73.8619 C34.1417,73.5749 32.6237,74.4329 32.8717,73.3539 C33.8307,73.5599 33.7357,73.0999 34.6967,73.3069 Z M35.6417,59.2119 C38.3977,58.6209 37.2587,59.6759 38.0107,59.8439 C37.8467,60.1419 37.6147,59.8759 37.1127,59.9639 C36.3837,60.0799 37.6417,60.6989 38.5577,60.5279 C39.4247,60.3319 37.7567,60.0929 39.8607,59.9789 C39.5227,60.5469 38.7897,61.0109 37.7507,61.3899 C37.9907,61.7219 38.0187,62.1709 39.1967,61.9579 C37.6787,63.7339 36.1907,62.1719 34.6006534,61.8019 C34.5907,60.8449 36.1947,60.3149 35.6417,59.2119 Z M34.6257,54.8129 C35.0207,55.3379 33.9187,55.4619 34.3097,55.9869 C33.5437,55.8219 32.5907,54.9849 34.6257,54.8129 Z M33.1807,57.8349 C33.5557,57.8869 33.9347,57.9339 34.5477,57.8429 C34.5947,58.2139 33.3567,58.2419 33.7467,58.7069 C32.5987,58.8379 32.5947,58.1559 33.1807,57.8349 Z M38.1047,56.9949 C38.0307,57.6379 36.9087,57.9929 37.4187,58.7879 C36.4447,58.6529 35.5947,58.5349 34.6197,58.4009 C34.4057,57.7459 37.6727,58.0169 36.7547,57.1729 L38.1047,56.9949 Z M36.7297,49.8059 C38.4107,49.8119 35.7807,51.0689 37.3447,51.0449 C35.4817,51.9409 37.5807,49.9069 35.8777,50.2969 C35.7727,50.1489 36.0307,50.0999 36.3017,50.0489 C36.6907,50.0339 36.7217,49.9229 36.7297,49.8059 Z M44.4817,60.3189 C43.1317,60.1639 42.8607,59.3869 42.4447,58.6919 C44.4067,58.4959 44.1537,59.5729 44.4817,60.3189 Z M43.4837,56.0959 C43.0847,56.7939 43.2767,55.5959 42.1087,56.0869 C41.6707,55.6109 42.6847,55.5209 42.4387,55.0979 C43.4597,55.0419 42.5767,56.0839 43.4837,56.0959 Z M42.0377,51.9339 C43.0597,51.8739 42.1007,52.9619 43.5047,52.6839 C42.6497,53.4829 42.0027,52.5069 41.2057,52.6119 C41.4737,52.3809 42.2217,52.2789 42.0377,51.9339 Z M42.8657,51.2519 C40.8837,51.7989 41.4127,50.8919 39.6667,51.3029 L39.5717,50.5569 C40.7877,50.2589 40.5287,50.8079 41.4187,50.6899 C41.8367,50.0549 40.6007,50.2069 41.7017,49.3239 C42.8977,49.8189 42.3507,50.2369 42.8657,51.2519 Z M39.9067,53.1639 C40.6237,53.0149 40.7077,53.2359 41.2787,53.1679 C41.8467,53.7989 40.4057,53.8979 40.0477,54.2769 C38.0657,54.2699 40.4717,53.8009 39.9067,53.1639 Z M40.0007,61.0959 C41.3347,60.8799 41.6787,61.5499 41.0227,61.9079 C39.4797,62.2429 39.3267,61.4659 40.0007,61.0959 Z M37.3977,65.7829 C39.4227,65.6359 39.9637,68.3259 38.2037,68.5129 C38.0537,67.4759 38.5337,66.9239 37.3977,65.7829 Z M37.4037,69.3739 C37.8857,69.6759 39.6997,69.6569 38.4427,70.3719 C37.5087,70.2399 37.3367,69.6759 36.9227,69.2439 C37.7237,69.0879 37.8657,69.3009 37.4037,69.3739 Z M35.5267,69.0459 C36.2587,68.6479 35.8157,68.0369 34.9327,67.9919 C35.6647,67.1199 37.6317,68.9119 35.5267,69.0459 Z M35.8567,75.2339 C34.5477,75.7239 35.4447,75.9749 35.5727,76.5919 C34.6397,76.6569 35.0597,75.9529 34.1297,76.0189 C35.7547,75.1459 36.3547,73.9929 36.9267,72.8349 C38.2037,73.3909 36.1847,74.5369 36.8017,75.4929 C36.3137,75.5069 36.4537,75.1589 35.8567,75.2339 Z M38.6537,64.8639 C37.3057,64.8239 39.3307,64.2319 39.4557,64.0039 C39.2377,63.8629 39.0227,63.7229 38.5107,63.7489 C37.3077,63.8449 39.0697,64.7339 37.2547,64.6699 C37.1297,65.1399 38.1277,64.9639 37.8247,65.5389 C35.8877,65.7169 37.1947,64.0389 36.6437,63.4249 C38.3467,63.1649 38.2507,62.4199 40.1457,62.2109 C39.6827,62.6259 38.4497,62.8339 37.9897,63.2499 C38.0867,63.5479 41.1197,63.1529 41.1417,62.8369 C41.8677,63.5989 39.6517,63.6069 40.4307,64.4439 C39.8877,64.9789 39.0317,64.2849 38.6537,64.8639 Z M42.0187,66.1279 L41.8547,64.8249 C44.6127,64.7739 41.7627,64.7289 41.7587,64.0829 C42.4947,64.0399 42.5087,63.8069 43.0867,63.7199 C42.3717,63.3119 41.5357,62.4739 43.3197,61.9849 C43.5787,62.3149 42.3117,64.1229 44.8877,63.4839 C47.1767,64.0569 42.8757,65.3259 44.2487,65.6489 C44.3737,66.0429 42.6627,65.9419 42.0187,66.1279 Z M44.9207,49.4639 C44.8247,49.2539 44.0827,49.4149 43.5537,49.4559 L43.4577,48.7119 C44.6927,48.9389 44.4697,49.0759 45.7747,48.9709 C45.4227,49.3529 44.5847,49.6099 45.0167,50.2089 C43.7057,50.6789 43.5357,49.3539 44.9207,49.4639 Z M46.0227,54.4339 C47.3037,54.4519 46.1727,55.2899 45.6827,55.4269 C45.9147,55.6769 46.2547,55.2739 47.0397,55.2459 L47.2317,56.7349 C46.7197,56.9619 46.0557,57.1409 45.0007,57.2199 C44.9907,57.0379 45.5357,57.0029 45.8737,56.9159 C45.2957,55.9939 44.5577,54.9879 45.0457,53.9929 C47.0747,53.7059 44.9227,54.5829 45.6377,55.0529 C46.1607,54.9519 45.9737,54.6629 46.0227,54.4339 Z M47.5267,44.7499 C48.1997,45.1879 48.6397,46.5139 48.2627,46.9279 C46.6787,46.7099 47.5207,45.3709 47.5267,44.7499 Z M39.4227,39.2239 C39.8607,39.1689 39.8077,39.4009 39.9247,39.5319 C40.2667,39.3249 41.1437,39.2549 41.2217,38.9769 C41.8177,39.9279 41.6997,40.9969 41.6997,42.3189 C41.8177,42.6539 43.2407,42.2269 43.5517,42.4469 C43.6457,41.7559 46.0617,41.6719 46.0947,40.9649 C44.3037,40.8739 45.4717,39.5329 47.2297,39.2929 C47.2427,39.4759 46.7017,39.5119 46.3567,39.6009 C47.5397,40.0829 45.7547,41.1229 47.0967,41.5859 C48.7787,41.2489 46.5517,40.7679 48.7647,40.4099 C48.9797,40.7039 48.4617,40.8099 47.9167,40.9049 C48.2447,41.6259 50.0867,41.4339 49.1587,43.2019 C47.8527,43.0769 47.2747,43.6749 45.9857,43.4419 C46.1317,43.0619 46.8897,42.8439 46.7547,42.3899 C46.5317,42.2509 46.3117,42.1099 45.8017,42.1409 C44.1557,42.7009 45.7447,42.9919 45.1087,43.7509 C44.3937,43.7659 44.6537,43.2159 43.2607,43.6219 C43.9227,42.5089 44.9247,42.8059 43.1047,42.5079 C41.3757,43.0969 42.9127,44.5659 42.0577,44.9209 C42.9207,45.3129 45.0207,44.5229 44.6867,43.9979 C46.9207,44.6739 44.3367,45.7479 44.6337,47.2279 C42.8077,47.4199 43.6357,47.4309 43.8117,47.9079 C43.2727,48.6839 43.6707,47.3679 42.8627,47.6539 C42.5717,48.3249 42.5637,49.5979 41.5357,48.0239 C41.6667,47.7579 42.2937,47.6239 42.3647,47.3429 C37.6997,46.1299 43.6337,42.4719 38.5767,42.9339 C38.2197,42.2059 42.2277,40.7859 39.4227,39.2239 Z M42.5417,28.9449 C42.4697,29.2299 38.8977,29.8939 39.3677,29.1989 C40.3407,28.6229 40.8647,29.3409 42.5417,28.9449 Z M40.8157,23.3149 C41.3877,23.2799 41.3247,23.6179 40.8677,23.6849 C41.9817,23.6339 41.4167,24.5709 43.2237,24.1109 L43.3307,24.8559 C42.6337,24.6829 41.8877,24.9129 42.0377,25.4159 C41.0947,25.0289 41.6357,23.7719 39.5477,24.0599 C39.3507,23.6499 40.8177,23.6719 40.8157,23.3149 Z M40.8977,27.0919 C41.2277,26.4899 41.2237,26.4649 40.7377,25.9779 C42.2977,25.8419 43.2527,25.5489 44.3097,25.2859 C44.0947,25.4699 43.8857,25.6529 43.9407,25.9079 C41.3347,25.8929 42.9227,26.9549 40.8977,27.0919 Z M42.4367,28.2039 C41.2137,28.1219 40.9657,27.7869 41.3737,27.2139 C42.6707,27.2329 42.0377,27.8699 43.6747,27.2729 C43.6827,27.8889 44.8627,28.0179 42.9107,28.3259 C43.2177,27.8329 42.1587,27.5589 42.4367,28.2039 Z M42.8307,34.2109 C43.5617,34.3739 44.2487,34.9959 43.4717,35.4499 C42.4967,35.4279 42.0947,34.6409 42.8307,34.2109 Z M42.8347,37.4299 C44.1887,37.1759 43.8567,37.9069 44.3157,38.1759 C42.6357,38.5709 42.1177,37.8459 42.8347,37.4299 Z M47.5947,32.2269 C48.9107,32.5499 47.1257,32.7039 47.2807,33.2199 C44.6647,32.8389 46.4227,34.1829 44.2397,34.3969 C43.8427,33.7579 45.1127,33.5489 44.9497,32.9719 C46.8077,32.9769 46.3157,32.3709 47.5947,32.2269 Z M46.5377,34.4569 L47.8877,34.2719 C48.3567,35.0199 47.9307,35.0389 48.5557,35.6979 C48.1747,35.6489 47.7937,35.6049 47.1727,35.6979 C47.1907,34.8209 48.4657,34.9999 46.5927,34.8289 L46.5377,34.4569 Z M53.1477,22.9099 C53.1967,22.0119 53.3287,22.2509 53.3797,21.3559 C54.0127,21.3589 54.7077,22.8829 53.1477,22.9099 Z M54.8777,12.5839 C57.6537,12.4889 55.5007,14.4169 56.6007,15.0049 C54.5047,15.0989 56.2217,12.9349 54.8777,12.5839 Z M56.6517,12.1429 C56.9757,11.5369 56.9717,11.5109 56.4907,11.0239 C57.9897,10.7399 57.3547,11.7249 57.9967,11.9489 L56.6517,12.1429 Z M57.7897,13.6939 C57.0307,13.4669 57.0437,12.7849 56.6787,12.3269 C57.6257,12.6439 59.5027,12.4059 59.1377,13.5019 C58.7547,13.4229 57.8627,13.3859 57.7897,13.6939 Z M27.2237,97.2239 C26.3567,97.4029 26.4597,96.4579 27.6027,96.6119 C27.6607,96.4439 27.4067,96.4579 27.1277,96.4809 C27.1687,96.1569 29.2817,96.3059 29.0007,96.8159 C28.4597,97.3459 27.3037,96.8179 27.2237,97.2239 Z M30.4307,54.2359 C31.2937,54.9269 30.4617,55.6389 31.1867,56.5899 C29.0207,56.6149 30.2547,55.2649 29.0787,54.4159 L30.4307,54.2359 Z M27.5127,60.0929 C27.9387,59.2549 27.7077,58.3119 28.5377,57.3169 C28.9107,57.3699 29.2917,57.4139 29.9067,57.3249 C29.2037,58.0409 29.1647,57.8839 30.4757,58.1929 C30.1087,58.8199 29.2507,58.1389 28.6567,58.2449 C29.2767,58.7319 29.1647,59.7169 27.5127,60.0929 Z M26.6627,57.0009 C26.6397,56.4899 25.8637,56.7289 26.5677,56.2599 C26.3347,56.0119 26.0047,56.4089 25.2177,56.4399 C25.1967,56.1209 24.8227,56.0049 24.2507,56.0029 C24.5457,55.2889 25.3527,55.8339 26.9227,55.4579 C26.8487,56.2879 27.4147,56.4399 28.8197,55.9609 C28.9347,56.4089 29.0027,56.8449 28.5147,57.1329 C27.6887,57.1039 28.4067,56.8049 28.4427,56.5749 C26.6257,56.5739 27.5947,57.3069 25.7857,57.305901 C25.7817,57.1229 26.3177,57.0879 26.6627,57.0009 Z M26.2817,57.6179 C27.0167,57.8419 26.2137,58.3129 26.8997,58.8549 C25.5087,59.0579 25.4877,58.4729 25.4087,57.9199 C25.9347,57.8819 26.2037,57.7739 26.2817,57.6179 Z M28.2037,54.7219 C26.1727,55.0929 27.0167,53.8129 26.2117,53.4789 C27.0247,53.3949 27.1337,53.1259 27.9927,53.0529 C27.9857,53.9209 27.6237,54.0129 28.2037,54.7219 Z M22.0867,67.7719 C21.6107,68.3599 19.2507,68.4439 19.5307,69.2329 C18.9087,69.1889 18.6377,68.9469 18.5377,68.6089 C16.2627,68.9099 18.1587,69.2109 17.8017,70.0209 C17.1177,69.9449 16.3367,69.9279 16.3527,69.4579 C18.2117,69.3039 16.1177,69.0849 16.6847,68.4739 C19.1027,68.6809 17.7117,67.6799 18.3717,67.3149 C18.1997,66.8529 17.6257,67.6719 16.5657,67.5499 C15.7197,67.1729 16.2997,65.9839 14.1297,66.3649 C15.2857,65.6309 18.1767,65.3429 17.5617,64.6019 C18.5457,65.3739 18.7977,65.9559 19.1517,66.2739 C18.8057,66.8279 18.0887,65.9819 17.3057,66.1379 C16.3097,66.2929 17.2117,66.9479 16.9907,67.3079 C17.3857,66.4779 19.9387,66.5349 19.7407,67.3249 C20.6457,67.1019 20.5557,66.6529 21.5227,66.9049 C22.0747,67.3139 20.1027,68.0559 22.0867,67.7719 Z M9.0287,73.0319 C12.0637,73.0729 12.6687,73.5479 11.6107,75.3249 C8.9127,74.9319 10.2487,73.6189 9.0287,73.0319 Z M6.7317,72.9519 C8.6847,73.1429 7.2567,71.8809 8.7897,71.1879 C9.6537,71.5579 10.9637,71.6639 11.2317,72.3729 C10.3267,72.3589 9.9657,72.0339 9.7627,71.6219 C8.7787,71.7179 8.3487,71.9609 8.4837,72.3509 C8.5867,72.4899 8.9557,72.4779 8.9817,72.6629 C12.2977,71.5659 6.4127,73.6479 8.2667,74.2539 C6.4657,74.1459 8.2837,73.2009 6.7317,72.9519 Z M6.9347,78.1709 C7.6297,78.4879 9.0637,79.0419 8.4817,79.4729 C8.1587,78.9409 5.9777,78.8139 6.9347,78.1709 Z M5.5397,74.4179 C6.5207,74.2579 6.9967,74.3829 6.9657,74.7949 C5.4797,74.7539 6.6997,75.4359 5.2077,75.3949 C4.9697,74.9759 5.9797,74.8899 5.5397,74.4179 Z M51.5167,14.7749 C51.5337,15.2579 50.9717,15.5909 49.8287,15.7759 C49.8177,15.2949 50.3797,14.9619 51.5167,14.7749 Z M50.1257,17.8239 C49.6887,17.8929 49.8077,18.1019 49.7277,18.2609 C48.9907,18.1759 49.5867,16.9199 50.8897,16.7669 C50.1297,17.6489 52.5147,18.5929 49.8607,19.1909 C49.5537,18.6369 50.5767,18.4199 50.1257,17.8239 Z M45.7857,19.5779 C45.1047,18.9249 47.2137,18.9889 46.5267,18.3339 L48.3227,18.0799 C47.4677,18.3259 48.1927,19.3339 48.8527,18.5749 C49.8227,18.4049 49.1517,19.2039 49.4387,19.4409 C47.8037,19.1769 48.1747,18.9979 47.6887,20.0659 C46.2857,20.3609 47.3937,19.1689 45.7857,19.5779 Z M46.9987,15.2309 C48.7607,14.7929 47.3347,16.2429 48.9347,15.9039 C47.2787,16.4879 48.7567,16.7099 49.1197,17.2069 C48.6787,17.2759 48.8017,17.4839 48.7217,17.6429 C46.8307,17.8879 47.2297,16.7759 46.2607,16.4749 C47.4877,16.2829 47.2117,16.6549 48.0597,16.2179 C48.1007,15.6579 46.9577,15.7919 46.9987,15.2309 Z M60.4447,3.4059 C58.6357,3.4469 58.1827,4.6199 59.6787,4.4689 C59.7357,4.1229 59.0947,3.5989 60.4697,3.5939 C59.9517,4.2249 60.8997,4.5149 60.7387,5.4609 C58.5107,5.4889 59.4897,6.3379 58.6217,6.7179 C57.7427,6.4129 55.7727,5.7549 53.9717,6.2459 C54.1647,6.7399 54.9577,6.9829 54.6317,7.6739 C54.9967,7.9959 57.1357,7.2669 57.3837,7.6579 C57.3057,7.8179 57.4207,8.0279 56.9907,8.0969 C55.7467,8.0209 54.5287,7.9449 53.2837,7.8679 C53.9407,8.5739 52.6767,8.7889 52.5727,9.3009 C53.3347,9.4539 54.0747,9.6239 54.9287,9.7259 C55.3327,9.4089 56.0717,9.1809 56.6457,8.9059 C58.1357,9.7779 55.3857,10.6049 54.7157,11.4689 C54.2767,10.3489 51.9477,11.7799 50.1967,11.9239 C50.1457,11.5539 51.3857,11.5109 50.9857,11.0499 C49.2097,11.5019 48.9517,11.0459 48.2137,10.8779 C48.8347,11.9749 47.5557,11.5459 47.0227,12.1889 C47.5517,12.1439 47.5537,12.4119 47.5537,12.6809 C48.9557,12.6229 48.0107,11.9599 49.7467,11.9879 C48.6647,12.7079 51.5227,13.6329 52.5807,12.5329 C51.4017,12.7579 51.3637,12.3099 51.1177,11.9819 C52.3977,12.3219 52.0677,11.6219 53.3407,11.4749 C53.3677,11.6609 53.7357,11.6449 53.8447,11.7819 C53.3287,12.4319 53.5677,14.4129 51.3057,13.2869 C51.2747,13.5749 51.5657,13.9499 50.9657,14.0959 L50.8607,13.3499 L48.1607,13.7349 C48.0807,14.1199 48.8217,14.0189 49.1437,14.1649 C47.4147,14.7389 47.1337,14.8699 46.1027,15.3579 C45.8217,14.1349 45.9387,15.0609 45.1747,15.3009 C43.8197,15.7249 43.9637,14.7319 43.7727,15.1189 C43.5457,15.3679 43.0247,16.4439 44.0127,16.7939 C43.6767,15.9439 44.5207,16.3679 45.3347,16.4159 C45.3897,16.0709 44.7447,15.5499 46.1257,15.5419 C46.1587,17.6279 42.1157,19.2999 45.8387,19.9499 C45.2977,20.4859 44.9597,20.1929 44.5457,20.5119 C45.3737,20.9249 46.7407,20.4609 47.7177,20.2549 C47.8287,20.5909 48.1007,20.8329 48.7257,20.8719 C48.5457,20.1009 48.8917,20.3909 49.6007,20.5579 C50.1787,20.1699 49.8407,19.5449 50.7857,19.2519 C50.2547,20.2549 50.8387,21.4859 50.4837,22.0009 C50.8407,21.8659 51.5317,21.8159 51.6337,21.9809 C50.3957,22.3479 51.8717,22.7549 51.7917,23.1009 C50.1587,23.8459 48.0847,22.9279 49.3327,21.9239 C48.3137,22.1189 47.6377,22.1189 47.4837,21.8059 C47.7547,21.7569 48.0067,21.7029 47.9037,21.5579 C48.6237,21.5369 48.3697,22.0869 49.7587,21.6759 C49.6067,21.3389 50.2037,21.1929 50.0987,20.8679 C48.4557,21.7909 48.4107,20.7569 46.9517,21.3109 C46.4557,21.8599 47.3757,22.1619 46.2647,22.9249 C46.6217,22.9169 47.1587,22.8049 47.1927,22.9849 C45.0227,23.5239 45.9697,22.2239 44.3607,22.4369 C45.4897,23.1969 45.9017,23.6979 46.9037,24.1639 C46.9367,23.8779 46.6457,23.5029 47.2467,23.3569 C47.2857,23.6029 48.0577,23.4179 48.1967,23.6049 C48.4837,24.2559 48.0287,25.2009 46.2177,25.7779 C47.2487,25.7749 46.5417,26.7989 46.8757,27.2059 C49.7997,26.4769 48.3197,28.1219 49.6827,27.5709 C48.7177,27.6459 50.2407,26.9049 50.4777,26.7019 L50.6627,28.0049 C49.6007,28.2679 48.6477,28.5589 47.0907,28.6909 C47.1727,29.7179 47.3817,30.2959 47.9147,31.2329 C48.0987,30.9849 48.3307,30.7459 48.7337,30.5519 C48.7917,30.9189 49.9927,30.6179 49.7377,31.1709 C47.6517,31.5219 46.1747,31.5169 44.7377,31.4839 C44.3387,32.1569 45.2277,33.1609 43.6537,33.5279 C44.2807,32.7359 43.5747,31.5999 44.6567,30.9259 C45.3717,30.8449 45.0787,31.3499 46.0597,31.1109 C47.3217,30.9529 47.1567,29.8039 45.9017,29.9969 C45.0457,30.2999 44.1587,30.6159 43.2817,30.9289 C44.2787,29.6999 44.0907,29.4849 43.8627,28.5729 C44.4577,28.4619 45.6277,28.9639 45.6887,28.5079 C44.2767,28.5159 46.1147,27.9349 46.5107,27.8239 C45.4017,26.2869 44.9327,25.1979 45.4447,23.6099 C42.5007,23.6019 42.7897,22.5729 41.5337,21.8849 C41.5167,22.2399 41.3247,22.5479 40.7357,22.7559 C40.7097,22.5709 40.3387,22.5859 40.2317,22.4479 C41.2407,22.0419 42.6297,20.8089 41.7917,20.5219 C41.7297,20.7609 41.3117,20.7059 40.8917,20.6489 C39.7937,21.2009 38.8197,23.2129 38.3857,22.3289 C37.5517,22.8419 38.2177,23.6099 38.6257,24.0009 C37.5007,24.1379 37.1807,23.8489 36.3737,24.3159 C36.7337,25.1359 37.9087,24.3089 38.7587,24.9299 C38.9757,25.6999 38.2177,26.2209 37.6437,26.7899 C36.5087,26.6959 38.3737,26.1139 37.0867,26.1099 C36.2357,26.6059 35.6127,27.1599 34.5477,27.6009 C33.8997,27.6179 33.7627,27.4849 33.1977,27.7869 C33.1997,27.3189 33.1537,26.8779 32.1687,26.9869 C32.2427,27.3299 31.8797,27.4279 31.2937,27.2989 C31.0867,27.7199 32.0267,28.4389 31.0317,28.6579 L29.6807,28.8479 C29.3467,28.4419 30.0537,27.4239 29.0207,27.4269 C27.8407,27.9509 27.6217,29.3489 29.1537,28.3559 C29.5907,29.1269 28.1887,29.8119 29.8407,29.9579 C30.0227,29.0909 30.9497,29.4489 32.9107,28.9619 C33.2857,29.5749 33.2787,29.3929 35.7137,29.3299 C35.8177,28.2829 36.4387,27.3729 38.5697,26.8489 C40.1947,26.9379 38.3247,28.6269 40.6627,28.6409 C38.9187,29.1259 39.4947,28.2509 38.3327,28.3979 C38.8937,29.2329 37.0947,29.0069 36.1417,29.0799 C36.5307,29.7339 39.1827,29.8589 37.7787,30.9339 C39.6457,30.4379 40.7297,31.6839 41.9857,31.4869 C41.7997,32.3619 42.5597,33.0889 40.4777,33.7779 C39.8017,33.2839 41.6627,32.5649 40.2917,32.4799 C39.9877,33.5899 37.2077,33.2619 35.9037,33.8439 C38.1517,33.8549 40.4327,33.4499 41.1127,35.0179 C40.1707,35.1459 38.8877,36.0829 39.8937,36.1299 C39.9637,35.9649 41.3977,36.1459 41.7237,36.0689 C40.4037,36.7959 40.5927,37.9199 39.8197,38.7899 C38.5007,38.7159 38.4167,37.9229 38.7057,37.4309 C37.0787,37.8509 37.6827,38.8099 38.5227,39.3469 C37.6317,39.4119 37.6667,39.7199 37.2257,39.9029 C36.0637,39.6439 35.3447,39.1259 34.7377,38.5419 C36.8097,38.4709 35.3877,36.9419 35.2917,36.0069 C33.8407,36.0129 32.9187,35.7089 32.0657,35.8859 C32.4287,35.5059 33.5717,35.1889 34.2857,35.3909 C33.8567,34.8449 33.4897,34.5729 34.6847,34.9579 C34.7467,34.2679 35.2447,33.9699 34.4717,33.4739 C32.7977,33.8819 32.3627,33.7749 31.3467,34.0959 C33.3647,35.1089 30.4307,36.2929 30.5047,37.8019 C32.1337,37.8579 33.8017,38.9459 33.4987,39.4669 C33.4737,39.1459 33.0787,39.0399 32.5167,39.0349 C32.2727,39.7309 32.3627,39.8049 31.8267,40.6419 C33.9227,40.5279 33.2937,39.7119 34.8697,39.4699 C34.2787,39.9939 33.8097,40.0379 34.9737,40.2099 C34.5867,40.4659 33.3247,40.4929 33.7097,40.9499 C33.8527,41.5329 35.3057,41.3569 35.6627,41.8159 C36.4597,41.3489 35.3487,41.5199 35.5317,40.8919 C36.9877,40.5789 37.2587,39.9659 38.6297,40.0899 C36.7317,40.5679 37.9427,41.6909 37.5437,42.1279 C36.6887,42.2259 37.1437,41.5579 36.1147,41.7569 C36.0317,42.2059 36.2917,42.4589 36.6947,42.6209 C35.8547,42.3869 35.3137,42.8589 34.9517,43.2369 C36.1007,43.3269 36.7407,42.4399 37.2017,42.9309 C37.2337,43.5949 36.0317,43.9379 36.0617,44.5989 C38.0357,44.5789 37.4107,43.8799 38.2097,43.5509 C39.0067,43.7569 38.7197,44.5929 38.8817,45.1629 C37.2727,45.7379 36.6197,45.3079 35.7317,45.5889 C36.0887,45.6989 36.0047,46.4169 37.6537,46.2749 C37.5147,45.8189 38.2667,45.6009 38.9057,45.3489 C39.7977,45.7629 38.8427,46.9249 37.3197,47.2669 C36.8197,46.0499 34.2467,47.1919 33.1027,46.5129 C33.1377,47.0089 31.9857,48.1139 32.8677,48.2439 C35.4467,47.2539 37.9407,47.7959 39.1687,47.3949 C39.6107,49.1099 36.7977,48.8839 35.3797,49.9839 C33.9537,49.7979 34.7447,48.6639 36.6087,48.8749 C36.7407,48.5109 37.2427,48.1509 36.4907,47.9439 C36.1397,48.2739 35.4127,48.4969 34.2877,48.6199 C33.6807,49.9369 34.9127,50.6739 32.3487,51.3369 C32.3857,51.1069 33.0947,50.8099 32.2787,50.7809 C31.8917,51.4279 30.2647,53.1399 31.6607,53.1279 C31.7077,52.9009 32.3447,52.8319 32.9857,52.7629 C32.7077,52.0879 33.8327,51.7899 34.6437,51.4069 C34.0947,52.0779 32.6727,52.7199 33.5067,53.2599 C32.2807,52.9549 30.7647,53.5859 30.4057,54.0509 C29.5377,54.0709 28.3917,53.2429 29.3387,52.8729 C29.1127,53.5289 30.3077,53.0489 30.7117,52.8769 C30.7837,51.9319 29.3487,52.9539 28.8427,52.5609 C28.8287,51.3879 30.3797,51.0269 28.5597,50.3349 C27.8267,50.9219 28.0807,51.7629 26.9737,52.2449 C27.8287,51.1069 26.7767,50.5349 26.1867,49.7099 C25.4087,49.7399 25.0717,50.1399 24.8367,49.8949 C24.7767,49.4569 25.5477,49.2409 25.1457,48.7199 C24.3017,48.8769 24.1257,48.6449 23.3267,48.7759 C23.5307,50.0879 21.4577,50.4289 22.7337,51.3059 C24.7707,51.0699 23.7507,50.8989 25.3607,50.3889 C25.9477,51.1869 25.3637,51.4379 26.4697,51.9379 C25.0357,51.6449 25.1567,52.8509 23.3447,52.5429 C23.3587,52.8019 23.6067,52.9229 23.8717,53.0379 C22.8797,52.7999 21.6317,53.4999 21.7117,54.0799 C22.2077,54.3909 23.7387,54.1059 23.6297,54.7669 L21.8287,55.0069 C22.3057,55.4929 22.3117,55.5209 21.9717,56.1159 C22.5047,56.0769 23.2467,55.9149 23.3487,56.1229 C22.3527,56.2759 23.2547,56.9329 23.0357,57.2939 C22.4967,57.2069 21.8057,57.2099 20.7647,57.4089 C21.0167,58.3799 18.8327,57.5989 19.0787,58.5719 C19.5127,59.8579 21.8527,62.6039 19.2917,63.8109 C19.7157,63.2679 20.2707,62.7589 19.9817,62.0259 C18.5147,62.0549 19.1067,62.6289 18.2507,62.8179 C18.5827,62.2249 18.5787,62.1969 18.1107,61.7099 C18.8897,61.6159 19.2427,61.4159 19.4127,61.1609 C16.8677,60.0139 20.0637,57.6509 16.5477,56.6509 C16.6607,57.2759 16.8487,57.9219 15.8347,58.2489 C15.5887,58.0599 15.3057,57.8939 14.8637,57.8149 C14.7547,58.0829 14.2707,58.2519 14.5087,58.6119 C15.1497,59.0169 17.1827,58.1139 17.2357,58.4399 C16.9857,59.0289 17.2787,59.7619 16.0717,60.0989 C15.5717,59.9869 15.8447,59.4349 14.6497,59.7209 C15.1417,60.7699 15.1727,60.8989 13.9877,61.6889 C14.4467,62.1819 14.6067,61.1709 15.7627,61.2659 C15.9657,61.6819 16.5637,61.8679 16.3757,62.5009 C14.0337,62.7719 14.1457,63.6949 13.4147,64.3939 C13.3427,63.7109 13.0557,63.1479 11.4497,63.3369 C11.2707,64.0619 12.7527,64.3529 11.6607,64.9989 C13.5107,64.6059 13.4207,65.3149 14.4577,65.3829 C13.5517,65.5589 13.3097,65.9099 12.7257,66.1739 C12.5967,64.9919 10.2607,65.0719 9.7237,64.1269 C13.0167,62.7459 8.0127,62.0829 9.2997,60.8049 C11.0807,60.6439 10.2257,61.9929 11.7357,61.9849 C12.1687,61.1269 14.0087,60.8079 14.2727,60.3349 L13.3737,60.4539 C13.3607,60.3519 12.9817,60.2939 12.9207,60.5159 C13.9817,60.3749 12.8247,61.0379 12.0657,61.0029 C13.3077,60.2969 11.1237,60.5399 11.4517,59.7709 C10.2037,59.7989 10.5947,60.2569 9.6997,60.3779 C8.4267,59.7699 10.5617,59.3069 9.4857,58.7159 C8.5267,60.1609 6.7257,62.0129 9.9577,62.4069 C9.5717,63.3349 7.2097,65.6379 10.0047,66.3399 C9.5337,65.7999 10.6197,65.6749 11.2607,65.4269 C10.8327,65.9639 12.7427,66.1279 11.4017,66.5329 C11.2817,66.4029 11.3367,66.1719 10.9057,66.2239 C10.6537,66.8289 11.4497,66.8349 11.4967,67.2729 C9.9777,67.3569 9.1887,68.5439 9.8347,68.6129 C10.4947,68.2119 11.0637,68.3759 11.6847,68.7489 C12.5007,68.1349 13.1377,67.4709 15.1457,67.1729 C15.7077,67.7649 16.4927,68.0779 15.3587,68.8349 C14.6847,68.7859 14.1887,68.7479 13.5127,68.6989 C14.2587,69.3159 11.4987,68.9979 12.2507,69.6139 C12.8527,69.4279 14.3017,69.4599 15.4037,69.2039 C14.2527,69.8429 16.0287,69.6909 15.9947,70.2539 C15.1027,70.3139 15.1337,70.6189 14.6967,70.7979 C14.4477,70.6069 14.1587,70.4409 13.7237,70.3609 C13.1607,70.8639 12.5047,71.3429 12.0847,71.8869 C12.1687,71.4419 10.7587,71.8489 10.6647,71.5069 C11.8447,71.0349 12.3677,70.2859 10.9267,69.9729 C10.7077,70.3299 11.6107,70.9849 10.6177,71.1389 C10.2787,70.7899 7.8757,70.6029 9.0987,70.0239 C11.3997,70.0659 6.7747,68.0169 8.2727,67.1289 C6.2037,67.6559 6.9907,66.4249 5.4987,66.9299 C5.8177,67.0759 5.8567,67.5289 6.1177,68.1599 C5.4967,68.2349 5.1357,68.3759 4.7877,68.5229 C5.0517,68.1009 5.5287,67.4739 4.2207,67.6579 C3.5627,68.4729 3.9277,69.1649 4.9307,69.6269 C5.5287,69.3099 5.0127,68.6979 6.1667,68.5289 C6.1997,68.7729 6.9737,68.5959 7.1137,68.7809 C7.6107,69.6239 6.1997,69.9649 5.0227,70.3619 C4.8057,71.8349 6.9087,71.0969 6.7077,72.7679 C4.9107,73.2229 5.1067,73.1729 5.4927,74.0479 C4.8487,74.0859 4.6997,73.8439 4.0997,73.8539 C4.0347,74.4909 4.9037,75.3739 2.9377,75.5019 C3.0217,75.1239 2.2837,75.2149 1.9637,75.0659 C2.0727,74.7969 2.5567,74.6309 2.3177,74.2709 C1.3697,74.2819 0.8177,74.0709 -0.0003,74.0089 C0.8607,75.5529 1.0847,76.6949 1.9367,78.4349 C1.8897,78.3409 2.2877,78.1769 2.3877,78.3769 C2.9787,79.5869 0.7807,82.1119 3.4007,82.7399 C3.4317,81.9879 2.1047,81.5859 3.6427,81.0239 C3.7557,81.4849 4.3847,81.6539 5.5357,81.5339 C5.5787,81.3069 5.3917,81.0189 5.9147,80.9239 C6.6217,81.5939 7.0717,80.8159 8.1687,80.6369 C7.7817,81.5869 11.6067,81.0419 9.9927,80.5929 C9.9107,80.7489 9.6417,80.8549 9.1157,80.8899 C9.4697,80.6289 9.6477,80.3219 9.4497,79.9119 C8.5847,79.8409 8.0127,80.6559 7.6497,80.1419 C8.3897,79.4679 9.0167,79.8659 10.7767,79.5559 C10.6457,78.8709 10.2057,79.0939 10.6337,78.4489 C7.3997,78.6029 9.0867,76.7579 8.5517,76.4669 C8.8717,76.7419 9.9537,76.5959 10.4227,76.7889 C11.3797,77.1179 9.7507,77.7819 11.0357,78.0219 C11.3407,77.5509 11.3387,77.3629 11.3017,76.4879 C10.2817,76.3429 9.4067,76.1129 8.9067,75.6709 C11.0577,75.6549 12.6107,75.2239 13.5747,76.3859 C12.9067,76.5029 11.9037,76.5309 11.7977,76.7999 C13.8387,76.5059 14.7157,77.9069 13.8567,78.5999 C14.0557,78.0739 13.2747,77.1099 12.8177,77.6069 C12.9877,77.8419 13.5027,77.8799 13.3607,78.2879 C12.5787,78.4029 11.9577,78.4259 11.5377,78.3339 C11.2197,78.9769 13.0517,78.3989 12.9817,78.8999 C11.9947,78.9909 11.5677,79.2329 11.7037,79.6249 C12.5677,80.0879 13.0317,78.9419 13.5007,79.3969 C13.9427,79.8719 12.9307,79.9539 13.1687,80.3759 C13.9737,80.3159 15.4037,79.9029 15.0227,80.5169 C14.3997,80.6049 14.0207,80.5559 13.6437,80.5059 C13.9347,81.4939 14.1807,81.3509 14.7787,82.2359 C14.3287,82.2929 14.2237,82.1529 13.8567,82.1649 C14.9537,82.7329 14.0697,83.6009 16.7707,83.4869 C16.1587,82.1319 17.6537,80.8819 15.5397,81.0149 C16.3737,79.7509 15.2257,78.5059 16.4927,77.7019 C14.7587,76.9529 13.8837,74.3099 18.8837,74.9539 C18.8097,74.6359 18.9167,74.3649 19.2427,74.1569 C16.6397,75.0549 19.3217,73.5859 18.2487,73.5339 C18.0437,74.2419 16.0907,73.3749 16.0187,74.0079 C17.0867,73.9229 16.0637,74.6999 15.6607,74.8059 C14.1257,74.5449 15.3977,73.9099 14.9797,73.0149 C13.8217,72.9159 13.6567,73.9269 13.1977,73.4319 C12.5247,72.7669 15.2077,72.4019 13.8407,71.2849 C15.1807,71.1069 15.3137,70.6069 16.4697,70.3819 C16.4147,70.7419 17.0317,70.7229 17.0167,71.0609 C16.1377,71.5039 16.1177,71.0379 15.2387,71.4799 C15.5287,72.3029 15.2547,73.4519 17.2997,73.2799 C17.6067,72.7089 16.6027,72.8839 16.7317,72.4119 C18.1137,72.0249 17.9107,72.1749 19.0087,72.3089 C19.1887,71.6749 18.5887,71.4879 18.3917,71.0719 C19.8217,70.7399 19.8487,70.0329 20.4757,69.4859 C20.5927,69.6159 20.5357,69.8489 20.9737,69.7989 C20.9987,69.5659 21.0497,69.3419 21.8307,69.3119 C22.1067,69.9209 21.7817,70.3709 21.5637,70.8499 C23.7667,70.8439 21.8467,69.7319 23.6977,69.6339 C23.1927,69.1289 22.3797,68.7969 22.1337,68.1419 C23.7077,67.8479 23.5867,67.7349 24.8407,67.7909 C24.9287,67.1429 22.8097,67.7589 23.3427,66.8559 C23.8897,66.9419 24.5827,66.9419 25.6237,66.7489 C25.4887,66.0289 23.7037,66.2539 22.7747,65.9869 C22.7357,66.2169 22.9207,66.5049 22.3977,66.6039 C21.9837,66.1349 21.7877,65.4209 20.9737,66.2229 C21.0657,65.6509 21.5717,65.1909 22.1607,64.7509 C21.8037,64.4259 19.4947,65.2199 19.8367,64.4899 C20.6217,64.3739 21.2447,64.3509 21.6607,64.4409 C21.5597,63.4579 21.1177,62.3889 22.7037,61.8569 C24.0717,62.2419 22.5867,62.8759 21.9717,63.2719 C24.4037,63.7429 23.0787,61.9809 25.4537,61.8729 C25.2507,61.4589 24.8097,61.1799 24.4107,60.8799 C25.3037,60.8169 25.2727,60.5119 25.7157,60.3309 C25.9837,61.3789 28.4207,60.5419 27.3017,62.0059 C28.8527,61.7729 28.1127,60.3409 27.9907,60.2189 C29.0087,60.7319 29.6727,59.9079 30.2647,60.1089 C30.6027,60.8159 28.6457,60.1199 29.0127,61.0279 C31.4167,60.6529 30.4467,59.3799 32.8717,59.0099 C31.9227,61.8549 36.4657,62.9789 34.0577,64.7089 C33.9737,64.4209 34.0337,64.0559 33.0827,64.2689 C33.2317,64.6069 32.6337,64.7419 32.7317,65.0669 C34.3267,64.5709 35.3117,65.4239 34.1997,65.8219 C33.4857,65.8989 33.7857,65.3959 32.8017,65.6259 C32.9087,65.8939 32.7277,66.3299 33.3447,66.3109 C34.3247,65.8299 35.2507,68.0109 34.1727,69.2199 C32.5127,69.0689 35.2057,67.6629 33.0887,67.8529 C33.6107,68.3539 32.1297,68.3129 31.3287,68.4589 C31.6337,69.9429 33.5847,70.4869 34.9087,71.3929 C32.9857,70.9819 34.0987,72.0249 33.6337,72.1229 C32.8677,71.5159 33.7547,70.2749 31.1177,70.3709 C31.1257,70.8519 31.1557,71.3349 29.8837,71.4709 C31.5787,69.9309 28.0477,66.9689 31.9247,65.9289 C32.0747,65.2409 32.3177,64.7029 30.8327,64.5619 C31.0927,64.8949 29.7427,65.6699 29.5577,65.2939 C30.3177,65.0799 29.4107,64.4179 30.3367,64.2479 C31.2317,64.1349 30.9757,64.6799 32.1827,64.3859 C31.7397,63.8679 32.0087,63.4489 31.5907,63.3309 C30.9167,63.5969 29.8677,62.9929 31.0227,62.4629 C29.1537,63.2039 30.1827,62.1409 28.6997,62.1999 C27.2117,63.0289 28.4037,63.4569 27.1337,64.2909 C28.8757,64.2169 27.5537,63.3279 29.2957,63.2539 C28.0597,64.8349 28.1457,67.4399 28.2257,69.2359 C28.2507,69.8199 30.3487,70.5979 27.9887,70.9629 C27.7077,70.7249 28.3917,69.9379 27.4187,70.0939 C27.2687,70.3509 26.8897,70.5479 26.1197,70.6389 C27.0337,71.4629 25.9887,72.2449 25.5267,73.1629 C26.9147,72.9669 26.9347,73.5509 27.0167,74.1019 C24.3837,74.2039 26.9927,74.7309 25.7627,75.0139 C25.1647,75.0909 25.3117,74.7429 24.8117,74.7609 C26.0677,75.1949 23.2687,75.9149 25.4227,75.9989 C25.9187,75.5349 25.8447,74.9199 27.0867,74.6579 C26.8877,76.2959 26.3447,77.6329 27.5827,78.5479 C27.8657,78.4639 28.0677,78.3739 28.2427,78.2809 C28.3137,78.2029 28.3677,78.1429 28.4367,78.0639 C28.4817,78.0679 28.4927,78.0689 28.5357,78.0739 C29.3287,77.4029 28.4187,76.6069 29.5517,76.0379 C29.6787,78.0129 31.2507,79.4299 30.2137,81.2289 C29.7857,80.7359 27.0007,80.5449 28.2017,79.7869 C28.9447,79.6959 28.5207,80.2729 29.1727,80.2309 C28.6217,79.4239 29.6137,79.0389 29.8607,78.4489 C28.8877,78.6259 29.2157,78.0659 28.5357,78.0739 C28.4497,78.1439 28.3677,78.2149 28.2427,78.2809 C26.5537,80.0459 27.4617,81.9569 29.0287,82.6959 C30.2667,82.4959 29.3917,81.7209 30.2387,81.4149 C31.2707,81.7339 31.1787,82.5549 30.4737,83.2689 C29.8757,83.0929 29.0787,83.0739 29.9307,82.5839 C28.5637,82.8879 29.0807,82.8209 27.6807,82.8659 C27.8527,83.4509 26.9817,83.7489 27.4187,84.4059 C29.2277,84.4799 27.4717,83.5869 28.6747,83.4939 C29.3247,83.9099 31.0867,83.3919 31.4247,83.5259 C31.8327,84.9189 30.9797,85.0189 28.9347,85.5339 C28.9227,85.0659 29.7097,84.8549 28.8177,84.6079 C27.2747,84.9619 26.9187,85.6389 26.2787,86.2419 C27.3367,86.3659 27.9107,85.5529 28.0827,86.0169 C29.1437,87.9239 29.3997,89.3809 24.8567,89.4269 C27.0947,91.3279 25.4777,91.6349 27.1767,93.2779 C26.0337,93.2029 25.5087,92.9669 24.9267,93.5539 C24.8057,93.4249 24.8637,93.1899 24.4267,93.2419 C24.9657,93.5409 25.8447,94.6749 26.3957,94.3159 C26.2237,94.0829 25.7077,94.0389 25.8487,93.6289 C26.6807,94.0809 27.8037,92.8019 28.5517,93.2969 C27.2037,93.5249 30.5477,94.0949 28.2937,94.8339 C28.3057,94.3659 28.2607,93.9249 27.2707,94.0179 C26.1607,94.7509 27.6627,95.3989 28.3427,95.2039 C27.9107,95.7399 29.8217,95.9189 28.4857,96.3159 C28.0477,96.0349 26.9817,95.9499 27.9067,95.4449 C26.2747,95.3529 27.7197,96.1079 26.6317,96.1639 C25.4227,96.6079 24.5437,95.9339 25.6567,95.7209 C25.7387,95.9409 25.8487,96.1419 26.6067,95.9819 C24.0207,94.8569 23.9817,93.6729 23.7857,91.8149 C24.4347,91.7799 24.5867,92.0249 25.1847,92.0189 L25.0907,91.2769 C23.8677,91.2089 22.4817,91.9609 22.3877,91.6109 C22.7957,91.1289 23.8607,90.8239 23.5727,90.1499 C22.3407,90.2849 22.7057,90.5709 21.7707,90.3729 C22.8097,90.9789 22.0747,91.5599 21.0127,91.5949 C22.6977,91.6819 20.0007,91.9989 20.6567,92.3889 C21.0437,92.9519 22.7507,92.4699 22.9797,92.6679 C21.9057,93.2859 21.6357,93.7319 21.3407,94.1839 C20.4147,94.2419 20.0927,93.9599 19.4677,93.8519 C19.1027,94.7169 21.0677,94.2709 20.9887,94.9779 C20.0947,95.0889 20.4797,95.5509 19.2297,95.5679 C17.6217,95.2479 20.2507,93.7739 18.0927,93.8309 C17.6337,94.4659 18.3737,94.7129 17.3797,95.4209 C16.9637,94.5569 18.0187,94.0969 17.1457,93.5719 C14.3717,94.6369 16.4347,96.0609 17.0967,96.7689 C17.1847,98.9039 13.4617,100.7199 16.9947,103.1539 C17.4497,102.3579 18.3757,102.8449 18.8247,103.1219 C19.2467,101.9029 19.1627,100.5099 17.1357,100.7009 C17.1457,100.2359 17.0987,99.8019 16.5457,99.6479 C19.0597,99.6459 18.0827,97.3169 17.4737,96.1569 C19.0357,96.4439 19.1027,96.1909 20.1557,95.6429 C20.1727,96.3579 20.3507,96.9839 21.2727,97.1959 C22.2117,96.6859 21.2607,96.3619 20.6767,96.1419 C21.2997,96.0739 21.6537,95.9339 22.0087,95.7919 C24.7467,96.7139 19.0867,98.8279 22.5287,99.8589 C23.0287,98.7109 24.5087,98.8879 25.4697,97.8129 C24.4907,97.9659 24.0127,97.8339 24.0437,97.4209 C24.4037,97.1009 24.6437,96.7529 25.7787,96.6449 C26.2937,97.1809 25.7317,98.0529 26.9387,98.5739 C27.0067,98.3529 27.4017,98.2229 27.7917,98.0929 C27.8487,98.4609 29.0497,98.1789 28.7897,98.7239 C28.2117,98.8039 28.1967,99.0369 27.4577,99.0719 C27.5437,98.4319 25.4657,99.0029 24.6847,98.8469 C23.9407,99.5339 23.3627,100.2689 21.7197,100.7069 C19.8657,99.8329 21.3797,97.0679 18.8977,96.5489 C19.3717,98.1759 18.3057,98.9079 19.3467,100.0569 C18.5787,100.2249 18.1557,99.9229 17.9927,100.2219 C20.8287,101.2189 22.8217,102.8549 24.1587,105.4829 C23.3637,105.2679 20.3017,107.5549 23.0207,107.500877 C22.9777,107.0069 22.4717,106.3869 24.2707,106.4089 C24.3307,106.0449 23.7157,106.0619 23.7317,105.7239 C25.8177,105.8229 24.4287,104.9649 25.4427,104.7679 C26.7707,104.8709 27.6647,103.9889 28.1457,104.4419 C26.8677,104.5659 27.0807,105.1019 26.4407,105.3999 L28.6907,105.1309 C29.5947,103.7639 27.5187,103.4669 28.8097,102.4829 C25.2257,102.7379 28.6107,100.8739 27.1747,100.4229 C27.1297,100.7059 26.1067,100.7249 25.3957,100.8279 C25.4877,101.7939 24.8837,102.4169 26.1337,102.9929 C26.2157,102.8369 26.0947,102.6269 26.5317,102.5679 C26.1627,103.4379 28.1397,102.9929 28.0517,103.7009 C21.0517,105.8079 24.1647,100.3149 26.5807,99.3679 C27.1237,99.3929 27.6297,99.4409 27.9817,99.5729 C28.2807,99.8679 27.5787,100.7279 28.5717,100.6309 C30.4577,100.9819 27.7117,104.9969 31.0747,105.9739 C30.9927,103.6329 30.6027,101.1409 30.3567,98.6779 C30.4347,98.6839 30.4967,98.6859 30.6157,98.6909 C32.2607,97.7159 30.8137,100.1569 32.5827,99.7699 C33.3917,98.9349 32.5847,98.1329 30.9947,98.0799 C31.0287,98.1659 30.6257,98.3029 30.3327,98.4269 C30.2197,97.2639 30.1337,96.1079 30.1437,94.9849 C30.8217,95.1299 30.8407,95.6499 32.0397,95.5059 C33.1517,94.1369 31.4427,92.6979 32.9927,92.1889 C32.6687,92.9729 33.0677,93.6449 34.1537,94.1159 C34.5597,93.5499 35.5307,93.5449 36.3607,93.4699 L36.3137,93.0999 C36.1907,92.9009 35.7747,92.8709 35.3607,92.8379 C35.2817,92.9939 35.3957,93.2059 34.9557,93.2659 C32.1727,92.4079 35.6907,87.8319 30.6177,87.9599 C29.3797,89.1509 31.6997,92.2779 30.9717,94.3189 C28.5357,92.9439 28.0227,91.4769 28.0087,89.0359 C29.2877,88.9089 28.9857,88.3499 30.1907,88.2019 C29.7607,87.3549 29.0787,86.5049 30.3327,85.7359 C29.7837,86.3739 30.6337,86.3689 30.5247,87.2179 C32.9857,86.5539 32.2037,87.7259 33.7727,87.5669 C33.9107,87.2279 33.0457,87.1749 33.6997,87.0129 C35.2217,88.1109 34.6277,90.4709 35.6687,91.6699 C35.6417,90.7779 37.9307,91.2519 37.9447,91.5789 C38.7487,91.0069 40.3997,90.3639 38.7237,90.5389 C40.0307,89.5659 39.9907,89.1029 40.7217,88.2159 C41.3217,88.1439 41.1787,88.4879 41.6707,88.4779 C42.3737,88.0949 41.7567,87.5829 41.0747,87.4159 C41.0727,87.7129 41.2177,88.0559 40.2467,88.0859 C38.7587,87.9049 38.6317,87.3989 38.2747,87.0099 L39.6337,86.8389 C39.4447,84.9129 38.8447,82.9109 40.6477,80.4809 C40.9517,80.7749 40.2407,81.6429 41.2407,81.5399 C41.2937,80.8749 42.4637,81.4009 42.5457,80.9979 C41.3777,80.9389 42.5417,78.7739 41.0517,80.0539 C40.3697,78.9069 42.2877,77.5219 43.9407,77.6089 C44.0187,77.7949 42.0477,78.2309 43.5657,78.2219 C43.9817,77.9179 44.2377,77.5689 44.8227,77.3079 C44.8247,78.0659 45.0417,78.1269 45.7727,77.5659 C45.9167,78.1469 45.9287,78.6899 45.0337,78.9839 C44.7527,78.7469 44.2747,78.6189 43.6147,78.5949 C44.5107,79.5819 43.6967,82.6119 45.5357,82.8919 C45.3307,83.2539 45.3997,83.6949 44.7527,83.9369 C45.0657,83.2319 43.5637,83.8879 43.4057,84.1039 C44.2607,84.2829 45.9517,83.9859 46.6277,84.2689 C46.1277,84.9099 44.2157,85.1649 45.0357,86.1679 C43.4597,85.7269 42.0007,87.5259 43.4227,87.8809 C44.5887,87.4309 45.9697,88.5619 47.6237,88.4939 C46.7117,88.6649 46.4697,89.0159 45.8937,89.2759 C45.6397,89.8869 46.7377,89.7299 46.4857,90.3389 C49.5617,90.0779 47.1337,91.2329 49.3307,91.1239 C48.8837,91.1789 48.8117,91.3399 48.4537,91.4189 C47.2237,91.6519 47.9447,90.7759 47.0047,90.8409 C46.7157,91.9199 45.8717,91.9419 44.4717,92.4759 C43.4987,93.5679 46.7217,93.3119 45.5617,93.8549 C44.8227,93.3679 42.4477,93.1149 41.9307,94.1089 C44.2297,94.3889 41.3327,96.2499 43.2377,97.1579 C44.1377,96.1519 43.4287,94.7009 44.1607,93.6469 C44.8057,94.2139 45.1397,94.9569 45.7787,95.5279 C47.2177,94.4189 48.3737,93.3669 48.5727,92.3519 C49.5107,92.3549 48.8247,93.2759 50.4697,92.8769 C49.4577,92.4249 51.2117,91.4389 49.3547,91.3099 C52.0357,90.9169 48.4387,90.6459 50.5437,89.8389 C50.5907,90.4119 52.2197,90.0869 52.0357,90.7919 L50.6867,90.9579 C52.1357,91.6909 50.4347,92.7929 52.3697,93.4019 C52.9497,92.7839 54.4477,92.4169 55.3797,91.8959 C55.8267,92.7399 55.0377,93.2429 55.1967,94.0029 C55.8137,93.9199 56.1967,93.9719 56.5717,94.0279 C55.4407,93.4089 56.4017,92.6599 56.7097,91.5459 C53.5227,92.1109 56.8177,90.1089 55.1417,90.0319 C55.3197,90.4409 55.1237,90.7469 54.3347,90.8889 C54.1087,89.8039 55.0727,89.0539 55.3607,88.1079 C55.2997,88.7529 55.6277,90.2079 56.4737,89.6789 C56.4167,89.4429 55.8627,89.4909 55.9497,89.1729 C57.4167,88.9599 58.1787,89.3449 58.1557,88.5239 C57.0747,88.3039 56.7667,89.1789 55.9037,88.7999 C57.0187,88.2979 56.4347,88.1839 57.5637,87.4599 C57.4467,87.7059 57.7837,88.6019 58.0807,87.9639 C58.4187,86.9749 58.5927,86.8719 57.0397,86.9529 C57.8857,86.4599 57.9087,86.6669 56.9697,86.3939 C57.6157,86.0929 58.1827,85.7689 58.6747,85.4229 C59.9617,86.4009 57.6317,88.4469 60.4797,88.8079 C60.9857,88.4049 60.4247,87.7099 61.2097,87.3889 C61.3877,89.2159 59.2957,90.3659 60.8607,91.7959 C61.2217,91.4749 61.4637,91.1209 62.5927,91.0159 C62.5207,91.3419 62.5227,91.6479 62.5697,91.9369 C61.7917,91.8129 61.7837,92.1819 60.8857,91.9819 C61.6457,92.2759 61.7237,93.2019 61.9037,92.8089 C62.6477,92.6919 62.2667,92.2649 62.5947,92.0359 C62.9927,94.0259 65.5887,95.2549 63.8607,97.3159 C63.6237,96.4409 62.8657,96.5359 63.1907,95.6889 C62.1887,95.7309 60.7747,96.5479 61.9327,96.5999 C62.4407,96.2039 60.6397,97.7619 62.9327,97.2369 C63.1437,97.9529 61.6047,98.0039 61.1517,97.6419 C62.0187,99.0239 60.9477,99.8939 62.4797,100.8969 C62.1237,100.1949 64.9267,100.3819 64.1457,99.5589 C62.5007,99.4619 63.9497,100.2269 62.8587,100.2839 C62.8267,100.0359 62.0517,100.2069 61.9107,100.0179 C62.5847,99.3329 62.5807,99.1429 62.1707,98.4679 C64.1867,98.9349 63.2317,98.1919 65.3017,97.9009 C64.9927,98.5449 65.7877,98.5649 66.3247,98.7289 C65.5787,99.1469 65.9737,99.9439 66.9407,99.9829 C66.7447,99.4529 66.9697,99.3259 67.7957,99.5029 C66.6947,98.3919 66.9477,97.3949 65.6107,96.7249 C67.3097,95.9349 66.7117,94.5519 65.2767,94.1069 C66.8307,93.9969 66.5617,93.3809 67.4407,93.0839 C67.4817,93.7889 67.0027,93.6799 67.5807,94.2069 C69.8957,93.9229 67.6337,93.3019 69.6907,92.8099 C69.8287,92.1969 68.4127,92.4619 68.2177,92.0379 C69.2387,91.5479 69.1647,90.9589 68.0497,90.7269 C68.6667,90.7119 68.9467,90.8899 69.8757,90.6949 L69.8247,90.3209 C69.7097,90.1859 69.7687,89.9519 69.3287,90.0019 C69.2507,90.1599 68.9837,90.2639 68.4517,90.2979 C68.6807,89.9319 67.0337,89.6819 68.3327,89.3609 C69.1977,89.9699 70.5287,89.2729 71.1317,89.7789 C72.3877,90.9629 69.8097,92.4619 71.2807,94.5199 C71.1047,93.7399 71.9697,94.4389 72.6317,94.3569 C72.6107,93.5589 73.8917,92.1869 73.2197,91.8089 C73.2487,92.0579 72.0047,92.1999 71.8717,91.9719 C73.9677,90.6079 71.1377,88.9139 74.5227,87.6509 C73.4817,87.8359 72.6337,88.2879 72.2467,87.7409 C73.2447,84.1939 71.4327,77.4639 71.7767,73.3239 C70.7527,73.6999 71.9057,71.8829 71.9907,71.3929 C71.4447,71.3699 70.9427,71.3209 70.5867,71.1909 C70.9127,70.7939 71.0767,70.3579 71.8267,70.0779 C71.0087,70.0089 70.2097,69.9299 70.3467,69.3149 L72.1537,69.0829 C71.1977,67.8429 71.3897,67.2929 73.1417,66.0999 C71.9877,65.9959 71.8247,67.0219 71.3697,66.5159 C71.7337,65.9769 72.0477,65.3079 70.7467,65.2629 C71.3407,65.1839 71.1197,64.8809 71.6007,64.7719 C71.6217,65.0959 72.0127,65.2079 72.5727,65.2169 C73.7177,64.3879 71.4837,63.7049 72.2627,62.7799 C70.5577,62.9779 71.7357,63.9609 70.1567,64.1939 C70.2387,63.7389 70.9367,63.3089 70.0127,63.0689 C70.5747,62.8019 71.6437,62.6709 72.2137,62.4039 C71.6747,61.7769 71.0927,61.1699 70.6007,60.5159 C71.2177,60.4439 71.5747,60.2979 71.9247,60.1529 C70.8917,59.3259 71.3977,58.2879 70.6907,57.6449 C73.2707,57.3689 70.9247,57.1719 70.2427,57.7029 C70.3627,58.3999 70.2157,59.0239 69.5597,59.5089 C68.8217,59.4629 69.5417,58.5769 68.1107,58.9369 C68.0417,65.9059 69.2217,71.4109 69.6747,78.3509 C70.4557,78.3269 70.7937,77.9299 71.0247,78.1809 C71.3157,79.4079 68.7977,81.1149 70.6027,82.0429 C70.6847,82.0769 70.7387,82.1009 70.7997,82.1269 C70.6457,82.1489 70.4407,82.2319 70.1997,82.4749 C68.6027,84.0729 72.5317,86.2819 70.4657,88.1489 C72.1847,87.8059 70.8857,89.0429 70.6087,89.2739 C70.0047,89.0829 68.3917,89.4629 68.2837,88.9869 C69.9067,88.6469 67.2217,87.7109 69.5657,88.2609 C70.1867,87.6689 69.8247,86.2209 68.5207,87.2459 C67.9737,86.8269 70.3757,86.3529 68.8527,86.2559 C69.4617,86.9419 65.9127,85.9149 67.3797,85.4859 C67.8627,85.6799 67.8997,86.1279 68.8267,86.0689 C69.4447,85.0489 69.7097,82.7199 67.8737,82.1909 C68.2427,81.2539 67.9477,80.6769 68.0147,79.7009 C68.0787,78.8419 69.2507,76.4079 64.9517,77.2319 C65.1847,77.8359 66.3627,77.8989 66.0717,78.8029 C64.9757,78.8639 65.1337,79.2659 63.8407,79.2729 C63.8267,79.0119 63.5767,78.8909 63.3177,78.7689 C63.4017,78.3089 64.8407,78.2249 64.5517,77.6639 C62.3447,78.1819 61.4717,76.5099 62.9837,76.1499 C63.0637,76.3719 63.1767,76.5759 63.9287,76.4109 C64.5147,75.3249 63.6257,73.9699 62.6497,73.5309 C61.1087,75.3709 59.8217,77.2959 56.9857,75.7689 C57.9067,75.9069 61.6137,75.0779 60.5147,74.7519 C60.2507,75.1959 60.5067,74.0729 59.4907,73.9329 C59.5677,73.4089 61.3507,73.3559 61.6537,72.8979 C59.2197,71.8959 62.9897,70.4069 60.7747,69.5889 C61.6047,69.3409 61.0167,68.9909 62.0987,69.2309 C62.1647,68.7049 60.0827,68.4009 61.4577,67.7899 C61.4777,68.1159 61.8647,68.2259 62.4307,68.2349 C62.4757,67.9479 63.4947,67.9249 64.2097,67.8159 C63.8877,66.7959 61.2937,67.0799 59.9447,66.6549 C59.6257,67.3059 61.1587,66.8919 61.3857,67.2309 C60.2377,67.1299 59.5907,68.0169 59.1377,67.5199 C59.7447,67.0849 58.9927,66.2779 59.8487,65.9069 C60.0037,65.8819 60.1477,65.8679 60.2967,65.8489 C60.5577,65.2309 59.0127,65.6489 59.2727,65.0299 C61.0727,64.7979 60.9427,64.0389 61.8307,63.5589 C60.8917,63.2079 59.4697,62.1979 61.1667,61.9329 C60.4447,61.5489 59.4677,61.3059 59.1787,60.6729 C62.4597,60.5869 64.0637,61.4689 64.9367,62.7759 C64.1517,62.9319 63.9697,61.7639 63.5187,62.3899 C62.8057,62.1929 62.6847,61.6639 62.4497,61.1949 C60.6607,61.5649 62.5317,62.0779 61.6887,62.4379 C62.0457,62.7689 63.1157,62.6879 63.5907,62.9509 C63.2177,63.3349 61.9697,63.4759 61.8797,63.9329 C61.9857,64.0729 62.3547,64.0639 62.3777,64.2489 C62.9617,63.9859 63.2157,63.6329 63.6377,63.3259 C64.2237,63.9249 65.0807,64.3689 65.2467,65.2079 C65.2157,64.5559 61.7407,65.2769 62.8797,64.5639 C61.4147,64.7549 62.1347,65.5359 60.8797,65.7819 C64.9437,65.4179 66.2757,67.1439 64.3547,68.9409 C64.0637,68.6369 64.0207,68.1909 63.3347,68.1199 C63.6557,68.9219 63.3467,69.2709 62.5727,69.3579 C63.0847,69.3309 63.3017,69.4759 63.5247,69.6159 C62.9447,69.6819 62.8717,69.4559 62.1477,69.6049 C61.8447,70.1799 62.8427,70.0079 62.7157,70.4819 C64.8327,69.8509 63.6357,69.3889 65.8447,69.8909 C66.6047,66.6729 66.6887,65.4539 66.7667,62.7299 C64.3077,62.5089 66.6457,60.5659 64.6257,60.3429 C64.6927,60.6609 64.3467,60.8669 63.7977,61.0219 C64.2387,60.3639 63.0337,60.6589 62.7997,60.3909 C63.8037,60.3539 63.8637,58.9909 63.0377,58.6479 C62.6707,59.0299 62.1047,59.3579 61.3307,59.6309 C60.3757,59.0789 60.7177,58.8309 60.2377,58.2529 C60.8157,58.1859 60.8957,58.4089 61.6127,58.2619 C61.4947,57.6599 61.2387,57.1409 60.5207,56.8849 C59.1377,57.1719 59.5437,57.9449 58.8917,58.4309 C58.6887,58.0099 58.0927,57.8209 58.2707,57.1819 C58.6667,56.9249 59.9287,56.9019 59.5497,56.4399 C59.0147,56.4829 58.2747,56.6419 58.1747,56.4329 C58.2447,55.9819 59.3217,55.8449 59.9517,56.0089 C59.1867,55.3099 62.6027,54.8089 60.6587,54.3929 C60.4737,54.9429 60.3217,55.5049 58.5337,55.6239 C58.2157,55.0819 58.7977,53.6179 56.8897,53.5619 C57.1827,52.9769 57.6807,52.4489 58.0537,51.8849 C56.9387,51.9089 56.5227,53.0129 55.8467,52.5589 C56.5697,51.8479 57.9897,51.3279 57.3857,50.2629 C55.5397,50.4529 57.4927,50.5119 57.0357,51.0699 C55.8057,51.3639 56.0107,51.2399 55.3037,51.8719 C55.6357,50.9979 56.1437,50.1709 56.3407,49.2639 C54.2587,49.3409 55.4387,48.8359 55.7487,48.1999 C55.1297,48.2939 54.7527,48.2439 54.3777,48.1969 C53.3267,48.5769 54.8137,49.6339 53.6967,49.9959 C53.6537,49.7519 52.8777,49.9319 52.7427,49.7439 C53.2487,48.3519 54.7257,45.6049 50.9407,46.3769 C50.5557,47.1349 52.5067,46.5389 52.8347,46.8819 C51.0087,47.3109 52.2567,47.4369 51.6277,48.1849 C53.1157,49.2309 52.1517,51.2369 52.2257,52.8519 C51.9017,52.5699 50.8217,52.7269 50.3507,52.5299 C51.7377,50.6179 51.2877,48.6069 50.0677,46.6849 C51.1127,46.4949 50.2177,45.8309 49.9467,45.7529 C52.1497,45.2059 51.6157,43.7699 53.8017,43.7109 C52.4717,42.9739 54.0357,41.7119 51.7037,41.7179 C51.8057,42.3399 51.2257,42.7879 50.5357,43.2049 C49.3937,42.7359 51.5477,41.1729 49.8247,41.4029 C50.3117,41.1129 50.2447,40.6769 50.1177,40.2269 C50.6927,40.1579 50.7727,40.3819 51.4927,40.2289 C52.3997,39.6049 50.7807,37.8969 53.9497,38.1849 C52.7507,38.4229 51.9127,39.7889 53.7157,39.7359 C54.5847,39.3459 54.8197,38.2199 53.6337,39.1779 C53.3387,38.6259 54.0697,38.1989 54.9017,38.4349 C55.7667,37.8609 53.9467,37.3029 54.6887,36.9459 C55.6437,36.9949 55.2077,37.8509 56.6237,37.6309 C56.4947,36.4599 56.9577,35.4439 58.9817,34.8349 C59.1967,34.1009 58.0987,34.1419 58.3137,33.4079 C58.9477,33.2739 59.0287,32.9959 59.6157,32.8469 C60.5677,33.6239 59.4947,34.7279 60.8837,35.3359 C59.9147,36.1199 55.3837,36.8809 58.8467,37.1359 C57.5287,37.3149 57.4467,38.2079 56.2057,37.8759 C56.3547,39.4039 56.6977,39.1999 57.0247,40.4249 C59.1707,39.7339 57.5967,38.0659 61.2317,37.7619 C60.5717,38.9299 63.8367,37.6859 62.1317,37.6389 C61.2897,38.1309 61.2077,35.9019 63.3487,36.5209 C61.2937,35.8079 63.2507,35.1519 61.2257,34.5269 C62.1317,34.0679 62.4947,33.9259 63.8977,33.9719 C64.5127,33.1379 61.9447,34.1709 62.0187,33.6559 C63.8217,32.5039 63.2377,30.4129 63.7077,29.4269 C63.7527,29.6729 64.5247,29.4869 64.6607,29.6759 C63.8717,30.1479 64.9777,29.9769 64.7937,30.6099 C64.3427,30.6729 64.2387,30.5329 63.8697,30.5489 C64.7767,31.2179 65.3637,31.6659 63.6847,32.4759 C64.7077,32.2819 65.3817,32.2879 65.5317,32.6029 C63.7317,33.6399 66.4467,35.1089 64.6947,36.3359 C65.1537,36.6749 66.6587,36.3989 66.6317,37.0249 C65.8527,37.1199 65.4967,37.3269 65.3307,37.5809 C65.3127,39.8539 67.4017,44.3149 67.1997,47.3059 C67.2417,47.2749 67.3377,47.2399 67.5207,47.1959 C68.1847,50.3179 67.8817,51.4879 67.5087,54.2509 C68.4307,54.3209 69.4757,54.3199 69.8607,54.7019 C68.6457,55.0009 68.9037,54.4489 68.0067,54.5649 C68.0207,54.8439 67.7427,57.5119 69.2217,56.8839 C68.7197,56.4029 67.9387,55.3689 69.8817,54.8919 C69.6767,55.3149 68.6727,55.6649 69.5477,55.8879 C71.9447,54.8989 69.8247,54.0879 71.9407,53.0939 C72.0247,52.6429 70.6157,53.0559 70.5167,52.7079 C70.6217,51.9839 72.3227,50.3299 72.8817,49.7259 C71.5187,49.0749 72.5317,48.1119 71.2427,47.6529 C73.1537,46.9819 70.8077,46.2389 72.3267,45.4079 C70.8637,45.4359 71.4617,46.0179 70.6027,46.2109 C71.2317,45.3739 68.6517,46.4059 68.7337,45.8909 C69.1887,45.2509 69.9697,44.7019 68.9637,44.1419 C69.8587,44.0199 69.4697,43.5519 70.7157,43.5239 C70.3737,42.4769 71.1767,42.0129 70.4287,41.2739 C70.8997,40.7389 72.1787,41.4279 72.6557,40.7799 C71.9657,40.5099 71.5067,40.1069 71.1357,39.6489 C69.9557,39.6059 69.6707,40.6699 68.9107,40.1429 C69.3407,39.9359 70.0187,39.8719 70.6237,39.3379 C69.9207,39.0119 69.5677,39.7219 69.2507,39.3339 C69.2667,38.9779 69.4597,38.6689 70.0437,38.4639 C70.2997,38.6559 70.5827,38.8219 71.0287,38.9029 C71.5337,38.0639 70.1257,38.3509 69.5417,38.1499 C70.9407,33.9369 69.5597,30.1049 67.5167,27.1839 C67.4797,27.4139 67.6667,27.7039 67.1477,27.8079 C66.9837,26.6639 68.1377,26.3839 67.6437,24.8799 C66.9387,24.5569 66.5807,25.2669 66.2667,24.8799 C69.5067,24.3339 66.2427,19.8519 68.4067,20.5759 C68.0987,20.0249 69.3367,19.5239 67.8717,20.0789 C67.7117,19.5559 67.6747,19.0679 69.0947,18.9549 C69.8037,19.6839 69.2837,20.3649 68.9597,21.2629 C70.8177,20.1619 70.4837,18.7089 70.2787,17.6419 C70.0767,16.5819 68.9717,16.0949 69.4557,15.0869 C69.9107,14.1359 70.3567,12.8559 68.5767,12.1559 C69.1047,12.0509 69.8607,12.0079 69.8997,11.7779 C68.6787,11.7919 68.3957,11.8149 67.5967,11.7239 C67.4897,11.3959 67.9777,11.2229 68.8937,11.1569 C68.8897,10.3499 67.4447,10.3949 66.8857,9.9169 C67.4967,9.8209 67.8817,9.8639 68.2567,9.9139 C69.3657,7.1289 64.0517,5.9009 65.6277,4.3729 C66.3717,4.2689 65.9577,4.8559 66.6087,4.8049 C67.4407,4.3279 66.6497,4.0989 66.4467,3.6839 C65.1217,3.8259 65.1297,4.3039 63.8057,4.4459 C63.3117,3.7909 65.1727,3.3539 65.9737,3.5589 C66.0577,3.1019 66.4037,2.7099 66.7157,2.3069 C66.0337,2.3059 65.5417,2.1959 64.8587,2.1949 C64.4987,2.5809 64.8367,3.1489 64.1177,3.4449 C64.2057,2.5449 63.0657,2.3739 63.8527,1.5759 C61.1607,1.8989 62.7587,-0.3371 59.9637,0.0439 C61.2357,1.3269 59.1767,1.7589 60.4447,3.4059 Z" id="Fill-1" stroke="none" fill="#FFD55B" fill-rule="evenodd" mask="url(#mask-4)"></path>
                            </g>
                        </g>
                    </g>
                    <path d="M17,12.5 L95,12.5" id="Path-74" stroke="#FFFFFF" fill-rule="nonzero"></path>
                    <path d="M17,31.5 L95,31.5" id="Path-74-Copy-2" stroke="#FFFFFF" fill-rule="nonzero"></path>
                    <path d="M34.2963766,22.5 L95,22.5" id="Path-74-Copy" stroke="#FFFFFF" fill-rule="nonzero"></path>
                </g>
            </g>
        </g>
    </g>
</svg>