<svg xmlns="http://www.w3.org/2000/svg" xmlns:xlink="http://www.w3.org/1999/xlink" viewBox="0 0 894.648 284.433">
  <defs>
    <style>
      .cls-1 {
        fill: #fff;
      }

      .cls-2 {
        fill: #eaeaea;
      }

      .cls-3 {
        mask: url(#mask);
      }

      .cls-4 {
        mask: url(#mask-2);
      }

      .cls-5 {
        mask: url(#mask-3);
      }
    </style>
    <mask id="mask" x="837.124" y="238.669" width="57.526" height="45.763" maskUnits="userSpaceOnUse">
      <g id="l">
        <path id="k" class="cls-1" d="M837.125,238.669H894.65v45.763H837.125Z"/>
      </g>
    </mask>
    <mask id="mask-2" x="70.486" y="232.863" width="3.171" height="14.756" maskUnits="userSpaceOnUse">
      <g id="n">
        <path id="m" class="cls-1" d="M70.486,232.863h3.171v14.756h-3.17Z"/>
      </g>
    </mask>
    <mask id="mask-3" x="0" y="92.445" width="3.46" height="5.474" maskUnits="userSpaceOnUse">
      <g id="p">
        <path id="o" class="cls-1" d="M0,92.445H3.46v5.474H0Z"/>
      </g>
    </mask>
  </defs>
  <title>phisic-img-2</title>
  <g id="Шар_2" data-name="Шар 2">
    <g id="Шар_1-2" data-name="Шар 1">
      <g>
        <g>
          <path class="cls-2" d="M604.227,35.809l8.641,12.77,15.38-1.1,6.74-13.868-8.642-12.77-15.379,1.1-6.74,13.868Zm8.1,13.89-9.337-13.8,7.283-14.988,16.622-1.185,9.338,13.8-7.284,14.987L612.323,49.7ZM630.93,47.93,639.57,60.7l15.38-1.1,6.74-13.868-8.642-12.77-15.379,1.1L630.93,47.93Zm8.1,13.891-9.338-13.8,7.284-14.987,16.621-1.186,9.34,13.8-7.285,14.988ZM603.8,156.451l9.65,7.029,10.912-4.841,1.265-11.872-9.65-7.03-10.912,4.84Zm9.518,8.268-10.655-7.764,1.395-13.11L616.11,138.5l10.654,7.763-1.395,13.11-12.05,5.347ZM675.054,47.787,683.7,60.558l15.38-1.1,6.74-13.869-8.642-12.77-15.379,1.1-6.74,13.868Zm8.1,13.89-9.339-13.8L681.1,32.888,697.718,31.7l9.338,13.8-7.284,14.988-16.62,1.186Z"/>
          <path class="cls-2" d="M608.106,36.19l.363-1.253c1.149-3.982,2.336-8.1,4.545-11.558l.835.535c-2.13,3.338-3.3,7.384-4.428,11.3l-.364,1.257Zm22.668-2.265c-.321-2.7-1.92-4.792-3.61-7-.7-.913-1.42-1.856-2.057-2.856l.837-.532c.612.964,1.32,1.89,2.006,2.785,1.7,2.22,3.455,4.514,3.808,7.488l-.984.117Zm-16.843,12.3.181-.974c2.42.45,4.7-.166,7.108-.817a20.336,20.336,0,0,1,6.013-.99l-.036.99a19.346,19.346,0,0,0-5.719.956c-2.413.651-4.906,1.325-7.547.835m70.259-7.66-.116-.984c4.744-.565,9.305-.767,13.14-.891l.033.991c-3.815.123-8.35.324-13.056.884m1.467,17.729a28,28,0,0,0-6.378-8.825l.686-.714a28.9,28.9,0,0,1,6.6,9.135Zm11.394,1.116-.716-.686a2.507,2.507,0,0,0,.243-.29c.018-.055.255-.73.506-1.447,1.047-2.99,3-8.556,4.2-10.222l.805.578c-1.117,1.552-3.108,7.239-4.066,9.97a9.966,9.966,0,0,1-.637,1.7,3.7,3.7,0,0,1-.33.4m9.681-10.774-.46-.877c2.548-1.338,5.128-1.155,7.624-.976a21.3,21.3,0,0,0,3.8.05l.108.985a22.237,22.237,0,0,1-3.98-.047c-2.358-.17-4.794-.342-7.094.865M703.565,69.1a16.967,16.967,0,0,0-4.626-8.821l.694-.707a17.935,17.935,0,0,1,4.9,9.317l-.967.21ZM666.8,49.671c-.224-.661-.428-1.307-.629-1.942a36.539,36.539,0,0,0-1.525-4.221l.9-.411a36.716,36.716,0,0,1,1.568,4.334c.2.628.4,1.268.624,1.92l-.939.32Zm4.105,1.509a46.621,46.621,0,0,0-1.264-10.11l.953-.266a47.163,47.163,0,0,1,1.3,10.325l-.99.051Zm-17.265,13.8-.28-.95a32.407,32.407,0,0,0,3.384-1.272,22.5,22.5,0,0,1,5.081-1.66l.16.979a21.361,21.361,0,0,0-4.857,1.595,33.539,33.539,0,0,1-3.488,1.308m.772,5.048-.544-.83a36.319,36.319,0,0,1,10.622-4.477l.255.956a35.348,35.348,0,0,0-10.333,4.35m-1.244,5.828-.41-.9A130.119,130.119,0,0,1,671.02,68.1l.273.952a129.434,129.434,0,0,0-18.123,6.807m-44.24-18.9a19.3,19.3,0,0,1,2.4-6.021c.39-.726.784-1.457,1.143-2.213l.895.425c-.366.772-.767,1.517-1.165,2.257a18.247,18.247,0,0,0-2.3,5.712ZM610.6,22.242c-.422-.806-.812-1.677-1.187-2.52-1.128-2.524-2.29-5.145-4.587-6.55l.52-.843c2.554,1.586,3.785,4.33,4.972,6.99.386.866.751,1.685,1.16,2.463ZM655.088,26.1l.364.5a1.91,1.91,0,0,0-.432.438c-.839,1.167-.629,2.4-.108,2.779.468.336,2.562-.923,3.346-2.012,1.1-1.531.508-4.256-.1-4.692-.513-.37-1.57.228-2.1.97a8.368,8.368,0,0,0-.968,2.014m-.755,4.524a2.633,2.633,0,0,1-.762-2.8l-.129-.052c.153-.384.295-.8.438-1.215a11.792,11.792,0,0,1,1.372-3.045c.736-1.024,2.357-2.01,3.486-1.2,1.11.8,1.7,4.164.324,6.075-.794,1.1-3.47,3.142-4.729,2.237M601.058,63.577c-.036-.019-.083.014-.13.078-.515.716-1.49,4.351.217,5.58a1.68,1.68,0,0,0,2.585-.5c2.06-2.865,2.779-6.883.2-9.068a1.885,1.885,0,0,0-1.171.83,4.572,4.572,0,0,0-.916,2.663l.02.99Zm-.491,6.462c-2.278-1.639-1.2-5.906-.443-6.962a1.183,1.183,0,0,1,.75-.5h.01a5.847,5.847,0,0,1,1.07-2.652c.788-1.095,1.972-1.483,2.506-1.1,3.16,2.587,2.422,7.23.075,10.492A2.648,2.648,0,0,1,600.567,70.039Z"/>
          <path class="cls-2" d="M606.558,73.171a65.359,65.359,0,0,0,.62-7.78c.038-.98.076-1.951.13-2.913l.99.057c-.054.955-.092,1.922-.131,2.9a65.91,65.91,0,0,1-.63,7.9l-.98-.156Z"/>
          <path class="cls-2" d="M607.378,69.764l.367-.92a3.21,3.21,0,0,0,2.8.074l.46.877a4.218,4.218,0,0,1-3.623-.03"/>
          <path class="cls-2" d="M610.668,73.661a18.111,18.111,0,0,1-.1-7.925l.969.2a17.159,17.159,0,0,0,.1,7.49ZM593,8.9a32.354,32.354,0,0,0,1.444-7.462l.989.065a33.3,33.3,0,0,1-1.487,7.69L593,8.9Z"/>
          <path class="cls-2" d="M593.93,5.959,594.167,5a10.186,10.186,0,0,0,3.025.114c.376-.023.747-.045,1.106-.052l.021.989c-.347.008-.7.03-1.068.052a10.885,10.885,0,0,1-3.322-.142"/>
          <path class="cls-2" d="M596.985,9.937a17.3,17.3,0,0,1,.508-3.564,16.465,16.465,0,0,0,.486-3.357l.99,0a17.355,17.355,0,0,1-.508,3.562,16.412,16.412,0,0,0-.485,3.358Zm7-5.608.74.532-.328.452c-1.3,1.81-1.359,2.84-.2,3.674.25.179,1.01.726,2.345-1.132,1.555-2.161.917-6.182.315-6.615-.278-.2-.369-.262-.458-.246-.128.02-.518.192-1.352,1.353a9.408,9.408,0,0,0-1.063,1.982Zm-2.815,6.123c.283-.843.508-1.735.746-2.68a17.378,17.378,0,0,1,2.327-6c.818-1.136,1.416-1.66,2-1.753a1.434,1.434,0,0,1,1.121.37c1.183.85,1.8,5.514-.019,8.048-1.666,2.316-3.05,1.845-3.728,1.357a3.159,3.159,0,0,1-.937-1q-.25,1-.573,1.98l-.938-.315ZM728.232,39.869a1.791,1.791,0,0,0-2.608.415,8.769,8.769,0,0,0-1.043,2.538l-.194.632-.134.1a2.284,2.284,0,0,0-.507.5,2.167,2.167,0,0,0,.523,2.977c1.035.744,2.86.527,4.2-1.341,1.826-2.538.936-4.975-.241-5.82m-4.541,7.965a3.106,3.106,0,0,1-.155-4.982l.1-.316a9.6,9.6,0,0,1,1.188-2.832,2.769,2.769,0,0,1,3.992-.64c1.5,1.08,2.687,4.116.467,7.2-1.721,2.392-4.162,2.59-5.587,1.567m7.367,2.723a26.191,26.191,0,0,1,.921-4.578,25.256,25.256,0,0,0,.892-4.406l.988.08a25.912,25.912,0,0,1-.922,4.579,25.435,25.435,0,0,0-.893,4.407Z"/>
          <path class="cls-2" d="M732.043,47.906l-.462-.878a4.514,4.514,0,0,1,3.05-.167,4.634,4.634,0,0,0,2.06.083l.266.954a5.45,5.45,0,0,1-2.508-.063,3.652,3.652,0,0,0-2.407.07"/>
          <path class="cls-2" d="M733.963,52.979a55.209,55.209,0,0,1,1.67-8.843l.962.237a54.246,54.246,0,0,0-1.645,8.688l-.987-.081ZM708.568,68.172c-.514,1.432-1.5,4.25-.3,5.117.814.584,2.3.51,3.832-1.617,1.77-2.46,1.774-4.776.009-6.045-.778-.56-1.388-.6-2.378.775-.217.31-.426.627-.625.948-.184.29-.362.572-.538.822m-.877,5.92c-1.831-1.316-.666-4.558-.04-6.3l.07-.143c.18-.25.362-.535.547-.83.21-.334.428-.678.658-1,.754-1.048,1.965-2.294,3.76-1,1.692,1.216,2.763,3.89.22,7.428-1.957,2.719-4.032,2.692-5.215,1.84m7.092,2.671a24.947,24.947,0,0,0,1.913-4.478,25.664,25.664,0,0,1,2-4.657l.849.51a24.663,24.663,0,0,0-1.913,4.477,25.785,25.785,0,0,1-2,4.657l-.85-.51Z"/>
          <path class="cls-2" d="M716.545,73.606l-.46-.877a4.406,4.406,0,0,1,2-.373,3.649,3.649,0,0,0,1.565-.258l.461.877a4.446,4.446,0,0,1-2,.372,3.645,3.645,0,0,0-1.567.259"/>
          <path class="cls-2" d="M717.764,78.625a23.648,23.648,0,0,0,1.6-5.107,30.977,30.977,0,0,1,1.264-4.4l.92.367a30.124,30.124,0,0,0-1.22,4.263,24.608,24.608,0,0,1-1.678,5.318Zm-56.4,1.57c-.01.2-.026.421-.046.668-.072.938-.208,2.683.315,3.06.594.426,2.927.332,4.91-2.426,1.869-2.6,1.944-4.008.278-5.206-1.684-1.21-2.738-.344-4.464,2.056a7.7,7.7,0,0,0-.993,1.848m-.31,4.531c-.974-.7-.836-2.5-.724-3.94.02-.265.04-.506.047-.706l.029-.15a8.7,8.7,0,0,1,1.146-2.16c1.226-1.7,3.076-4.276,5.847-2.283,2.723,1.958,1.5,4.43-.052,6.588-2.19,3.046-5.111,3.5-6.293,2.651m7.935,2.631a22.927,22.927,0,0,0,1.418-3.9,18.051,18.051,0,0,1,2.388-5.591q.2-.279.423-.547l.762.635c-.135.16-.262.324-.381.49a17.32,17.32,0,0,0-2.242,5.3,24.178,24.178,0,0,1-1.484,4.068l-.884-.45Z"/>
          <path class="cls-2" d="M671.217,83.727l.035-.99a16.41,16.41,0,0,1,1.737.187c1.363.2,2.65.381,3.754-.284l.511.848c-1.4.848-2.932.63-4.4.417a15.712,15.712,0,0,0-1.632-.178"/>
          <path class="cls-2" d="M674.23,90.307a46.217,46.217,0,0,1,3.523-11.893l.9.41a45.029,45.029,0,0,0-3.446,11.641l-.98-.158Zm148.648,28.841a6.96,6.96,0,0,0-6.154-.917,6.081,6.081,0,0,0-3.619,3.713c-.93,2.39-.9,5.707,1.357,7.333a4.437,4.437,0,0,0,.988.53,2.269,2.269,0,0,1,.263.135l.061.035a5.854,5.854,0,0,0,.757-.56,3.807,3.807,0,0,1,2.737-1.175,1.5,1.5,0,0,1,.756.269,2.434,2.434,0,0,1,.71,2.025c0,.127.008.294.021.42a3.1,3.1,0,0,0,2.523-1.7,12.686,12.686,0,0,0,.872-1.814c.838-2.154,1.787-6.095-1.272-8.294m-9.045,11c-2.726-1.96-2.81-5.832-1.733-8.6a7.143,7.143,0,0,1,4.261-4.337,7.867,7.867,0,0,1,5.42.134c4.043,1.57,5.3,5.538,3.375,10.483a13.642,13.642,0,0,1-.949,1.967,4.141,4.141,0,0,1-3.646,2.248.781.781,0,0,1-.486-.144c-.387-.278-.4-.791-.42-1.335-.01-.428-.03-1.018-.26-1.183a.493.493,0,0,0-.227-.072,2.859,2.859,0,0,0-1.954.938,5.5,5.5,0,0,1-1.084.754,1,1,0,0,1-.957-.131.969.969,0,0,0-.112-.061,5.417,5.417,0,0,1-1.228-.663"/>
          <path class="cls-2" d="M824.583,119.879l-.69-.827c1.67-1.393,3.5-2.827,5.28-4.212,2.17-1.7,4.416-3.447,6.455-5.2l.7.818c-2.058,1.768-4.313,3.528-6.494,5.233-1.769,1.38-3.6,2.807-5.253,4.188m1.3,2.81-.435-.987c2.357-1.037,4.62-3.049,7.013-5.179a51.482,51.482,0,0,1,5.1-4.167l.605.893a50.311,50.311,0,0,0-4.99,4.08c-2.353,2.091-4.783,4.254-7.3,5.36"/>
          <path class="cls-2" d="M844.055,103.475a7.785,7.785,0,0,0-1.729-.928c-3.054-1.188-5.77.03-6.3,1.39-.5,1.284.193,3.147.806,4.79.246.659.478,1.279.641,1.868a5.382,5.382,0,0,0,1.962,2.884h0a3.833,3.833,0,0,0,.858.472c2.3.9,4.676-1.14,5.641-3.623a5.469,5.469,0,0,0-1.88-6.853m-5.25,10.879a6.474,6.474,0,0,1-2.37-3.47c-.15-.544-.377-1.145-.613-1.78-.679-1.823-1.45-3.89-.8-5.557.8-2.054,4.157-3.382,7.7-2.006a8.881,8.881,0,0,1,1.967,1.059,6.563,6.563,0,0,1,2.256,8.119c-1.159,2.976-4.107,5.375-7.037,4.236a4.973,4.973,0,0,1-1.1-.6M806.133,133.6c-1.619-.532-4.578-1.065-5.634,1.648a6.812,6.812,0,0,1-.472.884c-.3.51-.81,1.363-.743,1.717l.028.152-.056.143a3.954,3.954,0,0,0,1.584,4.9,14.931,14.931,0,0,0,1.53.7c3.672,1.428,5.993.524,7.3-2.845a5.473,5.473,0,0,0,.183-3.475,4.99,4.99,0,0,0-1.037.59c-.9.584-2.022,1.314-2.9.682a1.467,1.467,0,0,1-.41-.459,3.336,3.336,0,0,1,.622-4.636m-6.325,10.07a5.066,5.066,0,0,1-1.6-5.786,4.645,4.645,0,0,1,.9-2.3,6.359,6.359,0,0,0,.395-.723c1.06-2.723,3.885-3.5,7.56-2.067l.2.107a.654.654,0,0,1,.28.494c.022.365-.243.607-.548.89a2.31,2.31,0,0,0-.546,3.405.425.425,0,0,0,.11.133c.277.2,1.156-.37,1.68-.713.834-.542,1.621-1.053,2.258-.594a1.08,1.08,0,0,1,.4.611,6.557,6.557,0,0,1-.212,4.163c-1.535,3.943-4.46,5.107-8.7,3.46a16.211,16.211,0,0,1-1.642-.752,4.314,4.314,0,0,1-.53-.327m.626-40.388a4.512,4.512,0,0,0-.99-.53c-2.323-.9-6.18-.576-7.188,2.01-.264.678-1.149,6.31.487,7.165a15.208,15.208,0,0,0,1.531.7c3.672,1.428,5.992.524,7.3-2.845.8-2.048.975-4.978-1.142-6.5m-8.427,9.453c-2.257-1.622-.917-7.948-.755-8.365,1.3-3.335,5.9-3.668,8.582-2.624a5.559,5.559,0,0,1,1.23.66c2.617,1.882,2.452,5.36,1.518,7.767-1.535,3.942-4.461,5.107-8.7,3.46a16.211,16.211,0,0,1-1.642-.752,1.84,1.84,0,0,1-.235-.146m25.772,43.025a6.582,6.582,0,0,0-1.437-.77c-2.98-1.16-7.833-1-8.96,1.9-.3.777-1.132,7.1,1.057,8.2.672.34,1.332.636,1.956.879,4.716,1.834,7.592.93,9.058-2.84.867-2.223.946-5.491-1.673-7.375m-10.163,10.094c-2.587-1.861-1.537-8.585-1.24-9.352,1.424-3.66,7.027-3.81,10.355-2.516a7.575,7.575,0,0,1,1.677.9c3.12,2.245,3.055,6.058,2.05,8.642-1.685,4.333-5.2,5.5-10.453,3.453q-1.047-.411-2.052-.921a2.424,2.424,0,0,1-.337-.2"/>
          <path class="cls-2" d="M808.305,118.438c-.947-.681-1.869-1.386-2.777-2.08a62.049,62.049,0,0,0-5.412-3.84l.56-.922a63.567,63.567,0,0,1,5.506,3.9,49.773,49.773,0,0,0,6.7,4.569l-.506.952a35.7,35.7,0,0,1-4.073-2.583m3.937-1.405a71.232,71.232,0,0,1-10.017-8.712l.782-.744A70.544,70.544,0,0,0,815.6,118.025l-.59.9q-1.4-.915-2.764-1.894m-7.248,18.379a48.887,48.887,0,0,1,5.437-7.714l.966-1.2.843.672-.971,1.206a47.8,47.8,0,0,0-5.325,7.544l-.95-.506Z"/>
          <path class="cls-2" d="M805.855,138.864c-.52-.374-.977-1.176-.848-2.876l-.038-.01.038.01,0-.064-.026-.011c.044-.181.158-.663.655-.583l.447.668c-.1,1.143.1,1.888.513,2.054,1.114.433,5.11-4.555,6.614-6.433.706-.882,1.266-1.58,1.633-1.963l.779.742c-.333.35-.906,1.067-1.571,1.9-3.278,4.094-6.134,7.429-7.845,6.763a1.563,1.563,0,0,1-.355-.192m6.048,15.252c1.355-5.74,2.1-10.47,3.049-16.46.387-2.456.807-5.117,1.316-8.14l1.062.18c-.507,3.018-.926,5.677-1.315,8.128-.948,6.012-1.7,10.762-3.063,16.539l-1.05-.247Z"/>
          <path class="cls-2" d="M815.561,154.731c.628-4.248,1.321-8.14,1.934-11.573,1.224-6.856,2.2-12.309,1.376-14.192a3.518,3.518,0,0,0-1.755,1.312l-1.006-.39a4.259,4.259,0,0,1,2.781-2.007.85.85,0,0,1,.857.426c1.124,2.07.2,7.23-1.192,15.042-.611,3.423-1.3,7.308-1.928,11.54l-1.067-.157Zm7.351,8.259a10.437,10.437,0,0,1-2.181-2.089l.852-.66a9.33,9.33,0,0,0,1.958,1.874,30.77,30.77,0,0,0,7.146,3.115,39.123,39.123,0,0,1,5.516,2.205l-.516.946a38.971,38.971,0,0,0-5.353-2.134c-2.752-.957-5.6-1.945-7.422-3.257m-3.843,3.151.437-.985a159.235,159.235,0,0,1,14.35,7.556l.689.394-.534.937-.69-.394a157.769,157.769,0,0,0-14.252-7.508M794.02,170.9l-.6-.9c1.3-.868,2.726-1.746,4.106-2.6a55.411,55.411,0,0,0,8.345-5.827l.733.788a56.225,56.225,0,0,1-8.513,5.958c-1.372.843-2.791,1.717-4.071,2.573m1.72,4.512-.5-.954a88.532,88.532,0,0,0,12.438-8.426l.66.85a89,89,0,0,1-12.6,8.53"/>
          <path class="cls-2" d="M792.575,170.054a5.332,5.332,0,0,0-7.5,1.348c-2.171,3.018-1.4,6.31,2.069,8.8,3.369,2.423,5.7.74,6.312-.112a6.118,6.118,0,0,0,.7-3.313,16.281,16.281,0,0,1,.159-2.04,4.527,4.527,0,0,0-.78-3.783,5.186,5.186,0,0,0-.963-.9m-6.061,11.026c-3.953-2.844-4.84-6.794-2.313-10.308a6.475,6.475,0,0,1,9-1.594,6.184,6.184,0,0,1,1.167,1.1,5.542,5.542,0,0,1,1.01,4.638,15.378,15.378,0,0,0-.146,1.909,6.941,6.941,0,0,1-.9,3.9c-1.141,1.586-4.163,2.988-7.82.359m59.313-12.929c-3.34-2.4-7.722-2.265-9.567.3-1.674,2.328-1.221,5.923.055,8.124a7.319,7.319,0,0,0,2.085,2.254c4.249,3.056,9.753,2.1,11.835-.8a4.435,4.435,0,0,0,.514-4.223c-.653-1.856-2.356-3.814-4.922-5.66M837.769,179.7a8.379,8.379,0,0,1-2.385-2.587c-1.45-2.493-1.94-6.6,0-9.294,2.223-3.092,7.19-3.34,11.07-.547,2.787,2,4.574,4.082,5.31,6.176a5.465,5.465,0,0,1-.654,5.21c-2.381,3.309-8.59,4.458-13.341,1.042M789.25,196.948c-2.46-1.77-8.774-2.57-11.3.943-.758,1.056-1.847,5.448,1.585,7.44,3.9,2.256,9.462,1.787,11.44-.962,1.754-2.437.525-5.8-1.722-7.421m-10.79,8.974c-3.477-2.5-2.387-7.27-1.386-8.66,3.009-4.185,10.1-3.134,12.805-1.19,2.669,1.92,4.1,5.965,1.969,8.926-2.313,3.215-8.44,3.818-12.854,1.269a6.232,6.232,0,0,1-.534-.345m28.252,12.987.38.914a4.877,4.877,0,0,0,1.738,2.23c3.6,2.586,8.688.152,10.261-2.036,1.8-2.5-.39-6.092-2.66-7.727-2.709-1.947-6.76-2.464-9.258,1.009a6.911,6.911,0,0,0-.929,6.259l.468-.65Zm1.488,4.018a6.009,6.009,0,0,1-1.872-2.164.89.89,0,0,1-.59-.172c-1.144-.823-1.6-4.918.56-7.922,2.8-3.892,7.532-3.577,10.762-1.255,3.026,2.177,5,6.326,2.906,9.233-1.729,2.4-7.448,5.386-11.766,2.28Zm33.118-23.418c-2.707-1.946-6.76-2.461-9.257,1.01-2.34,3.255,1.1,8.35,1.657,8.753,3.6,2.588,8.689.154,10.262-2.035,1.8-2.5-.39-6.093-2.662-7.727m-8.23,10.638c-1-.717-4.65-6.438-1.9-10.258,2.8-3.892,7.532-3.577,10.76-1.255,3.026,2.176,5,6.325,2.908,9.232-1.73,2.4-7.45,5.386-11.766,2.28"/>
          <path class="cls-2" d="M782.086,194.688c.478-1.8,1.077-3.63,1.658-5.393a58.494,58.494,0,0,0,2.391-8.756l1.063.171a58.8,58.8,0,0,1-2.43,8.922c-.576,1.749-1.17,3.56-1.64,5.332Zm4.344-.092c.5-1.807,1.032-3.59,1.561-5.354.727-2.428,1.412-4.723,2.012-7.048l1.042.268c-.6,2.345-1.325,4.757-2.02,7.088-.527,1.76-1.058,3.535-1.557,5.334l-1.038-.288Zm7.815,11.8q-1.13-.808-2.194-1.7l.695-.825c.653.553,1.372,1.11,2.128,1.654a82.731,82.731,0,0,0,7.753,4.745c1.466.825,2.98,1.676,4.438,2.564l-.56.92c-1.444-.878-2.948-1.725-4.406-2.545a83.246,83.246,0,0,1-7.854-4.81m-5.984.9.375-1.012a32.352,32.352,0,0,1,7.432,4.358c2.95,2.106,5.736,4.1,9.213,4.712l-.188,1.061c-3.717-.656-6.733-2.811-9.65-4.9a31.579,31.579,0,0,0-7.182-4.222m29.7,5.449-.57-.914a57.326,57.326,0,0,0,5.032-3.7,39.2,39.2,0,0,1,7.885-5.28l.448.98a38.309,38.309,0,0,0-7.663,5.143,57.259,57.259,0,0,1-5.132,3.771m2.769,4.357-.632-.874c.954-.688,1.88-1.437,2.858-2.229,2.963-2.4,6.03-4.88,9.82-5.5l.173,1.064c-3.509.571-6.46,2.962-9.317,5.274-.946.766-1.923,1.56-2.9,2.265m17.456-19.76-.873-.629a2.266,2.266,0,0,0,.384-1.446c-.163-2.848.775-5.392,1.682-7.853a20.754,20.754,0,0,0,1.673-6.9l1.077.014a21.521,21.521,0,0,1-1.739,7.254c-.909,2.466-1.767,4.794-1.617,7.42a3.328,3.328,0,0,1-.587,2.135m3.749,2.688c.438-1.972.777-4.014,1.1-5.991.75-4.507,1.522-9.167,3.541-13.543l.98.452c-1.96,4.244-2.722,8.83-3.457,13.268-.329,1.989-.672,4.048-1.116,6.05l-1.052-.235Zm3.68,4.62.444-.98c4.735,2.149,10.184,4.673,14.965,7.434l-.54.934c-4.738-2.738-9.944-5.151-14.87-7.387m-2.008,4.2.425-.99c1.4.6,2.862,1.11,4.28,1.6,3.223,1.124,6.561,2.288,9.39,4.56l-.675.841c-2.693-2.16-5.787-3.238-9.069-4.384-1.437-.5-2.92-1.018-4.35-1.63"/>
          <path class="cls-2" d="M858.7,213.429c-.05.063-.11.147-.162.221-1.518,2.11,1.342,4.326,1.932,4.75,2.334,1.68,7.392,1.651,9.014-.605,1.046-1.452.956-3.889-1.711-5.807-3.18-2.287-5.568-2.095-7.511.606a8.22,8.22,0,0,0-.518.826l-.293.537-.5-.357c-.083-.06-.168-.116-.256-.17m1.139,5.845c-2.03-1.46-3.818-3.972-2.183-6.247.253-.349.447-.62.8-.7a.95.95,0,0,1,.624.087c.1-.153.2-.3.306-.45,1.586-2.205,4.436-4.144,9.013-.852,3.123,2.245,3.349,5.378,1.958,7.312-1.98,2.752-7.79,2.815-10.521.85M797.5,233.523c1.033-1.769,1.97-3.661,2.879-5.489a59.594,59.594,0,0,1,4.753-8.408q.383-.534.794-1.049l.842.669c-.261.331-.517.667-.76,1.01a58.705,58.705,0,0,0-4.664,8.255c-.916,1.846-1.862,3.755-2.912,5.556l-.932-.544Zm3.483,2.547a101.46,101.46,0,0,1,8.514-13.233l.876.63a100.361,100.361,0,0,0-8.426,13.088l-.963-.485Z"/>
          <path class="cls-2" d="M795.5,234.315c-2.708-1.948-6.793-2.178-8.941.81-2.125,2.953-1.59,5.251,1.793,7.683,5.289,3.805,10.686,2.245,12.547-.343,1.958-2.722.446-6.008-1.4-7.336a2.888,2.888,0,0,0-2.984-.375l-.31.134-.253-.217c-.146-.124-.3-.243-.454-.356m-7.778,9.368c-1.41-1.014-5.7-4.1-2.04-9.187,2.618-3.641,7.605-3.3,10.719-.851a3.943,3.943,0,0,1,3.73.61,6.458,6.458,0,0,1,1.643,8.839c-2.438,3.391-8.5,4.58-14.052.589"/>
          <g class="cls-3">
            <path class="cls-2" d="M883.76,239.811a9.17,9.17,0,0,0-.605,3.817c-.009.87-.015,1.193-.389,1.367-13.2,6.07-43.97,28.923-44.54,35.457a2.537,2.537,0,0,0,.768,2.47c5.7,4.1,38.377-18.613,50.486-27.711l.317-.237.321.23a7.359,7.359,0,0,1,.817.742,8.434,8.434,0,0,0,.914.827,1.7,1.7,0,0,0,.948.408.474.474,0,0,0,.415-.235c1.392-1.936-.875-11.051-8.174-16.3l-.317-.231a6.349,6.349,0,0,0-.962-.6M838.366,283.8a3.549,3.549,0,0,1-1.215-3.44c.656-7.513,32.06-30.208,44.916-36.228,0-.14,0-.335.01-.514.015-1.267.038-3.391.947-4.654.518-.722,1.606.06,2.326.578l.317.23a23.021,23.021,0,0,1,7.747,9.977c1.35,3.364,1.621,6.512.671,7.829-.237.33-1.144,1.312-2.866.073a9.017,9.017,0,0,1-1.046-.941c-.136-.134-.267-.264-.389-.378-5.89,4.408-44.2,32.664-51.419,27.468"/>
          </g>
          <path class="cls-2" d="M878.452,250.714c-25.146,16.229-34.143,24.489-34.2,26.634,0,.12.034.148.065.172,2.022,1.453,19.663-6.612,37.672-21.018a26.328,26.328,0,0,1-1.8-2.947,26.021,26.021,0,0,0-1.736-2.841m-34.724,27.628a1.171,1.171,0,0,1-.486-1.022c.085-3.308,12.855-13.4,35.037-27.7l.36-.232.29.315a20,20,0,0,1,2.145,3.358,19.838,19.838,0,0,0,2.012,3.174l.362.4-.42.339c-17.233,13.873-36.33,23.506-39.3,21.37m43.35-25.148a10.945,10.945,0,0,0-1.555-2.055c-1.1-1.24-2.228-2.52-2.367-4.465l1.012-.072c.113,1.6,1.086,2.7,2.115,3.863a11.908,11.908,0,0,1,1.69,2.256l-.895.473ZM706.142,130.03c1.11,2.652,2.135,5.716,3.215,8.948,2.681,8.02,5.453,16.312,9.932,19.533,7.11,5.113,14.088-2.62,22.17-11.573,7.751-8.586,16.527-18.308,27.341-18.406,2.142-3.742-5.288-13.577-10.026-16.985l-.557-.409c-.85-.612-1.224-.688-1.767.067a2.648,2.648,0,0,0-.194,1.688,2.951,2.951,0,0,1-.29,2.014l-.077.092c-7.34,8.031-18.48,9.35-29.257,10.627-7.032.832-14.3,1.694-20.49,4.4m12.555,29.3c-4.744-3.412-7.57-11.862-10.3-20.035-1.137-3.4-2.21-6.61-3.38-9.328l-.2-.455.452-.207c6.434-2.936,13.965-3.827,21.245-4.69,11.078-1.312,21.54-2.552,28.64-10.315a2.411,2.411,0,0,0,.093-1.33,3.41,3.41,0,0,1,.38-2.36c1.226-1.707,2.6-.72,3.183-.3l.557.41c4.6,3.305,13.408,14.04,10.121,18.61l-.154.212h-.26c-10.489-.068-19.187,9.568-26.86,18.072-8.06,8.926-15.672,17.358-23.517,11.715"/>
          <path class="cls-2" d="M762.434,128.179a30.445,30.445,0,0,1-2.919-5.02A29.6,29.6,0,0,0,756.7,118.3l.8-.62a30.539,30.539,0,0,1,2.92,5.022,29.517,29.517,0,0,0,2.813,4.854Zm-17.862,1.573.342.475a.888.888,0,0,0-.2.191,1.949,1.949,0,0,0,.65,2.331.752.752,0,0,0,.512.165.837.837,0,0,0,.528-.4c.4-.549.664-1.415.4-1.6-.661-.477-1.05-.755-1.26-.952a1.193,1.193,0,0,0-.978-.211m.205,3.82a3.114,3.114,0,0,1-1.132-3.262l-.712-.512a2.192,2.192,0,0,1,3.25-.629l2.88,2.07-1.18-.417a3.187,3.187,0,0,1-.652,2.289,1.8,1.8,0,0,1-1.215.809,1.72,1.72,0,0,1-1.24-.348m-15.054,13.4a2.41,2.41,0,0,0,.891,2c1.47,1.057,2.808-.563,3.184-1.085a1.791,1.791,0,0,0-.092-2.412,1.6,1.6,0,0,0-2.027-.03,7.15,7.15,0,0,0-1.592,1.743l-.364-.219Zm.3,2.827a3.652,3.652,0,0,1-1.247-3.662l.737.118a7.034,7.034,0,0,1,1.6-1.649,2.6,2.6,0,0,1,3.186.05,2.8,2.8,0,0,1,.322,3.826c-1.35,1.88-3.113,2.384-4.6,1.317Zm-6.45-15.4a4.223,4.223,0,0,0,.9,1.256,1.807,1.807,0,0,0,2.594-.358c.44-.612.649-1.121-.693-2.086-1.11-.8-1.61-.477-2.65.97l-.156.219Zm.312,2.079A7.239,7.239,0,0,1,721.8,131.9l1.012.036a3.994,3.994,0,0,0,.28,1.4c.779-1.058,1.93-2.343,3.878-.942,1.57,1.127,1.855,2.208.925,3.5a2.812,2.812,0,0,1-4.011.588Zm10.086,2.79c-.793-.57-.058-1.592.185-1.928l.825.592a2.367,2.367,0,0,0-.329.56,2.62,2.62,0,0,0,1.443-.075,1.773,1.773,0,0,0-.414-.906.577.577,0,0,0-.478-.065l-.165-1a1.6,1.6,0,0,1,1.234.244c.617.443,1.058,1.847.723,2.31a2.883,2.883,0,0,1-3.024.27m-18.336-2.859a1.384,1.384,0,0,0,.735,1.293c.546.393,1.24-.264,1.563-.713.553-.77.771-1.818.18-2.244-.735-.527-2.043,1.17-2.426,1.7l-.052-.038Zm.143,2.116a2.341,2.341,0,0,1-1.115-2.468,5.036,5.036,0,0,1,.955-1.866l.418.3c1.218-1.126,2.1-.976,2.668-.567,1.15.827.883,2.5.051,3.659-.875,1.217-2.07,1.595-2.977.944ZM630.345,162.7l-5.25-3.776.63-.875,5.25,3.776Zm1.92,7.319a3.971,3.971,0,0,1-1.077-1.159,4.653,4.653,0,0,1,.265-5.108c2.708-3.762,7.25-4.283,9.068-2.977a1.784,1.784,0,0,1,.765,1.155,1.908,1.908,0,0,1-.406,1.441,3.486,3.486,0,0,1-1.205,1.026l-.5-.955a2.442,2.442,0,0,0,.83-.7.93.93,0,0,0,.217-.639.732.732,0,0,0-.33-.453c-1.3-.934-5.16-.608-7.563,2.733a3.567,3.567,0,0,0-.226,3.911c.74,1.194,2.205,1.709,4.02,1.413l.172,1.063a5.323,5.323,0,0,1-4.03-.75m25.117-10.693.578.91a9.384,9.384,0,0,0-2.54,2.34c-1.464,2.036-.988,3.75-.559,4.057,1.386,1,6.31-.115,8.977-3.824.76-1.055,2.522-4.355.731-5.642-2.6-1.873-5.937.386-7.815,2.589.2-.15.411-.292.628-.43Zm-4.842,7.686a16.751,16.751,0,0,1,2.791-7.188c2.443-3.4,6.731-5.79,9.868-3.533,2.426,1.745.745,5.438-.485,7.148-2.783,3.868-8.355,5.6-10.482,4.069a1.85,1.85,0,0,1-.562-.7c-.023.126-.044.25-.065.377l-1.065-.171Zm-8.227-5.082-.174-1.064a10.17,10.17,0,0,1,3.44.128l-.171,1.065a9.145,9.145,0,0,0-3.1-.13m-.2,3.509-.174-1.064a7.107,7.107,0,0,1,2.127.017c.292.034.583.069.893.08l-.038,1.076c-.34-.012-.661-.048-.98-.086a6.214,6.214,0,0,0-1.828-.023M639.6,177.987a5.721,5.721,0,0,1-1.71-2.8l-.1-.27,1.01-.38.1.28a5,5,0,0,0,1.326,2.3l-.628.875Zm-1.886,10.927-.875-.629a121.225,121.225,0,0,1,8.66-11.11l.795.727a120.876,120.876,0,0,0-8.58,11.012"/>
          <path class="cls-2" d="M642.478,190.115c-.55-.4-.277-1.254,1.542-6.99.461-1.45,1.008-3.177,1.642-5.214l1.03.32q-.814,2.613-1.645,5.221c-.706,2.23-1.256,3.961-1.538,5.006.279-.307.6-.672.913-1.032a75.011,75.011,0,0,1,7.534-7.674l.709.813a73.976,73.976,0,0,0-7.431,7.57c-1.633,1.87-2.072,2.372-2.66,2.041a.807.807,0,0,1-.1-.06m3.646,4.182-.875-.63c.673-.933,1.32-1.865,1.964-2.788s1.269-1.822,1.915-2.72a57.077,57.077,0,0,1,4.246-5.321l.8.727A56.053,56.053,0,0,0,650,188.79c-.643.894-1.272,1.8-1.905,2.706-.647.928-1.3,1.864-1.974,2.8"/>
          <path class="cls-2" d="M648.274,190.177l.366-1.015c.639.231,1.268.53,1.873.817a9.214,9.214,0,0,0,3.5,1.143l-.038,1.078a10.124,10.124,0,0,1-3.927-1.248,19.318,19.318,0,0,0-1.776-.775"/>
          <path class="cls-2" d="M648.657,200.468l-.843-.672q1.008-1.266,1.95-2.583c1.278-1.776,2.522-3.657,3.724-5.474s2.43-3.672,3.69-5.424l.875.63c-1.248,1.734-2.477,3.59-3.667,5.389-1.207,1.826-2.458,3.716-3.748,5.509q-.957,1.338-1.981,2.625m-.725,6.084c-.2-.14-.6-.545-.105-1.237a5.859,5.859,0,0,1,2.491-1.69,6.917,6.917,0,0,0,2.99-2.11c1.15-1.6.48-2.083.035-2.4-.138-.1-.286-.194-.437-.29s-.337-.22-.5-.337l.628-.875c.147.106.3.206.456.306s.328.212.48.322c1.34.963,1.41,2.242.211,3.906a7.875,7.875,0,0,1-3.416,2.46,5.559,5.559,0,0,0-1.983,1.233,27.845,27.845,0,0,0,3.8,2.41l-.477.965a29.733,29.733,0,0,1-4.17-2.66M798.261,49.874q3.422-3.83,6.6-7.867c7.113.367,13.877,1.792,19.285,5.681.565.407.833.791.8,1.142-.039.382-.467,1.186-2.9,2.282-4.494,2.025-12.846,3.791-21.989,5.043-.528-1.99-1.13-4.1-1.793-6.281M800.887,64.8c.956,5.845.1,6.873-.178,7.049s-.81,0-1.494-.492a15.776,15.776,0,0,1-6.34-8.782c-.568-1.643-1.066-3.082-2.358-4.013l-.158-.108.1-.11c2.95-.281,5.92-.619,8.82-1.012.691,2.726,1.25,5.263,1.608,7.468m-18.424.544q-.3-2.427-.466-4.871c.08-.382.176-.762.273-1.142a3.462,3.462,0,0,1,.84-.414c1.408-.085,2.838-.184,4.282-.3a7.811,7.811,0,0,1,1.147.2q-3.061,3.243-6.076,6.529m-21.67-9h0c-.644-.464-.705-.91-.214-1.592,3.913-5.439,10.541-9.1,20.078-11.074.12,3.4.106,6.073.09,8.477-.009,1.959-.016,3.8.046,5.775-9.689.445-17.743.037-20-1.585m20.242-15.376q-.23-2.312-.51-4.62c-.874-7.406-2.337-19.8,0-23.044.137-.192.231-.188.34-.162,2.321.556,7.655,11.985,12.3,24.744q-1.356,1.648-2.653,3.342a84.873,84.873,0,0,0-8.823,1.148,4.342,4.342,0,0,0-.65-1.408m16.857,7.7q-1.038-3.345-2.17-6.661c2.611-.1,5.228-.141,7.81-.053q-2.731,3.432-5.64,6.714m-.439,2.114q.827,2.745,1.558,5.517c-2.449.322-4.943.608-7.43.85q2.97-3.151,5.872-6.367m-5.506-9.654c.515-.663,1.06-1.347,1.64-2.06.23.639.454,1.278.68,1.92l-.119.006c-.75.035-1.473.086-2.2.134m-10.105,15.8q-.042-2.38-.018-4.764c.015-2.456.03-5.193-.1-8.7q3.678-.7,7.918-1.075c-.167.225-.33.449-.492.672a49.914,49.914,0,0,0-7.309,13.863m5.456.6c-.308-.028-.63-.049-.979-.057a10.937,10.937,0,0,0-3.315.35l-.32.018a48.137,48.137,0,0,1,7.342-14.143c.338-.469.692-.946,1.055-1.431q1.524-.115,3.117-.19c.145-.007.291-.012.437-.018q1.289,3.741,2.452,7.521c-2.344,2.622-4.74,5.189-7.124,7.725q-1.339.122-2.665.225m28.812-36.8a71.271,71.271,0,0,1-9.274,16.889q-1.2,1.669-2.472,3.292c-2.974-.131-6-.084-9.008.041-.324-.944-.657-1.885-.99-2.822.185-.225.38-.457.572-.688a78.3,78.3,0,0,0,5.4-5.688c4.453-5.03,8.67-9.791,15.767-11.024M822.487,52.1c2.264-1.021,3.418-2.055,3.531-3.158a2.384,2.384,0,0,0-1.24-2.124c-5.42-3.9-12.09-5.4-19.108-5.839.7-.905,1.38-1.817,2.042-2.739a71.23,71.23,0,0,0,9.72-18.006l.29-.824-.866.112c-8.037,1.029-12.756,6.357-17.319,11.509-1.29,1.457-2.613,2.948-4.018,4.357l-.15-.129c-.43.5-.84.988-1.24,1.465-.068.062-.132.128-.2.189-4.6-12.637-9.939-24.131-12.823-24.816a1.342,1.342,0,0,0-1.46.582c-2.579,3.584-1.2,15.268-.195,23.8a58.744,58.744,0,0,0,1.154,5.92l.01.2C770.7,44.617,763.8,48.426,759.7,54.123a2.014,2.014,0,0,0,.46,3.1h0c2.564,1.844,10.84,2.287,20.674,1.822l.011.2c-.956,1.321-.007,6.918.207,8.373.082.549,6.2-5.863,8.435-8.233l.122-.13c1.228.72,1.65,1.956,2.245,3.677a16.908,16.908,0,0,0,6.731,9.306c1.091.784,2,.963,2.69.533.781-.484,1.7-1.855.674-8.139-.34-2.092-.907-4.633-1.629-7.44,9.35-1.311,17.815-3.132,22.165-5.091"/>
          <path class="cls-2" d="M789.943,51.1a2.426,2.426,0,1,1,3.385-.553,2.43,2.43,0,0,1-3.385.553m3.462-4.813a3.5,3.5,0,1,0,.8,4.89,3.509,3.509,0,0,0-.8-4.89"/>
        </g>
        <g>
          <path class="cls-2" d="M88.481,244.989c-5.944,1.427-11.97.913-17.8.413-6.188-.529-12.587-1.076-18.787.758l-.264-.893c6.368-1.88,12.855-1.328,19.131-.787,5.753.49,11.7,1,17.5-.394l.216.9Zm-35.135-.634-.9-.229a9.931,9.931,0,0,0-.295-5.013,13.692,13.692,0,0,1-.53-4.19l.928.061a12.746,12.746,0,0,0,.505,3.914,10.782,10.782,0,0,1,.289,5.457"/>
          <g class="cls-4">
            <path class="cls-2" d="M73.657,247.437l-.91.182c-.974-4.856-1.571-9.387-2.261-14.637l.92-.119c.688,5.23,1.283,9.748,2.25,14.574"/>
          </g>
          <path class="cls-2" d="M72.135,225.924l-.922-.105a13.366,13.366,0,0,0-.27-3.61,13.768,13.768,0,0,1-.188-4.976l.912.177a13.077,13.077,0,0,0,.193,4.649,13.976,13.976,0,0,1,.275,3.865m6.1.994-.89.27a36.274,36.274,0,0,1-1.191-7.895c-.1-1.281-.2-2.61-.366-3.9l.92-.122c.173,1.315.275,2.657.373,3.952a35.451,35.451,0,0,0,1.154,7.693m.312-20.141a.515.515,0,0,1-.084.09c-.518.476-2,.435-4.2-.55a27.468,27.468,0,0,0-6.763,2.01l-.36-.857a31.916,31.916,0,0,1,5.725-1.86,27.317,27.317,0,0,1-3.27-2.183c-1.58-1.21-3.08-3.984-1.665-5.834a7.385,7.385,0,0,1,1.753-1.7c-.182-.13-.363-.264-.542-.4-2.648-2.033-4.92-7.8-2.614-10.807,1.362-1.778,4.175-2.66,7.168-2.253l-.126.92c-2.668-.365-5.143.38-6.305,1.9-1.9,2.476.137,7.736,2.443,9.5.356.273.67.5.943.673.016,0,.031-.01.047-.015a2.2,2.2,0,0,1,1.958.248.811.811,0,0,1,.29,1.14c-.179.231-.569.444-1.422.131a5.849,5.849,0,0,1-.962-.467,5.6,5.6,0,0,0-1.894,1.7c-1,1.3.218,3.554,1.493,4.533a23.325,23.325,0,0,0,4.234,2.658c2.52-.308,3.854.166,4.176.668a.646.646,0,0,1-.023.758M59.306,164.786c-1.775,2.313-1.1,5.708,1.529,7.727a6.13,6.13,0,0,0,3.1,1.263c2.144.221,4.948.164,6.12-1.365,1.2-1.566.789-5.65-2.577-8.233-3.331-2.555-6.57-1.476-8.168.608m11.482,8.191c-1.151,1.5-3.491,2.08-6.953,1.723a7.049,7.049,0,0,1-3.566-1.452c-3.045-2.334-3.792-6.3-1.7-9.028,1.872-2.439,5.634-3.722,9.47-.778,3.868,2.968,4.21,7.63,2.749,9.535"/>
          <path class="cls-2" d="M77.561,156.643a30.105,30.105,0,0,1-7.04,4.223,37.648,37.648,0,0,0-4.863,2.629l-.52-.77a39.359,39.359,0,0,1,4.981-2.7,29.376,29.376,0,0,0,6.83-4.084l.612.7Z"/>
          <g>
            <path class="cls-2" d="M27.57,96.515c-.642.835-1.614,2.405-.923,3.522a79.541,79.541,0,0,0,19.19,20.929c.174.133.363.285.567.45,1.33,1.07,3.334,2.684,5.481,2.427a5.8,5.8,0,0,0,3.748-2.54c1.895-2.469-17.778-23.65-19.8-25.335-4.226-3.241-5.966-2.452-8.267.547m28.8,25.354a6.668,6.668,0,0,1-4.376,2.9c-2.534.3-4.724-1.459-6.173-2.624-.181-.148-.365-.294-.55-.438a80.457,80.457,0,0,1-19.416-21.176c-.728-1.182-.382-2.807.977-4.579,2.466-3.211,4.822-4.358,9.575-.711.255.194,22.78,22.96,19.963,26.631"/>
            <path class="cls-2" d="M47.275,105.614a24.91,24.91,0,0,0-11.309,6.406l-.633-.678a25.8,25.8,0,0,1,11.72-6.63Zm5.855,15.8a46.267,46.267,0,0,0-8.4-.458l-.036-.93a47.235,47.235,0,0,1,8.565.468Zm-.655-4.665a53.026,53.026,0,0,0-7.765-1c-1.919-.154-3.9-.314-5.842-.619l.142-.916c1.906.3,3.873.456,5.775.61a54.608,54.608,0,0,1,7.9,1.023l-.21.9Z"/>
            <path class="cls-2" d="M50.168,112.6c-2.272-.1-4.532-.407-6.718-.7-2.163-.294-4.4-.6-6.629-.7l.042-.929c2.27.1,4.528.407,6.713.7,2.164.3,4.4.6,6.633.7l-.041.928Zm-3.063-2.772c-.62-.119-1.22-.224-1.8-.327a31.63,31.63,0,0,1-5.034-1.167l.3-.878a30.969,30.969,0,0,0,4.89,1.13c.593.1,1.2.21,1.822.33l-.176.912Z"/>
            <path class="cls-2" d="M64.2,118.661c-.844,1.1-3.412,4.446-7.155,3.531l.22-.9c2.83.691,4.893-1.492,6.2-3.2,3.225-4.2,2.367-14.793-13.214-26.747-4.3-3.3-17.16-10.985-20.552-6.564-.41.534-2.25,3.734-.543,5.045l-.565.736c-2.328-1.785-.264-5.518.371-6.346,4.161-5.424,18.3,3.662,21.856,6.392,16.12,12.369,16.836,23.551,13.384,28.05"/>
            <path class="cls-2" d="M72.744,119.753c-2.386,3.111-5.064,3.056-7.439,3.006-.323-.006-.642-.013-.954-.01l-.007-.929c.322,0,.65,0,.981.011,2.361.05,4.812.094,6.988-3.062,6.752-9.775-7.642-27.028-16.85-34.093-17.4-13.352-29.228-5.518-30.836-3.423-2.4,3.124-1.129,8.227.1,9.171a1.339,1.339,0,0,0,1.045.238l.122.921a2.254,2.254,0,0,1-1.733-.422C22.647,90,21.078,84.353,23.89,80.688c1.7-2.216,14.13-10.567,32.138,3.252,10.932,8.387,23.91,25.425,17.05,35.356-.11.16-.222.312-.334.457"/>
            <path class="cls-2" d="M24.252,92.58l-.565.737c-8.46-6.49-6.2-17.67-5.23-22.444.128-.626.257-1.268.319-1.71-.764.785-2.224,2.688-2.924,3.6l-.736-.566c3.184-4.15,3.645-4.509,4.237-4.239s.432,1.038.014,3.1c-1.01,4.992-3.114,15.384,4.886,21.522m28.334,44.793c-5.161,6.726-16.12,3.124-22.253-1.583-23.093-17.718-19.7-32.49-17.622-35.2,1.59-2.075,4.844-5.593,7.275-6.774l.407.834c-2.287,1.113-5.407,4.5-6.945,6.5-1.63,2.123-5.15,16.555,17.45,33.895,5.827,4.472,16.18,7.972,20.952,1.754,1.1-1.433,2.06-6.868,1.274-8.545a.63.63,0,0,0-.262-.322c-1.286.763-9.883,5.457-17.468-.363-4.1-3.142-20.673-22.328-16.024-28.388.3-.388.606-.832.925-1.294,1.08-1.56,2.3-3.327,3.9-4.1l.407.835c-1.378.671-2.527,2.333-3.543,3.8-.33.474-.645.93-.952,1.33-3.97,5.173,11.332,23.617,15.852,27.085,7.666,5.883,16.473.28,16.56.222l.125-.08.148.006a1.329,1.329,0,0,1,1.172.881c.946,2.02-.067,7.795-1.378,9.5M18.338,92.316l-1.467.122c-5.5.447-11.731.954-15.324,5.637L.81,97.51c3.845-5.01,10.294-5.534,15.985-6l1.462-.121.08.925Z"/>
            <g class="cls-5">
              <path class="cls-2" d="M.737,97.919,0,97.353a9.221,9.221,0,0,0,1.063-2.03,7.918,7.918,0,0,1,1.784-2.878l.613.7a6.984,6.984,0,0,0-1.543,2.545,10.014,10.014,0,0,1-1.18,2.23"/>
            </g>
            <path class="cls-2" d="M6.326,98.9c-.215.029-.435.063-.657.1-1.437.223-3.064.475-4.48-.61l.565-.737c1.1.845,2.46.634,3.773.429.23-.035.456-.07.677-.1l.122.92ZM23.064,76.526l-.928.038a23.519,23.519,0,0,0-.68-4.17,24.255,24.255,0,0,1-.7-4.337l.929-.037a23.453,23.453,0,0,0,.68,4.171,24.172,24.172,0,0,1,.7,4.335m-5.619,45.08c-.754.982-1.93.872-3.493-.328l-.54-.42a6.8,6.8,0,0,0-.857-.578l.437-.82a7.306,7.306,0,0,1,.986.663l.54.419c1.619,1.242,2.034.7,2.19.5.323-.42.162-1.355.007-2.26a10.98,10.98,0,0,1-.194-1.561l.929-.018a10.177,10.177,0,0,0,.18,1.423c.19,1.1.385,2.239-.185,2.982m7.558-6c-.432.562-4.108-.784-4.142-.8l-.349-.191.1-.407c.157-.438.458-.381,1.905-.1l-.048.247c.68.188,1.475.39,1.894.474a5.108,5.108,0,0,0-.147-1.758,8.642,8.642,0,0,1-.2-1.591l.928.01a7.9,7.9,0,0,0,.184,1.41c.188,1.008.382,2.048-.125,2.709M51.535,92.084c-.6.78-1.825.583-3.011.393A9.212,9.212,0,0,0,47,92.312l-.02-.929a9.959,9.959,0,0,1,1.69.177c.832.133,1.866.3,2.127-.042.389-.506-.464-2.009-2.073-3.654l.664-.65c1.5,1.537,3.1,3.631,2.146,4.87m-.4-11.735-.082.1c-.686.73-1.777.714-2.934.7a6.508,6.508,0,0,0-2.55.29l-.36-.857a7.288,7.288,0,0,1,2.924-.361c.946.014,1.838.027,2.244-.4h0c.318-.414-.448-1.56-1.584-2.431l.566-.737c1.4,1.075,2.554,2.694,1.776,3.709m15.892,43.4-.565.737-2.395-1.837.565-.738Z"/>
            <path class="cls-2" d="M68.029,118.227A14.7,14.7,0,0,0,65.8,120.6a22.6,22.6,0,0,1-1.49,1.725l-.66-.654c.51-.516.977-1.095,1.428-1.654a15.564,15.564,0,0,1,2.374-2.52ZM60.253,124.7a6.655,6.655,0,0,1-.935-.617c-.14-.109-.278-.219-.414-.328s-.257-.206-.385-.305A3.081,3.081,0,0,0,57,122.712l.106-.922a3.976,3.976,0,0,1,1.974.918c.134.1.267.211.4.318s.264.211.4.314a5.648,5.648,0,0,0,.8.535l-.436.82Zm.282-6.214a15.5,15.5,0,0,1-1.574,1.661,14.827,14.827,0,0,0-1.48,1.556l-.736-.566a15.377,15.377,0,0,1,1.573-1.66,14.926,14.926,0,0,0,1.48-1.556Z"/>
          </g>
          <g>
            <path class="cls-2" d="M173.87,72.052c-26.076,10.889-46.73,21.178-65,32.378l-.485-.791c18.309-11.227,39-21.537,65.123-32.445l.358.858ZM122.244,95.2l-.784.5c-6.447-10.157-13.8-22.288-19.462-35.26l.852-.371c5.634,12.913,12.966,25.006,19.394,35.133"/>
            <path class="cls-2" d="M163.6,75.452l-.836.406c-1.69-3.473-3.573-6.929-5.395-10.27-4.185-7.675-8.5-15.6-10.745-24.273-.029.045-.06.089-.092.131l-.089.116-.14.045c-.17.052-17.2,5.483-43.978,19.978l-.442-.816c25.513-13.81,42.224-19.423,43.988-20,.069-.117.132-.237.19-.361a3.5,3.5,0,0,1,.364-.634l.6-.776.224.953c2.113,9,6.6,17.232,10.94,25.192,1.826,3.35,3.715,6.814,5.415,10.308"/>
            <path class="cls-2" d="M145.016,68.585l-.792.484a95.554,95.554,0,0,1-4.82-9.363c-2.15-4.586-4.375-9.33-7.65-13.452l.726-.577c3.343,4.207,5.591,9,7.764,13.635a95.177,95.177,0,0,0,4.772,9.273m-6.731.715-.843.39c-1.933-4.172-4.142-8.284-6.279-12.26-1.258-2.342-2.559-4.765-3.777-7.152l.826-.422c1.214,2.378,2.512,4.8,3.77,7.135,2.143,3.988,4.358,8.112,6.3,12.31M132.5,72.284l-.854.363c-3.137-7.378-6.38-15.01-10.986-21.646l.763-.53c4.66,6.715,7.922,14.392,11.077,21.813m-5.043,1.975-.843.39a95.658,95.658,0,0,0-5.32-9.516,97.2,97.2,0,0,1-5.367-9.61l.842-.39a96.191,96.191,0,0,0,5.32,9.517,96.875,96.875,0,0,1,5.368,9.609"/>
            <path class="cls-2" d="M105.16,83.059l-.873-.318q1.081-2.961,2.136-5.933c2.744-7.7,5.582-15.654,9.53-23.242l.823.428c-3.918,7.532-6.745,15.46-9.478,23.126-.708,1.983-1.414,3.965-2.139,5.94"/>
            <path class="cls-2" d="M102.29,83.7a2.068,2.068,0,0,0-.354,1.2c-.06,1.747.24,4.072,1.279,4.87.81.621,2.074.1,2.743-.77a3.843,3.843,0,0,0-.542-5.187c-.824-.632-2.452-.99-3.126-.11m4.4,5.862c-.94,1.225-2.752,1.932-4.045.941-1.66-1.273-1.675-4.637-1.641-5.638a2.961,2.961,0,0,1,.545-1.732c1.076-1.4,3.3-.925,4.428-.06a4.749,4.749,0,0,1,.713,6.49m19.461-14.085a2.075,2.075,0,0,0-.354,1.2c-.059,1.747.24,4.071,1.28,4.868.81.621,2.072.105,2.742-.769a3.844,3.844,0,0,0-.542-5.187c-.824-.633-2.452-.99-3.126-.112m4.405,5.864c-.94,1.225-2.753,1.932-4.045.941-1.659-1.273-1.676-4.638-1.642-5.638a2.954,2.954,0,0,1,.546-1.732c1.075-1.4,3.3-.925,4.427-.06a4.747,4.747,0,0,1,.714,6.49"/>
            <path class="cls-2" d="M131.888,73.735a2.064,2.064,0,0,0-.354,1.2c-.06,1.746.239,4.07,1.278,4.869.81.62,2.074.1,2.744-.77a3.843,3.843,0,0,0-.543-5.188c-.823-.631-2.45-.988-3.125-.11m4.405,5.863c-.941,1.225-2.753,1.932-4.046.942-1.658-1.273-1.675-4.638-1.641-5.638a2.952,2.952,0,0,1,.546-1.732c1.075-1.4,3.3-.926,4.427-.061a4.747,4.747,0,0,1,.714,6.489"/>
            <path class="cls-2" d="M137.632,70.825a2.065,2.065,0,0,0-.354,1.2c-.06,1.747.24,4.07,1.278,4.867.811.623,2.074.105,2.743-.768a3.844,3.844,0,0,0-.542-5.188c-.824-.632-2.452-.99-3.125-.11m4.4,5.863c-.939,1.225-2.753,1.932-4.045.94-1.659-1.272-1.675-4.637-1.642-5.637a2.966,2.966,0,0,1,.546-1.732c1.075-1.4,3.3-.926,4.426-.06a4.747,4.747,0,0,1,.715,6.49"/>
            <path class="cls-2" d="M143.731,69.36a2.053,2.053,0,0,0-.354,1.2c-.06,1.746.238,4.07,1.278,4.867.812.622,2.075.1,2.744-.769a3.842,3.842,0,0,0-.542-5.187c-.824-.632-2.45-.99-3.126-.11m4.4,5.863c-.939,1.225-2.753,1.932-4.044.94-1.66-1.273-1.676-4.637-1.643-5.637a2.966,2.966,0,0,1,.546-1.732c1.075-1.4,3.3-.927,4.427-.06a4.747,4.747,0,0,1,.714,6.49"/>
          </g>
        </g>
      </g>
    </g>
  </g>
</svg>
