<?xml version="1.0" encoding="UTF-8"?>
<svg width="121px" height="41px" viewBox="0 0 121 41" version="1.1" xmlns="http://www.w3.org/2000/svg" xmlns:xlink="http://www.w3.org/1999/xlink">
    <!-- Generator: Sketch 57.1 (83088) - https://sketch.com -->
    <title>Group 23</title>
    <desc>Created with Sketch.</desc>
    <g id="Page-1" stroke="none" stroke-width="1" fill="none" fill-rule="evenodd">
        <g id="Fizmatik-Home-screen" transform="translate(-1207.000000, -1150.000000)">
            <g id="Group-23" transform="translate(1208.000000, 1150.000000)">
                <polyline id="Path-71" stroke="#1B283F" stroke-linecap="round" stroke-linejoin="round" fill-rule="nonzero" points="7.84743441 25 0 32.8474344 7.84743441 40.6948688"></polyline>
                <polyline id="Path-71-Copy" stroke="#1B283F" stroke-linecap="round" stroke-linejoin="round" fill-rule="nonzero" transform="translate(114.923717, 15.847434) scale(-1, 1) translate(-114.923717, -15.847434) " points="118.847434 8 111 15.8474344 118.847434 23.6948688"></polyline>
                <path d="M21.1374702,25 L16,40.6943359" id="Path-72" stroke="#1B283F" stroke-linecap="round" stroke-linejoin="round" fill-rule="nonzero"></path>
                <path d="M104.13747,8 L99,23.6943359" id="Path-72-Copy" stroke="#1B283F" stroke-linecap="round" stroke-linejoin="round" fill-rule="nonzero" transform="translate(101.568735, 15.847168) scale(-1, 1) translate(-101.568735, -15.847168) "></path>
                <path d="M62.66,9.404 C62.4919992,9.65600126 62.2890012,9.89399888 62.051,10.118 C61.8129988,10.3420011 61.5376682,10.5379992 61.225,10.706 C60.9123318,10.8740008 60.5670019,11.0069995 60.189,11.105 C59.8109981,11.2030005 59.3980022,11.252 58.95,11.252 C58.2033296,11.252 57.5126698,11.1213346 56.878,10.86 C56.2433302,10.5986654 55.6973356,10.2370023 55.24,9.775 C54.7826644,9.31299769 54.4256679,8.76466984 54.169,8.13 C53.912332,7.49533016 53.784,6.80000378 53.784,6.044 C53.784,5.28799622 53.9146654,4.59266984 54.176,3.958 C54.4373346,3.32333016 54.7989977,2.77500231 55.261,2.313 C55.7230023,1.85099769 56.2689968,1.48933464 56.899,1.228 C57.5290031,0.96666536 58.212663,0.836 58.95,0.836 C59.3140018,0.836 59.6709982,0.87333296 60.021,0.948 C60.3710017,1.02266704 60.6999985,1.12766599 61.008,1.263 C61.3160015,1.39833401 61.5959987,1.56166571 61.848,1.753 C62.1000013,1.94433429 62.3099992,2.16133212 62.478,2.404 L61.638,3.02 C61.5353328,2.86133254 61.3976675,2.70266746 61.225,2.544 C61.0523325,2.38533254 60.8493345,2.24533394 60.616,2.124 C60.3826655,2.00266606 60.1283347,1.90466704 59.853,1.83 C59.5776653,1.75533296 59.2813349,1.718 58.964,1.718 C58.3199968,1.718 57.7436692,1.8346655 57.235,2.068 C56.7263308,2.3013345 56.2946684,2.61633135 55.94,3.013 C55.5853316,3.40966865 55.3146676,3.86933072 55.128,4.392 C54.9413324,4.91466928 54.848,5.46533044 54.848,6.044 C54.848,6.62266956 54.9436657,7.17333072 55.135,7.696 C55.3263343,8.21866928 55.5993316,8.67833135 55.954,9.075 C56.3086684,9.47166865 56.7403308,9.7866655 57.249,10.02 C57.7576692,10.2533345 58.3293302,10.37 58.964,10.37 C59.5333362,10.37 60.0746641,10.2533345 60.588,10.02 C61.1013359,9.7866655 61.5306649,9.4133359 61.876,8.9 L62.66,9.404 Z M69.198,2.684 C68.9833323,2.38533184 68.7080017,2.14500091 68.372,1.963 C68.0359983,1.78099909 67.6300024,1.69 67.154,1.69 C66.9113321,1.69 66.6640013,1.72733296 66.412,1.802 C66.1599987,1.87666704 65.9313344,1.99099923 65.726,2.145 C65.5206656,2.29900077 65.3550006,2.4926655 65.229,2.726 C65.1029994,2.9593345 65.04,3.23466508 65.04,3.552 C65.04,3.86933492 65.1006661,4.13066564 65.222,4.336 C65.3433339,4.54133436 65.5043323,4.71633261 65.705,4.861 C65.9056677,5.00566739 66.134332,5.1246662 66.391,5.218 C66.6476679,5.3113338 66.9159986,5.4046662 67.196,5.498 C67.5413351,5.61000056 67.8889982,5.73133268 68.239,5.862 C68.5890017,5.99266732 68.9039986,6.16299895 69.184,6.373 C69.4640014,6.58300105 69.6926658,6.84899839 69.87,7.171 C70.0473342,7.49300161 70.136,7.90133086 70.136,8.396 C70.136,8.89066914 70.0403343,9.31766487 69.849,9.677 C69.6576657,10.0363351 69.4103348,10.3326655 69.107,10.566 C68.8036651,10.7993345 68.4583353,10.9719994 68.071,11.084 C67.6836647,11.1960006 67.294002,11.252 66.902,11.252 C66.6033318,11.252 66.3046682,11.221667 66.006,11.161 C65.7073318,11.100333 65.422668,11.0093339 65.152,10.888 C64.881332,10.7666661 64.6293345,10.6126676 64.396,10.426 C64.1626655,10.2393324 63.9573342,10.0246679 63.78,9.782 L64.648,9.138 C64.8626677,9.49266844 65.1636647,9.78899881 65.551,10.027 C65.9383353,10.2650012 66.3933307,10.384 66.916,10.384 C67.1680013,10.384 67.4246654,10.3443337 67.686,10.265 C67.9473346,10.1856663 68.1829989,10.0643341 68.393,9.901 C68.603001,9.73766585 68.775666,9.53700119 68.911,9.299 C69.046334,9.06099881 69.114,8.78333492 69.114,8.466 C69.114,8.12066494 69.046334,7.83366781 68.911,7.605 C68.775666,7.37633219 68.5960011,7.18500077 68.372,7.031 C68.1479989,6.87699923 67.8913348,6.74866718 67.602,6.646 C67.3126652,6.54333282 67.0093349,6.44066718 66.692,6.338 C66.3653317,6.23533282 66.0433349,6.11866732 65.726,5.988 C65.4086651,5.85733268 65.1240013,5.68700105 64.872,5.477 C64.6199987,5.26699895 64.4170008,5.00800154 64.263,4.7 C64.1089992,4.39199846 64.032,4.01400224 64.032,3.566 C64.032,3.08999762 64.1276657,2.67933506 64.319,2.334 C64.5103343,1.98866494 64.7599985,1.70400112 65.068,1.48 C65.3760015,1.25599888 65.7166648,1.09266718 66.09,0.99 C66.4633352,0.88733282 66.8319982,0.836 67.196,0.836 C67.8680034,0.836 68.4419976,0.95499881 68.918,1.193 C69.3940024,1.43100119 69.7533321,1.7133317 69.996,2.04 L69.198,2.684 Z M77.094,2.684 C76.8793323,2.38533184 76.6040017,2.14500091 76.268,1.963 C75.9319983,1.78099909 75.5260024,1.69 75.05,1.69 C74.8073321,1.69 74.5600013,1.72733296 74.308,1.802 C74.0559987,1.87666704 73.8273344,1.99099923 73.622,2.145 C73.4166656,2.29900077 73.2510006,2.4926655 73.125,2.726 C72.9989994,2.9593345 72.936,3.23466508 72.936,3.552 C72.936,3.86933492 72.9966661,4.13066564 73.118,4.336 C73.2393339,4.54133436 73.4003323,4.71633261 73.601,4.861 C73.8016677,5.00566739 74.030332,5.1246662 74.287,5.218 C74.5436679,5.3113338 74.8119986,5.4046662 75.092,5.498 C75.4373351,5.61000056 75.7849982,5.73133268 76.135,5.862 C76.4850017,5.99266732 76.7999986,6.16299895 77.08,6.373 C77.3600014,6.58300105 77.5886658,6.84899839 77.766,7.171 C77.9433342,7.49300161 78.032,7.90133086 78.032,8.396 C78.032,8.89066914 77.9363343,9.31766487 77.745,9.677 C77.5536657,10.0363351 77.3063348,10.3326655 77.003,10.566 C76.6996651,10.7993345 76.3543353,10.9719994 75.967,11.084 C75.5796647,11.1960006 75.190002,11.252 74.798,11.252 C74.4993318,11.252 74.2006682,11.221667 73.902,11.161 C73.6033318,11.100333 73.318668,11.0093339 73.048,10.888 C72.777332,10.7666661 72.5253345,10.6126676 72.292,10.426 C72.0586655,10.2393324 71.8533342,10.0246679 71.676,9.782 L72.544,9.138 C72.7586677,9.49266844 73.0596647,9.78899881 73.447,10.027 C73.8343353,10.2650012 74.2893307,10.384 74.812,10.384 C75.0640013,10.384 75.3206654,10.3443337 75.582,10.265 C75.8433346,10.1856663 76.0789989,10.0643341 76.289,9.901 C76.499001,9.73766585 76.671666,9.53700119 76.807,9.299 C76.942334,9.06099881 77.01,8.78333492 77.01,8.466 C77.01,8.12066494 76.942334,7.83366781 76.807,7.605 C76.671666,7.37633219 76.4920011,7.18500077 76.268,7.031 C76.0439989,6.87699923 75.7873348,6.74866718 75.498,6.646 C75.2086652,6.54333282 74.9053349,6.44066718 74.588,6.338 C74.2613317,6.23533282 73.9393349,6.11866732 73.622,5.988 C73.3046651,5.85733268 73.0200013,5.68700105 72.768,5.477 C72.5159987,5.26699895 72.3130008,5.00800154 72.159,4.7 C72.0049992,4.39199846 71.928,4.01400224 71.928,3.566 C71.928,3.08999762 72.0236657,2.67933506 72.215,2.334 C72.4063343,1.98866494 72.6559985,1.70400112 72.964,1.48 C73.2720015,1.25599888 73.6126648,1.09266718 73.986,0.99 C74.3593352,0.88733282 74.7279982,0.836 75.092,0.836 C75.7640034,0.836 76.3379976,0.95499881 76.814,1.193 C77.2900024,1.43100119 77.6493321,1.7133317 77.892,2.04 L77.094,2.684 Z" id="CSS" fill="#212D44"></path>
                <path d="M29,36.5 L77,36.5" id="Path-73" stroke="#1B283F" fill-rule="nonzero"></path>
                <path d="M42,18.5 L90,18.5" id="Path-73-Copy" stroke="#1B283F" fill-rule="nonzero"></path>
            </g>
        </g>
    </g>
</svg>