<?xml version="1.0" encoding="UTF-8"?>
<svg width="36px" height="31px" viewBox="0 0 36 31" version="1.1" xmlns="http://www.w3.org/2000/svg" xmlns:xlink="http://www.w3.org/1999/xlink">
    <!-- Generator: Sketch 57.1 (83088) - https://sketch.com -->
    <title>Group 25</title>
    <desc>Created with Sketch.</desc>
    <g id="Page-1" stroke="none" stroke-width="1" fill="none" fill-rule="evenodd">
        <g id="Fizmatik-Home-screen" transform="translate(-1156.000000, -1241.000000)" fill="#5D6A83" fill-rule="nonzero">
            <g id="Group-25" transform="translate(1156.000000, 1241.000000)">
                <circle id="Oval" cx="1.5" cy="1.5" r="1.5"></circle>
                <circle id="Oval-Copy-15" cx="1.5" cy="8.5" r="1.5"></circle>
                <circle id="Oval-Copy-19" cx="1.5" cy="15.5" r="1.5"></circle>
                <circle id="Oval-Copy-23" cx="1.5" cy="22.5" r="1.5"></circle>
                <circle id="Oval-Copy-27" cx="1.5" cy="29.5" r="1.5"></circle>
                <circle id="Oval-Copy-12" cx="12.5" cy="1.5" r="1.5"></circle>
                <circle id="Oval-Copy-16" cx="12.5" cy="8.5" r="1.5"></circle>
                <circle id="Oval-Copy-20" cx="12.5" cy="15.5" r="1.5"></circle>
                <circle id="Oval-Copy-24" cx="12.5" cy="22.5" r="1.5"></circle>
                <circle id="Oval-Copy-28" cx="12.5" cy="29.5" r="1.5"></circle>
                <circle id="Oval-Copy-13" cx="23.5" cy="1.5" r="1.5"></circle>
                <circle id="Oval-Copy-17" cx="23.5" cy="8.5" r="1.5"></circle>
                <circle id="Oval-Copy-21" cx="23.5" cy="15.5" r="1.5"></circle>
                <circle id="Oval-Copy-25" cx="23.5" cy="22.5" r="1.5"></circle>
                <circle id="Oval-Copy-29" cx="23.5" cy="29.5" r="1.5"></circle>
                <circle id="Oval-Copy-14" cx="34.5" cy="1.5" r="1.5"></circle>
                <circle id="Oval-Copy-18" cx="34.5" cy="8.5" r="1.5"></circle>
                <circle id="Oval-Copy-22" cx="34.5" cy="15.5" r="1.5"></circle>
                <circle id="Oval-Copy-26" cx="34.5" cy="22.5" r="1.5"></circle>
                <circle id="Oval-Copy-30" cx="34.5" cy="29.5" r="1.5"></circle>
            </g>
        </g>
    </g>
</svg>