<?xml version="1.0" encoding="UTF-8"?>
<svg width="662px" height="753px" viewBox="0 0 662 753" version="1.1" xmlns="http://www.w3.org/2000/svg" xmlns:xlink="http://www.w3.org/1999/xlink">
    <!-- Generator: Sketch 57.1 (83088) - https://sketch.com -->
    <title>Group 6</title>
    <desc>Created with Sketch.</desc>
    <defs>
        <path d="M457,716 C687,852.556127 869,604.001832 873,349.5 C877,94.9981683 784.750456,94.9981683 555,94.9981683 C433.4812,94.9981683 290.849629,-33.5122652 180,8.60644691 C81.2709234,46.1198024 -44,158.011592 41,349.5 C126,540.988408 -64.2732309,674.779046 25,742 C97.6824796,796.728451 227,579.443873 457,716 Z" id="path-1"></path>
    </defs>
    <g id="Page-1" stroke="none" stroke-width="1" fill="none" fill-rule="evenodd">
        <g id="Fizmatik-Home-screen" transform="translate(0.000000, -764.000000)">
            <g id="Group-6" transform="translate(-172.000000, 763.000000)">
                <g id="Group-22">
                    <mask id="mask-2" fill="white">
                        <use xlink:href="#path-1"></use>
                    </mask>
                    <g id="Mask" fill-rule="nonzero"></g>
                    <g mask="url(#mask-2)" fill-rule="nonzero" stroke="#E6F1F5" stroke-dasharray="3" stroke-linecap="square">
                        <g transform="translate(53.000000, -17.000000)">
                            <path d="M130,-8.52651283e-13 L130,780" id="Line-3"></path>
                            <path d="M260,-8.52651283e-13 L260,780" id="Line-3-Copy"></path>
                            <path d="M390,-8.52651283e-13 L390,780" id="Line-3-Copy-3"></path>
                            <path d="M521,-8.52651283e-13 L521,780" id="Line-3-Copy-5"></path>
                            <path d="M651,-8.52651283e-13 L651,780" id="Line-3-Copy-7"></path>
                            <path d="M716,-8.52651283e-13 L716,780" id="Line-3-Copy-19"></path>
                            <path d="M390.5,-325.5 L390.5,455.5" id="Line-3" transform="translate(390.500000, 65.000000) rotate(-270.000000) translate(-390.500000, -65.000000) "></path>
                            <path d="M390.5,-65.5 L390.5,715.5" id="Line-3-Copy-12" transform="translate(390.500000, 325.000000) rotate(-270.000000) translate(-390.500000, -325.000000) "></path>
                            <path d="M390.5,-195.5 L390.5,585.5" id="Line-3-Copy-10" transform="translate(390.500000, 195.000000) rotate(-270.000000) translate(-390.500000, -195.000000) "></path>
                            <path d="M390.5,64.5 L390.5,845.5" id="Line-3-Copy-13" transform="translate(390.500000, 455.000000) rotate(-270.000000) translate(-390.500000, -455.000000) "></path>
                            <path d="M390.5,259.5 L390.5,1040.5" id="Line-3-Copy-16" transform="translate(390.500000, 650.000000) rotate(-270.000000) translate(-390.500000, -650.000000) "></path>
                            <path d="M390.5,-260.5 L390.5,520.5" id="Line-3-Copy-9" transform="translate(390.500000, 130.000000) rotate(-270.000000) translate(-390.500000, -130.000000) "></path>
                            <path d="M390.5,-0.5 L390.5,780.5" id="Line-3-Copy-14" transform="translate(390.500000, 390.000000) rotate(-270.000000) translate(-390.500000, -390.000000) "></path>
                            <path d="M390.5,194.5 L390.5,975.5" id="Line-3-Copy-17" transform="translate(390.500000, 585.000000) rotate(-270.000000) translate(-390.500000, -585.000000) "></path>
                            <path d="M390.5,-130.5 L390.5,650.5" id="Line-3-Copy-11" transform="translate(390.500000, 260.000000) rotate(-270.000000) translate(-390.500000, -260.000000) "></path>
                            <path d="M390.5,129.5 L390.5,910.5" id="Line-3-Copy-15" transform="translate(390.500000, 520.000000) rotate(-270.000000) translate(-390.500000, -520.000000) "></path>
                            <path d="M390.5,324.5 L390.5,1105.5" id="Line-3-Copy-18" transform="translate(390.500000, 715.000000) rotate(-270.000000) translate(-390.500000, -715.000000) "></path>
                            <path d="M195,-8.52651283e-13 L195,780" id="Line-3-Copy-2"></path>
                            <path d="M325,-8.52651283e-13 L325,780" id="Line-3-Copy-4"></path>
                            <path d="M456,-8.52651283e-13 L456,780" id="Line-3-Copy-6"></path>
                            <path d="M586,-8.52651283e-13 L586,780" id="Line-3-Copy-8"></path>
                        </g>
                    </g>
                </g>
                <g id="Group-3" transform="translate(498.000000, 362.000000)" fill-rule="nonzero" stroke="#CAE3ED" stroke-linecap="square">
                    <path d="M11,0.5 L11,21.5" id="Line-4"></path>
                    <path d="M11,0.5 L11,21.5" id="Line-4" transform="translate(11.000000, 11.000000) rotate(-270.000000) translate(-11.000000, -11.000000) "></path>
                </g>
                <g id="Group-3-Copy-7" transform="translate(498.000000, 167.000000)" fill-rule="nonzero" stroke="#CAE3ED" stroke-linecap="square">
                    <path d="M11,0.5 L11,21.5" id="Line-4"></path>
                    <path d="M11,0.5 L11,21.5" id="Line-4" transform="translate(11.000000, 11.000000) rotate(-270.000000) translate(-11.000000, -11.000000) "></path>
                </g>
                <g id="Group-3-Copy-11" transform="translate(432.000000, 232.000000)" fill-rule="nonzero" stroke="#CAE3ED" stroke-linecap="square">
                    <path d="M11,0.5 L11,21.5" id="Line-4"></path>
                    <path d="M11,0.5 L11,21.5" id="Line-4" transform="translate(11.000000, 11.000000) rotate(-270.000000) translate(-11.000000, -11.000000) "></path>
                </g>
                <g id="Group-3-Copy-12" transform="translate(237.000000, 102.000000)" fill-rule="nonzero" stroke="#CAE3ED" stroke-linecap="square">
                    <path d="M11,0.5 L11,21.5" id="Line-4"></path>
                    <path d="M11,0.5 L11,21.5" id="Line-4" transform="translate(11.000000, 11.000000) rotate(-270.000000) translate(-11.000000, -11.000000) "></path>
                </g>
                <g id="Group-3-Copy-13" transform="translate(302.000000, 102.000000)" fill-rule="nonzero" stroke="#CAE3ED" stroke-linecap="square">
                    <path d="M11,0.5 L11,21.5" id="Line-4"></path>
                    <path d="M11,0.5 L11,21.5" id="Line-4" transform="translate(11.000000, 11.000000) rotate(-270.000000) translate(-11.000000, -11.000000) "></path>
                </g>
                <g id="Group-3-Copy-14" transform="translate(237.000000, 167.000000)" fill-rule="nonzero" stroke="#CAE3ED" stroke-linecap="square">
                    <path d="M11,0.5 L11,21.5" id="Line-4"></path>
                    <path d="M11,0.5 L11,21.5" id="Line-4" transform="translate(11.000000, 11.000000) rotate(-270.000000) translate(-11.000000, -11.000000) "></path>
                </g>
                <g id="Group-3-Copy-8" transform="translate(563.000000, 167.000000)" fill-rule="nonzero" stroke="#CAE3ED" stroke-linecap="square">
                    <path d="M11,0.5 L11,21.5" id="Line-4"></path>
                    <path d="M11,0.5 L11,21.5" id="Line-4" transform="translate(11.000000, 11.000000) rotate(-270.000000) translate(-11.000000, -11.000000) "></path>
                </g>
                <g id="Group-3-Copy-9" transform="translate(628.000000, 167.000000)" fill-rule="nonzero" stroke="#CAE3ED" stroke-linecap="square">
                    <path d="M11,0.5 L11,21.5" id="Line-4"></path>
                    <path d="M11,0.5 L11,21.5" id="Line-4" transform="translate(11.000000, 11.000000) rotate(-270.000000) translate(-11.000000, -11.000000) "></path>
                </g>
                <g id="Group-3-Copy-10" transform="translate(628.000000, 232.000000)" fill-rule="nonzero" stroke="#CAE3ED" stroke-linecap="square">
                    <path d="M11,0.5 L11,21.5" id="Line-4"></path>
                    <path d="M11,0.5 L11,21.5" id="Line-4" transform="translate(11.000000, 11.000000) rotate(-270.000000) translate(-11.000000, -11.000000) "></path>
                </g>
                <g id="Group-3-Copy" transform="translate(563.000000, 362.000000)" fill-rule="nonzero" stroke="#CAE3ED" stroke-linecap="square">
                    <path d="M11,0.5 L11,21.5" id="Line-4"></path>
                    <path d="M11,0.5 L11,21.5" id="Line-4" transform="translate(11.000000, 11.000000) rotate(-270.000000) translate(-11.000000, -11.000000) "></path>
                </g>
                <g id="Group-3-Copy-2" transform="translate(563.000000, 427.000000)" fill-rule="nonzero" stroke="#CAE3ED" stroke-linecap="square">
                    <path d="M11,0.5 L11,21.5" id="Line-4"></path>
                    <path d="M11,0.5 L11,21.5" id="Line-4" transform="translate(11.000000, 11.000000) rotate(-270.000000) translate(-11.000000, -11.000000) "></path>
                </g>
                <g id="Group-3-Copy-16" transform="translate(563.000000, 622.000000)" fill-rule="nonzero" stroke="#CAE3ED" stroke-linecap="square">
                    <path d="M11,0.5 L11,21.5" id="Line-4"></path>
                    <path d="M11,0.5 L11,21.5" id="Line-4" transform="translate(11.000000, 11.000000) rotate(-270.000000) translate(-11.000000, -11.000000) "></path>
                </g>
                <g id="Group-3-Copy-18" transform="translate(693.000000, 557.000000)" fill-rule="nonzero" stroke="#CAE3ED" stroke-linecap="square">
                    <path d="M11,0.5 L11,21.5" id="Line-4"></path>
                    <path d="M11,0.5 L11,21.5" id="Line-4" transform="translate(11.000000, 11.000000) rotate(-270.000000) translate(-11.000000, -11.000000) "></path>
                </g>
                <g id="Group-3-Copy-20" transform="translate(693.000000, 622.000000)" fill-rule="nonzero" stroke="#CAE3ED" stroke-linecap="square">
                    <path d="M11,0.5 L11,21.5" id="Line-4"></path>
                    <path d="M11,0.5 L11,21.5" id="Line-4" transform="translate(11.000000, 11.000000) rotate(-270.000000) translate(-11.000000, -11.000000) "></path>
                </g>
                <g id="Group-3-Copy-4" transform="translate(432.000000, 427.000000)" fill-rule="nonzero" stroke="#CAE3ED" stroke-linecap="square">
                    <path d="M11,0.5 L11,21.5" id="Line-4"></path>
                    <path d="M11,0.5 L11,21.5" id="Line-4" transform="translate(11.000000, 11.000000) rotate(-270.000000) translate(-11.000000, -11.000000) "></path>
                </g>
                <g id="Group-3-Copy-5" transform="translate(367.000000, 427.000000)" fill-rule="nonzero" stroke="#CAE3ED" stroke-linecap="square">
                    <path d="M11,0.5 L11,21.5" id="Line-4"></path>
                    <path d="M11,0.5 L11,21.5" id="Line-4" transform="translate(11.000000, 11.000000) rotate(-270.000000) translate(-11.000000, -11.000000) "></path>
                </g>
                <g id="Group-3-Copy-6" transform="translate(302.000000, 362.000000)" fill-rule="nonzero" stroke="#CAE3ED" stroke-linecap="square">
                    <path d="M11,0.5 L11,21.5" id="Line-4"></path>
                    <path d="M11,0.5 L11,21.5" id="Line-4" transform="translate(11.000000, 11.000000) rotate(-270.000000) translate(-11.000000, -11.000000) "></path>
                </g>
                <g id="Group-3-Copy-15" transform="translate(172.000000, 232.000000)" fill-rule="nonzero" stroke="#CAE3ED" stroke-linecap="square">
                    <path d="M11,0.5 L11,21.5" id="Line-4"></path>
                    <path d="M11,0.5 L11,21.5" id="Line-4" transform="translate(11.000000, 11.000000) rotate(-270.000000) translate(-11.000000, -11.000000) "></path>
                </g>
                <g id="Group-3-Copy-3" transform="translate(628.000000, 427.000000)" fill-rule="nonzero" stroke="#CAE3ED" stroke-linecap="square">
                    <path d="M11,0.5 L11,21.5" id="Line-4"></path>
                    <path d="M11,0.5 L11,21.5" id="Line-4" transform="translate(11.000000, 11.000000) rotate(-270.000000) translate(-11.000000, -11.000000) "></path>
                </g>
                <g id="Group-3-Copy-17" transform="translate(628.000000, 622.000000)" fill-rule="nonzero" stroke="#CAE3ED" stroke-linecap="square">
                    <path d="M11,0.5 L11,21.5" id="Line-4"></path>
                    <path d="M11,0.5 L11,21.5" id="Line-4" transform="translate(11.000000, 11.000000) rotate(-270.000000) translate(-11.000000, -11.000000) "></path>
                </g>
                <g id="Group-3-Copy-21" transform="translate(628.000000, 687.000000)" fill-rule="nonzero" stroke="#CAE3ED" stroke-linecap="square">
                    <path d="M11,0.5 L11,21.5" id="Line-4"></path>
                    <path d="M11,0.5 L11,21.5" id="Line-4" transform="translate(11.000000, 11.000000) rotate(-270.000000) translate(-11.000000, -11.000000) "></path>
                </g>
                <g id="Group-3-Copy-19" transform="translate(758.000000, 557.000000)" fill-rule="nonzero" stroke="#CAE3ED" stroke-linecap="square">
                    <path d="M11,0.5 L11,21.5" id="Line-4"></path>
                    <path d="M11,0.5 L11,21.5" id="Line-4" transform="translate(11.000000, 11.000000) rotate(-270.000000) translate(-11.000000, -11.000000) "></path>
                </g>
            </g>
        </g>
    </g>
</svg>